<?xml version="1.0" encoding="utf-8"?>
<!-- Generator: Adobe Illustrator 25.2.3, SVG Export Plug-In . SVG Version: 6.00 Build 0)  -->
<svg version="1.1" id="Layer_1" xmlns="http://www.w3.org/2000/svg" xmlns:xlink="http://www.w3.org/1999/xlink" x="0px" y="0px"
	 viewBox="0 0 2078.23 880.03" style="enable-background:new 0 0 2078.23 880.03;" xml:space="preserve">
<style type="text/css">
	.st0{fill:none;}
	.st1{fill:#80A5FE;}
	.st2{fill:#FF7096;}
	.st3{fill:#FF9F40;}
	.st4{fill:#FFC03F;}
	.st5{fill:#7FE5FE;}
	.st6{fill:#7FB69F;}
	.st7{fill:#3FC6FE;}
	.st8{fill:#3FE5FF;}
	.st9{fill:#3FB6E0;}
	.st10{fill:#2FBECF;}
	.st11{fill:#DFAF1F;}
	.st12{fill:#57D2A6;}
	.st13{fill:#1FD6DE;}
	.st14{fill:#FEFF7F;}
	.st15{fill:#4FE6AF;}
	.st16{fill:#AFDF4F;}
	.st17{fill:#7FFFFF;}
	.st18{fill:#1FE6DF;}
	.st19{fill:#DFBF1F;}
	.st20{fill:#C0FF3F;}
	.st21{fill:#3EFFBE;}
	.st22{fill:#9FFF5F;}
	.st23{fill:#6FBE8F;}
	.st24{fill:#7F85BF;}
	.st25{fill:#58A8E3;}
	.st26{fill:#002B51;}
</style>
<path class="st0" d="M689.98,352.07c-15.2-20.92-36.2-37.9-60.32-47.22C653.83,314.23,674.94,331.37,689.98,352.07z"/>
<path class="st0" d="M519.15,282.28c-0.89-3.4-1.93-6.76-3.12-10.06C517.22,275.52,518.26,278.88,519.15,282.28z"/>
<path class="st0" d="M354.73,344.89c-1.01,0.31-2.01,0.62-3.01,0.94C352.72,345.51,353.73,345.2,354.73,344.89z"/>
<path class="st0" d="M618.6,301.18c0.04,0.01,0.07,0.02,0.1,0.03C618.67,301.2,618.64,301.19,618.6,301.18z"/>
<path class="st0" d="M347.67,347.17c-3.51,1.18-7.01,2.41-10.49,3.62l0.02,1l-0.02-1C340.66,349.58,344.15,348.35,347.67,347.17z"/>
<path class="st0" d="M455.68,603.36c-0.13,0.1-0.26,0.2-0.39,0.31C455.42,603.56,455.55,603.46,455.68,603.36z"/>
<path class="st0" d="M451.63,606.54c-0.75,0.57-1.51,1.14-2.27,1.71C450.12,607.68,450.88,607.12,451.63,606.54z"/>
<path class="st0" d="M516.03,272.22c-0.8-2.2-1.66-4.38-2.6-6.52C514.37,267.84,515.23,270.01,516.03,272.22z"/>
<path class="st0" d="M467.87,332.48c2.08-1.25,4.17-2.47,6.28-3.67C472.04,330.01,469.95,331.23,467.87,332.48z"/>
<path class="st0" d="M560.43,297.88c1.32-0.18,2.65-0.33,3.98-0.48C563.08,297.55,561.75,297.7,560.43,297.88z"/>
<path class="st0" d="M528.94,304.74c0.34-0.1,0.68-0.19,1.02-0.29C529.62,304.55,529.28,304.64,528.94,304.74z"/>
<path class="st0" d="M524.13,306.21l-0.96,0.33c1.3-0.42,2.62-0.83,3.93-1.23C526.11,305.6,525.12,305.9,524.13,306.21z"/>
<path class="st0" d="M483.69,323.6c3.4-1.78,6.84-3.5,10.31-5.14C490.53,320.1,487.09,321.82,483.69,323.6z"/>
<path class="st0" d="M510.41,259.35c-1.08-2.08-2.24-4.12-3.47-6.13C508.17,255.23,509.33,257.27,510.41,259.35z"/>
<path class="st0" d="M609.6,299.07l-1.04-0.2c0.37,0.07,0.73,0.15,1.1,0.22C609.64,299.08,609.62,299.07,609.6,299.07z"/>
<path class="st0" d="M447.55,609.61c-15.37,11.2-32.39,20.61-49.13,28.28C415.59,630.02,432.29,620.78,447.55,609.61z"/>
<path class="st0" d="M626.97,303.85c0.73,0.26,1.46,0.53,2.18,0.81C628.42,304.38,627.7,304.11,626.97,303.85z"/>
<path class="st0" d="M498.84,316.21c4.46-2.02,8.96-3.93,13.52-5.71C507.8,312.28,503.29,314.2,498.84,316.21z"/>
<path class="st0" d="M608.56,298.87c-14.22-2.83-28.68-3.11-43-1.6C579.96,295.77,594.49,296.07,608.56,298.87z"/>
<path class="st0" d="M411.93,555.48c-0.03-0.03-0.05-0.05-0.08-0.08C411.95,555.5,411.95,555.51,411.93,555.48z"/>
<path class="st0" d="M472.11,588.45c0.47-0.49,0.92-0.98,1.35-1.45c-1.03,1.09-2.08,2.16-3.14,3.23
	C470.91,589.63,471.52,589.05,472.11,588.45z"/>
<path class="st0" d="M522.86,303.03c-0.24-2.33-0.53-4.66-0.88-6.98C522.33,298.38,522.62,300.7,522.86,303.03z"/>
<path class="st0" d="M624.23,302.9c0.43,0.14,0.85,0.29,1.28,0.44C625.08,303.19,624.66,303.04,624.23,302.9z"/>
<path class="st0" d="M418.52,342.26c-0.04-0.04-0.08-0.08-0.12-0.12C418.44,342.18,418.48,342.22,418.52,342.26L418.52,342.26z"/>
<path class="st0" d="M520.75,289.13c-0.47-2.3-1-4.58-1.6-6.85C519.75,284.54,520.28,286.83,520.75,289.13z"/>
<path class="st0" d="M621.45,302.01c0.19,0.06,0.39,0.12,0.58,0.18C621.83,302.13,621.64,302.07,621.45,302.01z"/>
<path class="st0" d="M468.72,591.81c-0.42,0.41-0.85,0.82-1.28,1.22C467.87,592.63,468.29,592.22,468.72,591.81z"/>
<path class="st1" d="M510.41,259.35c1.08,2.08,2.09,4.19,3.03,6.34c0.94,2.15,1.8,4.32,2.6,6.52c1.19,3.3,2.23,6.66,3.12,10.06
	c0.6,2.27,1.13,4.55,1.6,6.85c0.47,2.3,0.88,4.61,1.23,6.93c0.35,2.32,0.64,4.65,0.88,6.98c0.12,1.17,0.22,2.33,0.31,3.5l0.96-0.33
	c0.99-0.31,1.98-0.6,2.97-0.9c0.61-0.19,1.22-0.38,1.84-0.56c0.34-0.1,0.68-0.2,1.02-0.29c9.92-2.9,20.14-5.18,30.47-6.56
	c1.32-0.18,2.65-0.33,3.98-0.48c0.38-0.04,0.77-0.1,1.15-0.14c14.32-1.51,28.78-1.23,43,1.6c-2.8-10.08-5.73-20.16-9.37-29.98
	c-25.17-20.39-55.82-33.15-86.78-41.94c-11.37-2.99-22.78-6.07-34.54-7.01c4.09,3.73,8.15,7.53,12.02,11.51
	c6.45,6.63,12.38,13.74,17.04,21.78C508.17,255.23,509.33,257.27,510.41,259.35z"/>
<path class="st2" d="M245.82,257.56c33.82,0.65,66.62,11.8,96.23,27.62c1.29-7.07,3.07-14.01,5.29-20.82
	c0.88-2.72,1.84-5.42,2.86-8.1c2.54-6.69,5.49-13.23,8.78-19.61c0.66-1.27,1.33-2.54,2.01-3.8c1.37-2.52,2.79-5.02,4.25-7.49
	c0.73-1.23,1.48-2.46,2.23-3.68c-13,3.44-25.95,7.65-37.66,14.4c-3.13,1.96-6.71,2.82-10.43,2.54
	c-36.6-0.88-74.14,4.78-107.06,21.39C223.51,259.54,234.59,257.21,245.82,257.56z"/>
<path class="st3" d="M206.76,289.13c-7.77,37.95-11.9,77.76-2.8,115.86c4.09,17.11,11.67,33.52,23.1,46.86
	c0.8-1.51,1.58-3.15,2.33-4.94c2.32-5.71,4.13-11.83,5.88-17.76c2.02-6.82,4.11-13.88,7.04-20.63c3.99-8.85,9.29-15.11,15.8-18.65
	c4.82-2.56,10.07-3.9,15.22-3.9c4.09,0,7.92,0.84,11.38,2.51c0.37,0.17,0.73,0.38,1.09,0.57c4.42-4.56,9.03-8.95,13.86-13.11
	c11.37-9.63,23.64-18.55,37.52-24.15l0-0.02l-0.02-1c-0.72-21.98,1.55-43.9,4.87-65.6c-29.61-15.83-62.41-26.97-96.23-27.62
	c-11.23-0.35-22.31,1.98-33.51,2.45l-0.78,0.49C213.69,270.38,208.25,279.58,206.76,289.13z"/>
<path class="st3" d="M273.17,403.21c-5.3,0-10.59,3.42-13.16,8.5c-3.54,6.66-5.75,13.73-7.94,21.18
	c6.4-10.34,13.43-20.29,21.14-29.67C273.2,403.21,273.19,403.21,273.17,403.21z"/>
<path class="st4" d="M136.11,440.03c4.49-4.58,9.14-9.31,14.11-13.64c6.24-5.41,15.84-12.59,27.2-12.59c0.44,0,0.89,0.01,1.34,0.03
	c9.27,0.14,18.59,5.2,24.82,13.53c7.51,10.05,12.93,21.27,17.87,32.44c2.04-2.08,3.89-4.7,5.61-7.95
	c-11.43-13.34-19.01-29.76-23.1-46.86c-9.1-38.09-4.97-77.91,2.8-115.86c1.49-9.55,6.93-18.75,4.76-28.63
	c-28.71,13.52-56.37,33.64-70.77,62.71c-13.97,28.05-17.22,60.75-12.02,91.44c-4.54,4.01-8.94,8.18-13.17,12.56
	c3.65,7.35,7.63,14.49,11.86,21.47C130.37,445.87,133.28,442.91,136.11,440.03z"/>
<path class="st4" d="M216.95,481.9c-3.78,1.24-7.71,1.9-11.71,1.9c-7.82,0-15.28-2.48-21.01-6.97c-2.76-1.96-4.94-4.53-7.05-7.01
	c-2.19-2.57-4.25-5-6.88-6.57c-3.58-2.12-7.84-3.29-11.98-3.29c-3.01,0-5.84,0.59-8.43,1.75c-2.28,1.02-4.53,2.11-6.78,3.19
	c-1.28,0.62-2.58,1.24-3.88,1.85c19.43,27.54,43.14,52.06,68.84,73.99c3.84-16.03,8.66-31.85,14.47-47.29
	C220.59,489.57,218.74,485.7,216.95,481.9z"/>
<path class="st4" d="M177.71,427.28c-3.22,0-6.31,0.81-8.94,2.35c-6.48,3.56-11.84,8.46-17.15,13.82c2.28-0.37,4.59-0.58,6.93-0.58
	c8.55,0,16.51,2.51,23.03,7.27c3.22,2.13,5.57,4.9,7.85,7.59c2.34,2.76,4.55,5.36,7.43,6.89c2.35,1.36,5,2.02,8.02,2.02
	c1.56,0,3.2-0.19,4.89-0.53c-5.62-12.15-12.56-25.88-19.23-33.27C187.46,429.29,182.81,427.28,177.71,427.28z"/>
<path class="st5" d="M609.6,299.07c0.02,0,0.04,0.01,0.05,0.01c3.02,0.58,6,1.28,8.95,2.1c0.04,0.01,0.07,0.02,0.1,0.03
	c0.92,0.26,1.83,0.52,2.74,0.8c0.19,0.06,0.39,0.12,0.58,0.18c0.74,0.23,1.47,0.46,2.2,0.71c0.43,0.14,0.85,0.29,1.28,0.44
	c0.49,0.17,0.97,0.33,1.46,0.51c0.73,0.26,1.46,0.53,2.18,0.81c0.17,0.07,0.35,0.13,0.52,0.2c24.12,9.32,45.12,26.3,60.32,47.22
	c22.39,29.24,34,64.78,42.82,100.07c1.33-0.98,4.03-2.96,5.36-3.97c3.64-27.5-2.82-55.68-14.6-80.52
	c-18.48-38.03-50.79-70.03-90.6-85.12c-11.23-4.89-24.76-4.27-33.76-13.64c3.64,9.81,6.56,19.9,9.37,29.98L609.6,299.07z"/>
<path class="st6" d="M351.72,345.83c1-0.32,2.01-0.63,3.01-0.94c1.45-0.44,2.9-0.86,4.35-1.26c5.76-1.57,11.61-2.78,17.59-3.26
	c10.46-0.84,20.99-0.54,31.43,0.55c3.48,0.36,6.95,0.81,10.41,1.33c-0.04-0.04-0.08-0.08-0.12-0.12
	c-22.2-22.56-48.64-41.72-76.36-56.95c-3.31,21.7-5.58,43.62-4.87,65.6c3.48-1.2,6.98-2.43,10.49-3.62
	C349.01,346.71,350.37,346.26,351.72,345.83z"/>
<path class="st7" d="M607.56,411.26c1.14-2.85,2.17-5.74,3.1-8.65C609.5,405.45,608.48,408.33,607.56,411.26z"/>
<path class="st7" d="M566.56,461.9c4.47-3.48,8.81-7.18,12.94-11.1c-0.32-1.47-0.64-2.95-0.95-4.42
	c-4.06-18.9-8.25-38.43-15.43-56.51c-1.35-3.39-5.05-11.28-10.33-11.28c-0.12,0-0.25,0-0.37,0.01c-2.47,0.16-5.07,2.07-7.73,5.68
	c-5.24,7.11-8.4,15.85-10.8,23.46c-0.82,2.62-1.6,5.26-2.36,7.92c12.7,14.18,24.09,29.56,34.52,45.46L566.56,461.9z"/>
<path class="st7" d="M508.26,392.54l0.96,0.82c4,3.55,7.87,7.22,11.64,11c2.81-8.49,6.29-16.75,10.98-24.49
	c5.97-9.83,13.16-15.03,20.81-15.03l0.34,0c6.27,0.13,15.21,3.85,22.13,20.85c4.69,11.51,8.35,23.42,11.53,35.4
	c2.2-9.07,4.96-18.38,8.96-27.24c5.06-11.23,11.66-17.58,19.61-18.87c0.4-0.07,0.81-0.11,1.22-0.15c1.3-12.09,1.16-24.35-0.28-36.39
	c-1.29-13.27-4.42-25.71-7.61-39.59c-14.07-2.8-28.6-3.1-43-1.6c-0.39,0.04-0.77,0.09-1.15,0.14c-1.33,0.15-2.65,0.3-3.98,0.48
	c-10.3,1.39-20.5,3.67-30.47,6.56c-0.34,0.1-0.68,0.19-1.02,0.29c-0.62,0.18-1.23,0.37-1.84,0.56c-1.31,0.4-2.63,0.81-3.93,1.23
	c-0.9,16.13-0.39,32.04-3.82,47.87C516.79,367.59,512.16,380.74,508.26,392.54z"/>
<path class="st7" d="M529.96,304.45c9.96-2.89,20.17-5.17,30.47-6.56C550.1,299.26,539.88,301.54,529.96,304.45z"/>
<path class="st7" d="M564.4,297.41c0.38-0.04,0.77-0.1,1.15-0.14C565.17,297.31,564.79,297.36,564.4,297.41z"/>
<path class="st7" d="M527.1,305.3c0.61-0.19,1.22-0.38,1.84-0.56C528.32,304.92,527.71,305.11,527.1,305.3z"/>
<path class="st8" d="M566.56,461.9c2.52,4.07,4.97,8.18,7.36,12.33c2.11-6.97,4.07-14.26,5.9-21.96c-0.11-0.49-0.21-0.98-0.32-1.47
	C575.37,454.71,571.03,458.41,566.56,461.9z"/>
<path class="st8" d="M665.34,469.78c-4.11-1.79-7.72-4.24-10.91-7.06c-0.65,1.88-1.29,3.75-1.93,5.61
	c-4.72,13.83-9.61,28.13-17.59,40.81c-5.84,9.28-12.46,13.99-19.67,13.99l-0.27,0c-8.68-0.14-15.94-7.04-20.99-19.94
	c-2.12-5.42-3.96-10.95-5.63-16.53c-0.94,2.75-2.02,5.54-3.24,8.32c8.9,17.71,16.43,36.1,22.01,55.15l0.2,0.7
	c27.95-14.56,54.25-32.65,79.05-52.12c9.6-7.84,19.07-15.99,27.81-24.82l-20.75,0.04C683.66,473.93,674.15,473.61,665.34,469.78z"/>
<path class="st8" d="M690.77,453.5c-2.42-7.99-5.94-15.59-10.48-22.6c-2.16-3.34-5.01-5.68-6.92-5.68c-0.35,0-0.68,0.08-1.01,0.24
	c-0.96,0.46-1.85,1.76-2.61,2.95c-3.32,5.18-6.08,10.74-8.54,16.46c3.18,3.9,7.16,7.34,12.14,9.42c5.23,2.19,11,2.61,15.96,2.73
	c0.85,0.02,1.7,0.02,2.56,0.03c-0.32-0.92-0.59-1.84-0.86-2.72L690.77,453.5z"/>
<path class="st8" d="M631.22,418.51c-1.98-6.57-4.03-13.36-6.71-19.7c-1.8-4.28-4.1-6.83-6.14-6.83l-0.19,0.01
	c-1.86,0.12-3.76,2.22-5.64,6.26c-0.67,1.44-1.3,2.89-1.89,4.35c-0.93,2.92-1.96,5.8-3.1,8.65c-2.37,7.5-4.11,15.26-5.92,23.29
	l-1.61,7.15c-1.34,5.93-2.7,11.95-4.15,17.98c2.35,10.14,4.82,20.42,7.69,30.42c1.64,5.71,3.54,11.67,7.03,16.29
	c1.44,1.91,2.83,3.01,4.12,3.28c0.25,0.05,0.49,0.08,0.74,0.08c2.34,0,5.16-2.43,7.75-6.66c7.47-12.22,12.24-26.25,16.85-39.82
	c1.4-4.13,2.83-8.3,4.33-12.46c-2.89-4.51-5.11-9.13-6.79-13.28C635.07,431.28,633.11,424.79,631.22,418.51z"/>
<path class="st8" d="M616.45,374.84c0.54-0.05,1.08-0.08,1.62-0.08c5.77,0,11.88,2.86,16.36,7.65c4.82,5.16,7.44,11.81,9.18,17.04
	c1.47,4.4,2.69,8.9,3.87,13.26c1.6,5.88,3.27,11.93,5.51,17.61c0.62-1.23,1.24-2.45,1.89-3.66c5.26-9.66,12.05-14.98,19.13-14.98
	c0.56,0,1.13,0.03,1.71,0.1c7.54,0.89,12.44,7.33,15.86,12.84c1.14,1.84,2.25,3.71,3.31,5.56c4.9,8.57,9.08,17.58,12.49,26.85
	c6.01-0.01,13.57-0.03,21.76-0.04c1.25-1.6,2.47-3.21,3.66-4.85c-8.81-35.29-20.43-70.83-42.82-100.07
	c-15.04-20.7-36.15-37.84-60.32-47.22c-0.17-0.07-0.35-0.13-0.52-0.2c-0.72-0.28-1.45-0.55-2.18-0.81
	c-0.48-0.17-0.97-0.34-1.46-0.51c-0.42-0.15-0.85-0.29-1.28-0.44c-0.73-0.24-1.47-0.48-2.2-0.71c-0.19-0.06-0.39-0.12-0.58-0.18
	c-0.91-0.28-1.82-0.54-2.74-0.8c-0.03-0.01-0.07-0.02-0.1-0.03c-2.95-0.82-5.93-1.52-8.95-2.1c-0.37-0.07-0.73-0.15-1.1-0.22
	c3.19,13.74,6.32,26.32,7.61,39.59C617.61,350.49,617.75,362.75,616.45,374.84z"/>
<path class="st8" d="M625.51,303.34c0.49,0.17,0.97,0.34,1.46,0.51C626.48,303.67,625.99,303.51,625.51,303.34z"/>
<path class="st8" d="M622.03,302.19c0.74,0.23,1.47,0.46,2.2,0.71C623.5,302.66,622.76,302.42,622.03,302.19z"/>
<path class="st8" d="M629.15,304.66c0.17,0.07,0.35,0.13,0.52,0.2C629.49,304.79,629.32,304.72,629.15,304.66z"/>
<path class="st8" d="M618.71,301.21c0.92,0.26,1.83,0.52,2.74,0.8C620.54,301.73,619.62,301.47,618.71,301.21z"/>
<path class="st8" d="M609.66,299.08c3.02,0.58,6,1.29,8.95,2.1C615.66,300.36,612.67,299.66,609.66,299.08z"/>
<path class="st8" d="M608.56,298.87c3.19,13.88,6.32,26.32,7.61,39.59C614.88,325.18,611.75,312.61,608.56,298.87z"/>
<path class="st9" d="M442.11,349.62c24.17,10.69,46.78,24.89,66.15,42.92c3.87-11.81,8.53-24.95,11.08-38.13
	c3.44-15.83,2.92-31.74,3.82-47.87c-3.63,1.24-7.24,2.57-10.82,3.97c-4.56,1.78-9.06,3.7-13.52,5.71c-1.62,0.73-3.23,1.48-4.84,2.24
	c-3.47,1.65-6.9,3.36-10.31,5.14c-3.21,1.68-6.39,3.42-9.54,5.21c-2.11,1.2-4.2,2.42-6.28,3.67
	C459.02,337.79,450.42,343.52,442.11,349.62L442.11,349.62z"/>
<path class="st9" d="M508.26,392.54c3.89-11.8,8.53-24.95,11.08-38.13C516.79,367.59,512.13,380.73,508.26,392.54z"/>
<path class="st10" d="M491.07,434.41c-0.74,1.09-1.48,2.38-2.27,3.83c-0.1,0.18-0.19,0.37-0.28,0.55l0.32,0.7
	C489.57,437.79,490.32,436.1,491.07,434.41z"/>
<path class="st10" d="M482.9,418.4c3.78-2.89,8.24-4.48,12.58-4.48c1.35,0,2.68,0.16,3.96,0.46c0.15,0.04,0.28,0.09,0.43,0.13
	c3.09-7.21,5.99-14.5,8.4-21.98c-19.36-18.03-41.98-32.23-66.15-42.92l-0.53,0.41c-2.8,2.15-5.62,4.31-8.44,6.46
	c17.7,19.92,33.8,41.41,46.6,64.79C480.75,420.21,481.8,419.25,482.9,418.4z"/>
<path class="st11" d="M288.21,489.2c1.38-2.74,2.71-5.51,4.02-8.25l0.81-1.68c2.62-5.45,5.14-10.58,7.62-15.51
	c-0.03-0.15-0.07-0.3-0.1-0.45c-0.35-1.61-0.7-3.21-1.06-4.78l-0.99-4.39c-2.88-12.88-5.86-26.2-11.39-37.9
	c-2.67-5.65-5.86-11.09-11.07-12.69c-0.83-0.21-1.83-0.34-2.85-0.34c-7.71,9.38-14.73,19.33-21.14,29.67
	c-0.22,0.74-0.43,1.47-0.65,2.21c-2.44,8.34-4.96,16.95-9.24,24.93c-0.85,1.63-1.77,3.15-2.72,4.62c8.3,5.73,16.29,12.01,25.6,16.02
	C272.61,483.9,280.34,486.78,288.21,489.2z"/>
<path class="st11" d="M301.93,407.17c5.33,10.75,8.47,22.23,11.1,33.62c0.86-1.47,1.73-2.95,2.61-4.41
	c3.4-5.63,8.42-12.21,17.1-13.05c0.83-0.08,1.67-0.12,2.51-0.12c4.33,0,8.62,1.07,12.42,3.03c-2.27-9.49-4.18-19.06-5.74-28.69
	c-2.45-15.14-4.02-30.42-4.73-45.74v0c-13.88,5.6-26.15,14.52-37.52,24.15c-4.83,4.16-9.44,8.54-13.86,13.11
	C292.21,392.35,297.52,398.27,301.93,407.17z"/>
<path class="st11" d="M304.5,486.45c-0.99,2.09-2,4.2-3.05,6.31c2.96,0.68,5.93,1.3,8.92,1.83c-1.81-3.49-3.3-7.16-4.55-10.9
	C305.39,484.61,304.94,485.52,304.5,486.45z"/>
<path class="st11" d="M340.8,438.2c-1.34-0.83-3.39-1.81-5.52-1.81c-0.29,0-0.57,0.02-0.86,0.06c-2.99,0.4-5.77,2.85-9.01,7.93
	c-3.16,4.96-5.86,10.12-8.21,15.03c1.72,7.41,3.67,14.83,6.3,21.89c1.17,3.15,2.51,6.28,4.27,8.99
	c5.48-15.01,13.15-29.08,21.21-42.85C346.97,443.68,344.45,440.46,340.8,438.2z"/>
<path class="st12" d="M462.13,480.21c-5.01,2.98-10.59,4.55-16.13,4.55c-4.58,0-9-1.04-13.14-3.1c-11.47-5.7-16.36-17.1-20.04-28.16
	c-2.29,9.97-5.12,19.92-9.89,29.04c-1.98,3.78-5.24,9.15-10.74,12c-2.5,1.3-5.31,1.98-8.15,1.98c-1.21,0-2.43-0.13-3.6-0.37
	c-4.87-1.03-8.57-3.96-11.04-6.58c10.89,23.98,24.72,46.78,42.37,65.77c0.02,0.02,0.05,0.05,0.08,0.08
	c20.83-23.39,39.48-48.72,55.23-75.82c0.46-0.87,0.92-1.74,1.4-2.6c-0.13-0.4-0.26-0.81-0.39-1.22
	C466.32,477.4,464.35,478.89,462.13,480.21z"/>
<path class="st12" d="M365.16,424.47c-1.08,1.39-2.17,2.78-3.23,4.19c-1.37,1.8-2.72,3.61-4.06,5.43c-0.2,0.26-0.38,0.53-0.57,0.79
	c1.08,1.66,1.99,3.39,2.78,5.17C361.36,434.97,362.93,429.64,365.16,424.47z"/>
<path class="st12" d="M384,483.09c0.09,0,0.18,0,0.28-0.01c6.48-0.51,8.55-7.75,10.57-17.16c0.26-1.21,0.51-2.36,0.76-3.42
	c1.68-6.98,3.49-14.1,5.23-20.98c1.01-3.99,2.01-7.97,3-11.94c-1.41-2.77-3.16-5.69-5.74-7.31c-0.08-0.05-0.16-0.1-0.23-0.16
	c-1.65-1.23-3.8-1.93-5.9-1.93c-1.73,0-3.32,0.47-4.6,1.35c-2.98,2.22-4.77,6.2-6.5,10.05l-0.27,0.61
	c-2.5,5.53-3.91,11.94-5.28,18.15c-0.56,2.53-1.13,5.14-1.77,7.66c-0.69,2.72-1.47,5.74-2.32,8.95c2.01,4.43,4.25,8.68,7.05,12.34
	C380.09,481.66,382.24,483.09,384,483.09z"/>
<path class="st12" d="M483.14,450.64c-0.05,0.12-0.1,0.23-0.15,0.35c1.59-3.21,3.05-6.47,4.31-9.83
	C485.83,444.18,484.51,447.34,483.14,450.64z"/>
<path class="st12" d="M426.64,440.7c1.58,4.85,3.07,9.42,5.07,13.85c0.31,0.68,0.62,1.36,0.95,2.04c3.13,6.49,8.66,10.69,14.1,10.69
	c2.09,0,4.2-0.6,6.27-1.78c3.53-2.01,6.58-5.5,9.32-10.61c-0.46-1.85-0.92-3.7-1.37-5.54c-3.74-15.23-7.6-30.98-14.22-45.26
	c-1.21-2.62-3.25-7-6.01-7.72c-1.12-0.29-2.25-0.44-3.36-0.44c-3.45,0-6.48,1.46-8.52,4.1c-4.54,5.87-6.86,14.59-8.9,22.28
	l-0.19,0.69c2.24,4.33,3.88,8.79,5.2,12.68C425.54,437.34,426.09,439.02,426.64,440.7z"/>
<path class="st12" d="M407.21,378.3c-8.27,7.69-16.17,15.79-23.72,24.2c-0.84,0.94-1.67,1.9-2.51,2.84
	c3.29-1.53,6.97-2.35,10.89-2.35c6.42,0,12.62,2.21,17.32,6.06c2.72-8.4,6.73-16.5,14.26-22.27c3.73-2.86,8.5-4.43,13.44-4.43
	c4.51,0,8.78,1.27,12.37,3.67c3.61,2.59,6.46,6.15,9.08,11.28c5.12,9.28,7.74,19.8,10.27,29.98c0.69,2.76,1.37,5.5,2.1,8.2
	l0.12,0.45c0.74-1.66,1.51-3.32,2.33-4.95c1.99-3.96,4.17-7.16,6.58-9.71c-12.8-23.39-28.9-44.88-46.6-64.79
	c-3.61,2.73-7.15,5.53-10.64,8.41C417.27,369.21,412.17,373.69,407.21,378.3z"/>
<path class="st13" d="M513.5,480.44c-0.79,2.11-1.68,4.34-2.76,6.56c2-0.68,4.01-1.36,6.01-2.04c-0.86-2.24-1.67-4.5-2.45-6.77
	C514.04,478.94,513.78,479.7,513.5,480.44z"/>
<path class="st13" d="M495.66,430.99c-1.8,0.07-3.2,1.37-4.59,3.42c-0.75,1.69-1.5,3.38-2.23,5.07
	c5.03,11.71,9.25,23.81,12.16,36.22c2.57-6.11,4.64-12.49,6.45-18.96c-1.47-4.49-3.02-8.97-4.78-13.25
	C500.48,438.21,498.31,434.34,495.66,430.99z"/>
<path class="st13" d="M531.49,415.79c-2.13,7.53-4.02,15.17-5.86,22.62c-0.87,3.54-1.76,7.12-2.67,10.7c0.09,0.3,0.18,0.6,0.27,0.9
	c0.61,2.1,1.19,4.09,1.84,6.05c2.08,6.26,4.34,12.55,6.7,18.69c0.49,1.28,0.98,2.59,1.47,3.91c0.04,0.1,0.08,0.21,0.12,0.31
	c11.62-4.55,22.81-9.99,32.69-17.86C555.79,445.49,544.22,430.02,531.49,415.79z"/>
<path class="st13" d="M514.44,427.92c1.85-7.86,3.85-15.75,6.4-23.46c-4.09-4.13-8.28-8.11-12.57-11.92
	c-2.41,7.48-5.31,14.77-8.4,21.98C507.11,416.46,511.35,422.04,514.44,427.92z"/>
<path class="st13" d="M531.52,415.66c-0.01,0.04-0.02,0.09-0.04,0.13c12.73,14.23,24.3,29.69,34.56,45.33
	C555.62,445.22,544.22,429.84,531.52,415.66z"/>
<path class="st13" d="M520.83,404.46c0.01-0.03,0.02-0.07,0.03-0.1c-3.77-3.78-7.64-7.46-11.64-11l-0.96-0.82
	C512.56,396.35,516.75,400.33,520.83,404.46z"/>
<path class="st14" d="M208.07,540.74c-25.7-21.94-49.4-46.45-68.84-73.99c-5.77,2.72-11.75,5.27-18.22,6.6
	c-8.44,1.43-16.89,1.64-25.11,1.74c-0.68,7.62-0.36,15.34,1.09,22.92c5.17,27.03,16.09,54.17,36.52,73.31
	c17.93,16.79,41.75,25.62,65.62,29.69c1.33-20.06,4.33-39.98,8.77-59.58L208.07,540.74z"/>
<path class="st14" d="M110.72,457.32c3.36-0.28,6.55-0.55,9.46-1.51c1.12-1.41,2.45-2.78,4.04-4.15c1.07-0.97,2.13-1.97,3.19-2.98
	c-4.23-6.98-8.22-14.12-11.86-21.47c-7.47,8.99-12.99,19.5-16.32,30.66c3.71-0.14,7.35-0.3,10.89-0.5L110.72,457.32z"/>
<path class="st15" d="M488.52,438.79c-0.42,0.78-0.83,1.57-1.22,2.37c-1.26,3.36-2.72,6.62-4.31,9.83
	c-1.57,3.78-3.17,7.59-5.05,11.24c0.82,3.04,1.64,6.08,2.47,9.12c0.24,0.88,0.47,1.79,0.7,2.69c1.02,4.01,1.98,7.81,4.1,10.74
	c1.54,2.13,3.83,3.51,5.83,3.51c0.21,0,0.42-0.01,0.63-0.04c2.55-0.37,4.92-2.93,7.25-7.83c0.73-1.55,1.42-3.12,2.08-4.7
	c-2.91-12.41-7.13-24.51-12.16-36.22L488.52,438.79z"/>
<path class="st15" d="M504.3,496.22c-3.82,3.65-8.76,5.82-13.43,5.82c-1.1,0-2.2-0.12-3.26-0.34c-6.6-1.43-12.42-6.93-15.55-14.72
	c-1.3-3.24-2.48-6.59-3.59-9.99c-0.47,0.86-0.94,1.73-1.4,2.6c-15.74,27.09-34.39,52.43-55.23,75.82c0.03,0.03,0.06,0.06,0.08,0.08
	c9.28,9.15,19.81,17.16,31.51,22.95c9.1,4.54,20.41,5.44,30.02,8.57c16.05-18.01,27.99-40.28,30.47-64.55
	C504.93,513.74,504.98,504.95,504.3,496.22z"/>
<path class="st16" d="M411.85,555.4c-0.33-0.35-0.98-1.02-1.31-1.35c-17.7-19.02-31.04-41.34-41.56-64.98
	c-0.16-0.18-0.34-0.37-0.49-0.55c-0.89-1.04-1.7-2.14-2.47-3.25c-0.03,0.11-0.06,0.22-0.1,0.33c-2.87,9.37-7.61,17.06-13.7,22.25
	c-4.46,3.72-10.18,5.76-16.16,5.76c-5.06,0-9.89-1.5-13.81-4.26c-3.06,14.9-3.29,30.41-0.48,45.35c2.7,14.13,9.75,26.81,16.46,39.36
	c15.87-2.8,32.57-8.12,46.07-17.05C393.96,570.51,405.29,565.24,411.85,555.4z"/>
<path class="st16" d="M348.99,447.42c-8.07,13.77-15.73,27.84-21.21,42.85c1.39,2.14,3.04,4.03,5.12,5.41
	c1.16,0.55,2.28,0.83,3.33,0.83c6.76,0,11.54-11.42,12.84-14.92c2.38-6.4,4.25-13.12,5.91-19.85c-0.5-1.25-0.99-2.51-1.48-3.79
	C352.1,454.25,350.73,450.65,348.99,447.42z"/>
<path class="st16" d="M411.78,555.32c-17.65-18.99-31.48-41.79-42.37-65.77c-0.15-0.16-0.29-0.32-0.43-0.48
	c10.52,23.64,23.87,45.96,41.56,64.98c0.33,0.33,0.98,1,1.31,1.35C411.75,555.29,411.75,555.29,411.78,555.32z"/>
<path class="st17" d="M729.14,457c2.52,0,5.11-0.01,7.72-0.01c0.53-2.92,0.98-5.85,1.29-8.81c-1.33,1-4.03,2.99-5.36,3.97
	C731.62,453.79,730.39,455.4,729.14,457z"/>
<path class="st17" d="M686.38,498.7c-24.8,19.47-51.1,37.56-79.05,52.12c5.75,21.16,10.16,42.94,9.73,64.96
	c20.3-12.53,42.65-23.43,57.72-42.55c7.44-9.37,12.17-20.65,14.27-32.39c0.33-5.05,4.46-8.16,7.73-11.39
	c16.12-15.27,28.71-34.52,35.75-55.61l-18.34,0.04C705.45,482.72,695.98,490.86,686.38,498.7z"/>
<path class="st18" d="M577.02,509.02c-5.79,7.75-14.94,12.57-23.88,12.57c-0.68,0-1.37-0.03-2.05-0.08
	c-11.88-0.58-19.94-9.92-23.68-15.43c-4.49-6.63-7.85-13.78-10.66-21.12c-2.01,0.68-4.01,1.36-6.01,2.04
	c-1.43,2.95-3.2,5.87-5.61,8.41c-0.27,0.28-0.56,0.54-0.84,0.81c0.68,8.73,0.64,17.52-0.37,26.22
	c-2.47,24.27-14.42,46.54-30.47,64.55c0.24-0.25,0.12-0.12,0.01,0c27.91,5.5,56.37-2.48,82.42-12.17
	c17.75-6.69,34.5-15.56,51.45-24.01c-5.6-19.11-13.24-37.83-22.24-55.8C582.97,499.85,580.37,504.63,577.02,509.02z"/>
<path class="st18" d="M566.05,461.12c-9.88,7.87-21.08,13.32-32.69,17.86c3.39,9.12,6.94,18.5,14.41,23.8
	c1.48,1.05,3.12,1.59,4.86,1.59c3.3,0,7.08-1.92,10.1-5.12c2.74-2.91,4.93-6.73,7.1-12.4c0.5-1.45,1.03-3,1.55-4.56
	c0.88-2.63,1.72-5.32,2.54-8.04c-2.39-4.17-4.85-8.29-7.36-12.35L566.05,461.12z"/>
<path class="st18" d="M573.92,474.24c0,0,0-0.01,0-0.01c-2.39-4.15-4.84-8.27-7.36-12.33C569.07,465.96,571.52,470.08,573.92,474.24
	z"/>
<path class="st18" d="M585.12,494.97c-0.01,0.02-0.02,0.03-0.02,0.05c9,17.97,16.64,36.68,22.24,55.8l-0.2-0.7
	C601.55,531.08,594.02,512.69,585.12,494.97z"/>
<path class="st18" d="M473.46,587C473.46,587,473.47,587,473.46,587C473.58,586.87,473.7,586.74,473.46,587z"/>
<path class="st19" d="M265.06,480.67c-9.31-4.01-17.3-10.29-25.6-16.02c-2.77,4.25-5.97,7.82-9.54,10.66
	c-0.42,0.33-0.84,0.66-1.27,0.97c0.14,0.32,0.28,0.65,0.43,0.97c4.36,9.72,9.16,19.34,15.42,27.88c4,5.46,8.96,11.26,15.41,12.94
	c0.55,0.09,1.11,0.14,1.67,0.14c5.11,0,9.83-3.95,12.89-7.27c5.56-6.4,9.85-13.99,13.75-21.74
	C280.34,486.78,272.61,483.9,265.06,480.67z"/>
<path class="st19" d="M322.26,509.36c-0.55-0.39-1.08-0.8-1.59-1.23c-1.98-1.68-3.87-3.72-5.63-6.06c-1.77-2.35-3.3-4.87-4.66-7.48
	c-2.99-0.53-5.96-1.14-8.92-1.83c-4.03,8.19-8.57,16.52-14.39,24.16c-7.86,9.7-16.23,14.58-24.96,14.58c-0.26,0-0.53,0-0.79-0.01
	c-13.16-0.5-22.28-11.01-28-18.87c-0.04-0.06-0.08-0.12-0.12-0.17c-3.95-6.17-7.43-12.6-10.65-19
	c-5.8,15.45-10.62,31.26-14.47,47.29c23.74,20.3,50.83,37.3,80.58,47.19c15.93,5.21,32.86,7.42,49.59,6.13
	c-6.71-12.55-13.76-25.23-16.46-39.36C318.97,539.77,319.2,524.26,322.26,509.36z"/>
<path class="st20" d="M369.34,627.83c-11.35-10.02-22.78-21.08-31.1-33.76c-16.73,1.29-33.66-0.92-49.59-6.13
	c-29.75-9.9-56.84-26.89-80.58-47.19c-4.44,19.61-7.61,40.2-8.94,60.26c22.98,3.86,46.42,3.03,69.58,2.04
	c33,28.63,78.17,43.92,121.77,38.95l-2.35-0.7C380.79,638.56,375.17,632.84,369.34,627.83z"/>
<path class="st20" d="M207.91,541.42c-4.44,19.61-7.44,39.53-8.77,59.58c1.33-20.06,4.5-40.65,8.94-60.26L207.91,541.42z"/>
<path class="st21" d="M607.33,550.82c-16.95,8.44-33.7,17.32-51.45,24.01c-26.05,9.69-54.51,17.67-82.42,12.17
	c-0.11,0.12-0.22,0.23-0.01,0c-0.43,0.47-0.88,0.96-1.35,1.45c-0.59,0.6-1.2,1.19-1.79,1.78c-0.53,0.53-1.06,1.06-1.6,1.59
	c-0.42,0.41-0.85,0.82-1.28,1.22c-3.74,3.58-7.67,7.02-11.76,10.32c-0.13,0.1-0.26,0.2-0.39,0.31c-1.21,0.97-2.43,1.93-3.66,2.88
	c-0.75,0.58-1.51,1.14-2.27,1.71c-0.61,0.45-1.21,0.91-1.82,1.36c-15.25,11.17-31.96,20.41-49.13,28.28
	c-3.31,1.43-6.77,2.49-10.29,3.41l2.35,0.7c19.02-1.45,37.28-8.38,53.78-17.69c44.8,38.34,93.43,72.67,146.2,99.13
	c-12.27-23.11-13.25-51.22-5.03-75.8c5.66-14.48,19-23.84,31.63-31.86C617.49,593.76,613.08,571.99,607.33,550.82z"/>
<path class="st21" d="M473.47,587C473.47,587,473.46,587,473.47,587C473.25,587.22,473.36,587.11,473.47,587z"/>
<path class="st22" d="M411.93,555.48c0.02,0.02,0.01,0.02-0.08-0.08c-6.21,10.1-17.89,15.11-27.54,21.61
	c-13.5,8.94-29.16,14.13-45.03,16.93l-1.04,0.12c8.32,12.68,19.75,23.74,31.1,33.76c5.83,5.01,11.45,10.74,18.79,13.48
	c3.52-0.92,6.97-1.98,10.29-3.41c16.74-7.67,33.76-17.08,49.13-28.28c0.61-0.45,1.22-0.9,1.82-1.36c0.76-0.57,1.52-1.13,2.27-1.71
	c1.23-0.95,2.45-1.9,3.66-2.88c0.13-0.1,0.26-0.2,0.39-0.31c4.05-3.28,7.98-6.72,11.76-10.32c0.43-0.41,0.86-0.81,1.28-1.22
	c0.54-0.52,1.07-1.06,1.6-1.59c1.06-1.07,2.12-2.14,3.14-3.23c-9.61-3.13-20.92-4.03-30.02-8.57
	C431.74,572.64,421.22,564.63,411.93,555.48z"/>
<path class="st22" d="M411.78,555.32c0.03,0.03,0.05,0.06,0.07,0.08c0,0,0,0,0,0C411.82,555.37,411.8,555.34,411.78,555.32z"/>
<path class="st22" d="M411.93,555.48c-0.02-0.02-0.04-0.05-0.08-0.08c0,0,0,0,0,0C411.88,555.43,411.91,555.45,411.93,555.48z"/>
<path class="st22" d="M384.31,577.02c9.65-6.5,21.34-11.51,27.54-21.61C405.29,565.24,393.96,570.51,384.31,577.02z"/>
<path class="st22" d="M384.31,577.02c-13.5,8.94-30.2,14.25-46.07,17.05l1.04-0.12C355.15,591.15,370.81,585.95,384.31,577.02z"/>
<path class="st22" d="M411.85,555.4c-0.03-0.03-0.05-0.06-0.07-0.08C411.75,555.29,411.75,555.29,411.85,555.4z"/>
<path class="st22" d="M455.3,603.66c-1.21,0.97-2.43,1.93-3.66,2.88C452.87,605.6,454.09,604.64,455.3,603.66z"/>
<path class="st22" d="M467.44,593.04c-3.78,3.6-7.71,7.04-11.76,10.32C459.77,600.06,463.7,596.62,467.44,593.04z"/>
<path class="st22" d="M449.37,608.25c-0.61,0.45-1.21,0.91-1.82,1.36C448.16,609.16,448.76,608.7,449.37,608.25z"/>
<path class="st22" d="M470.32,590.23c-0.53,0.53-1.06,1.06-1.6,1.59C469.25,591.29,469.79,590.76,470.32,590.23z"/>
<path class="st23" d="M341.93,397.55c1.56,9.63,3.47,19.2,5.74,28.69c2.18,1.12,4.21,2.54,5.99,4.22c1.44,1.36,2.62,2.86,3.64,4.42
	c0.19-0.26,0.37-0.53,0.57-0.79c1.34-1.82,2.69-3.63,4.06-5.43c1.07-1.4,2.15-2.8,3.23-4.19c2.1-4.85,4.78-9.54,8.37-13.7
	c2.12-2.32,4.65-4.12,7.46-5.42c0.83-0.95,1.66-1.9,2.51-2.84c7.54-8.42,15.45-16.51,23.72-24.2c4.96-4.62,10.06-9.09,15.29-13.4
	c3.49-2.88,7.03-5.68,10.64-8.41c-3.85-4.03-10.91-10.8-14.45-14.18c-0.06-0.02-0.12-0.04-0.17-0.05h0h0
	c-3.46-0.52-6.93-0.97-10.41-1.33c-10.44-1.09-20.97-1.39-31.43-0.55c-5.98,0.48-11.83,1.69-17.59,3.26
	c-1.46,0.4-2.91,0.82-4.35,1.26c-1.01,0.31-2.01,0.62-3.01,0.94c-1.36,0.43-2.71,0.88-4.06,1.34c-3.51,1.18-7.01,2.41-10.49,3.62
	l0.02,1l0,0.02C337.91,367.13,339.48,382.41,341.93,397.55z"/>
<polygon class="st23" points="337.2,351.78 337.2,351.81 337.2,351.81 "/>
<path class="st23" d="M351.72,345.83c-1.36,0.43-2.71,0.88-4.06,1.34C349.01,346.71,350.37,346.26,351.72,345.83z"/>
<path class="st23" d="M359.09,343.63c-1.46,0.4-2.91,0.82-4.35,1.26C356.18,344.46,357.63,344.03,359.09,343.63z"/>
<path class="st23" d="M418.52,342.26L418.52,342.26c-3.46-0.52-6.93-0.97-10.41-1.33C411.59,341.29,415.06,341.73,418.52,342.26z"/>
<path class="st23" d="M341.93,397.55c1.56,9.63,3.47,19.2,5.74,28.69c0,0,0,0,0,0C345.4,416.75,343.48,407.18,341.93,397.55z"/>
<path class="st23" d="M341.93,397.55c-2.45-15.14-4.02-30.42-4.73-45.74l0,0v0C337.91,367.13,339.48,382.41,341.93,397.55z"/>
<path class="st23" d="M407.21,378.3c4.96-4.62,10.06-9.09,15.29-13.4C417.27,369.21,412.17,373.69,407.21,378.3z"/>
<path class="st23" d="M365.16,424.47c-1.08,1.39-2.17,2.78-3.23,4.19C363,427.26,364.08,425.87,365.16,424.47L365.16,424.47z"/>
<path class="st23" d="M383.49,402.51c-0.84,0.94-1.67,1.9-2.51,2.84h0C381.82,404.4,382.65,403.45,383.49,402.51z"/>
<path class="st23" d="M433.14,356.49c-3.61,2.73-7.15,5.53-10.64,8.41C425.99,362.02,429.53,359.22,433.14,356.49z"/>
<path class="st24" d="M360.97,232.86c-0.68,1.26-1.35,2.53-2.01,3.8c-3.28,6.37-6.23,12.92-8.78,19.61
	c-1.02,2.68-1.97,5.38-2.86,8.1c-2.21,6.8-4,13.75-5.29,20.82l0.57,0.31c27.72,15.23,53.58,34.08,75.78,56.65
	c0.04,0.04,0.08,0.08,0.12,0.12c0.06,0.02,0.12,0.04,0.17,0.05c3.54,3.38,10.59,10.15,14.45,14.18c2.82-2.15,5.64-4.31,8.44-6.46
	l0.53-0.41c8.31-6.1,16.91-11.83,25.76-17.14c2.08-1.25,4.17-2.47,6.28-3.67c3.15-1.79,6.33-3.53,9.54-5.21
	c3.4-1.78,6.84-3.5,10.31-5.14c1.61-0.76,3.22-1.51,4.84-2.24c4.46-2.02,8.96-3.93,13.52-5.71c3.58-1.4,7.18-2.72,10.82-3.97
	c-0.09-1.17-0.2-2.33-0.31-3.5c-0.24-2.33-0.53-4.66-0.88-6.98c-0.35-2.32-0.76-4.63-1.23-6.93c-0.47-2.3-1-4.58-1.6-6.85
	c-0.89-3.4-1.93-6.76-3.12-10.06c-0.8-2.2-1.66-4.38-2.6-6.52c-0.94-2.15-1.94-4.26-3.03-6.34c-1.08-2.08-2.24-4.12-3.47-6.13
	c-4.66-8.04-10.59-15.15-17.04-21.78c-3.87-3.98-7.93-7.78-12.02-11.51c-36.29-6.87-74.27-6.15-110.42,1.76
	c-0.76,1.22-1.5,2.45-2.23,3.68C363.76,227.84,362.34,230.34,360.97,232.86z M435.9,347.91c-0.97-0.34-1.94-0.67-2.91-1
	C433.96,347.25,434.94,347.57,435.9,347.91z M430.18,345.94c-1.34-0.45-2.69-0.87-4.03-1.3
	C427.49,345.07,428.84,345.5,430.18,345.94z M424.43,344.09c-1.85-0.58-3.71-1.16-5.56-1.72
	C420.73,342.93,422.58,343.5,424.43,344.09z"/>
<path class="st24" d="M360.97,232.86c1.37-2.52,2.79-5.02,4.25-7.49C363.76,227.84,362.34,230.34,360.97,232.86z"/>
<path class="st24" d="M350.19,256.27c2.54-6.69,5.49-13.23,8.78-19.61C355.68,243.04,352.73,249.58,350.19,256.27z"/>
<path class="st24" d="M347.33,264.37c0.88-2.72,1.84-5.42,2.86-8.1C349.17,258.95,348.21,261.65,347.33,264.37z"/>
<path class="st24" d="M342.62,285.49l-0.57-0.31c27.72,15.23,54.15,34.39,76.36,56.95C396.2,319.58,370.33,300.72,342.62,285.49z"/>
<path class="st24" d="M494,318.46c1.61-0.76,3.22-1.51,4.84-2.24C497.22,316.95,495.6,317.69,494,318.46z"/>
<path class="st24" d="M442.11,349.62c8.31-6.1,16.91-11.83,25.76-17.14C459.02,337.79,450.42,343.52,442.11,349.62L442.11,349.62
	L442.11,349.62z"/>
<path class="st24" d="M474.15,328.81c3.15-1.79,6.33-3.53,9.54-5.21C480.48,325.28,477.3,327.02,474.15,328.81z"/>
<path class="st24" d="M442.11,349.62L442.11,349.62l-0.53,0.41c-2.8,2.15-5.62,4.31-8.44,6.46c2.82-2.15,5.64-4.31,8.44-6.46
	L442.11,349.62z"/>
<path class="st25" d="M351.92,442.45c-0.67-2.33-1.3-4.66-1.92-7C350.62,437.79,351.25,440.12,351.92,442.45
	c0.04,0.14,0.09,0.3,0.14,0.47C352.01,442.75,351.96,442.59,351.92,442.45z"/>
<path class="st25" d="M355.29,438.33L355.29,438.33c-0.71,1.54-1.24,3.16-1.59,4.83C354.05,441.5,354.58,439.88,355.29,438.33z"/>
<path class="st25" d="M352.21,443.47c0.11,0.39,0.23,0.81,0.35,1.24C352.44,444.29,352.32,443.86,352.21,443.47z"/>
<path class="st25" d="M136.51,448.95c2.74-1.65,5.65-2.96,8.68-3.95c6.66-6.88,13.36-13.76,21.81-18.41
	c8.23-4.82,19.8-3.45,26.14,3.89c7.07,7.84,14.33,22.28,20.08,34.73c0.09-0.03,0.17-0.05,0.25-0.07c1.58-0.75,3.17-1.63,4.85-2.67
	c0.12-0.09,0.23-0.19,0.35-0.28c-5.01-11.42-10.37-22.67-17.9-32.74c-5.21-6.97-13.34-11.99-22.19-12.13
	c-9.99-0.49-18.83,5.43-26.06,11.7c-8.18,7.12-15.38,15.27-23.25,22.72c0.11,0.17,0.22,0.34,0.33,0.52
	C131.8,451.31,134.07,450.22,136.51,448.95z"/>
<path class="st25" d="M530.54,406.69c2.71-8.62,5.96-17.22,11.32-24.49c2.56-3.47,6.03-6.82,10.34-7.1
	c6.98-0.44,11.61,6.97,14.19,13.47c7.1,17.89,11.23,36.74,15.28,55.61c0.41-1.88,0.81-3.78,1.21-5.71c0.66-3.22,1.34-6.55,2.08-9.93
	c-3.54-14.11-7.58-28.04-13.07-41.52c-3.55-8.72-9.54-18.47-18.95-18.66c-7.85-0.16-14,6.62-18.08,13.34
	c-4.87,8.02-8.38,16.6-11.22,25.49c1.73,1.79,3.44,3.59,5.13,5.42C529.33,410.62,529.92,408.65,530.54,406.69z"/>
<path class="st25" d="M646.85,454.35c-6.1,17.25-11.13,35-20.64,50.56c-2.73,4.47-7.07,9.26-12.2,8.19
	c-2.58-0.53-4.62-2.5-6.21-4.59c-3.85-5.09-5.84-11.31-7.61-17.44c-2.28-7.92-4.28-15.92-6.18-23.96c-1.03,4.02-2.1,8.04-3.27,12.01
	c-0.15,0.52-0.32,1.05-0.48,1.58c2.01,7.17,4.28,14.26,7,21.2c3.24,8.28,8.88,17.56,17.78,17.71c7.3,0.12,13.01-6.16,16.9-12.35
	c9.09-14.46,14.04-31.02,19.7-47.21C649.89,458.25,648.3,456.33,646.85,454.35z"/>
<path class="st25" d="M688.6,426.48c-3.16-5.1-7.32-10.51-13.28-11.21c-7.65-0.9-13.66,6.3-17.35,13.07
	c-1.12,2.05-2.15,4.15-3.15,6.26c1.09,2.29,2.41,4.68,3.98,7c2.32-5.21,4.92-10.27,8.01-15.08c1.06-1.66,2.26-3.36,4.04-4.22
	c4.64-2.23,9.6,2.37,12.4,6.7c4.7,7.27,8.38,15.2,10.89,23.49c0.46,1.53,0.9,3.09,1.48,4.58c1.66,0,4.43-0.01,8.03-0.02
	c-3.27-8.66-7.21-17.07-11.8-25.11C690.79,430.1,689.71,428.28,688.6,426.48z"/>
<path class="st25" d="M406.18,434.66c-2.4,9.52-4.87,19.13-7.16,28.66c-2,8.29-3.49,22.39-14.47,23.26
	c-3.62,0.29-6.87-2.28-9.07-5.17c-2.18-2.85-4.01-6.01-5.67-9.29c-0.78,2.85-1.61,5.78-2.48,8.75c1.14,1.89,2.39,3.71,3.82,5.38
	c2.62,3.08,6.06,5.61,10.01,6.45c3.16,0.67,6.54,0.2,9.41-1.29c4.21-2.18,7.05-6.31,9.24-10.51c5.5-10.53,8.34-22.26,10.86-34.03
	c-0.49-1.53-0.98-3.05-1.48-4.51C408.34,439.86,407.33,437.31,406.18,434.66z M407.25,451.25c0.32-0.06,0.64-0.11,0.96-0.14
	c0.01,0.04,0.01,0.09,0.02,0.13C407.9,451.24,407.57,451.24,407.25,451.25z"/>
<path class="st25" d="M417.31,418.67c1.98-7.29,4.37-15.08,8.78-20.79c3.74-4.84,9.7-6.42,15.53-4.91c4.25,1.1,6.61,5.97,8.31,9.64
	c6.98,15.05,10.88,31.4,14.81,47.38c1.14-2.5,2.23-5.05,3.28-7.54c0.19-0.44,0.38-0.9,0.57-1.34c-0.42-1.57-0.85-3.14-1.27-4.7
	c-3.38-12.53-5.78-26.03-12.11-37.5c-1.94-3.8-4.4-7.44-7.91-9.96c-6.43-4.31-15.56-4.09-21.72,0.63
	c-7.28,5.57-10.99,13.68-13.57,22.19c0.13,0.15,0.26,0.29,0.39,0.44C414.31,414.37,415.93,416.51,417.31,418.67z"/>
<path class="st25" d="M517.55,434.51c0.44,0.99,0.87,1.97,1.31,2.91c0.8,1.72,1.47,3.5,2.09,5.3c2.49-10.02,4.89-20.08,7.77-29.99
	c-1.69-1.84-3.4-3.65-5.12-5.44c-2.67,8.37-4.73,17.01-6.73,25.69C517.1,433.49,517.32,434.01,517.55,434.51z"/>
<path class="st25" d="M509.36,462.75c-1.96,6.43-4.25,12.72-7.11,18.79c0.52,2.62,1,5.25,1.39,7.89c0.73-0.26,1.47-0.51,2.2-0.76
	c1.81-2.95,3.16-6.21,4.37-9.47c0.8-2.15,1.56-4.31,2.29-6.48c-0.77-2.39-1.52-4.78-2.26-7.16
	C509.95,464.64,509.66,463.69,509.36,462.75z"/>
<path class="st25" d="M528.76,412.6c-1.68-1.83-3.4-3.63-5.13-5.42c-0.01,0.04-0.02,0.07-0.04,0.11c1.73,1.79,3.43,3.6,5.12,5.44
	C528.73,412.69,528.74,412.64,528.76,412.6z"/>
<path class="st25" d="M129.28,451.75c-0.44,0.41-0.88,0.82-1.32,1.23c0.54-0.23,1.1-0.47,1.65-0.71
	C129.51,452.1,129.39,451.93,129.28,451.75z"/>
<path class="st25" d="M502.25,481.55c-0.06,0.12-0.11,0.25-0.17,0.37c-2.08,4.38-5.12,9.1-9.91,9.79c-3.8,0.55-7.55-1.77-9.8-4.88
	c-3.05-4.22-4.01-9.65-5.34-14.57c-0.51-1.89-1.02-3.78-1.53-5.67c-1.36,2.21-2.88,4.33-4.62,6.31c1.34,4.36,2.79,8.63,4.45,12.76
	c2.24,5.58,6.74,11.24,13.03,12.6c5.17,1.12,10.61-1.41,14.24-5.26c0.45-0.47,0.87-0.97,1.28-1.47c-0.07-0.7-0.14-1.4-0.22-2.09
	C503.25,486.79,502.77,484.17,502.25,481.55z"/>
<path class="st25" d="M503.87,491.53c0.72-0.9,1.37-1.86,1.98-2.85c-0.73,0.25-1.47,0.5-2.2,0.76
	C503.73,490.14,503.79,490.83,503.87,491.53z"/>
<g>
	<path class="st25" d="M296.2,480.79c-1.51,3.14-3.02,6.29-4.58,9.42c-4.08,8.18-8.56,16.18-14.58,23.1
		c-4.52,4.91-10.82,9.45-17.87,8.19c-7.59-1.91-13.05-8.22-17.5-14.3c-5.84-7.97-10.36-16.67-14.47-25.61
		c-0.52-1.13-1.04-2.27-1.55-3.41c-1.66,0.9-3.41,1.72-5.38,2.52c1.3,2.77,2.63,5.54,3.98,8.29c3.62,7.38,7.47,14.64,11.9,21.57
		c6.07,8.34,14.26,17.01,25.29,17.43c9.47,0.32,17.22-6.25,22.85-13.19c5.41-7.09,9.73-14.9,13.68-22.87
		c1.15-2.32,2.27-4.64,3.37-6.97c0.99-2.08,1.98-4.14,2.97-6.2c-0.91-3.2-1.7-6.41-2.43-9.57
		C299.96,473.03,298.07,476.91,296.2,480.79z"/>
	<path class="st25" d="M355.29,438.33c-1.1-1.94-2.38-3.76-4.04-5.33c-0.75-0.7-1.56-1.34-2.39-1.93h0
		c-4.53-3.22-10.25-4.79-15.77-4.26c-6.83,0.67-11.1,5.86-14.44,11.37c-1.53,2.53-3.01,5.09-4.47,7.66c0.29,1.3,0.58,2.61,0.86,3.91
		c0.31,1.4,0.61,2.8,0.93,4.2c1.99-3.92,4.12-7.77,6.49-11.48c2.76-4.34,6.4-8.83,11.5-9.52c3.02-0.41,6.09,0.65,8.69,2.25
		c3.65,2.25,6.29,5.3,8.39,8.74c1.3,2.12,2.39,4.4,3.38,6.73c0.01,0.02,0.02,0.04,0.02,0.06c0.7,1.65,1.35,3.32,1.98,5
		c0.4-1.74,0.8-3.47,1.2-5.2l0.84-3.66c0.08-0.34,0.16-0.69,0.24-1.03C357.69,443.28,356.63,440.71,355.29,438.33z"/>
</g>
<path class="st25" d="M353.35,445.22c0.08-0.69,0.2-1.37,0.35-2.05C353.56,443.84,353.44,444.53,353.35,445.22z"/>
<path class="st25" d="M352.74,445.34c0.12,0.42,0.23,0.81,0.33,1.16C352.97,446.15,352.86,445.76,352.74,445.34z"/>
<path class="st26" d="M726.33,460.51c-5.9,0.01-11.8,0.02-17.69,0.03c-1.24,0-2.47,0-3.71,0.01c-2.48,0-4.95,0.01-7.43,0.01
	c-0.76,0-1.51,0-2.27,0c-0.62,0-1.24-0.01-1.86-0.01c-1.37,0-2.75,0-4.13-0.03c-5.91-0.15-11.81-0.74-17.23-3
	c-4.79-2-8.86-5.19-12.3-9.06c-0.88-0.99-1.73-2.03-2.52-3.11c-1.57-2.11-2.98-4.36-4.23-6.69c-0.72-1.34-1.39-2.71-2-4.1
	c-0.26-0.57-0.51-1.15-0.75-1.73c-4.31-10.41-6.35-21.6-9.92-32.29c-1.9-5.69-4.32-11.37-8.42-15.76c-4.04-4.33-10-7.23-15.85-6.38
	c-0.08,0.01-0.15,0.02-0.23,0.03c-8.21,1.33-13.55,9.26-16.97,16.84c-4.78,10.61-7.76,21.86-10.25,33.2
	c-0.58,2.64-1.14,5.28-1.68,7.92c-0.19,0.92-0.38,1.84-0.57,2.76c-0.42,2.05-0.85,4.1-1.3,6.13c-0.51,2.35-1.05,4.68-1.59,7.01
	c-0.61,2.58-1.23,5.15-1.89,7.72c-1.58,6.16-3.3,12.28-5.22,18.38c0,0.01,0,0.01-0.01,0.02c-0.52,1.65-1.05,3.3-1.6,4.95
	c-0.52,1.57-1.06,3.14-1.6,4.71c-1.88,4.9-4.23,9.73-7.82,13.55c-5.05,5.36-12.96,8.67-19.55,3.99
	c-8.33-5.91-12.15-15.99-15.65-25.41c-0.53-1.43-1.06-2.84-1.59-4.22c-2.4-6.23-4.65-12.51-6.75-18.85
	c-0.17-0.51-0.33-1.02-0.49-1.53c-0.67-2.13-1.29-4.3-1.93-6.47c-1.04-3.53-2.14-7.03-3.64-10.28c-0.04-0.08-0.08-0.17-0.11-0.25
	c-0.78-1.69-1.56-3.49-2.38-5.3c-3.1-6.78-6.93-13.69-14.57-15.55c-0.05-0.01-0.1-0.01-0.15-0.03c-4.65-1.06-9.64,0.52-13.43,3.42
	c-1.3,1-2.47,2.14-3.54,3.37c-2.08,2.4-3.77,5.16-5.2,8c-1.45,2.88-2.74,5.83-4,8.79c-0.74,1.75-1.47,3.5-2.22,5.24
	c-1.26,2.95-2.56,5.89-4.01,8.75c-0.05,0.09-0.09,0.19-0.14,0.29c-0.71,1.39-1.5,2.77-2.36,4.09c-2.3,3.56-5.16,6.73-8.81,8.82
	c-10.44,5.96-20.63-0.82-25.27-10.44c-0.34-0.7-0.66-1.4-0.98-2.11c-2.81-6.2-4.67-12.76-6.86-19.19c-0.98-2.87-2.04-5.72-3.26-8.5
	c-0.72-1.65-1.51-3.27-2.37-4.84c-0.16-0.29-0.29-0.59-0.46-0.87c-1.34-2.4-2.94-4.64-4.7-6.76c-0.38-0.46-0.76-0.92-1.15-1.36
	c-0.51-0.61-1.06-1.19-1.64-1.73c-8.56-8.06-23.69-8.64-31.89,0.33c-7.85,9.09-11.13,21.01-13.82,32.51c-0.16,0.7-0.33,1.4-0.49,2.1
	c-0.29,1.27-0.59,2.55-0.88,3.83c-0.76,3.33-1.53,6.67-2.34,10.01c-0.07,0.3-0.15,0.61-0.23,0.91c-0.01,0.02-0.01,0.04-0.02,0.07
	c-0.39,1.6-0.8,3.2-1.22,4.8c-1.39,5.26-2.94,10.47-4.82,15.54c-3.08,8.28-10.23,21.34-21.2,15.93c-1.88-1.21-3.44-2.74-4.8-4.44
	c-2.76-3.45-4.62-7.67-6.15-11.79c-2.19-5.88-3.89-11.9-5.39-17.99c-0.45-1.84-0.89-3.68-1.31-5.52c-0.65-2.84-1.28-5.69-1.9-8.53
	c-0.38-1.73-0.76-3.45-1.14-5.18c-2.8-12.54-5.92-24.97-11.67-36.56c-3.43-6.92-8.3-13.69-15.48-17.03
	c-0.04-0.02-0.07-0.04-0.11-0.05c-7.39-3.55-16.32-2.45-23.41,1.31c-6.66,3.63-11.2,10.18-14.26,16.97
	c-5.4,12.4-7.83,25.83-12.91,38.35c-0.91,2.15-1.93,4.29-3.09,6.35c-1.79,3.17-3.93,6.12-6.59,8.58c-0.85,0.78-1.73,1.53-2.68,2.2
	c-0.05,0.03-0.1,0.06-0.15,0.09c-1.72,1.07-3.5,2.06-5.34,2.92c-0.03,0.01-0.05,0.02-0.08,0.02c-1.11,0.37-2.26,0.69-3.42,0.95
	c-5.39,1.22-11.19,1.16-16.05-1.67c-6.51-3.44-9.55-10.71-15.65-14.69c-9.32-6.83-21.61-8.22-32.5-4.92
	c-3.06,0.93-6.01,2.2-8.75,3.85c-0.03,0.02-0.07,0.03-0.1,0.05c-2.2,1.14-4.44,2.22-6.7,3.23c-3,1.34-6.06,2.56-9.2,3.54
	c-0.01,0-0.03,0.01-0.04,0.02c-1.1,0.42-2.23,0.74-3.37,0.99c-2.81,0.63-5.71,0.84-8.58,1.08c-4.03,0.23-8.05,0.4-12.08,0.54
	c-17.57,0.62-35.15,0.5-52.72,0.12c-0.03,3.36-0.1,6.73-0.17,10.1c13.81-0.06,27.61,0.71,41.4,0.08c3.18-0.07,6.36-0.1,9.54-0.14
	c8.03-0.11,16.07-0.32,24-1.66c5.92-1.21,11.46-3.54,16.91-6.1c3.76-1.76,7.47-3.62,11.23-5.3c7.55-3.39,16.61-2.44,23.64,1.72
	c5.82,3.47,8.84,9.93,14.3,13.83c8.11,6.37,19.36,7.7,29.07,4.64c0.41-0.13,0.82-0.25,1.22-0.4c0.7-0.25,1.4-0.52,2.09-0.8
	c1.87-0.74,3.69-1.59,5.45-2.55c0.23-0.13,0.47-0.25,0.71-0.38c0.78-0.5,1.53-1.03,2.26-1.58c2.59-1.98,4.88-4.33,6.9-6.89
	c0.87-1.1,1.69-2.24,2.46-3.42c0.91-1.4,1.76-2.84,2.54-4.32c2.12-3.94,3.79-8.06,5.24-12.26c4.16-12.01,6.56-24.69,12.55-35.99
	c3.49-6.89,11.31-11.55,19.03-10.17c0.39,0.07,0.78,0.14,1.17,0.24c6.71,2.06,10.4,8.6,13.22,14.55
	c6.33,13.4,9.35,28.54,12.63,43.01c0.08,0.36,0.16,0.73,0.24,1.09c0.4,1.77,0.79,3.56,1.19,5.37c0.71,3.2,1.44,6.45,2.26,9.69
	c0.44,1.73,0.91,3.45,1.42,5.16c1.69,5.7,3.79,11.23,6.71,16.24c0.94,1.61,1.96,3.17,3.09,4.66c1.5,2,3.2,3.88,5.1,5.5
	c0.05,0.04,0.1,0.08,0.15,0.12c7.58,6.32,19.35,5.88,26.85-0.39c6.22-5.3,10.25-12.88,12.62-20.61c0.33-1.08,0.64-2.17,0.97-3.26
	c0.3-1,0.6-2,0.89-3c0.02-0.06,0.04-0.13,0.06-0.19c0.16-0.55,0.31-1.11,0.47-1.67c0.87-3.07,1.72-6.15,2.54-9.24
	c0.49-1.84,0.98-3.69,1.46-5.53c0.39-1.52,0.79-3.05,1.18-4.57c2.21-8.67,3.55-18.2,7.25-26.39c1.98-4.39,3.99-9.13,7.97-12.1
	c4.32-2.99,10.45-2.43,14.59,0.65c2.14,1.34,3.76,3.24,5.1,5.33c0.91,1.42,1.7,2.92,2.43,4.42c0.02,0.04,0.04,0.08,0.06,0.12
	c1.69,3.57,3.24,7.22,4.57,10.95c0.13,0.37,0.27,0.73,0.4,1.1c0.61,1.77,1.2,3.61,1.79,5.48c3.89,12.25,7.97,25.8,20.1,31.82
	c8.43,4.19,17.93,3.43,25.92-1.33c2.52-1.5,4.67-3.27,6.58-5.22c0.97-0.99,1.89-2.03,2.74-3.12c1.71-2.2,3.2-4.57,4.53-7.04
	c0.83-1.55,1.61-3.14,2.35-4.75c3.13-6.8,5.65-14.03,9.16-20.47c0.31-0.57,0.63-1.16,0.97-1.75c1.78-3.14,3.99-6.33,7.4-7.16
	c0.52-0.13,1.07-0.21,1.65-0.21c0.57-0.01,1.18-0.01,1.67,0.28c0.33,0.2,0.58,0.5,0.83,0.81c3.32,4.12,5.67,8.71,7.68,13.59
	c1.14,2.77,2.19,5.59,3.18,8.44c0.7,2.02,1.38,4.05,2.04,6.09c1.1,3.41,2.17,6.85,3.24,10.28c0.6,1.93,1.21,3.85,1.83,5.76
	c1.21,3.74,2.49,7.44,3.89,11.09c2.72,7.09,5.94,13.95,10.24,20.29c4.8,7.09,12.12,13.46,21.05,13.9
	c8.93,0.72,17.59-4.08,22.86-11.12c3.72-4.87,6.5-10.31,8.78-15.96c0.01-0.02,0.01-0.03,0.02-0.05c1.35-3.36,2.53-6.79,3.59-10.25
	c0.26-0.83,0.51-1.66,0.76-2.49c0.39-1.32,0.76-2.65,1.13-3.98c1.34-4.81,2.58-9.64,3.76-14.49c0.62-2.57,1.23-5.14,1.83-7.71
	c1.14-4.92,2.24-9.84,3.35-14.76c0.83-3.68,1.65-7.35,2.5-11.01c2.35-10.07,5.02-19.98,9.42-29.42c1.13-2.42,2.62-5.01,4.63-6.64
	c1.14-0.93,2.46-1.55,3.97-1.64c4.72-0.29,7.94,4.6,9.78,8.96c5.3,12.57,7.98,26.11,13.11,38.75c1.44,3.55,3.13,7.07,5.09,10.41
	c0.74,1.27,1.52,2.52,2.35,3.74c1.43,2.11,2.98,4.11,4.66,5.98c0.88,0.97,1.79,1.9,2.73,2.8c3.25,3.06,6.91,5.62,11.06,7.43
	c8.82,3.84,18.75,3.88,28.37,3.86c7.49-0.02,14.99-0.03,22.48-0.05c5.36-0.01,10.72-0.02,16.08-0.03
	c21.37-0.04,42.73-0.09,64.1-0.13c0.05-3.28,0.11-6.55,0.16-9.83c-20.58,0.04-41.16,0.08-61.74,0.12
	C732.9,460.5,729.61,460.51,726.33,460.51z"/>
<path class="st26" d="M1181.76,431.69c36.88-15.31,55.33-40.36,55.33-75.16c0-31.32-10.1-55.15-30.27-71.51
	c-10.1-8.35-21.92-14.26-35.49-17.75c-13.57-3.47-31.84-5.22-54.8-5.22H896.25v355.97h222.88c22.62,0,41.41-2,56.37-6
	c14.96-4,28.19-10.7,39.67-20.1c22.26-18.44,33.41-43.84,33.41-76.21C1248.57,474.67,1226.3,446.66,1181.76,431.69z M965.67,320.52
	h140.93c21.57,0,37.14,3.22,46.71,9.66c9.57,6.44,14.35,17.14,14.35,32.1c0,14.62-5.05,25.41-15.14,32.36
	c-9.05,5.92-24.36,8.87-45.93,8.87H965.67V320.52z M1157.23,549.13c-11.48,6.96-29.93,10.44-55.33,10.44H965.67v-97.08h136.23
	c25.4,0,43.84,3.31,55.33,9.92c13.57,8.01,20.36,20.88,20.36,38.62C1177.59,528.78,1170.8,541.48,1157.23,549.13z"/>
<path class="st26" d="M1574.81,430.13c-11.14-8-24.1-14.26-38.89-18.79c-14.79-4.52-34.19-8.17-58.2-10.96l-41.23-4.18
	c-27.84-2.78-45.93-5.39-54.28-7.83c-18.1-4.87-27.14-13.91-27.14-27.14c0-8.35,3.39-16,10.18-22.97
	c6.79-6.96,15.74-12.18,26.88-15.66c14.61-4.52,31.32-6.79,50.11-6.79c52.2,2.44,95.17,18.97,128.92,49.59l30.8-56.37
	c-33.76-22.26-63.51-36.71-89.25-43.32c-25.76-6.61-49.94-9.92-72.55-9.92c-53.24,0-92.91,12.88-119.01,38.63
	c-19.83,19.83-29.75,44.72-29.75,74.64c0,18.45,3.82,34.63,11.48,48.54c8.69,15.66,20.7,27.49,36.01,35.49
	c10.78,5.57,21.57,9.57,32.36,12.01c10.78,2.44,29.57,5.05,56.37,7.83l40.19,4.18c27.48,3.13,45.75,6.44,54.8,9.92
	c14.61,4.88,21.92,13.23,21.92,25.05c0,8.01-2.96,15.58-8.87,22.71c-5.92,7.14-13.75,12.97-23.49,17.49
	c-16.7,7.66-37.06,11.48-61.07,11.48c-21.58,0-47.33-5.48-77.25-16.44c-29.93-10.96-51.67-22.18-65.24-33.67l-23.49,60.55
	c62.98,33.41,117.78,50.11,164.42,50.11c25.75,0,49.93-3.13,72.55-9.4c29.92-8.69,52.02-21.92,66.29-39.67
	c15.31-19.48,22.97-41.76,22.97-66.81c0-15.66-3.22-30.44-9.66-44.37C1595.25,450.14,1586.3,438.83,1574.81,430.13z"/>
<polygon class="st26" points="1727.52,559.57 1727.52,262.06 1658.1,262.06 1658.1,618.03 1973.88,618.03 1973.88,559.57 "/>
</svg>
