<svg xmlns="http://www.w3.org/2000/svg" xmlns:xlink="http://www.w3.org/1999/xlink" width="768" zoomAndPan="magnify" viewBox="0 0 576 63.749997" height="85" preserveAspectRatio="xMidYMid meet" version="1.0"><defs><g/><clipPath id="a305ab5593"><path d="M 1.125 0 L 145 0 L 145 43 L 1.125 43 Z M 1.125 0 " clip-rule="nonzero"/></clipPath><clipPath id="2e5bd07de4"><path d="M 1.125 54 L 145 54 L 145 58 L 1.125 58 Z M 1.125 54 " clip-rule="nonzero"/></clipPath><clipPath id="9c09000c4a"><path d="M 287 0 L 430.289062 0 L 430.289062 43 L 287 43 Z M 287 0 " clip-rule="nonzero"/></clipPath><clipPath id="6fc530c21e"><path d="M 287 54 L 430.289062 54 L 430.289062 58 L 287 58 Z M 287 54 " clip-rule="nonzero"/></clipPath><clipPath id="77f2795e90"><path d="M 287.308594 0 L 431 0 L 431 43 L 287.308594 43 Z M 287.308594 0 " clip-rule="nonzero"/></clipPath><clipPath id="78a4884c44"><path d="M 287.308594 54 L 431 54 L 431 58 L 287.308594 58 Z M 287.308594 54 " clip-rule="nonzero"/></clipPath><clipPath id="730de8f9ad"><path d="M 573 0 L 574.875 0 L 574.875 43 L 573 43 Z M 573 0 " clip-rule="nonzero"/></clipPath><clipPath id="7d611de656"><path d="M 573 54 L 574.875 54 L 574.875 58 L 573 58 Z M 573 54 " clip-rule="nonzero"/></clipPath></defs><g clip-path="url(#a305ab5593)"><path fill="#ffa700" d="M 1.53125 0 L 124.605469 0 L 144.425781 21.570312 L 124.605469 42.867188 L 1.53125 42.867188 L 21.351562 21.570312 Z M 1.53125 0 " fill-opacity="1" fill-rule="evenodd"/></g><g clip-path="url(#2e5bd07de4)"><path fill="#be4c91" d="M 1.53125 54.871094 L 144.425781 54.871094 L 144.425781 57.15625 L 1.53125 57.15625 Z M 1.53125 54.871094 " fill-opacity="1" fill-rule="nonzero"/></g><path fill="#ffa700" d="M 78.695312 56.015625 C 78.695312 56.390625 78.65625 56.761719 78.582031 57.128906 C 78.511719 57.496094 78.402344 57.855469 78.257812 58.203125 C 78.113281 58.546875 77.9375 58.878906 77.730469 59.191406 C 77.523438 59.5 77.285156 59.789062 77.019531 60.054688 C 76.753906 60.320312 76.464844 60.558594 76.152344 60.765625 C 75.839844 60.976562 75.511719 61.152344 75.164062 61.292969 C 74.820312 61.4375 74.460938 61.546875 74.09375 61.621094 C 73.726562 61.691406 73.351562 61.730469 72.976562 61.730469 C 72.601562 61.730469 72.230469 61.691406 71.863281 61.621094 C 71.496094 61.546875 71.136719 61.4375 70.789062 61.292969 C 70.445312 61.152344 70.113281 60.976562 69.800781 60.765625 C 69.492188 60.558594 69.203125 60.320312 68.9375 60.054688 C 68.671875 59.789062 68.433594 59.5 68.226562 59.191406 C 68.015625 58.878906 67.839844 58.546875 67.695312 58.203125 C 67.554688 57.855469 67.445312 57.496094 67.371094 57.128906 C 67.296875 56.761719 67.261719 56.390625 67.261719 56.015625 C 67.261719 55.640625 67.296875 55.265625 67.371094 54.898438 C 67.445312 54.53125 67.554688 54.171875 67.695312 53.828125 C 67.839844 53.480469 68.015625 53.152344 68.226562 52.839844 C 68.433594 52.527344 68.671875 52.238281 68.9375 51.972656 C 69.203125 51.707031 69.492188 51.46875 69.800781 51.261719 C 70.113281 51.054688 70.445312 50.878906 70.789062 50.734375 C 71.136719 50.589844 71.496094 50.480469 71.863281 50.410156 C 72.230469 50.335938 72.601562 50.296875 72.976562 50.296875 C 73.351562 50.296875 73.726562 50.335938 74.09375 50.410156 C 74.460938 50.480469 74.820312 50.589844 75.164062 50.734375 C 75.511719 50.878906 75.839844 51.054688 76.152344 51.261719 C 76.464844 51.46875 76.753906 51.707031 77.019531 51.972656 C 77.285156 52.238281 77.523438 52.527344 77.730469 52.839844 C 77.9375 53.152344 78.113281 53.480469 78.257812 53.828125 C 78.402344 54.171875 78.511719 54.53125 78.582031 54.898438 C 78.65625 55.265625 78.695312 55.640625 78.695312 56.015625 Z M 78.695312 56.015625 " fill-opacity="1" fill-rule="nonzero"/><path fill="#ff625b" d="M 144.425781 0 L 267.5 0 L 287.316406 21.570312 L 267.5 42.867188 L 144.425781 42.867188 L 164.242188 21.570312 Z M 144.425781 0 " fill-opacity="1" fill-rule="evenodd"/><path fill="#be4c91" d="M 144.425781 54.871094 L 287.316406 54.871094 L 287.316406 57.15625 L 144.425781 57.15625 Z M 144.425781 54.871094 " fill-opacity="1" fill-rule="nonzero"/><path fill="#ff625b" d="M 221.585938 56.015625 C 221.585938 56.390625 221.550781 56.761719 221.476562 57.128906 C 221.402344 57.496094 221.296875 57.855469 221.152344 58.203125 C 221.007812 58.546875 220.832031 58.878906 220.625 59.191406 C 220.414062 59.5 220.179688 59.789062 219.914062 60.054688 C 219.648438 60.320312 219.359375 60.558594 219.046875 60.765625 C 218.734375 60.976562 218.40625 61.152344 218.058594 61.292969 C 217.710938 61.4375 217.355469 61.546875 216.984375 61.621094 C 216.617188 61.691406 216.246094 61.730469 215.871094 61.730469 C 215.496094 61.730469 215.125 61.691406 214.757812 61.621094 C 214.386719 61.546875 214.03125 61.4375 213.683594 61.292969 C 213.335938 61.152344 213.007812 60.976562 212.695312 60.765625 C 212.382812 60.558594 212.09375 60.320312 211.828125 60.054688 C 211.5625 59.789062 211.328125 59.5 211.117188 59.191406 C 210.910156 58.878906 210.734375 58.546875 210.589844 58.203125 C 210.445312 57.855469 210.339844 57.496094 210.265625 57.128906 C 210.191406 56.761719 210.15625 56.390625 210.15625 56.015625 C 210.15625 55.640625 210.191406 55.265625 210.265625 54.898438 C 210.339844 54.53125 210.445312 54.171875 210.589844 53.828125 C 210.734375 53.480469 210.910156 53.152344 211.117188 52.839844 C 211.328125 52.527344 211.5625 52.238281 211.828125 51.972656 C 212.09375 51.707031 212.382812 51.46875 212.695312 51.261719 C 213.007812 51.054688 213.335938 50.878906 213.683594 50.734375 C 214.03125 50.589844 214.386719 50.480469 214.757812 50.410156 C 215.125 50.335938 215.496094 50.296875 215.871094 50.296875 C 216.246094 50.296875 216.617188 50.335938 216.984375 50.410156 C 217.355469 50.480469 217.710938 50.589844 218.058594 50.734375 C 218.40625 50.878906 218.734375 51.054688 219.046875 51.261719 C 219.359375 51.46875 219.648438 51.707031 219.914062 51.972656 C 220.179688 52.238281 220.414062 52.527344 220.625 52.839844 C 220.832031 53.152344 221.007812 53.480469 221.152344 53.828125 C 221.296875 54.171875 221.402344 54.53125 221.476562 54.898438 C 221.550781 55.265625 221.585938 55.640625 221.585938 56.015625 Z M 221.585938 56.015625 " fill-opacity="1" fill-rule="nonzero"/><g clip-path="url(#9c09000c4a)"><path fill="#ffa700" d="M 287.316406 0 L 410.390625 0 L 430.210938 21.570312 L 410.390625 42.867188 L 287.316406 42.867188 L 307.136719 21.570312 Z M 287.316406 0 " fill-opacity="1" fill-rule="evenodd"/></g><g clip-path="url(#6fc530c21e)"><path fill="#be4c91" d="M 287.316406 54.871094 L 430.210938 54.871094 L 430.210938 57.15625 L 287.316406 57.15625 Z M 287.316406 54.871094 " fill-opacity="1" fill-rule="nonzero"/></g><path fill="#ffa700" d="M 364.480469 56.015625 C 364.480469 56.390625 364.445312 56.761719 364.371094 57.128906 C 364.296875 57.496094 364.1875 57.855469 364.042969 58.203125 C 363.902344 58.546875 363.726562 58.878906 363.515625 59.191406 C 363.308594 59.5 363.070312 59.789062 362.804688 60.054688 C 362.539062 60.320312 362.25 60.558594 361.941406 60.765625 C 361.628906 60.976562 361.296875 61.152344 360.953125 61.292969 C 360.605469 61.4375 360.246094 61.546875 359.878906 61.621094 C 359.511719 61.691406 359.140625 61.730469 358.765625 61.730469 C 358.390625 61.730469 358.015625 61.691406 357.648438 61.621094 C 357.28125 61.546875 356.921875 61.4375 356.578125 61.292969 C 356.230469 61.152344 355.902344 60.976562 355.589844 60.765625 C 355.277344 60.558594 354.988281 60.320312 354.722656 60.054688 C 354.457031 59.789062 354.21875 59.5 354.011719 59.191406 C 353.804688 58.878906 353.628906 58.546875 353.484375 58.203125 C 353.339844 57.855469 353.230469 57.496094 353.160156 57.128906 C 353.085938 56.761719 353.046875 56.390625 353.046875 56.015625 C 353.046875 55.640625 353.085938 55.265625 353.160156 54.898438 C 353.230469 54.53125 353.339844 54.171875 353.484375 53.828125 C 353.628906 53.480469 353.804688 53.152344 354.011719 52.839844 C 354.21875 52.527344 354.457031 52.238281 354.722656 51.972656 C 354.988281 51.707031 355.277344 51.46875 355.589844 51.261719 C 355.902344 51.054688 356.230469 50.878906 356.578125 50.734375 C 356.921875 50.589844 357.28125 50.480469 357.648438 50.410156 C 358.015625 50.335938 358.390625 50.296875 358.765625 50.296875 C 359.140625 50.296875 359.511719 50.335938 359.878906 50.410156 C 360.246094 50.480469 360.605469 50.589844 360.953125 50.734375 C 361.296875 50.878906 361.628906 51.054688 361.941406 51.261719 C 362.25 51.46875 362.539062 51.707031 362.804688 51.972656 C 363.070312 52.238281 363.308594 52.527344 363.515625 52.839844 C 363.726562 53.152344 363.902344 53.480469 364.042969 53.828125 C 364.1875 54.171875 364.296875 54.53125 364.371094 54.898438 C 364.445312 55.265625 364.480469 55.640625 364.480469 56.015625 Z M 364.480469 56.015625 " fill-opacity="1" fill-rule="nonzero"/><g fill="#000000" fill-opacity="1"><g transform="translate(28.561794, 17.22117)"><g><path d="M 8.578125 0 L 6.71875 0 L 6.046875 -2.0625 L 2.625 -2.0625 L 1.953125 0 L 0.140625 0 L 3.21875 -8.953125 L 5.5 -8.953125 Z M 4.25 -7.078125 L 3.109375 -3.546875 L 5.5625 -3.546875 L 4.40625 -7.078125 Z M 4.25 -7.078125 "/></g></g></g><g fill="#000000" fill-opacity="1"><g transform="translate(37.282196, 17.22117)"><g><path d="M 3.328125 0.125 C 2.796875 0.125 2.320312 -0.00390625 1.90625 -0.265625 C 1.5 -0.523438 1.179688 -0.914062 0.953125 -1.4375 C 0.722656 -1.957031 0.609375 -2.601562 0.609375 -3.375 C 0.609375 -4.144531 0.726562 -4.789062 0.96875 -5.3125 C 1.207031 -5.832031 1.535156 -6.222656 1.953125 -6.484375 C 2.378906 -6.742188 2.867188 -6.875 3.421875 -6.875 C 3.835938 -6.875 4.195312 -6.800781 4.5 -6.65625 C 4.8125 -6.507812 5.078125 -6.285156 5.296875 -5.984375 L 5.421875 -6.015625 L 5.421875 -9.453125 L 7.109375 -9.453125 L 7.109375 0 L 5.421875 0 L 5.421875 -0.875 L 5.296875 -0.90625 C 5.109375 -0.582031 4.847656 -0.328125 4.515625 -0.140625 C 4.191406 0.0351562 3.796875 0.125 3.328125 0.125 Z M 3.890625 -1.3125 C 4.359375 -1.3125 4.734375 -1.476562 5.015625 -1.8125 C 5.296875 -2.15625 5.4375 -2.675781 5.4375 -3.375 C 5.4375 -4.0625 5.296875 -4.578125 5.015625 -4.921875 C 4.734375 -5.265625 4.359375 -5.4375 3.890625 -5.4375 C 3.390625 -5.4375 3.003906 -5.269531 2.734375 -4.9375 C 2.472656 -4.601562 2.34375 -4.082031 2.34375 -3.375 C 2.34375 -2.664062 2.472656 -2.144531 2.734375 -1.8125 C 3.003906 -1.476562 3.390625 -1.3125 3.890625 -1.3125 Z M 3.890625 -1.3125 "/></g></g></g><g fill="#000000" fill-opacity="1"><g transform="translate(45.372275, 17.22117)"><g><path d="M 3.328125 0.125 C 2.796875 0.125 2.320312 -0.00390625 1.90625 -0.265625 C 1.5 -0.523438 1.179688 -0.914062 0.953125 -1.4375 C 0.722656 -1.957031 0.609375 -2.601562 0.609375 -3.375 C 0.609375 -4.144531 0.726562 -4.789062 0.96875 -5.3125 C 1.207031 -5.832031 1.535156 -6.222656 1.953125 -6.484375 C 2.378906 -6.742188 2.867188 -6.875 3.421875 -6.875 C 3.835938 -6.875 4.195312 -6.800781 4.5 -6.65625 C 4.8125 -6.507812 5.078125 -6.285156 5.296875 -5.984375 L 5.421875 -6.015625 L 5.421875 -9.453125 L 7.109375 -9.453125 L 7.109375 0 L 5.421875 0 L 5.421875 -0.875 L 5.296875 -0.90625 C 5.109375 -0.582031 4.847656 -0.328125 4.515625 -0.140625 C 4.191406 0.0351562 3.796875 0.125 3.328125 0.125 Z M 3.890625 -1.3125 C 4.359375 -1.3125 4.734375 -1.476562 5.015625 -1.8125 C 5.296875 -2.15625 5.4375 -2.675781 5.4375 -3.375 C 5.4375 -4.0625 5.296875 -4.578125 5.015625 -4.921875 C 4.734375 -5.265625 4.359375 -5.4375 3.890625 -5.4375 C 3.390625 -5.4375 3.003906 -5.269531 2.734375 -4.9375 C 2.472656 -4.601562 2.34375 -4.082031 2.34375 -3.375 C 2.34375 -2.664062 2.472656 -2.144531 2.734375 -1.8125 C 3.003906 -1.476562 3.390625 -1.3125 3.890625 -1.3125 Z M 3.890625 -1.3125 "/></g></g></g><g fill="#000000" fill-opacity="1"><g transform="translate(53.462354, 17.22117)"><g/></g></g><g fill="#000000" fill-opacity="1"><g transform="translate(56.418117, 17.22117)"><g><path d="M 0.96875 0 L 0.96875 -6.75 L 2.625 -6.75 L 2.625 -5.75 L 2.75 -5.71875 C 2.90625 -6.09375 3.113281 -6.367188 3.375 -6.546875 C 3.644531 -6.722656 3.972656 -6.8125 4.359375 -6.8125 C 4.742188 -6.8125 5.035156 -6.742188 5.234375 -6.609375 L 4.9375 -5.15625 L 4.8125 -5.125 C 4.707031 -5.164062 4.601562 -5.195312 4.5 -5.21875 C 4.394531 -5.238281 4.269531 -5.25 4.125 -5.25 C 3.65625 -5.25 3.296875 -5.082031 3.046875 -4.75 C 2.796875 -4.425781 2.671875 -3.894531 2.671875 -3.15625 L 2.671875 0 Z M 0.96875 0 "/></g></g></g><g fill="#000000" fill-opacity="1"><g transform="translate(61.711557, 17.22117)"><g><path d="M 6.671875 -2.984375 L 2.328125 -2.984375 C 2.378906 -2.398438 2.546875 -1.972656 2.828125 -1.703125 C 3.117188 -1.441406 3.507812 -1.3125 4 -1.3125 C 4.382812 -1.3125 4.695312 -1.382812 4.9375 -1.53125 C 5.1875 -1.675781 5.382812 -1.894531 5.53125 -2.1875 L 5.65625 -2.1875 L 6.78125 -1.46875 C 6.5625 -0.988281 6.226562 -0.601562 5.78125 -0.3125 C 5.332031 -0.0195312 4.738281 0.125 4 0.125 C 3.300781 0.125 2.695312 -0.00390625 2.1875 -0.265625 C 1.6875 -0.535156 1.296875 -0.929688 1.015625 -1.453125 C 0.742188 -1.972656 0.609375 -2.613281 0.609375 -3.375 C 0.609375 -4.132812 0.75 -4.773438 1.03125 -5.296875 C 1.320312 -5.828125 1.710938 -6.222656 2.203125 -6.484375 C 2.703125 -6.742188 3.257812 -6.875 3.875 -6.875 C 4.832031 -6.875 5.5625 -6.617188 6.0625 -6.109375 C 6.570312 -5.609375 6.828125 -4.867188 6.828125 -3.890625 C 6.828125 -3.535156 6.816406 -3.257812 6.796875 -3.0625 Z M 5.21875 -4.09375 C 5.195312 -4.601562 5.070312 -4.972656 4.84375 -5.203125 C 4.625 -5.441406 4.300781 -5.5625 3.875 -5.5625 C 3.019531 -5.5625 2.519531 -5.070312 2.375 -4.09375 Z M 5.21875 -4.09375 "/></g></g></g><g fill="#000000" fill-opacity="1"><g transform="translate(69.048935, 17.22117)"><g><path d="M 1.1875 0 L 1.1875 -5.40625 L 0.21875 -5.40625 L 0.21875 -6.75 L 1.1875 -6.75 C 1.113281 -7.039062 1.078125 -7.3125 1.078125 -7.5625 C 1.078125 -7.988281 1.175781 -8.351562 1.375 -8.65625 C 1.570312 -8.957031 1.851562 -9.1875 2.21875 -9.34375 C 2.582031 -9.507812 3.019531 -9.59375 3.53125 -9.59375 C 4.269531 -9.59375 4.820312 -9.460938 5.1875 -9.203125 L 4.796875 -7.953125 L 4.671875 -7.9375 C 4.421875 -8.113281 4.097656 -8.203125 3.703125 -8.203125 C 3.390625 -8.203125 3.15625 -8.125 3 -7.96875 C 2.851562 -7.820312 2.78125 -7.617188 2.78125 -7.359375 C 2.78125 -7.253906 2.785156 -7.15625 2.796875 -7.0625 C 2.816406 -6.96875 2.84375 -6.863281 2.875 -6.75 L 4.796875 -6.75 L 4.796875 -5.40625 L 2.875 -5.40625 L 2.875 0 Z M 1.1875 0 "/></g></g></g><g fill="#000000" fill-opacity="1"><g transform="translate(73.920117, 17.22117)"><g><path d="M 6.671875 -2.984375 L 2.328125 -2.984375 C 2.378906 -2.398438 2.546875 -1.972656 2.828125 -1.703125 C 3.117188 -1.441406 3.507812 -1.3125 4 -1.3125 C 4.382812 -1.3125 4.695312 -1.382812 4.9375 -1.53125 C 5.1875 -1.675781 5.382812 -1.894531 5.53125 -2.1875 L 5.65625 -2.1875 L 6.78125 -1.46875 C 6.5625 -0.988281 6.226562 -0.601562 5.78125 -0.3125 C 5.332031 -0.0195312 4.738281 0.125 4 0.125 C 3.300781 0.125 2.695312 -0.00390625 2.1875 -0.265625 C 1.6875 -0.535156 1.296875 -0.929688 1.015625 -1.453125 C 0.742188 -1.972656 0.609375 -2.613281 0.609375 -3.375 C 0.609375 -4.132812 0.75 -4.773438 1.03125 -5.296875 C 1.320312 -5.828125 1.710938 -6.222656 2.203125 -6.484375 C 2.703125 -6.742188 3.257812 -6.875 3.875 -6.875 C 4.832031 -6.875 5.5625 -6.617188 6.0625 -6.109375 C 6.570312 -5.609375 6.828125 -4.867188 6.828125 -3.890625 C 6.828125 -3.535156 6.816406 -3.257812 6.796875 -3.0625 Z M 5.21875 -4.09375 C 5.195312 -4.601562 5.070312 -4.972656 4.84375 -5.203125 C 4.625 -5.441406 4.300781 -5.5625 3.875 -5.5625 C 3.019531 -5.5625 2.519531 -5.070312 2.375 -4.09375 Z M 5.21875 -4.09375 "/></g></g></g><g fill="#000000" fill-opacity="1"><g transform="translate(81.257496, 17.22117)"><g><path d="M 0.96875 0 L 0.96875 -6.75 L 2.625 -6.75 L 2.625 -5.75 L 2.75 -5.71875 C 2.90625 -6.09375 3.113281 -6.367188 3.375 -6.546875 C 3.644531 -6.722656 3.972656 -6.8125 4.359375 -6.8125 C 4.742188 -6.8125 5.035156 -6.742188 5.234375 -6.609375 L 4.9375 -5.15625 L 4.8125 -5.125 C 4.707031 -5.164062 4.601562 -5.195312 4.5 -5.21875 C 4.394531 -5.238281 4.269531 -5.25 4.125 -5.25 C 3.65625 -5.25 3.296875 -5.082031 3.046875 -4.75 C 2.796875 -4.425781 2.671875 -3.894531 2.671875 -3.15625 L 2.671875 0 Z M 0.96875 0 "/></g></g></g><g fill="#000000" fill-opacity="1"><g transform="translate(86.550936, 17.22117)"><g><path d="M 6.671875 -2.984375 L 2.328125 -2.984375 C 2.378906 -2.398438 2.546875 -1.972656 2.828125 -1.703125 C 3.117188 -1.441406 3.507812 -1.3125 4 -1.3125 C 4.382812 -1.3125 4.695312 -1.382812 4.9375 -1.53125 C 5.1875 -1.675781 5.382812 -1.894531 5.53125 -2.1875 L 5.65625 -2.1875 L 6.78125 -1.46875 C 6.5625 -0.988281 6.226562 -0.601562 5.78125 -0.3125 C 5.332031 -0.0195312 4.738281 0.125 4 0.125 C 3.300781 0.125 2.695312 -0.00390625 2.1875 -0.265625 C 1.6875 -0.535156 1.296875 -0.929688 1.015625 -1.453125 C 0.742188 -1.972656 0.609375 -2.613281 0.609375 -3.375 C 0.609375 -4.132812 0.75 -4.773438 1.03125 -5.296875 C 1.320312 -5.828125 1.710938 -6.222656 2.203125 -6.484375 C 2.703125 -6.742188 3.257812 -6.875 3.875 -6.875 C 4.832031 -6.875 5.5625 -6.617188 6.0625 -6.109375 C 6.570312 -5.609375 6.828125 -4.867188 6.828125 -3.890625 C 6.828125 -3.535156 6.816406 -3.257812 6.796875 -3.0625 Z M 5.21875 -4.09375 C 5.195312 -4.601562 5.070312 -4.972656 4.84375 -5.203125 C 4.625 -5.441406 4.300781 -5.5625 3.875 -5.5625 C 3.019531 -5.5625 2.519531 -5.070312 2.375 -4.09375 Z M 5.21875 -4.09375 "/></g></g></g><g fill="#000000" fill-opacity="1"><g transform="translate(93.888314, 17.22117)"><g><path d="M 0.96875 0 L 0.96875 -6.75 L 2.59375 -6.75 L 2.59375 -5.75 L 2.734375 -5.734375 C 3.148438 -6.492188 3.828125 -6.875 4.765625 -6.875 C 5.546875 -6.875 6.117188 -6.660156 6.484375 -6.234375 C 6.847656 -5.816406 7.03125 -5.203125 7.03125 -4.390625 L 7.03125 0 L 5.34375 0 L 5.34375 -4.171875 C 5.34375 -4.628906 5.25 -4.957031 5.0625 -5.15625 C 4.882812 -5.351562 4.597656 -5.453125 4.203125 -5.453125 C 3.722656 -5.453125 3.347656 -5.289062 3.078125 -4.96875 C 2.804688 -4.65625 2.671875 -4.164062 2.671875 -3.5 L 2.671875 0 Z M 0.96875 0 "/></g></g></g><g fill="#000000" fill-opacity="1"><g transform="translate(101.794806, 17.22117)"><g><path d="M 3.9375 0.125 C 3.28125 0.125 2.703125 -0.0078125 2.203125 -0.28125 C 1.703125 -0.550781 1.3125 -0.945312 1.03125 -1.46875 C 0.75 -2 0.609375 -2.632812 0.609375 -3.375 C 0.609375 -4.113281 0.75 -4.742188 1.03125 -5.265625 C 1.3125 -5.796875 1.695312 -6.195312 2.1875 -6.46875 C 2.6875 -6.738281 3.257812 -6.875 3.90625 -6.875 C 5.332031 -6.875 6.242188 -6.359375 6.640625 -5.328125 L 5.46875 -4.5 L 5.34375 -4.5 C 5.207031 -4.8125 5.023438 -5.046875 4.796875 -5.203125 C 4.578125 -5.359375 4.28125 -5.4375 3.90625 -5.4375 C 3.414062 -5.4375 3.03125 -5.265625 2.75 -4.921875 C 2.476562 -4.585938 2.34375 -4.070312 2.34375 -3.375 C 2.34375 -2.675781 2.484375 -2.15625 2.765625 -1.8125 C 3.046875 -1.476562 3.4375 -1.3125 3.9375 -1.3125 C 4.300781 -1.3125 4.609375 -1.410156 4.859375 -1.609375 C 5.117188 -1.804688 5.304688 -2.085938 5.421875 -2.453125 L 5.546875 -2.46875 L 6.75 -1.8125 C 6.570312 -1.238281 6.253906 -0.769531 5.796875 -0.40625 C 5.335938 -0.0507812 4.71875 0.125 3.9375 0.125 Z M 3.9375 0.125 "/></g></g></g><g fill="#000000" fill-opacity="1"><g transform="translate(108.752771, 17.22117)"><g><path d="M 6.671875 -2.984375 L 2.328125 -2.984375 C 2.378906 -2.398438 2.546875 -1.972656 2.828125 -1.703125 C 3.117188 -1.441406 3.507812 -1.3125 4 -1.3125 C 4.382812 -1.3125 4.695312 -1.382812 4.9375 -1.53125 C 5.1875 -1.675781 5.382812 -1.894531 5.53125 -2.1875 L 5.65625 -2.1875 L 6.78125 -1.46875 C 6.5625 -0.988281 6.226562 -0.601562 5.78125 -0.3125 C 5.332031 -0.0195312 4.738281 0.125 4 0.125 C 3.300781 0.125 2.695312 -0.00390625 2.1875 -0.265625 C 1.6875 -0.535156 1.296875 -0.929688 1.015625 -1.453125 C 0.742188 -1.972656 0.609375 -2.613281 0.609375 -3.375 C 0.609375 -4.132812 0.75 -4.773438 1.03125 -5.296875 C 1.320312 -5.828125 1.710938 -6.222656 2.203125 -6.484375 C 2.703125 -6.742188 3.257812 -6.875 3.875 -6.875 C 4.832031 -6.875 5.5625 -6.617188 6.0625 -6.109375 C 6.570312 -5.609375 6.828125 -4.867188 6.828125 -3.890625 C 6.828125 -3.535156 6.816406 -3.257812 6.796875 -3.0625 Z M 5.21875 -4.09375 C 5.195312 -4.601562 5.070312 -4.972656 4.84375 -5.203125 C 4.625 -5.441406 4.300781 -5.5625 3.875 -5.5625 C 3.019531 -5.5625 2.519531 -5.070312 2.375 -4.09375 Z M 5.21875 -4.09375 "/></g></g></g><g fill="#000000" fill-opacity="1"><g transform="translate(44.694401, 34.147184)"><g><path d="M 3.9375 0.125 C 3.28125 0.125 2.703125 -0.0078125 2.203125 -0.28125 C 1.703125 -0.550781 1.3125 -0.945312 1.03125 -1.46875 C 0.75 -2 0.609375 -2.632812 0.609375 -3.375 C 0.609375 -4.113281 0.75 -4.742188 1.03125 -5.265625 C 1.3125 -5.796875 1.695312 -6.195312 2.1875 -6.46875 C 2.6875 -6.738281 3.257812 -6.875 3.90625 -6.875 C 5.332031 -6.875 6.242188 -6.359375 6.640625 -5.328125 L 5.46875 -4.5 L 5.34375 -4.5 C 5.207031 -4.8125 5.023438 -5.046875 4.796875 -5.203125 C 4.578125 -5.359375 4.28125 -5.4375 3.90625 -5.4375 C 3.414062 -5.4375 3.03125 -5.265625 2.75 -4.921875 C 2.476562 -4.585938 2.34375 -4.070312 2.34375 -3.375 C 2.34375 -2.675781 2.484375 -2.15625 2.765625 -1.8125 C 3.046875 -1.476562 3.4375 -1.3125 3.9375 -1.3125 C 4.300781 -1.3125 4.609375 -1.410156 4.859375 -1.609375 C 5.117188 -1.804688 5.304688 -2.085938 5.421875 -2.453125 L 5.546875 -2.46875 L 6.75 -1.8125 C 6.570312 -1.238281 6.253906 -0.769531 5.796875 -0.40625 C 5.335938 -0.0507812 4.71875 0.125 3.9375 0.125 Z M 3.9375 0.125 "/></g></g></g><g fill="#000000" fill-opacity="1"><g transform="translate(51.652366, 34.147184)"><g><path d="M 0.96875 0 L 0.96875 -9.453125 L 2.671875 -9.453125 L 2.671875 -5.875 L 2.796875 -5.84375 C 3.023438 -6.175781 3.300781 -6.429688 3.625 -6.609375 C 3.945312 -6.785156 4.335938 -6.875 4.796875 -6.875 C 6.285156 -6.875 7.03125 -6.03125 7.03125 -4.34375 L 7.03125 0 L 5.34375 0 L 5.34375 -4.125 C 5.34375 -4.59375 5.25 -4.929688 5.0625 -5.140625 C 4.882812 -5.347656 4.597656 -5.453125 4.203125 -5.453125 C 3.734375 -5.453125 3.359375 -5.289062 3.078125 -4.96875 C 2.804688 -4.65625 2.671875 -4.164062 2.671875 -3.5 L 2.671875 0 Z M 0.96875 0 "/></g></g></g><g fill="#000000" fill-opacity="1"><g transform="translate(59.558858, 34.147184)"><g><path d="M 2.625 0.125 C 2.195312 0.125 1.820312 0.046875 1.5 -0.109375 C 1.1875 -0.265625 0.941406 -0.492188 0.765625 -0.796875 C 0.597656 -1.109375 0.515625 -1.484375 0.515625 -1.921875 C 0.515625 -2.316406 0.597656 -2.648438 0.765625 -2.921875 C 0.941406 -3.191406 1.207031 -3.414062 1.5625 -3.59375 C 1.925781 -3.769531 2.394531 -3.90625 2.96875 -4 C 3.375 -4.0625 3.679688 -4.128906 3.890625 -4.203125 C 4.097656 -4.285156 4.238281 -4.375 4.3125 -4.46875 C 4.394531 -4.570312 4.4375 -4.695312 4.4375 -4.84375 C 4.4375 -5.0625 4.359375 -5.226562 4.203125 -5.34375 C 4.054688 -5.457031 3.804688 -5.515625 3.453125 -5.515625 C 3.078125 -5.515625 2.71875 -5.429688 2.375 -5.265625 C 2.039062 -5.097656 1.75 -4.875 1.5 -4.59375 L 1.375 -4.59375 L 0.671875 -5.671875 C 1.015625 -6.046875 1.429688 -6.335938 1.921875 -6.546875 C 2.410156 -6.765625 2.945312 -6.875 3.53125 -6.875 C 4.425781 -6.875 5.070312 -6.679688 5.46875 -6.296875 C 5.875 -5.921875 6.078125 -5.382812 6.078125 -4.6875 L 6.078125 -1.765625 C 6.078125 -1.460938 6.207031 -1.3125 6.46875 -1.3125 C 6.570312 -1.3125 6.675781 -1.328125 6.78125 -1.359375 L 6.859375 -1.34375 L 6.984375 -0.15625 C 6.890625 -0.09375 6.757812 -0.0390625 6.59375 0 C 6.425781 0.03125 6.242188 0.046875 6.046875 0.046875 C 5.640625 0.046875 5.320312 -0.03125 5.09375 -0.1875 C 4.863281 -0.34375 4.703125 -0.582031 4.609375 -0.90625 L 4.484375 -0.921875 C 4.148438 -0.222656 3.53125 0.125 2.625 0.125 Z M 3.171875 -1.140625 C 3.554688 -1.140625 3.863281 -1.269531 4.09375 -1.53125 C 4.332031 -1.789062 4.453125 -2.15625 4.453125 -2.625 L 4.453125 -3.3125 L 4.34375 -3.34375 C 4.238281 -3.257812 4.101562 -3.1875 3.9375 -3.125 C 3.78125 -3.070312 3.546875 -3.019531 3.234375 -2.96875 C 2.867188 -2.90625 2.601562 -2.800781 2.4375 -2.65625 C 2.28125 -2.507812 2.203125 -2.300781 2.203125 -2.03125 C 2.203125 -1.738281 2.285156 -1.515625 2.453125 -1.359375 C 2.617188 -1.210938 2.859375 -1.140625 3.171875 -1.140625 Z M 3.171875 -1.140625 "/></g></g></g><g fill="#000000" fill-opacity="1"><g transform="translate(66.675932, 34.147184)"><g><path d="M 0.96875 0 L 0.96875 -6.75 L 2.59375 -6.75 L 2.59375 -5.75 L 2.734375 -5.734375 C 3.148438 -6.492188 3.828125 -6.875 4.765625 -6.875 C 5.546875 -6.875 6.117188 -6.660156 6.484375 -6.234375 C 6.847656 -5.816406 7.03125 -5.203125 7.03125 -4.390625 L 7.03125 0 L 5.34375 0 L 5.34375 -4.171875 C 5.34375 -4.628906 5.25 -4.957031 5.0625 -5.15625 C 4.882812 -5.351562 4.597656 -5.453125 4.203125 -5.453125 C 3.722656 -5.453125 3.347656 -5.289062 3.078125 -4.96875 C 2.804688 -4.65625 2.671875 -4.164062 2.671875 -3.5 L 2.671875 0 Z M 0.96875 0 "/></g></g></g><g fill="#000000" fill-opacity="1"><g transform="translate(74.582423, 34.147184)"><g><path d="M 0.96875 0 L 0.96875 -6.75 L 2.59375 -6.75 L 2.59375 -5.75 L 2.734375 -5.734375 C 3.148438 -6.492188 3.828125 -6.875 4.765625 -6.875 C 5.546875 -6.875 6.117188 -6.660156 6.484375 -6.234375 C 6.847656 -5.816406 7.03125 -5.203125 7.03125 -4.390625 L 7.03125 0 L 5.34375 0 L 5.34375 -4.171875 C 5.34375 -4.628906 5.25 -4.957031 5.0625 -5.15625 C 4.882812 -5.351562 4.597656 -5.453125 4.203125 -5.453125 C 3.722656 -5.453125 3.347656 -5.289062 3.078125 -4.96875 C 2.804688 -4.65625 2.671875 -4.164062 2.671875 -3.5 L 2.671875 0 Z M 0.96875 0 "/></g></g></g><g fill="#000000" fill-opacity="1"><g transform="translate(82.488915, 34.147184)"><g><path d="M 6.671875 -2.984375 L 2.328125 -2.984375 C 2.378906 -2.398438 2.546875 -1.972656 2.828125 -1.703125 C 3.117188 -1.441406 3.507812 -1.3125 4 -1.3125 C 4.382812 -1.3125 4.695312 -1.382812 4.9375 -1.53125 C 5.1875 -1.675781 5.382812 -1.894531 5.53125 -2.1875 L 5.65625 -2.1875 L 6.78125 -1.46875 C 6.5625 -0.988281 6.226562 -0.601562 5.78125 -0.3125 C 5.332031 -0.0195312 4.738281 0.125 4 0.125 C 3.300781 0.125 2.695312 -0.00390625 2.1875 -0.265625 C 1.6875 -0.535156 1.296875 -0.929688 1.015625 -1.453125 C 0.742188 -1.972656 0.609375 -2.613281 0.609375 -3.375 C 0.609375 -4.132812 0.75 -4.773438 1.03125 -5.296875 C 1.320312 -5.828125 1.710938 -6.222656 2.203125 -6.484375 C 2.703125 -6.742188 3.257812 -6.875 3.875 -6.875 C 4.832031 -6.875 5.5625 -6.617188 6.0625 -6.109375 C 6.570312 -5.609375 6.828125 -4.867188 6.828125 -3.890625 C 6.828125 -3.535156 6.816406 -3.257812 6.796875 -3.0625 Z M 5.21875 -4.09375 C 5.195312 -4.601562 5.070312 -4.972656 4.84375 -5.203125 C 4.625 -5.441406 4.300781 -5.5625 3.875 -5.5625 C 3.019531 -5.5625 2.519531 -5.070312 2.375 -4.09375 Z M 5.21875 -4.09375 "/></g></g></g><g fill="#000000" fill-opacity="1"><g transform="translate(89.826294, 34.147184)"><g><path d="M 2.796875 0.125 C 2.191406 0.125 1.726562 -0.0351562 1.40625 -0.359375 C 1.09375 -0.691406 0.9375 -1.191406 0.9375 -1.859375 L 0.9375 -9.453125 L 2.625 -9.453125 L 2.625 -1.921875 C 2.625 -1.515625 2.796875 -1.3125 3.140625 -1.3125 C 3.234375 -1.3125 3.335938 -1.328125 3.453125 -1.359375 L 3.53125 -1.328125 L 3.6875 -0.03125 C 3.59375 0.0195312 3.46875 0.0546875 3.3125 0.078125 C 3.15625 0.109375 2.984375 0.125 2.796875 0.125 Z M 2.796875 0.125 "/></g></g></g><g fill="#000000" fill-opacity="1"><g transform="translate(93.706104, 34.147184)"><g><path d="M 3.15625 0.125 C 2.695312 0.125 2.273438 0.0703125 1.890625 -0.03125 C 1.503906 -0.144531 1.175781 -0.296875 0.90625 -0.484375 C 0.632812 -0.671875 0.4375 -0.882812 0.3125 -1.125 L 1.25 -2.140625 L 1.375 -2.140625 C 1.601562 -1.835938 1.867188 -1.609375 2.171875 -1.453125 C 2.472656 -1.304688 2.804688 -1.234375 3.171875 -1.234375 C 3.503906 -1.234375 3.753906 -1.289062 3.921875 -1.40625 C 4.085938 -1.53125 4.171875 -1.703125 4.171875 -1.921875 C 4.171875 -2.097656 4.109375 -2.242188 3.984375 -2.359375 C 3.867188 -2.472656 3.675781 -2.5625 3.40625 -2.625 L 2.515625 -2.84375 C 1.835938 -3 1.34375 -3.238281 1.03125 -3.5625 C 0.726562 -3.894531 0.578125 -4.316406 0.578125 -4.828125 C 0.578125 -5.242188 0.679688 -5.609375 0.890625 -5.921875 C 1.109375 -6.234375 1.410156 -6.46875 1.796875 -6.625 C 2.191406 -6.789062 2.648438 -6.875 3.171875 -6.875 C 3.773438 -6.875 4.273438 -6.785156 4.671875 -6.609375 C 5.078125 -6.429688 5.390625 -6.195312 5.609375 -5.90625 L 4.71875 -4.9375 L 4.59375 -4.9375 C 4.40625 -5.144531 4.191406 -5.296875 3.953125 -5.390625 C 3.722656 -5.492188 3.460938 -5.546875 3.171875 -5.546875 C 2.503906 -5.546875 2.171875 -5.335938 2.171875 -4.921875 C 2.171875 -4.742188 2.234375 -4.597656 2.359375 -4.484375 C 2.484375 -4.378906 2.703125 -4.289062 3.015625 -4.21875 L 3.84375 -4.03125 C 4.53125 -3.882812 5.03125 -3.648438 5.34375 -3.328125 C 5.65625 -3.003906 5.8125 -2.570312 5.8125 -2.03125 C 5.8125 -1.601562 5.707031 -1.222656 5.5 -0.890625 C 5.289062 -0.566406 4.984375 -0.316406 4.578125 -0.140625 C 4.179688 0.0351562 3.707031 0.125 3.15625 0.125 Z M 3.15625 0.125 "/></g></g></g><g clip-path="url(#77f2795e90)"><path fill="#ffa700" d="M 287.714844 0 L 410.789062 0 L 430.605469 21.570312 L 410.789062 42.867188 L 287.714844 42.867188 L 307.53125 21.570312 Z M 287.714844 0 " fill-opacity="1" fill-rule="evenodd"/></g><g clip-path="url(#78a4884c44)"><path fill="#be4c91" d="M 287.714844 54.871094 L 430.605469 54.871094 L 430.605469 57.15625 L 287.714844 57.15625 Z M 287.714844 54.871094 " fill-opacity="1" fill-rule="nonzero"/></g><path fill="#ffa700" d="M 364.875 56.015625 C 364.875 56.390625 364.839844 56.761719 364.765625 57.128906 C 364.691406 57.496094 364.585938 57.855469 364.441406 58.203125 C 364.296875 58.546875 364.121094 58.878906 363.914062 59.191406 C 363.703125 59.5 363.464844 59.789062 363.203125 60.054688 C 362.9375 60.320312 362.648438 60.558594 362.335938 60.765625 C 362.023438 60.976562 361.695312 61.152344 361.347656 61.292969 C 361 61.4375 360.644531 61.546875 360.273438 61.621094 C 359.90625 61.691406 359.535156 61.730469 359.160156 61.730469 C 358.785156 61.730469 358.414062 61.691406 358.042969 61.621094 C 357.675781 61.546875 357.320312 61.4375 356.972656 61.292969 C 356.625 61.152344 356.296875 60.976562 355.984375 60.765625 C 355.671875 60.558594 355.382812 60.320312 355.117188 60.054688 C 354.851562 59.789062 354.617188 59.5 354.40625 59.191406 C 354.199219 58.878906 354.023438 58.546875 353.878906 58.203125 C 353.734375 57.855469 353.628906 57.496094 353.554688 57.128906 C 353.480469 56.761719 353.445312 56.390625 353.445312 56.015625 C 353.445312 55.640625 353.480469 55.265625 353.554688 54.898438 C 353.628906 54.53125 353.734375 54.171875 353.878906 53.828125 C 354.023438 53.480469 354.199219 53.152344 354.40625 52.839844 C 354.617188 52.527344 354.851562 52.238281 355.117188 51.972656 C 355.382812 51.707031 355.671875 51.46875 355.984375 51.261719 C 356.296875 51.054688 356.625 50.878906 356.972656 50.734375 C 357.320312 50.589844 357.675781 50.480469 358.042969 50.410156 C 358.414062 50.335938 358.785156 50.296875 359.160156 50.296875 C 359.535156 50.296875 359.90625 50.335938 360.273438 50.410156 C 360.644531 50.480469 361 50.589844 361.347656 50.734375 C 361.695312 50.878906 362.023438 51.054688 362.335938 51.261719 C 362.648438 51.46875 362.9375 51.707031 363.203125 51.972656 C 363.464844 52.238281 363.703125 52.527344 363.914062 52.839844 C 364.121094 53.152344 364.296875 53.480469 364.441406 53.828125 C 364.585938 54.171875 364.691406 54.53125 364.765625 54.898438 C 364.839844 55.265625 364.875 55.640625 364.875 56.015625 Z M 364.875 56.015625 " fill-opacity="1" fill-rule="nonzero"/><path fill="#ff625b" d="M 430.605469 0 L 553.679688 0 L 573.5 21.570312 L 553.679688 42.867188 L 430.605469 42.867188 L 450.425781 21.570312 Z M 430.605469 0 " fill-opacity="1" fill-rule="evenodd"/><path fill="#be4c91" d="M 430.605469 54.871094 L 573.5 54.871094 L 573.5 57.15625 L 430.605469 57.15625 Z M 430.605469 54.871094 " fill-opacity="1" fill-rule="nonzero"/><path fill="#ff625b" d="M 507.769531 56.015625 C 507.769531 56.390625 507.730469 56.761719 507.660156 57.128906 C 507.585938 57.496094 507.476562 57.855469 507.332031 58.203125 C 507.191406 58.546875 507.015625 58.878906 506.804688 59.191406 C 506.597656 59.5 506.359375 59.789062 506.09375 60.054688 C 505.828125 60.320312 505.539062 60.558594 505.226562 60.765625 C 504.917969 60.976562 504.585938 61.152344 504.238281 61.292969 C 503.894531 61.4375 503.535156 61.546875 503.167969 61.621094 C 502.800781 61.691406 502.429688 61.730469 502.054688 61.730469 C 501.675781 61.730469 501.304688 61.691406 500.9375 61.621094 C 500.570312 61.546875 500.210938 61.4375 499.867188 61.292969 C 499.519531 61.152344 499.191406 60.976562 498.878906 60.765625 C 498.566406 60.558594 498.277344 60.320312 498.011719 60.054688 C 497.746094 59.789062 497.507812 59.5 497.300781 59.191406 C 497.09375 58.878906 496.914062 58.546875 496.773438 58.203125 C 496.628906 57.855469 496.519531 57.496094 496.445312 57.128906 C 496.375 56.761719 496.335938 56.390625 496.335938 56.015625 C 496.335938 55.640625 496.375 55.265625 496.445312 54.898438 C 496.519531 54.53125 496.628906 54.171875 496.773438 53.828125 C 496.914062 53.480469 497.09375 53.152344 497.300781 52.839844 C 497.507812 52.527344 497.746094 52.238281 498.011719 51.972656 C 498.277344 51.707031 498.566406 51.46875 498.878906 51.261719 C 499.191406 51.054688 499.519531 50.878906 499.867188 50.734375 C 500.210938 50.589844 500.570312 50.480469 500.9375 50.410156 C 501.304688 50.335938 501.675781 50.296875 502.054688 50.296875 C 502.429688 50.296875 502.800781 50.335938 503.167969 50.410156 C 503.535156 50.480469 503.894531 50.589844 504.238281 50.734375 C 504.585938 50.878906 504.917969 51.054688 505.226562 51.261719 C 505.539062 51.46875 505.828125 51.707031 506.09375 51.972656 C 506.359375 52.238281 506.597656 52.527344 506.804688 52.839844 C 507.015625 53.152344 507.191406 53.480469 507.332031 53.828125 C 507.476562 54.171875 507.585938 54.53125 507.660156 54.898438 C 507.730469 55.265625 507.769531 55.640625 507.769531 56.015625 Z M 507.769531 56.015625 " fill-opacity="1" fill-rule="nonzero"/><g clip-path="url(#730de8f9ad)"><path fill="#ffa700" d="M 573.5 0 L 696.574219 0 L 716.394531 21.570312 L 696.574219 42.867188 L 573.5 42.867188 L 593.320312 21.570312 Z M 573.5 0 " fill-opacity="1" fill-rule="evenodd"/></g><g clip-path="url(#7d611de656)"><path fill="#be4c91" d="M 573.5 54.871094 L 716.394531 54.871094 L 716.394531 57.15625 L 573.5 57.15625 Z M 573.5 54.871094 " fill-opacity="1" fill-rule="nonzero"/></g><g fill="#000000" fill-opacity="1"><g transform="translate(196.375414, 17.22117)"><g><path d="M 8.578125 0 L 6.71875 0 L 6.046875 -2.0625 L 2.625 -2.0625 L 1.953125 0 L 0.140625 0 L 3.21875 -8.953125 L 5.5 -8.953125 Z M 4.25 -7.078125 L 3.109375 -3.546875 L 5.5625 -3.546875 L 4.40625 -7.078125 Z M 4.25 -7.078125 "/></g></g></g><g fill="#000000" fill-opacity="1"><g transform="translate(205.095817, 17.22117)"><g><path d="M 0.96875 2.734375 L 0.96875 -6.75 L 2.671875 -6.75 L 2.671875 -5.875 L 2.796875 -5.84375 C 2.992188 -6.1875 3.257812 -6.441406 3.59375 -6.609375 C 3.925781 -6.785156 4.316406 -6.875 4.765625 -6.875 C 5.316406 -6.875 5.789062 -6.742188 6.1875 -6.484375 C 6.59375 -6.234375 6.910156 -5.84375 7.140625 -5.3125 C 7.367188 -4.789062 7.484375 -4.144531 7.484375 -3.375 C 7.484375 -2.601562 7.363281 -1.957031 7.125 -1.4375 C 6.882812 -0.914062 6.550781 -0.523438 6.125 -0.265625 C 5.707031 -0.00390625 5.21875 0.125 4.65625 0.125 C 4.238281 0.125 3.875 0.0546875 3.5625 -0.078125 C 3.257812 -0.222656 3.003906 -0.441406 2.796875 -0.734375 L 2.671875 -0.71875 L 2.671875 2.734375 Z M 4.1875 -1.3125 C 4.695312 -1.3125 5.082031 -1.472656 5.34375 -1.796875 C 5.601562 -2.128906 5.734375 -2.65625 5.734375 -3.375 C 5.734375 -4.082031 5.601562 -4.601562 5.34375 -4.9375 C 5.082031 -5.269531 4.695312 -5.4375 4.1875 -5.4375 C 3.71875 -5.4375 3.34375 -5.265625 3.0625 -4.921875 C 2.789062 -4.578125 2.65625 -4.0625 2.65625 -3.375 C 2.65625 -2.6875 2.789062 -2.171875 3.0625 -1.828125 C 3.34375 -1.484375 3.71875 -1.3125 4.1875 -1.3125 Z M 4.1875 -1.3125 "/></g></g></g><g fill="#000000" fill-opacity="1"><g transform="translate(213.179784, 17.22117)"><g><path d="M 0.96875 2.734375 L 0.96875 -6.75 L 2.671875 -6.75 L 2.671875 -5.875 L 2.796875 -5.84375 C 2.992188 -6.1875 3.257812 -6.441406 3.59375 -6.609375 C 3.925781 -6.785156 4.316406 -6.875 4.765625 -6.875 C 5.316406 -6.875 5.789062 -6.742188 6.1875 -6.484375 C 6.59375 -6.234375 6.910156 -5.84375 7.140625 -5.3125 C 7.367188 -4.789062 7.484375 -4.144531 7.484375 -3.375 C 7.484375 -2.601562 7.363281 -1.957031 7.125 -1.4375 C 6.882812 -0.914062 6.550781 -0.523438 6.125 -0.265625 C 5.707031 -0.00390625 5.21875 0.125 4.65625 0.125 C 4.238281 0.125 3.875 0.0546875 3.5625 -0.078125 C 3.257812 -0.222656 3.003906 -0.441406 2.796875 -0.734375 L 2.671875 -0.71875 L 2.671875 2.734375 Z M 4.1875 -1.3125 C 4.695312 -1.3125 5.082031 -1.472656 5.34375 -1.796875 C 5.601562 -2.128906 5.734375 -2.65625 5.734375 -3.375 C 5.734375 -4.082031 5.601562 -4.601562 5.34375 -4.9375 C 5.082031 -5.269531 4.695312 -5.4375 4.1875 -5.4375 C 3.71875 -5.4375 3.34375 -5.265625 3.0625 -4.921875 C 2.789062 -4.578125 2.65625 -4.0625 2.65625 -3.375 C 2.65625 -2.6875 2.789062 -2.171875 3.0625 -1.828125 C 3.34375 -1.484375 3.71875 -1.3125 4.1875 -1.3125 Z M 4.1875 -1.3125 "/></g></g></g><g fill="#000000" fill-opacity="1"><g transform="translate(221.26375, 17.22117)"><g><path d="M 2.796875 0.125 C 2.191406 0.125 1.726562 -0.0351562 1.40625 -0.359375 C 1.09375 -0.691406 0.9375 -1.191406 0.9375 -1.859375 L 0.9375 -9.453125 L 2.625 -9.453125 L 2.625 -1.921875 C 2.625 -1.515625 2.796875 -1.3125 3.140625 -1.3125 C 3.234375 -1.3125 3.335938 -1.328125 3.453125 -1.359375 L 3.53125 -1.328125 L 3.6875 -0.03125 C 3.59375 0.0195312 3.46875 0.0546875 3.3125 0.078125 C 3.15625 0.109375 2.984375 0.125 2.796875 0.125 Z M 2.796875 0.125 "/></g></g></g><g fill="#000000" fill-opacity="1"><g transform="translate(225.143561, 17.22117)"><g><path d="M 1.5 2.859375 C 1.207031 2.859375 0.941406 2.835938 0.703125 2.796875 C 0.472656 2.753906 0.285156 2.695312 0.140625 2.625 L 0.40625 1.25 L 0.515625 1.21875 C 0.617188 1.269531 0.742188 1.3125 0.890625 1.34375 C 1.046875 1.375 1.203125 1.390625 1.359375 1.390625 C 1.628906 1.390625 1.851562 1.351562 2.03125 1.28125 C 2.21875 1.207031 2.375 1.085938 2.5 0.921875 C 2.625 0.753906 2.738281 0.523438 2.84375 0.234375 L 0.140625 -6.75 L 1.921875 -6.75 L 3.59375 -2.0625 L 3.75 -2.0625 L 5.375 -6.75 L 7.109375 -6.75 L 4.390625 0.421875 C 4.171875 1.003906 3.929688 1.46875 3.671875 1.8125 C 3.421875 2.164062 3.117188 2.425781 2.765625 2.59375 C 2.410156 2.769531 1.988281 2.859375 1.5 2.859375 Z M 1.5 2.859375 "/></g></g></g><g fill="#000000" fill-opacity="1"><g transform="translate(232.401966, 17.22117)"><g/></g></g><g fill="#000000" fill-opacity="1"><g transform="translate(174.115942, 34.147184)"><g><path d="M 0.96875 0 L 0.96875 -6.75 L 2.625 -6.75 L 2.625 -5.75 L 2.75 -5.71875 C 2.90625 -6.09375 3.113281 -6.367188 3.375 -6.546875 C 3.644531 -6.722656 3.972656 -6.8125 4.359375 -6.8125 C 4.742188 -6.8125 5.035156 -6.742188 5.234375 -6.609375 L 4.9375 -5.15625 L 4.8125 -5.125 C 4.707031 -5.164062 4.601562 -5.195312 4.5 -5.21875 C 4.394531 -5.238281 4.269531 -5.25 4.125 -5.25 C 3.65625 -5.25 3.296875 -5.082031 3.046875 -4.75 C 2.796875 -4.425781 2.671875 -3.894531 2.671875 -3.15625 L 2.671875 0 Z M 0.96875 0 "/></g></g></g><g fill="#000000" fill-opacity="1"><g transform="translate(179.409382, 34.147184)"><g><path d="M 6.671875 -2.984375 L 2.328125 -2.984375 C 2.378906 -2.398438 2.546875 -1.972656 2.828125 -1.703125 C 3.117188 -1.441406 3.507812 -1.3125 4 -1.3125 C 4.382812 -1.3125 4.695312 -1.382812 4.9375 -1.53125 C 5.1875 -1.675781 5.382812 -1.894531 5.53125 -2.1875 L 5.65625 -2.1875 L 6.78125 -1.46875 C 6.5625 -0.988281 6.226562 -0.601562 5.78125 -0.3125 C 5.332031 -0.0195312 4.738281 0.125 4 0.125 C 3.300781 0.125 2.695312 -0.00390625 2.1875 -0.265625 C 1.6875 -0.535156 1.296875 -0.929688 1.015625 -1.453125 C 0.742188 -1.972656 0.609375 -2.613281 0.609375 -3.375 C 0.609375 -4.132812 0.75 -4.773438 1.03125 -5.296875 C 1.320312 -5.828125 1.710938 -6.222656 2.203125 -6.484375 C 2.703125 -6.742188 3.257812 -6.875 3.875 -6.875 C 4.832031 -6.875 5.5625 -6.617188 6.0625 -6.109375 C 6.570312 -5.609375 6.828125 -4.867188 6.828125 -3.890625 C 6.828125 -3.535156 6.816406 -3.257812 6.796875 -3.0625 Z M 5.21875 -4.09375 C 5.195312 -4.601562 5.070312 -4.972656 4.84375 -5.203125 C 4.625 -5.441406 4.300781 -5.5625 3.875 -5.5625 C 3.019531 -5.5625 2.519531 -5.070312 2.375 -4.09375 Z M 5.21875 -4.09375 "/></g></g></g><g fill="#000000" fill-opacity="1"><g transform="translate(186.746761, 34.147184)"><g><path d="M 0.96875 0 L 0.96875 -6.75 L 2.625 -6.75 L 2.625 -5.75 L 2.75 -5.71875 C 2.90625 -6.09375 3.113281 -6.367188 3.375 -6.546875 C 3.644531 -6.722656 3.972656 -6.8125 4.359375 -6.8125 C 4.742188 -6.8125 5.035156 -6.742188 5.234375 -6.609375 L 4.9375 -5.15625 L 4.8125 -5.125 C 4.707031 -5.164062 4.601562 -5.195312 4.5 -5.21875 C 4.394531 -5.238281 4.269531 -5.25 4.125 -5.25 C 3.65625 -5.25 3.296875 -5.082031 3.046875 -4.75 C 2.796875 -4.425781 2.671875 -3.894531 2.671875 -3.15625 L 2.671875 0 Z M 0.96875 0 "/></g></g></g><g fill="#000000" fill-opacity="1"><g transform="translate(192.040201, 34.147184)"><g><path d="M 6.671875 -2.984375 L 2.328125 -2.984375 C 2.378906 -2.398438 2.546875 -1.972656 2.828125 -1.703125 C 3.117188 -1.441406 3.507812 -1.3125 4 -1.3125 C 4.382812 -1.3125 4.695312 -1.382812 4.9375 -1.53125 C 5.1875 -1.675781 5.382812 -1.894531 5.53125 -2.1875 L 5.65625 -2.1875 L 6.78125 -1.46875 C 6.5625 -0.988281 6.226562 -0.601562 5.78125 -0.3125 C 5.332031 -0.0195312 4.738281 0.125 4 0.125 C 3.300781 0.125 2.695312 -0.00390625 2.1875 -0.265625 C 1.6875 -0.535156 1.296875 -0.929688 1.015625 -1.453125 C 0.742188 -1.972656 0.609375 -2.613281 0.609375 -3.375 C 0.609375 -4.132812 0.75 -4.773438 1.03125 -5.296875 C 1.320312 -5.828125 1.710938 -6.222656 2.203125 -6.484375 C 2.703125 -6.742188 3.257812 -6.875 3.875 -6.875 C 4.832031 -6.875 5.5625 -6.617188 6.0625 -6.109375 C 6.570312 -5.609375 6.828125 -4.867188 6.828125 -3.890625 C 6.828125 -3.535156 6.816406 -3.257812 6.796875 -3.0625 Z M 5.21875 -4.09375 C 5.195312 -4.601562 5.070312 -4.972656 4.84375 -5.203125 C 4.625 -5.441406 4.300781 -5.5625 3.875 -5.5625 C 3.019531 -5.5625 2.519531 -5.070312 2.375 -4.09375 Z M 5.21875 -4.09375 "/></g></g></g><g fill="#000000" fill-opacity="1"><g transform="translate(199.377579, 34.147184)"><g><path d="M 1.1875 0 L 1.1875 -5.40625 L 0.21875 -5.40625 L 0.21875 -6.75 L 1.1875 -6.75 C 1.113281 -7.039062 1.078125 -7.3125 1.078125 -7.5625 C 1.078125 -7.988281 1.175781 -8.351562 1.375 -8.65625 C 1.570312 -8.957031 1.851562 -9.1875 2.21875 -9.34375 C 2.582031 -9.507812 3.019531 -9.59375 3.53125 -9.59375 C 4.269531 -9.59375 4.820312 -9.460938 5.1875 -9.203125 L 4.796875 -7.953125 L 4.671875 -7.9375 C 4.421875 -8.113281 4.097656 -8.203125 3.703125 -8.203125 C 3.390625 -8.203125 3.15625 -8.125 3 -7.96875 C 2.851562 -7.820312 2.78125 -7.617188 2.78125 -7.359375 C 2.78125 -7.253906 2.785156 -7.15625 2.796875 -7.0625 C 2.816406 -6.96875 2.84375 -6.863281 2.875 -6.75 L 4.796875 -6.75 L 4.796875 -5.40625 L 2.875 -5.40625 L 2.875 0 Z M 1.1875 0 "/></g></g></g><g fill="#000000" fill-opacity="1"><g transform="translate(204.248761, 34.147184)"><g><path d="M 6.671875 -2.984375 L 2.328125 -2.984375 C 2.378906 -2.398438 2.546875 -1.972656 2.828125 -1.703125 C 3.117188 -1.441406 3.507812 -1.3125 4 -1.3125 C 4.382812 -1.3125 4.695312 -1.382812 4.9375 -1.53125 C 5.1875 -1.675781 5.382812 -1.894531 5.53125 -2.1875 L 5.65625 -2.1875 L 6.78125 -1.46875 C 6.5625 -0.988281 6.226562 -0.601562 5.78125 -0.3125 C 5.332031 -0.0195312 4.738281 0.125 4 0.125 C 3.300781 0.125 2.695312 -0.00390625 2.1875 -0.265625 C 1.6875 -0.535156 1.296875 -0.929688 1.015625 -1.453125 C 0.742188 -1.972656 0.609375 -2.613281 0.609375 -3.375 C 0.609375 -4.132812 0.75 -4.773438 1.03125 -5.296875 C 1.320312 -5.828125 1.710938 -6.222656 2.203125 -6.484375 C 2.703125 -6.742188 3.257812 -6.875 3.875 -6.875 C 4.832031 -6.875 5.5625 -6.617188 6.0625 -6.109375 C 6.570312 -5.609375 6.828125 -4.867188 6.828125 -3.890625 C 6.828125 -3.535156 6.816406 -3.257812 6.796875 -3.0625 Z M 5.21875 -4.09375 C 5.195312 -4.601562 5.070312 -4.972656 4.84375 -5.203125 C 4.625 -5.441406 4.300781 -5.5625 3.875 -5.5625 C 3.019531 -5.5625 2.519531 -5.070312 2.375 -4.09375 Z M 5.21875 -4.09375 "/></g></g></g><g fill="#000000" fill-opacity="1"><g transform="translate(211.58614, 34.147184)"><g><path d="M 0.96875 0 L 0.96875 -6.75 L 2.625 -6.75 L 2.625 -5.75 L 2.75 -5.71875 C 2.90625 -6.09375 3.113281 -6.367188 3.375 -6.546875 C 3.644531 -6.722656 3.972656 -6.8125 4.359375 -6.8125 C 4.742188 -6.8125 5.035156 -6.742188 5.234375 -6.609375 L 4.9375 -5.15625 L 4.8125 -5.125 C 4.707031 -5.164062 4.601562 -5.195312 4.5 -5.21875 C 4.394531 -5.238281 4.269531 -5.25 4.125 -5.25 C 3.65625 -5.25 3.296875 -5.082031 3.046875 -4.75 C 2.796875 -4.425781 2.671875 -3.894531 2.671875 -3.15625 L 2.671875 0 Z M 0.96875 0 "/></g></g></g><g fill="#000000" fill-opacity="1"><g transform="translate(216.87958, 34.147184)"><g><path d="M 6.671875 -2.984375 L 2.328125 -2.984375 C 2.378906 -2.398438 2.546875 -1.972656 2.828125 -1.703125 C 3.117188 -1.441406 3.507812 -1.3125 4 -1.3125 C 4.382812 -1.3125 4.695312 -1.382812 4.9375 -1.53125 C 5.1875 -1.675781 5.382812 -1.894531 5.53125 -2.1875 L 5.65625 -2.1875 L 6.78125 -1.46875 C 6.5625 -0.988281 6.226562 -0.601562 5.78125 -0.3125 C 5.332031 -0.0195312 4.738281 0.125 4 0.125 C 3.300781 0.125 2.695312 -0.00390625 2.1875 -0.265625 C 1.6875 -0.535156 1.296875 -0.929688 1.015625 -1.453125 C 0.742188 -1.972656 0.609375 -2.613281 0.609375 -3.375 C 0.609375 -4.132812 0.75 -4.773438 1.03125 -5.296875 C 1.320312 -5.828125 1.710938 -6.222656 2.203125 -6.484375 C 2.703125 -6.742188 3.257812 -6.875 3.875 -6.875 C 4.832031 -6.875 5.5625 -6.617188 6.0625 -6.109375 C 6.570312 -5.609375 6.828125 -4.867188 6.828125 -3.890625 C 6.828125 -3.535156 6.816406 -3.257812 6.796875 -3.0625 Z M 5.21875 -4.09375 C 5.195312 -4.601562 5.070312 -4.972656 4.84375 -5.203125 C 4.625 -5.441406 4.300781 -5.5625 3.875 -5.5625 C 3.019531 -5.5625 2.519531 -5.070312 2.375 -4.09375 Z M 5.21875 -4.09375 "/></g></g></g><g fill="#000000" fill-opacity="1"><g transform="translate(224.216958, 34.147184)"><g><path d="M 0.96875 0 L 0.96875 -6.75 L 2.59375 -6.75 L 2.59375 -5.75 L 2.734375 -5.734375 C 3.148438 -6.492188 3.828125 -6.875 4.765625 -6.875 C 5.546875 -6.875 6.117188 -6.660156 6.484375 -6.234375 C 6.847656 -5.816406 7.03125 -5.203125 7.03125 -4.390625 L 7.03125 0 L 5.34375 0 L 5.34375 -4.171875 C 5.34375 -4.628906 5.25 -4.957031 5.0625 -5.15625 C 4.882812 -5.351562 4.597656 -5.453125 4.203125 -5.453125 C 3.722656 -5.453125 3.347656 -5.289062 3.078125 -4.96875 C 2.804688 -4.65625 2.671875 -4.164062 2.671875 -3.5 L 2.671875 0 Z M 0.96875 0 "/></g></g></g><g fill="#000000" fill-opacity="1"><g transform="translate(232.12345, 34.147184)"><g><path d="M 3.9375 0.125 C 3.28125 0.125 2.703125 -0.0078125 2.203125 -0.28125 C 1.703125 -0.550781 1.3125 -0.945312 1.03125 -1.46875 C 0.75 -2 0.609375 -2.632812 0.609375 -3.375 C 0.609375 -4.113281 0.75 -4.742188 1.03125 -5.265625 C 1.3125 -5.796875 1.695312 -6.195312 2.1875 -6.46875 C 2.6875 -6.738281 3.257812 -6.875 3.90625 -6.875 C 5.332031 -6.875 6.242188 -6.359375 6.640625 -5.328125 L 5.46875 -4.5 L 5.34375 -4.5 C 5.207031 -4.8125 5.023438 -5.046875 4.796875 -5.203125 C 4.578125 -5.359375 4.28125 -5.4375 3.90625 -5.4375 C 3.414062 -5.4375 3.03125 -5.265625 2.75 -4.921875 C 2.476562 -4.585938 2.34375 -4.070312 2.34375 -3.375 C 2.34375 -2.675781 2.484375 -2.15625 2.765625 -1.8125 C 3.046875 -1.476562 3.4375 -1.3125 3.9375 -1.3125 C 4.300781 -1.3125 4.609375 -1.410156 4.859375 -1.609375 C 5.117188 -1.804688 5.304688 -2.085938 5.421875 -2.453125 L 5.546875 -2.46875 L 6.75 -1.8125 C 6.570312 -1.238281 6.253906 -0.769531 5.796875 -0.40625 C 5.335938 -0.0507812 4.71875 0.125 3.9375 0.125 Z M 3.9375 0.125 "/></g></g></g><g fill="#000000" fill-opacity="1"><g transform="translate(239.081415, 34.147184)"><g><path d="M 1.8125 -7.5625 C 1.507812 -7.5625 1.257812 -7.648438 1.0625 -7.828125 C 0.875 -8.015625 0.78125 -8.253906 0.78125 -8.546875 C 0.78125 -8.835938 0.875 -9.078125 1.0625 -9.265625 C 1.257812 -9.453125 1.507812 -9.546875 1.8125 -9.546875 C 2.019531 -9.546875 2.203125 -9.5 2.359375 -9.40625 C 2.515625 -9.320312 2.632812 -9.207031 2.71875 -9.0625 C 2.8125 -8.914062 2.859375 -8.742188 2.859375 -8.546875 C 2.859375 -8.359375 2.8125 -8.1875 2.71875 -8.03125 C 2.632812 -7.882812 2.515625 -7.769531 2.359375 -7.6875 C 2.203125 -7.601562 2.019531 -7.5625 1.8125 -7.5625 Z M 0.96875 0 L 0.96875 -6.75 L 2.671875 -6.75 L 2.671875 0 Z M 0.96875 0 "/></g></g></g><g fill="#000000" fill-opacity="1"><g transform="translate(242.716443, 34.147184)"><g><path d="M 0.96875 0 L 0.96875 -6.75 L 2.59375 -6.75 L 2.59375 -5.75 L 2.734375 -5.734375 C 3.148438 -6.492188 3.828125 -6.875 4.765625 -6.875 C 5.546875 -6.875 6.117188 -6.660156 6.484375 -6.234375 C 6.847656 -5.816406 7.03125 -5.203125 7.03125 -4.390625 L 7.03125 0 L 5.34375 0 L 5.34375 -4.171875 C 5.34375 -4.628906 5.25 -4.957031 5.0625 -5.15625 C 4.882812 -5.351562 4.597656 -5.453125 4.203125 -5.453125 C 3.722656 -5.453125 3.347656 -5.289062 3.078125 -4.96875 C 2.804688 -4.65625 2.671875 -4.164062 2.671875 -3.5 L 2.671875 0 Z M 0.96875 0 "/></g></g></g><g fill="#000000" fill-opacity="1"><g transform="translate(250.622934, 34.147184)"><g><path d="M 3.5 2.859375 C 2.382812 2.859375 1.5625 2.695312 1.03125 2.375 C 0.5 2.050781 0.234375 1.597656 0.234375 1.015625 C 0.234375 0.660156 0.347656 0.367188 0.578125 0.140625 C 0.804688 -0.0859375 1.128906 -0.238281 1.546875 -0.3125 L 1.546875 -0.453125 C 1.328125 -0.585938 1.164062 -0.738281 1.0625 -0.90625 C 0.957031 -1.070312 0.90625 -1.269531 0.90625 -1.5 C 0.90625 -2.039062 1.257812 -2.40625 1.96875 -2.59375 L 1.96875 -2.71875 C 1.601562 -2.925781 1.328125 -3.179688 1.140625 -3.484375 C 0.960938 -3.796875 0.875 -4.171875 0.875 -4.609375 C 0.875 -5.054688 0.976562 -5.453125 1.1875 -5.796875 C 1.394531 -6.140625 1.695312 -6.40625 2.09375 -6.59375 C 2.488281 -6.78125 2.960938 -6.875 3.515625 -6.875 C 4.078125 -6.875 4.523438 -6.773438 4.859375 -6.578125 C 5.066406 -6.878906 5.1875 -7.226562 5.21875 -7.625 L 5.359375 -7.703125 L 6.578125 -7.40625 C 6.535156 -7.082031 6.4375 -6.8125 6.28125 -6.59375 C 6.132812 -6.375 5.90625 -6.179688 5.59375 -6.015625 L 5.59375 -5.875 C 5.96875 -5.539062 6.15625 -5.078125 6.15625 -4.484375 C 6.15625 -4.066406 6.050781 -3.691406 5.84375 -3.359375 C 5.632812 -3.023438 5.332031 -2.757812 4.9375 -2.5625 C 4.539062 -2.375 4.066406 -2.28125 3.515625 -2.28125 L 3.265625 -2.296875 C 3.097656 -2.304688 2.984375 -2.3125 2.921875 -2.3125 C 2.765625 -2.3125 2.640625 -2.269531 2.546875 -2.1875 C 2.460938 -2.101562 2.421875 -1.992188 2.421875 -1.859375 C 2.421875 -1.710938 2.476562 -1.597656 2.59375 -1.515625 C 2.707031 -1.441406 2.875 -1.398438 3.09375 -1.390625 L 4.609375 -1.34375 C 6.097656 -1.289062 6.84375 -0.644531 6.84375 0.59375 C 6.84375 1.019531 6.734375 1.40625 6.515625 1.75 C 6.296875 2.09375 5.9375 2.363281 5.4375 2.5625 C 4.9375 2.757812 4.289062 2.859375 3.5 2.859375 Z M 3.515625 -3.46875 C 3.835938 -3.46875 4.09375 -3.5625 4.28125 -3.75 C 4.46875 -3.945312 4.5625 -4.222656 4.5625 -4.578125 C 4.5625 -4.929688 4.46875 -5.203125 4.28125 -5.390625 C 4.09375 -5.585938 3.835938 -5.6875 3.515625 -5.6875 C 3.179688 -5.6875 2.925781 -5.585938 2.75 -5.390625 C 2.570312 -5.203125 2.484375 -4.929688 2.484375 -4.578125 C 2.484375 -4.222656 2.570312 -3.945312 2.75 -3.75 C 2.925781 -3.5625 3.179688 -3.46875 3.515625 -3.46875 Z M 3.5 1.640625 C 4.082031 1.640625 4.503906 1.554688 4.765625 1.390625 C 5.023438 1.222656 5.15625 1.007812 5.15625 0.75 C 5.15625 0.539062 5.085938 0.382812 4.953125 0.28125 C 4.816406 0.1875 4.601562 0.132812 4.3125 0.125 L 2.984375 0.0625 C 2.929688 0.0625 2.882812 0.0546875 2.84375 0.046875 C 2.8125 0.046875 2.773438 0.046875 2.734375 0.046875 C 2.453125 0.046875 2.234375 0.109375 2.078125 0.234375 C 1.929688 0.359375 1.859375 0.523438 1.859375 0.734375 C 1.859375 1.023438 1.992188 1.25 2.265625 1.40625 C 2.546875 1.5625 2.957031 1.640625 3.5 1.640625 Z M 3.5 1.640625 "/></g></g></g><g fill="#000000" fill-opacity="1"><g transform="translate(323.004389, 25.684176)"><g><path d="M 8.578125 0 L 6.71875 0 L 6.046875 -2.0625 L 2.625 -2.0625 L 1.953125 0 L 0.140625 0 L 3.21875 -8.953125 L 5.5 -8.953125 Z M 4.25 -7.078125 L 3.109375 -3.546875 L 5.5625 -3.546875 L 4.40625 -7.078125 Z M 4.25 -7.078125 "/></g></g></g><g fill="#000000" fill-opacity="1"><g transform="translate(331.724792, 25.684176)"><g><path d="M 0.96875 2.734375 L 0.96875 -6.75 L 2.671875 -6.75 L 2.671875 -5.875 L 2.796875 -5.84375 C 2.992188 -6.1875 3.257812 -6.441406 3.59375 -6.609375 C 3.925781 -6.785156 4.316406 -6.875 4.765625 -6.875 C 5.316406 -6.875 5.789062 -6.742188 6.1875 -6.484375 C 6.59375 -6.234375 6.910156 -5.84375 7.140625 -5.3125 C 7.367188 -4.789062 7.484375 -4.144531 7.484375 -3.375 C 7.484375 -2.601562 7.363281 -1.957031 7.125 -1.4375 C 6.882812 -0.914062 6.550781 -0.523438 6.125 -0.265625 C 5.707031 -0.00390625 5.21875 0.125 4.65625 0.125 C 4.238281 0.125 3.875 0.0546875 3.5625 -0.078125 C 3.257812 -0.222656 3.003906 -0.441406 2.796875 -0.734375 L 2.671875 -0.71875 L 2.671875 2.734375 Z M 4.1875 -1.3125 C 4.695312 -1.3125 5.082031 -1.472656 5.34375 -1.796875 C 5.601562 -2.128906 5.734375 -2.65625 5.734375 -3.375 C 5.734375 -4.082031 5.601562 -4.601562 5.34375 -4.9375 C 5.082031 -5.269531 4.695312 -5.4375 4.1875 -5.4375 C 3.71875 -5.4375 3.34375 -5.265625 3.0625 -4.921875 C 2.789062 -4.578125 2.65625 -4.0625 2.65625 -3.375 C 2.65625 -2.6875 2.789062 -2.171875 3.0625 -1.828125 C 3.34375 -1.484375 3.71875 -1.3125 4.1875 -1.3125 Z M 4.1875 -1.3125 "/></g></g></g><g fill="#000000" fill-opacity="1"><g transform="translate(339.808758, 25.684176)"><g><path d="M 0.96875 2.734375 L 0.96875 -6.75 L 2.671875 -6.75 L 2.671875 -5.875 L 2.796875 -5.84375 C 2.992188 -6.1875 3.257812 -6.441406 3.59375 -6.609375 C 3.925781 -6.785156 4.316406 -6.875 4.765625 -6.875 C 5.316406 -6.875 5.789062 -6.742188 6.1875 -6.484375 C 6.59375 -6.234375 6.910156 -5.84375 7.140625 -5.3125 C 7.367188 -4.789062 7.484375 -4.144531 7.484375 -3.375 C 7.484375 -2.601562 7.363281 -1.957031 7.125 -1.4375 C 6.882812 -0.914062 6.550781 -0.523438 6.125 -0.265625 C 5.707031 -0.00390625 5.21875 0.125 4.65625 0.125 C 4.238281 0.125 3.875 0.0546875 3.5625 -0.078125 C 3.257812 -0.222656 3.003906 -0.441406 2.796875 -0.734375 L 2.671875 -0.71875 L 2.671875 2.734375 Z M 4.1875 -1.3125 C 4.695312 -1.3125 5.082031 -1.472656 5.34375 -1.796875 C 5.601562 -2.128906 5.734375 -2.65625 5.734375 -3.375 C 5.734375 -4.082031 5.601562 -4.601562 5.34375 -4.9375 C 5.082031 -5.269531 4.695312 -5.4375 4.1875 -5.4375 C 3.71875 -5.4375 3.34375 -5.265625 3.0625 -4.921875 C 2.789062 -4.578125 2.65625 -4.0625 2.65625 -3.375 C 2.65625 -2.6875 2.789062 -2.171875 3.0625 -1.828125 C 3.34375 -1.484375 3.71875 -1.3125 4.1875 -1.3125 Z M 4.1875 -1.3125 "/></g></g></g><g fill="#000000" fill-opacity="1"><g transform="translate(347.892725, 25.684176)"><g><path d="M 2.796875 0.125 C 2.191406 0.125 1.726562 -0.0351562 1.40625 -0.359375 C 1.09375 -0.691406 0.9375 -1.191406 0.9375 -1.859375 L 0.9375 -9.453125 L 2.625 -9.453125 L 2.625 -1.921875 C 2.625 -1.515625 2.796875 -1.3125 3.140625 -1.3125 C 3.234375 -1.3125 3.335938 -1.328125 3.453125 -1.359375 L 3.53125 -1.328125 L 3.6875 -0.03125 C 3.59375 0.0195312 3.46875 0.0546875 3.3125 0.078125 C 3.15625 0.109375 2.984375 0.125 2.796875 0.125 Z M 2.796875 0.125 "/></g></g></g><g fill="#000000" fill-opacity="1"><g transform="translate(351.772536, 25.684176)"><g><path d="M 1.5 2.859375 C 1.207031 2.859375 0.941406 2.835938 0.703125 2.796875 C 0.472656 2.753906 0.285156 2.695312 0.140625 2.625 L 0.40625 1.25 L 0.515625 1.21875 C 0.617188 1.269531 0.742188 1.3125 0.890625 1.34375 C 1.046875 1.375 1.203125 1.390625 1.359375 1.390625 C 1.628906 1.390625 1.851562 1.351562 2.03125 1.28125 C 2.21875 1.207031 2.375 1.085938 2.5 0.921875 C 2.625 0.753906 2.738281 0.523438 2.84375 0.234375 L 0.140625 -6.75 L 1.921875 -6.75 L 3.59375 -2.0625 L 3.75 -2.0625 L 5.375 -6.75 L 7.109375 -6.75 L 4.390625 0.421875 C 4.171875 1.003906 3.929688 1.46875 3.671875 1.8125 C 3.421875 2.164062 3.117188 2.425781 2.765625 2.59375 C 2.410156 2.769531 1.988281 2.859375 1.5 2.859375 Z M 1.5 2.859375 "/></g></g></g><g fill="#000000" fill-opacity="1"><g transform="translate(359.018113, 25.684176)"><g/></g></g><g fill="#000000" fill-opacity="1"><g transform="translate(361.973876, 25.684176)"><g><path d="M 1.1875 0 L 1.1875 -5.40625 L 0.21875 -5.40625 L 0.21875 -6.75 L 1.1875 -6.75 C 1.113281 -7.039062 1.078125 -7.3125 1.078125 -7.5625 C 1.078125 -7.988281 1.175781 -8.351562 1.375 -8.65625 C 1.570312 -8.957031 1.851562 -9.1875 2.21875 -9.34375 C 2.582031 -9.507812 3.019531 -9.59375 3.53125 -9.59375 C 4.269531 -9.59375 4.820312 -9.460938 5.1875 -9.203125 L 4.796875 -7.953125 L 4.671875 -7.9375 C 4.421875 -8.113281 4.097656 -8.203125 3.703125 -8.203125 C 3.390625 -8.203125 3.15625 -8.125 3 -7.96875 C 2.851562 -7.820312 2.78125 -7.617188 2.78125 -7.359375 C 2.78125 -7.253906 2.785156 -7.15625 2.796875 -7.0625 C 2.816406 -6.96875 2.84375 -6.863281 2.875 -6.75 L 4.796875 -6.75 L 4.796875 -5.40625 L 2.875 -5.40625 L 2.875 0 Z M 1.1875 0 "/></g></g></g><g fill="#000000" fill-opacity="1"><g transform="translate(366.845058, 25.684176)"><g><path d="M 1.8125 -7.5625 C 1.507812 -7.5625 1.257812 -7.648438 1.0625 -7.828125 C 0.875 -8.015625 0.78125 -8.253906 0.78125 -8.546875 C 0.78125 -8.835938 0.875 -9.078125 1.0625 -9.265625 C 1.257812 -9.453125 1.507812 -9.546875 1.8125 -9.546875 C 2.019531 -9.546875 2.203125 -9.5 2.359375 -9.40625 C 2.515625 -9.320312 2.632812 -9.207031 2.71875 -9.0625 C 2.8125 -8.914062 2.859375 -8.742188 2.859375 -8.546875 C 2.859375 -8.359375 2.8125 -8.1875 2.71875 -8.03125 C 2.632812 -7.882812 2.515625 -7.769531 2.359375 -7.6875 C 2.203125 -7.601562 2.019531 -7.5625 1.8125 -7.5625 Z M 0.96875 0 L 0.96875 -6.75 L 2.671875 -6.75 L 2.671875 0 Z M 0.96875 0 "/></g></g></g><g fill="#000000" fill-opacity="1"><g transform="translate(370.480086, 25.684176)"><g><path d="M 2.796875 0.125 C 2.191406 0.125 1.726562 -0.0351562 1.40625 -0.359375 C 1.09375 -0.691406 0.9375 -1.191406 0.9375 -1.859375 L 0.9375 -9.453125 L 2.625 -9.453125 L 2.625 -1.921875 C 2.625 -1.515625 2.796875 -1.3125 3.140625 -1.3125 C 3.234375 -1.3125 3.335938 -1.328125 3.453125 -1.359375 L 3.53125 -1.328125 L 3.6875 -0.03125 C 3.59375 0.0195312 3.46875 0.0546875 3.3125 0.078125 C 3.15625 0.109375 2.984375 0.125 2.796875 0.125 Z M 2.796875 0.125 "/></g></g></g><g fill="#000000" fill-opacity="1"><g transform="translate(374.359897, 25.684176)"><g><path d="M 4.65625 -1.609375 L 5.09375 -0.359375 C 4.914062 -0.203125 4.6875 -0.0820312 4.40625 0 C 4.125 0.0820312 3.8125 0.125 3.46875 0.125 C 2.738281 0.125 2.179688 -0.0703125 1.796875 -0.46875 C 1.421875 -0.863281 1.234375 -1.441406 1.234375 -2.203125 L 1.234375 -5.40625 L 0.203125 -5.40625 L 0.203125 -6.75 L 1.234375 -6.75 L 1.234375 -8.078125 L 2.921875 -8.34375 L 2.921875 -6.75 L 4.84375 -6.75 L 4.84375 -5.40625 L 2.921875 -5.40625 L 2.921875 -2.328125 C 2.921875 -1.992188 2.988281 -1.75 3.125 -1.59375 C 3.269531 -1.4375 3.472656 -1.359375 3.734375 -1.359375 C 4.035156 -1.359375 4.300781 -1.441406 4.53125 -1.609375 Z M 4.65625 -1.609375 "/></g></g></g><g fill="#000000" fill-opacity="1"><g transform="translate(379.60438, 25.684176)"><g><path d="M 6.671875 -2.984375 L 2.328125 -2.984375 C 2.378906 -2.398438 2.546875 -1.972656 2.828125 -1.703125 C 3.117188 -1.441406 3.507812 -1.3125 4 -1.3125 C 4.382812 -1.3125 4.695312 -1.382812 4.9375 -1.53125 C 5.1875 -1.675781 5.382812 -1.894531 5.53125 -2.1875 L 5.65625 -2.1875 L 6.78125 -1.46875 C 6.5625 -0.988281 6.226562 -0.601562 5.78125 -0.3125 C 5.332031 -0.0195312 4.738281 0.125 4 0.125 C 3.300781 0.125 2.695312 -0.00390625 2.1875 -0.265625 C 1.6875 -0.535156 1.296875 -0.929688 1.015625 -1.453125 C 0.742188 -1.972656 0.609375 -2.613281 0.609375 -3.375 C 0.609375 -4.132812 0.75 -4.773438 1.03125 -5.296875 C 1.320312 -5.828125 1.710938 -6.222656 2.203125 -6.484375 C 2.703125 -6.742188 3.257812 -6.875 3.875 -6.875 C 4.832031 -6.875 5.5625 -6.617188 6.0625 -6.109375 C 6.570312 -5.609375 6.828125 -4.867188 6.828125 -3.890625 C 6.828125 -3.535156 6.816406 -3.257812 6.796875 -3.0625 Z M 5.21875 -4.09375 C 5.195312 -4.601562 5.070312 -4.972656 4.84375 -5.203125 C 4.625 -5.441406 4.300781 -5.5625 3.875 -5.5625 C 3.019531 -5.5625 2.519531 -5.070312 2.375 -4.09375 Z M 5.21875 -4.09375 "/></g></g></g><g fill="#000000" fill-opacity="1"><g transform="translate(386.941759, 25.684176)"><g><path d="M 0.96875 0 L 0.96875 -6.75 L 2.625 -6.75 L 2.625 -5.75 L 2.75 -5.71875 C 2.90625 -6.09375 3.113281 -6.367188 3.375 -6.546875 C 3.644531 -6.722656 3.972656 -6.8125 4.359375 -6.8125 C 4.742188 -6.8125 5.035156 -6.742188 5.234375 -6.609375 L 4.9375 -5.15625 L 4.8125 -5.125 C 4.707031 -5.164062 4.601562 -5.195312 4.5 -5.21875 C 4.394531 -5.238281 4.269531 -5.25 4.125 -5.25 C 3.65625 -5.25 3.296875 -5.082031 3.046875 -4.75 C 2.796875 -4.425781 2.671875 -3.894531 2.671875 -3.15625 L 2.671875 0 Z M 0.96875 0 "/></g></g></g><g fill="#000000" fill-opacity="1"><g transform="translate(392.235199, 25.684176)"><g><path d="M 3.15625 0.125 C 2.695312 0.125 2.273438 0.0703125 1.890625 -0.03125 C 1.503906 -0.144531 1.175781 -0.296875 0.90625 -0.484375 C 0.632812 -0.671875 0.4375 -0.882812 0.3125 -1.125 L 1.25 -2.140625 L 1.375 -2.140625 C 1.601562 -1.835938 1.867188 -1.609375 2.171875 -1.453125 C 2.472656 -1.304688 2.804688 -1.234375 3.171875 -1.234375 C 3.503906 -1.234375 3.753906 -1.289062 3.921875 -1.40625 C 4.085938 -1.53125 4.171875 -1.703125 4.171875 -1.921875 C 4.171875 -2.097656 4.109375 -2.242188 3.984375 -2.359375 C 3.867188 -2.472656 3.675781 -2.5625 3.40625 -2.625 L 2.515625 -2.84375 C 1.835938 -3 1.34375 -3.238281 1.03125 -3.5625 C 0.726562 -3.894531 0.578125 -4.316406 0.578125 -4.828125 C 0.578125 -5.242188 0.679688 -5.609375 0.890625 -5.921875 C 1.109375 -6.234375 1.410156 -6.46875 1.796875 -6.625 C 2.191406 -6.789062 2.648438 -6.875 3.171875 -6.875 C 3.773438 -6.875 4.273438 -6.785156 4.671875 -6.609375 C 5.078125 -6.429688 5.390625 -6.195312 5.609375 -5.90625 L 4.71875 -4.9375 L 4.59375 -4.9375 C 4.40625 -5.144531 4.191406 -5.296875 3.953125 -5.390625 C 3.722656 -5.492188 3.460938 -5.546875 3.171875 -5.546875 C 2.503906 -5.546875 2.171875 -5.335938 2.171875 -4.921875 C 2.171875 -4.742188 2.234375 -4.597656 2.359375 -4.484375 C 2.484375 -4.378906 2.703125 -4.289062 3.015625 -4.21875 L 3.84375 -4.03125 C 4.53125 -3.882812 5.03125 -3.648438 5.34375 -3.328125 C 5.65625 -3.003906 5.8125 -2.570312 5.8125 -2.03125 C 5.8125 -1.601562 5.707031 -1.222656 5.5 -0.890625 C 5.289062 -0.566406 4.984375 -0.316406 4.578125 -0.140625 C 4.179688 0.0351562 3.707031 0.125 3.15625 0.125 Z M 3.15625 0.125 "/></g></g></g><g fill="#000000" fill-opacity="1"><g transform="translate(459.470886, 25.684176)"><g><path d="M 8.578125 0 L 6.71875 0 L 6.046875 -2.0625 L 2.625 -2.0625 L 1.953125 0 L 0.140625 0 L 3.21875 -8.953125 L 5.5 -8.953125 Z M 4.25 -7.078125 L 3.109375 -3.546875 L 5.5625 -3.546875 L 4.40625 -7.078125 Z M 4.25 -7.078125 "/></g></g></g><g fill="#000000" fill-opacity="1"><g transform="translate(468.191288, 25.684176)"><g><path d="M 0.96875 2.734375 L 0.96875 -6.75 L 2.671875 -6.75 L 2.671875 -5.875 L 2.796875 -5.84375 C 2.992188 -6.1875 3.257812 -6.441406 3.59375 -6.609375 C 3.925781 -6.785156 4.316406 -6.875 4.765625 -6.875 C 5.316406 -6.875 5.789062 -6.742188 6.1875 -6.484375 C 6.59375 -6.234375 6.910156 -5.84375 7.140625 -5.3125 C 7.367188 -4.789062 7.484375 -4.144531 7.484375 -3.375 C 7.484375 -2.601562 7.363281 -1.957031 7.125 -1.4375 C 6.882812 -0.914062 6.550781 -0.523438 6.125 -0.265625 C 5.707031 -0.00390625 5.21875 0.125 4.65625 0.125 C 4.238281 0.125 3.875 0.0546875 3.5625 -0.078125 C 3.257812 -0.222656 3.003906 -0.441406 2.796875 -0.734375 L 2.671875 -0.71875 L 2.671875 2.734375 Z M 4.1875 -1.3125 C 4.695312 -1.3125 5.082031 -1.472656 5.34375 -1.796875 C 5.601562 -2.128906 5.734375 -2.65625 5.734375 -3.375 C 5.734375 -4.082031 5.601562 -4.601562 5.34375 -4.9375 C 5.082031 -5.269531 4.695312 -5.4375 4.1875 -5.4375 C 3.71875 -5.4375 3.34375 -5.265625 3.0625 -4.921875 C 2.789062 -4.578125 2.65625 -4.0625 2.65625 -3.375 C 2.65625 -2.6875 2.789062 -2.171875 3.0625 -1.828125 C 3.34375 -1.484375 3.71875 -1.3125 4.1875 -1.3125 Z M 4.1875 -1.3125 "/></g></g></g><g fill="#000000" fill-opacity="1"><g transform="translate(476.275255, 25.684176)"><g><path d="M 0.96875 2.734375 L 0.96875 -6.75 L 2.671875 -6.75 L 2.671875 -5.875 L 2.796875 -5.84375 C 2.992188 -6.1875 3.257812 -6.441406 3.59375 -6.609375 C 3.925781 -6.785156 4.316406 -6.875 4.765625 -6.875 C 5.316406 -6.875 5.789062 -6.742188 6.1875 -6.484375 C 6.59375 -6.234375 6.910156 -5.84375 7.140625 -5.3125 C 7.367188 -4.789062 7.484375 -4.144531 7.484375 -3.375 C 7.484375 -2.601562 7.363281 -1.957031 7.125 -1.4375 C 6.882812 -0.914062 6.550781 -0.523438 6.125 -0.265625 C 5.707031 -0.00390625 5.21875 0.125 4.65625 0.125 C 4.238281 0.125 3.875 0.0546875 3.5625 -0.078125 C 3.257812 -0.222656 3.003906 -0.441406 2.796875 -0.734375 L 2.671875 -0.71875 L 2.671875 2.734375 Z M 4.1875 -1.3125 C 4.695312 -1.3125 5.082031 -1.472656 5.34375 -1.796875 C 5.601562 -2.128906 5.734375 -2.65625 5.734375 -3.375 C 5.734375 -4.082031 5.601562 -4.601562 5.34375 -4.9375 C 5.082031 -5.269531 4.695312 -5.4375 4.1875 -5.4375 C 3.71875 -5.4375 3.34375 -5.265625 3.0625 -4.921875 C 2.789062 -4.578125 2.65625 -4.0625 2.65625 -3.375 C 2.65625 -2.6875 2.789062 -2.171875 3.0625 -1.828125 C 3.34375 -1.484375 3.71875 -1.3125 4.1875 -1.3125 Z M 4.1875 -1.3125 "/></g></g></g><g fill="#000000" fill-opacity="1"><g transform="translate(484.359222, 25.684176)"><g><path d="M 2.796875 0.125 C 2.191406 0.125 1.726562 -0.0351562 1.40625 -0.359375 C 1.09375 -0.691406 0.9375 -1.191406 0.9375 -1.859375 L 0.9375 -9.453125 L 2.625 -9.453125 L 2.625 -1.921875 C 2.625 -1.515625 2.796875 -1.3125 3.140625 -1.3125 C 3.234375 -1.3125 3.335938 -1.328125 3.453125 -1.359375 L 3.53125 -1.328125 L 3.6875 -0.03125 C 3.59375 0.0195312 3.46875 0.0546875 3.3125 0.078125 C 3.15625 0.109375 2.984375 0.125 2.796875 0.125 Z M 2.796875 0.125 "/></g></g></g><g fill="#000000" fill-opacity="1"><g transform="translate(488.239033, 25.684176)"><g><path d="M 1.5 2.859375 C 1.207031 2.859375 0.941406 2.835938 0.703125 2.796875 C 0.472656 2.753906 0.285156 2.695312 0.140625 2.625 L 0.40625 1.25 L 0.515625 1.21875 C 0.617188 1.269531 0.742188 1.3125 0.890625 1.34375 C 1.046875 1.375 1.203125 1.390625 1.359375 1.390625 C 1.628906 1.390625 1.851562 1.351562 2.03125 1.28125 C 2.21875 1.207031 2.375 1.085938 2.5 0.921875 C 2.625 0.753906 2.738281 0.523438 2.84375 0.234375 L 0.140625 -6.75 L 1.921875 -6.75 L 3.59375 -2.0625 L 3.75 -2.0625 L 5.375 -6.75 L 7.109375 -6.75 L 4.390625 0.421875 C 4.171875 1.003906 3.929688 1.46875 3.671875 1.8125 C 3.421875 2.164062 3.117188 2.425781 2.765625 2.59375 C 2.410156 2.769531 1.988281 2.859375 1.5 2.859375 Z M 1.5 2.859375 "/></g></g></g><g fill="#000000" fill-opacity="1"><g transform="translate(495.48461, 25.684176)"><g/></g></g><g fill="#000000" fill-opacity="1"><g transform="translate(498.440372, 25.684176)"><g><path d="M 3.9375 0.125 C 3.28125 0.125 2.703125 -0.0078125 2.203125 -0.28125 C 1.703125 -0.550781 1.3125 -0.945312 1.03125 -1.46875 C 0.75 -2 0.609375 -2.632812 0.609375 -3.375 C 0.609375 -4.113281 0.75 -4.742188 1.03125 -5.265625 C 1.3125 -5.796875 1.695312 -6.195312 2.1875 -6.46875 C 2.6875 -6.738281 3.257812 -6.875 3.90625 -6.875 C 5.332031 -6.875 6.242188 -6.359375 6.640625 -5.328125 L 5.46875 -4.5 L 5.34375 -4.5 C 5.207031 -4.8125 5.023438 -5.046875 4.796875 -5.203125 C 4.578125 -5.359375 4.28125 -5.4375 3.90625 -5.4375 C 3.414062 -5.4375 3.03125 -5.265625 2.75 -4.921875 C 2.476562 -4.585938 2.34375 -4.070312 2.34375 -3.375 C 2.34375 -2.675781 2.484375 -2.15625 2.765625 -1.8125 C 3.046875 -1.476562 3.4375 -1.3125 3.9375 -1.3125 C 4.300781 -1.3125 4.609375 -1.410156 4.859375 -1.609375 C 5.117188 -1.804688 5.304688 -2.085938 5.421875 -2.453125 L 5.546875 -2.46875 L 6.75 -1.8125 C 6.570312 -1.238281 6.253906 -0.769531 5.796875 -0.40625 C 5.335938 -0.0507812 4.71875 0.125 3.9375 0.125 Z M 3.9375 0.125 "/></g></g></g><g fill="#000000" fill-opacity="1"><g transform="translate(505.398337, 25.684176)"><g><path d="M 2.625 0.125 C 2.195312 0.125 1.820312 0.046875 1.5 -0.109375 C 1.1875 -0.265625 0.941406 -0.492188 0.765625 -0.796875 C 0.597656 -1.109375 0.515625 -1.484375 0.515625 -1.921875 C 0.515625 -2.316406 0.597656 -2.648438 0.765625 -2.921875 C 0.941406 -3.191406 1.207031 -3.414062 1.5625 -3.59375 C 1.925781 -3.769531 2.394531 -3.90625 2.96875 -4 C 3.375 -4.0625 3.679688 -4.128906 3.890625 -4.203125 C 4.097656 -4.285156 4.238281 -4.375 4.3125 -4.46875 C 4.394531 -4.570312 4.4375 -4.695312 4.4375 -4.84375 C 4.4375 -5.0625 4.359375 -5.226562 4.203125 -5.34375 C 4.054688 -5.457031 3.804688 -5.515625 3.453125 -5.515625 C 3.078125 -5.515625 2.71875 -5.429688 2.375 -5.265625 C 2.039062 -5.097656 1.75 -4.875 1.5 -4.59375 L 1.375 -4.59375 L 0.671875 -5.671875 C 1.015625 -6.046875 1.429688 -6.335938 1.921875 -6.546875 C 2.410156 -6.765625 2.945312 -6.875 3.53125 -6.875 C 4.425781 -6.875 5.070312 -6.679688 5.46875 -6.296875 C 5.875 -5.921875 6.078125 -5.382812 6.078125 -4.6875 L 6.078125 -1.765625 C 6.078125 -1.460938 6.207031 -1.3125 6.46875 -1.3125 C 6.570312 -1.3125 6.675781 -1.328125 6.78125 -1.359375 L 6.859375 -1.34375 L 6.984375 -0.15625 C 6.890625 -0.09375 6.757812 -0.0390625 6.59375 0 C 6.425781 0.03125 6.242188 0.046875 6.046875 0.046875 C 5.640625 0.046875 5.320312 -0.03125 5.09375 -0.1875 C 4.863281 -0.34375 4.703125 -0.582031 4.609375 -0.90625 L 4.484375 -0.921875 C 4.148438 -0.222656 3.53125 0.125 2.625 0.125 Z M 3.171875 -1.140625 C 3.554688 -1.140625 3.863281 -1.269531 4.09375 -1.53125 C 4.332031 -1.789062 4.453125 -2.15625 4.453125 -2.625 L 4.453125 -3.3125 L 4.34375 -3.34375 C 4.238281 -3.257812 4.101562 -3.1875 3.9375 -3.125 C 3.78125 -3.070312 3.546875 -3.019531 3.234375 -2.96875 C 2.867188 -2.90625 2.601562 -2.800781 2.4375 -2.65625 C 2.28125 -2.507812 2.203125 -2.300781 2.203125 -2.03125 C 2.203125 -1.738281 2.285156 -1.515625 2.453125 -1.359375 C 2.617188 -1.210938 2.859375 -1.140625 3.171875 -1.140625 Z M 3.171875 -1.140625 "/></g></g></g><g fill="#000000" fill-opacity="1"><g transform="translate(512.515411, 25.684176)"><g><path d="M 2.796875 0.125 C 2.191406 0.125 1.726562 -0.0351562 1.40625 -0.359375 C 1.09375 -0.691406 0.9375 -1.191406 0.9375 -1.859375 L 0.9375 -9.453125 L 2.625 -9.453125 L 2.625 -1.921875 C 2.625 -1.515625 2.796875 -1.3125 3.140625 -1.3125 C 3.234375 -1.3125 3.335938 -1.328125 3.453125 -1.359375 L 3.53125 -1.328125 L 3.6875 -0.03125 C 3.59375 0.0195312 3.46875 0.0546875 3.3125 0.078125 C 3.15625 0.109375 2.984375 0.125 2.796875 0.125 Z M 2.796875 0.125 "/></g></g></g><g fill="#000000" fill-opacity="1"><g transform="translate(516.395222, 25.684176)"><g><path d="M 2.796875 0.125 C 2.191406 0.125 1.726562 -0.0351562 1.40625 -0.359375 C 1.09375 -0.691406 0.9375 -1.191406 0.9375 -1.859375 L 0.9375 -9.453125 L 2.625 -9.453125 L 2.625 -1.921875 C 2.625 -1.515625 2.796875 -1.3125 3.140625 -1.3125 C 3.234375 -1.3125 3.335938 -1.328125 3.453125 -1.359375 L 3.53125 -1.328125 L 3.6875 -0.03125 C 3.59375 0.0195312 3.46875 0.0546875 3.3125 0.078125 C 3.15625 0.109375 2.984375 0.125 2.796875 0.125 Z M 2.796875 0.125 "/></g></g></g><g fill="#000000" fill-opacity="1"><g transform="translate(520.275033, 25.684176)"><g><path d="M 4.71875 0.125 C 3.851562 0.125 3.210938 -0.195312 2.796875 -0.84375 L 2.671875 -0.8125 L 2.671875 0 L 0.96875 0 L 0.96875 -9.453125 L 2.671875 -9.453125 L 2.671875 -5.953125 L 2.796875 -5.921875 C 3.023438 -6.242188 3.296875 -6.484375 3.609375 -6.640625 C 3.929688 -6.796875 4.3125 -6.875 4.75 -6.875 C 5.300781 -6.875 5.78125 -6.742188 6.1875 -6.484375 C 6.59375 -6.234375 6.910156 -5.84375 7.140625 -5.3125 C 7.367188 -4.789062 7.484375 -4.144531 7.484375 -3.375 C 7.484375 -2.601562 7.363281 -1.957031 7.125 -1.4375 C 6.894531 -0.914062 6.570312 -0.523438 6.15625 -0.265625 C 5.738281 -0.00390625 5.257812 0.125 4.71875 0.125 Z M 4.203125 -1.3125 C 4.703125 -1.3125 5.082031 -1.476562 5.34375 -1.8125 C 5.601562 -2.144531 5.734375 -2.664062 5.734375 -3.375 C 5.734375 -4.082031 5.601562 -4.601562 5.34375 -4.9375 C 5.082031 -5.269531 4.703125 -5.4375 4.203125 -5.4375 C 3.722656 -5.4375 3.34375 -5.265625 3.0625 -4.921875 C 2.789062 -4.578125 2.65625 -4.0625 2.65625 -3.375 C 2.65625 -2.675781 2.789062 -2.15625 3.0625 -1.8125 C 3.34375 -1.476562 3.722656 -1.3125 4.203125 -1.3125 Z M 4.203125 -1.3125 "/></g></g></g><g fill="#000000" fill-opacity="1"><g transform="translate(528.358999, 25.684176)"><g><path d="M 2.625 0.125 C 2.195312 0.125 1.820312 0.046875 1.5 -0.109375 C 1.1875 -0.265625 0.941406 -0.492188 0.765625 -0.796875 C 0.597656 -1.109375 0.515625 -1.484375 0.515625 -1.921875 C 0.515625 -2.316406 0.597656 -2.648438 0.765625 -2.921875 C 0.941406 -3.191406 1.207031 -3.414062 1.5625 -3.59375 C 1.925781 -3.769531 2.394531 -3.90625 2.96875 -4 C 3.375 -4.0625 3.679688 -4.128906 3.890625 -4.203125 C 4.097656 -4.285156 4.238281 -4.375 4.3125 -4.46875 C 4.394531 -4.570312 4.4375 -4.695312 4.4375 -4.84375 C 4.4375 -5.0625 4.359375 -5.226562 4.203125 -5.34375 C 4.054688 -5.457031 3.804688 -5.515625 3.453125 -5.515625 C 3.078125 -5.515625 2.71875 -5.429688 2.375 -5.265625 C 2.039062 -5.097656 1.75 -4.875 1.5 -4.59375 L 1.375 -4.59375 L 0.671875 -5.671875 C 1.015625 -6.046875 1.429688 -6.335938 1.921875 -6.546875 C 2.410156 -6.765625 2.945312 -6.875 3.53125 -6.875 C 4.425781 -6.875 5.070312 -6.679688 5.46875 -6.296875 C 5.875 -5.921875 6.078125 -5.382812 6.078125 -4.6875 L 6.078125 -1.765625 C 6.078125 -1.460938 6.207031 -1.3125 6.46875 -1.3125 C 6.570312 -1.3125 6.675781 -1.328125 6.78125 -1.359375 L 6.859375 -1.34375 L 6.984375 -0.15625 C 6.890625 -0.09375 6.757812 -0.0390625 6.59375 0 C 6.425781 0.03125 6.242188 0.046875 6.046875 0.046875 C 5.640625 0.046875 5.320312 -0.03125 5.09375 -0.1875 C 4.863281 -0.34375 4.703125 -0.582031 4.609375 -0.90625 L 4.484375 -0.921875 C 4.148438 -0.222656 3.53125 0.125 2.625 0.125 Z M 3.171875 -1.140625 C 3.554688 -1.140625 3.863281 -1.269531 4.09375 -1.53125 C 4.332031 -1.789062 4.453125 -2.15625 4.453125 -2.625 L 4.453125 -3.3125 L 4.34375 -3.34375 C 4.238281 -3.257812 4.101562 -3.1875 3.9375 -3.125 C 3.78125 -3.070312 3.546875 -3.019531 3.234375 -2.96875 C 2.867188 -2.90625 2.601562 -2.800781 2.4375 -2.65625 C 2.28125 -2.507812 2.203125 -2.300781 2.203125 -2.03125 C 2.203125 -1.738281 2.285156 -1.515625 2.453125 -1.359375 C 2.617188 -1.210938 2.859375 -1.140625 3.171875 -1.140625 Z M 3.171875 -1.140625 "/></g></g></g><g fill="#000000" fill-opacity="1"><g transform="translate(535.476073, 25.684176)"><g><path d="M 3.9375 0.125 C 3.28125 0.125 2.703125 -0.0078125 2.203125 -0.28125 C 1.703125 -0.550781 1.3125 -0.945312 1.03125 -1.46875 C 0.75 -2 0.609375 -2.632812 0.609375 -3.375 C 0.609375 -4.113281 0.75 -4.742188 1.03125 -5.265625 C 1.3125 -5.796875 1.695312 -6.195312 2.1875 -6.46875 C 2.6875 -6.738281 3.257812 -6.875 3.90625 -6.875 C 5.332031 -6.875 6.242188 -6.359375 6.640625 -5.328125 L 5.46875 -4.5 L 5.34375 -4.5 C 5.207031 -4.8125 5.023438 -5.046875 4.796875 -5.203125 C 4.578125 -5.359375 4.28125 -5.4375 3.90625 -5.4375 C 3.414062 -5.4375 3.03125 -5.265625 2.75 -4.921875 C 2.476562 -4.585938 2.34375 -4.070312 2.34375 -3.375 C 2.34375 -2.675781 2.484375 -2.15625 2.765625 -1.8125 C 3.046875 -1.476562 3.4375 -1.3125 3.9375 -1.3125 C 4.300781 -1.3125 4.609375 -1.410156 4.859375 -1.609375 C 5.117188 -1.804688 5.304688 -2.085938 5.421875 -2.453125 L 5.546875 -2.46875 L 6.75 -1.8125 C 6.570312 -1.238281 6.253906 -0.769531 5.796875 -0.40625 C 5.335938 -0.0507812 4.71875 0.125 3.9375 0.125 Z M 3.9375 0.125 "/></g></g></g><g fill="#000000" fill-opacity="1"><g transform="translate(542.434038, 25.684176)"><g><path d="M 0.96875 0 L 0.96875 -9.453125 L 2.671875 -9.453125 L 2.671875 -4.203125 L 2.828125 -4.203125 L 4.78125 -6.75 L 6.5 -6.75 L 6.5 -6.609375 L 4.203125 -3.640625 L 6.765625 -0.15625 L 6.765625 0 L 4.96875 0 L 2.828125 -2.84375 L 2.671875 -2.84375 L 2.671875 0 Z M 0.96875 0 "/></g></g></g><g fill="#000000" fill-opacity="1"><g transform="translate(549.208415, 25.684176)"><g><path d="M 3.15625 0.125 C 2.695312 0.125 2.273438 0.0703125 1.890625 -0.03125 C 1.503906 -0.144531 1.175781 -0.296875 0.90625 -0.484375 C 0.632812 -0.671875 0.4375 -0.882812 0.3125 -1.125 L 1.25 -2.140625 L 1.375 -2.140625 C 1.601562 -1.835938 1.867188 -1.609375 2.171875 -1.453125 C 2.472656 -1.304688 2.804688 -1.234375 3.171875 -1.234375 C 3.503906 -1.234375 3.753906 -1.289062 3.921875 -1.40625 C 4.085938 -1.53125 4.171875 -1.703125 4.171875 -1.921875 C 4.171875 -2.097656 4.109375 -2.242188 3.984375 -2.359375 C 3.867188 -2.472656 3.675781 -2.5625 3.40625 -2.625 L 2.515625 -2.84375 C 1.835938 -3 1.34375 -3.238281 1.03125 -3.5625 C 0.726562 -3.894531 0.578125 -4.316406 0.578125 -4.828125 C 0.578125 -5.242188 0.679688 -5.609375 0.890625 -5.921875 C 1.109375 -6.234375 1.410156 -6.46875 1.796875 -6.625 C 2.191406 -6.789062 2.648438 -6.875 3.171875 -6.875 C 3.773438 -6.875 4.273438 -6.785156 4.671875 -6.609375 C 5.078125 -6.429688 5.390625 -6.195312 5.609375 -5.90625 L 4.71875 -4.9375 L 4.59375 -4.9375 C 4.40625 -5.144531 4.191406 -5.296875 3.953125 -5.390625 C 3.722656 -5.492188 3.460938 -5.546875 3.171875 -5.546875 C 2.503906 -5.546875 2.171875 -5.335938 2.171875 -4.921875 C 2.171875 -4.742188 2.234375 -4.597656 2.359375 -4.484375 C 2.484375 -4.378906 2.703125 -4.289062 3.015625 -4.21875 L 3.84375 -4.03125 C 4.53125 -3.882812 5.03125 -3.648438 5.34375 -3.328125 C 5.65625 -3.003906 5.8125 -2.570312 5.8125 -2.03125 C 5.8125 -1.601562 5.707031 -1.222656 5.5 -0.890625 C 5.289062 -0.566406 4.984375 -0.316406 4.578125 -0.140625 C 4.179688 0.0351562 3.707031 0.125 3.15625 0.125 Z M 3.15625 0.125 "/></g></g></g></svg>