<?xml version="1.0" encoding="utf-8"?>
<!-- Generator: Adobe Illustrator 25.2.3, SVG Export Plug-In . SVG Version: 6.00 Build 0)  -->
<svg version="1.1" id="Layer_1" xmlns="http://www.w3.org/2000/svg" xmlns:xlink="http://www.w3.org/1999/xlink" x="0px" y="0px"
	 viewBox="0 0 1690.77 1199.4" style="enable-background:new 0 0 1690.77 1199.4;" xml:space="preserve">
<style type="text/css">
	.st0{fill:none;}
	.st1{fill:#80A5FE;}
	.st2{fill:#FF7096;}
	.st3{fill:#FF9F40;}
	.st4{fill:#FFC03F;}
	.st5{fill:#7FE5FE;}
	.st6{fill:#7FB69F;}
	.st7{fill:#3FC6FE;}
	.st8{fill:#3FE5FF;}
	.st9{fill:#3FB6E0;}
	.st10{fill:#2FBECF;}
	.st11{fill:#DFAF1F;}
	.st12{fill:#57D2A6;}
	.st13{fill:#1FD6DE;}
	.st14{fill:#FEFF7F;}
	.st15{fill:#4FE6AF;}
	.st16{fill:#AFDF4F;}
	.st17{fill:#7FFFFF;}
	.st18{fill:#1FE6DF;}
	.st19{fill:#DFBF1F;}
	.st20{fill:#C0FF3F;}
	.st21{fill:#3EFFBE;}
	.st22{fill:#9FFF5F;}
	.st23{fill:#6FBE8F;}
	.st24{fill:#7F85BF;}
	.st25{fill:#58A8E3;}
	.st26{fill:#002B51;}
</style>
<path class="st0" d="M1381.23,360c-31.39-43.21-74.75-78.26-124.56-97.51C1306.58,281.86,1350.17,317.24,1381.23,360z"/>
<path class="st0" d="M1028.45,215.87c-1.84-7.02-3.99-13.96-6.45-20.78C1024.46,201.91,1026.6,208.84,1028.45,215.87z"/>
<path class="st0" d="M688.9,345.18c-2.08,0.63-4.15,1.27-6.22,1.93C684.75,346.45,686.83,345.81,688.9,345.18z"/>
<path class="st0" d="M1233.83,254.91c0.07,0.02,0.14,0.04,0.22,0.06C1233.97,254.95,1233.9,254.93,1233.83,254.91z"/>
<path class="st0" d="M674.31,349.87c-7.25,2.44-14.47,4.98-21.66,7.47l0.04,2.07l-0.04-2.07
	C659.84,354.86,667.06,352.31,674.31,349.87z"/>
<path class="st0" d="M897.37,878.93c-0.26,0.21-0.53,0.42-0.8,0.63C896.84,879.35,897.11,879.15,897.37,878.93z"/>
<path class="st0" d="M889.01,885.51c-1.55,1.19-3.11,2.35-4.68,3.52C885.9,887.86,887.47,886.7,889.01,885.51z"/>
<path class="st0" d="M1022,195.09c-1.64-4.55-3.43-9.04-5.36-13.47C1018.57,186.05,1020.35,190.54,1022,195.09z"/>
<path class="st0" d="M922.54,319.54c4.29-2.58,8.61-5.1,12.96-7.58C931.15,314.44,926.83,316.97,922.54,319.54z"/>
<path class="st0" d="M1113.69,248.09c2.73-0.37,5.47-0.68,8.21-0.99C1119.16,247.41,1116.42,247.73,1113.69,248.09z"/>
<path class="st0" d="M1048.66,262.26c0.7-0.21,1.41-0.4,2.11-0.61C1050.07,261.85,1049.36,262.05,1048.66,262.26z"/>
<path class="st0" d="M1038.73,265.28l-1.98,0.68c2.69-0.88,5.4-1.71,8.12-2.54C1042.81,264.03,1040.76,264.64,1038.73,265.28z"/>
<path class="st0" d="M955.21,301.2c7.03-3.68,14.12-7.22,21.29-10.62C969.33,293.98,962.24,297.53,955.21,301.2z"/>
<path class="st0" d="M1010.39,168.53c-2.23-4.29-4.62-8.52-7.17-12.65C1005.76,160.01,1008.15,164.23,1010.39,168.53z"/>
<path class="st0" d="M1215.24,250.55l-2.15-0.42c0.76,0.14,1.51,0.3,2.26,0.44C1215.31,250.56,1215.27,250.55,1215.24,250.55z"/>
<path class="st0" d="M880.57,891.83c-31.73,23.14-66.88,42.56-101.46,58.41C814.58,933.99,849.07,914.9,880.57,891.83z"/>
<path class="st0" d="M1251.09,260.41c1.51,0.54,3.01,1.1,4.5,1.67C1254.1,261.52,1252.6,260.95,1251.09,260.41z"/>
<path class="st0" d="M986.49,285.95c9.2-4.16,18.5-8.12,27.91-11.8C1005,277.83,995.7,281.78,986.49,285.95z"/>
<path class="st0" d="M1213.08,250.12c-29.36-5.84-59.22-6.42-88.8-3.3C1154.03,243.72,1184.03,244.35,1213.08,250.12z"/>
<path class="st0" d="M807.03,780.06c-0.05-0.05-0.11-0.11-0.17-0.16C807.06,780.1,807.07,780.11,807.03,780.06z"/>
<path class="st0" d="M931.3,848.14c0.97-1.01,1.9-2.03,2.79-3c-2.12,2.26-4.3,4.47-6.49,6.67
	C928.83,850.59,930.08,849.39,931.3,848.14z"/>
<path class="st0" d="M1036.1,258.73c-0.49-4.81-1.09-9.62-1.81-14.41C1035.01,249.11,1035.61,253.92,1036.1,258.73z"/>
<path class="st0" d="M1245.45,258.46c0.88,0.29,1.76,0.6,2.63,0.9C1247.2,259.06,1246.33,258.75,1245.45,258.46z"/>
<path class="st0" d="M820.63,339.73c-0.08-0.08-0.16-0.16-0.24-0.24C820.46,339.57,820.54,339.65,820.63,339.73L820.63,339.73z"/>
<path class="st0" d="M1031.75,230.01c-0.97-4.75-2.07-9.46-3.3-14.15C1029.68,220.55,1030.78,225.27,1031.75,230.01z"/>
<path class="st0" d="M1239.69,256.62c0.4,0.12,0.8,0.25,1.2,0.38C1240.5,256.87,1240.1,256.74,1239.69,256.62z"/>
<path class="st0" d="M924.29,855.09c-0.87,0.85-1.76,1.69-2.63,2.53C922.54,856.78,923.42,855.94,924.29,855.09z"/>
<path class="st1" d="M1010.39,168.53c2.23,4.29,4.32,8.66,6.25,13.09c1.93,4.43,3.72,8.92,5.36,13.47
	c2.46,6.82,4.61,13.76,6.45,20.78c1.23,4.68,2.33,9.4,3.3,14.15c0.97,4.75,1.81,9.52,2.54,14.31c0.72,4.79,1.33,9.6,1.81,14.41
	c0.24,2.41,0.46,4.82,0.65,7.23l1.98-0.68c2.04-0.64,4.09-1.25,6.13-1.87c1.27-0.39,2.53-0.78,3.8-1.16c0.7-0.21,1.41-0.4,2.11-0.61
	c20.48-6,41.59-10.7,62.92-13.56c2.73-0.37,5.47-0.68,8.21-0.99c0.8-0.09,1.59-0.2,2.38-0.28c29.58-3.12,59.44-2.54,88.8,3.3
	c-5.78-20.82-11.82-41.64-19.34-61.9c-51.98-42.1-115.28-68.45-179.21-86.61c-23.48-6.17-47.04-12.54-71.32-14.48
	c8.44,7.7,16.82,15.55,24.81,23.77c13.32,13.69,25.56,28.38,35.19,44.98C1005.76,160.01,1008.15,164.23,1010.39,168.53z"/>
<path class="st2" d="M463.98,164.83c69.84,1.35,137.57,24.36,198.72,57.05c2.67-14.59,6.35-28.94,10.92-42.99
	c1.83-5.62,3.8-11.2,5.9-16.72c5.25-13.81,11.34-27.32,18.12-40.49c1.36-2.63,2.74-5.25,4.15-7.86c2.82-5.21,5.75-10.36,8.78-15.46
	c1.51-2.55,3.05-5.08,4.62-7.6c-26.86,7.09-53.59,15.79-77.78,29.73c-6.46,4.05-13.85,5.83-21.54,5.24
	c-75.59-1.82-153.11,9.88-221.1,44.17C417.91,168.92,440.79,164.11,463.98,164.83z"/>
<path class="st3" d="M383.32,230.02c-16.05,78.37-24.58,160.59-5.79,239.26c8.44,35.33,24.09,69.23,47.71,96.78
	c1.66-3.12,3.26-6.5,4.82-10.2c4.79-11.79,8.53-24.44,12.15-36.68c4.17-14.09,8.48-28.66,14.55-42.59
	c8.23-18.27,19.19-31.2,32.62-38.51c9.94-5.28,20.79-8.05,31.44-8.05c8.45,0,16.35,1.74,23.5,5.18c0.77,0.35,1.5,0.79,2.26,1.18
	c9.13-9.42,18.65-18.47,28.62-27.07c23.48-19.89,48.81-38.3,77.49-49.87l0-0.04l-0.04-2.07c-1.48-45.39,3.21-90.66,10.05-135.46
	c-61.14-32.68-128.88-55.7-198.72-57.05c-23.18-0.72-46.07,4.1-69.21,5.07l-1.6,1.01C397.64,191.3,386.41,210.3,383.32,230.02z"/>
<path class="st3" d="M520.48,465.6c-10.94,0-21.86,7.05-27.18,17.55c-7.31,13.76-11.87,28.36-16.4,43.73
	c13.23-21.36,27.73-41.91,43.65-61.28C520.53,465.6,520.5,465.6,520.48,465.6z"/>
<path class="st4" d="M237.43,541.63c9.28-9.45,18.88-19.22,29.14-28.17c12.89-11.17,32.72-26.01,56.17-26.01
	c0.92,0,1.84,0.02,2.77,0.07c19.14,0.29,38.4,10.74,51.26,27.95c15.52,20.76,26.71,43.91,36.89,67c4.21-4.3,8.02-9.71,11.58-16.41
	c-23.61-27.55-39.26-61.45-47.71-96.78c-18.79-78.67-10.26-160.88,5.79-239.26c3.08-19.72,14.31-38.72,9.84-59.12
	c-59.29,27.91-116.42,69.46-146.15,129.51c-28.84,57.94-35.55,125.46-24.83,188.84c-9.37,8.28-18.45,16.89-27.19,25.93
	c7.53,15.18,15.75,29.93,24.5,44.34C225.58,553.7,231.58,547.6,237.43,541.63z"/>
<path class="st4" d="M404.37,628.11c-7.81,2.57-15.92,3.92-24.19,3.92c-16.15,0-31.56-5.11-43.38-14.4
	c-5.7-4.05-10.21-9.35-14.56-14.48c-4.52-5.31-8.79-10.33-14.2-13.56c-7.39-4.38-16.18-6.79-24.74-6.79
	c-6.21,0-12.07,1.22-17.41,3.62c-4.7,2.11-9.35,4.35-14.01,6.59c-2.65,1.27-5.32,2.55-8,3.82c40.13,56.88,89.08,107.5,142.15,152.8
	c7.94-33.11,17.89-65.77,29.88-97.67C411.88,643.94,408.06,635.96,404.37,628.11z"/>
<path class="st4" d="M323.33,515.32c-6.65,0-13.03,1.68-18.45,4.84c-13.38,7.36-24.44,17.48-35.41,28.54c4.7-0.76,9.48-1.2,14.3-1.2
	c17.65,0,34.09,5.19,47.56,15.01c6.64,4.39,11.51,10.12,16.21,15.67c4.83,5.69,9.39,11.07,15.35,14.22
	c4.85,2.82,10.33,4.17,16.56,4.17c3.22,0,6.6-0.39,10.1-1.09c-11.61-25.08-25.95-53.44-39.72-68.7
	C343.48,519.46,333.86,515.32,323.33,515.32z"/>
<path class="st5" d="M1215.24,250.55c0.04,0.01,0.07,0.02,0.11,0.02c6.23,1.2,12.39,2.65,18.48,4.34c0.07,0.02,0.14,0.04,0.22,0.06
	c1.89,0.53,3.78,1.08,5.65,1.65c0.4,0.12,0.8,0.25,1.2,0.38c1.52,0.47,3.04,0.95,4.55,1.46c0.88,0.29,1.76,0.6,2.63,0.9
	c1.01,0.35,2.01,0.69,3.01,1.05c1.51,0.54,3.01,1.1,4.5,1.67c0.36,0.14,0.72,0.27,1.07,0.41c49.82,19.24,93.17,54.3,124.56,97.51
	c46.24,60.38,70.22,133.77,88.42,206.66c2.74-2.03,8.32-6.12,11.06-8.19c7.52-56.8-5.83-114.98-30.15-166.29
	c-38.17-78.54-104.89-144.63-187.11-175.79c-23.18-10.09-51.14-8.83-69.72-28.17c7.52,20.27,13.55,41.09,19.34,61.9L1215.24,250.55z
	"/>
<path class="st6" d="M682.68,347.11c2.07-0.66,4.14-1.3,6.22-1.93c2.99-0.91,5.98-1.78,8.99-2.6c11.9-3.25,23.98-5.73,36.34-6.73
	c21.6-1.74,43.34-1.11,64.9,1.13c7.19,0.75,14.36,1.67,21.49,2.75c-0.08-0.08-0.16-0.16-0.24-0.24
	c-45.85-46.6-100.44-86.17-157.68-117.61c-6.84,44.8-11.53,90.07-10.05,135.46c7.2-2.48,14.41-5.03,21.66-7.47
	C677.09,348.93,679.88,348.01,682.68,347.11z"/>
<path class="st7" d="M1211.01,482.22c2.34-5.89,4.48-11.85,6.4-17.87C1215.02,470.23,1212.92,476.19,1211.01,482.22z"/>
<path class="st7" d="M1126.35,586.8c9.23-7.19,18.2-14.83,26.73-22.92c-0.66-3.04-1.32-6.09-1.97-9.12
	c-8.37-39.02-17.04-79.37-31.87-116.71c-2.78-7-10.43-23.29-21.34-23.29c-0.25,0-0.51,0.01-0.77,0.02
	c-5.1,0.32-10.47,4.27-15.97,11.73c-10.83,14.67-17.35,32.73-22.3,48.45c-1.7,5.4-3.31,10.86-4.87,16.35
	c26.22,29.29,49.76,61.05,71.3,93.88L1126.35,586.8z"/>
<path class="st7" d="M1005.96,443.56l1.98,1.69c8.26,7.32,16.26,14.92,24.04,22.72c5.81-17.53,12.99-34.6,22.68-50.57
	c12.32-20.3,27.18-31.03,42.97-31.03l0.71,0.01c12.96,0.26,31.4,7.95,45.7,43.05c9.68,23.76,17.25,48.36,23.81,73.1
	c4.54-18.74,10.25-37.95,18.5-56.25c10.45-23.2,24.07-36.3,40.49-38.96c0.83-0.13,1.68-0.23,2.52-0.3
	c2.69-24.97,2.39-50.29-0.58-75.15c-2.66-27.41-9.12-53.1-15.71-81.75c-29.06-5.78-59.05-6.4-88.8-3.3
	c-0.8,0.08-1.59,0.19-2.38,0.28c-2.74,0.3-5.48,0.62-8.21,0.99c-21.27,2.87-42.34,7.59-62.92,13.56c-0.7,0.21-1.41,0.4-2.11,0.61
	c-1.27,0.37-2.53,0.77-3.8,1.16c-2.71,0.83-5.43,1.67-8.12,2.54c-1.86,33.32-0.8,66.17-7.9,98.85
	C1023.57,392.05,1014,419.21,1005.96,443.56z"/>
<path class="st7" d="M1050.77,261.65c20.58-5.97,41.65-10.68,62.92-13.56C1092.36,250.95,1071.25,255.65,1050.77,261.65z"/>
<path class="st7" d="M1121.9,247.11c0.8-0.09,1.59-0.2,2.38-0.28C1123.49,246.91,1122.69,247.02,1121.9,247.11z"/>
<path class="st7" d="M1044.86,263.41c1.27-0.38,2.53-0.78,3.8-1.16C1047.39,262.64,1046.13,263.03,1044.86,263.41z"/>
<path class="st8" d="M1126.35,586.8c5.2,8.4,10.26,16.9,15.21,25.47c4.37-14.39,8.41-29.44,12.18-45.34
	c-0.22-1.02-0.44-2.03-0.66-3.05C1144.54,571.97,1135.58,579.61,1126.35,586.8z"/>
<path class="st8" d="M1330.34,603.07c-8.5-3.7-15.95-8.76-22.54-14.59c-1.34,3.87-2.67,7.74-3.98,11.6
	c-9.75,28.56-19.84,58.09-36.32,84.28c-12.06,19.17-25.72,28.89-40.61,28.89l-0.55-0.01c-17.92-0.3-32.91-14.54-43.34-41.18
	c-4.38-11.2-8.18-22.61-11.63-34.13c-1.95,5.67-4.17,11.44-6.69,17.17c18.38,36.58,33.93,74.56,45.45,113.9l0.42,1.44
	c57.72-30.07,112.03-67.44,163.25-107.64c19.82-16.19,39.37-33.01,57.43-51.25l-42.86,0.09
	C1368.18,611.65,1348.54,610.99,1330.34,603.07z"/>
<path class="st8" d="M1382.85,569.46c-5-16.49-12.28-32.19-21.64-46.67c-4.46-6.9-10.34-11.72-14.3-11.72
	c-0.72,0-1.4,0.16-2.08,0.49c-1.98,0.95-3.82,3.64-5.38,6.08c-6.85,10.7-12.55,22.18-17.64,33.99c6.56,8.04,14.79,15.16,25.07,19.45
	c10.81,4.51,22.72,5.38,32.96,5.64c1.76,0.04,3.52,0.04,5.28,0.05c-0.65-1.91-1.23-3.8-1.77-5.62L1382.85,569.46z"/>
<path class="st8" d="M1259.87,497.21c-4.1-13.56-8.33-27.59-13.85-40.68c-3.72-8.83-8.46-14.1-12.69-14.1l-0.39,0.01
	c-3.85,0.24-7.76,4.59-11.64,12.92c-1.38,2.98-2.68,5.97-3.91,8.99c-1.92,6.03-4.05,11.99-6.4,17.87
	c-4.9,15.5-8.5,31.51-12.22,48.11l-3.33,14.77c-2.76,12.24-5.58,24.68-8.58,37.14c4.84,20.94,9.95,42.18,15.88,62.82
	c3.39,11.79,7.3,24.1,14.52,33.64c2.98,3.93,5.84,6.21,8.52,6.76c0.51,0.11,1.01,0.16,1.52,0.16c4.83,0,10.66-5.02,16.01-13.76
	c15.43-25.24,25.28-54.21,34.79-82.23c2.9-8.52,5.84-17.14,8.95-25.74c-5.96-9.31-10.56-18.86-14.03-27.42
	C1267.83,523.57,1263.79,510.17,1259.87,497.21z"/>
<path class="st8" d="M1229.37,407.02c1.11-0.1,2.23-0.17,3.35-0.17c11.92,0,24.54,5.91,33.78,15.8
	c9.94,10.65,15.35,24.4,18.96,35.18c3.03,9.08,5.56,18.38,8,27.37c3.3,12.14,6.74,24.64,11.37,36.38c1.27-2.53,2.56-5.06,3.91-7.55
	c10.86-19.95,24.89-30.93,39.51-30.93c1.16,0,2.34,0.07,3.53,0.21c15.58,1.83,25.68,15.14,32.74,26.52
	c2.35,3.79,4.65,7.65,6.84,11.48c10.11,17.7,18.75,36.31,25.8,55.44c12.41-0.02,28.03-0.05,44.94-0.08c2.57-3.3,5.1-6.63,7.55-10.03
	c-18.2-72.88-42.18-146.27-88.42-206.66c-31.06-42.76-74.65-78.14-124.56-97.51c-0.36-0.14-0.72-0.27-1.07-0.41
	c-1.5-0.57-3-1.13-4.5-1.67c-1-0.36-2.01-0.71-3.01-1.05c-0.88-0.3-1.75-0.61-2.63-0.9c-1.51-0.5-3.03-0.99-4.55-1.46
	c-0.4-0.12-0.8-0.25-1.2-0.38c-1.88-0.57-3.76-1.12-5.65-1.65c-0.07-0.02-0.14-0.04-0.22-0.06c-6.09-1.69-12.25-3.14-18.48-4.34
	c-0.76-0.15-1.51-0.31-2.26-0.44c6.59,28.37,13.05,54.35,15.71,81.75C1231.76,356.73,1232.06,382.05,1229.37,407.02z"/>
<path class="st8" d="M1248.08,259.36c1.01,0.35,2.01,0.69,3.01,1.05C1250.09,260.05,1249.09,259.71,1248.08,259.36z"/>
<path class="st8" d="M1240.9,257c1.52,0.47,3.04,0.96,4.55,1.46C1243.94,257.95,1242.42,257.47,1240.9,257z"/>
<path class="st8" d="M1255.59,262.09c0.36,0.14,0.72,0.27,1.07,0.41C1256.31,262.35,1255.95,262.22,1255.59,262.09z"/>
<path class="st8" d="M1234.04,254.97c1.89,0.53,3.78,1.08,5.65,1.65C1237.82,256.05,1235.93,255.5,1234.04,254.97z"/>
<path class="st8" d="M1215.34,250.57c6.23,1.2,12.4,2.65,18.48,4.34C1227.74,253.22,1221.57,251.77,1215.34,250.57z"/>
<path class="st8" d="M1213.08,250.12c6.59,28.66,13.05,54.35,15.71,81.75C1226.13,304.47,1219.67,278.5,1213.08,250.12z"/>
<path class="st9" d="M869.36,354.93c49.91,22.08,96.61,51.39,136.6,88.63c8-24.39,17.61-51.52,22.89-78.75
	c7.09-32.68,6.04-65.54,7.9-98.85c-7.51,2.57-14.95,5.3-22.34,8.19c-9.41,3.68-18.71,7.63-27.91,11.8c-3.35,1.51-6.68,3.06-10,4.64
	c-7.16,3.4-14.26,6.94-21.29,10.62c-6.63,3.47-13.2,7.06-19.71,10.76c-4.35,2.48-8.67,5-12.96,7.58
	C904.27,330.51,886.52,342.34,869.36,354.93L869.36,354.93z"/>
<path class="st9" d="M1005.96,443.56c8.04-24.36,17.61-51.52,22.89-78.75C1023.57,392.05,1013.95,419.18,1005.96,443.56z"/>
<path class="st10" d="M970.45,530.04c-1.53,2.25-3.05,4.91-4.68,7.91c-0.2,0.37-0.38,0.76-0.58,1.14l0.66,1.44
	C967.36,537.02,968.91,533.53,970.45,530.04z"/>
<path class="st10" d="M953.58,496.98c7.8-5.97,17.03-9.25,25.97-9.25c2.79,0,5.54,0.32,8.17,0.96c0.31,0.07,0.59,0.18,0.89,0.26
	c6.38-14.9,12.38-29.94,17.34-45.39c-39.99-37.24-86.69-66.55-136.6-88.63l-1.1,0.85c-5.78,4.43-11.61,8.91-17.44,13.34
	c36.56,41.13,69.8,85.51,96.24,133.8C949.14,500.72,951.31,498.72,953.58,496.98z"/>
<path class="st11" d="M551.53,643.17c2.85-5.67,5.59-11.37,8.31-17.03l1.67-3.47c5.42-11.26,10.61-21.85,15.74-32.04
	c-0.07-0.31-0.14-0.62-0.2-0.93c-0.73-3.33-1.45-6.62-2.19-9.87l-2.04-9.06c-5.95-26.6-12.1-54.1-23.52-78.26
	c-5.51-11.66-12.09-22.9-22.87-26.21c-1.71-0.44-3.78-0.7-5.88-0.71c-15.92,19.37-30.43,39.92-43.65,61.28
	c-0.45,1.52-0.89,3.04-1.34,4.57c-5.04,17.21-10.24,35.01-19.09,51.48c-1.76,3.36-3.65,6.51-5.62,9.54
	c17.13,11.83,33.64,24.81,52.87,33.09C519.32,632.24,535.28,638.19,551.53,643.17z"/>
<path class="st11" d="M579.87,473.79c11.02,22.21,17.49,45.91,22.92,69.43c1.77-3.05,3.56-6.08,5.39-9.11
	c7.02-11.63,17.39-25.21,35.31-26.95c1.71-0.17,3.45-0.25,5.18-0.25c8.95,0,17.79,2.22,25.64,6.26
	c-4.69-19.6-8.64-39.36-11.85-59.24c-5.05-31.26-8.29-62.82-9.77-94.47v0c-28.67,11.57-54.01,29.98-77.49,49.87
	c-9.98,8.59-19.5,17.64-28.62,27.07C559.79,443.18,570.75,455.41,579.87,473.79z"/>
<path class="st11" d="M585.18,637.5c-2.04,4.31-4.14,8.67-6.29,13.04c6.11,1.41,12.25,2.68,18.43,3.77
	c-3.74-7.2-6.81-14.78-9.4-22.52C587,633.7,586.08,635.58,585.18,637.5z"/>
<path class="st11" d="M660.12,537.87c-2.77-1.71-7-3.74-11.4-3.74c-0.59,0-1.18,0.04-1.78,0.12c-6.18,0.83-11.91,5.88-18.6,16.37
	c-6.52,10.24-12.1,20.9-16.95,31.03c3.56,15.3,7.59,30.63,13.01,45.2c2.42,6.5,5.18,12.96,8.82,18.56
	c11.32-31,27.15-60.06,43.81-88.5C672.87,549.19,667.68,542.52,660.12,537.87z"/>
<path class="st12" d="M910.7,624.62c-10.35,6.15-21.87,9.41-33.32,9.41c-9.45,0-18.59-2.15-27.14-6.41
	c-23.7-11.77-33.79-35.32-41.38-58.16c-4.73,20.59-10.57,41.13-20.42,59.96c-4.08,7.82-10.83,18.89-22.18,24.77
	c-5.15,2.67-10.97,4.09-16.84,4.09c-2.51,0-5.01-0.26-7.43-0.77c-10.05-2.13-17.7-8.18-22.79-13.59
	c22.48,49.51,51.06,96.61,87.5,135.81c0.04,0.04,0.1,0.1,0.16,0.16c43.03-48.31,81.53-100.62,114.05-156.57
	c0.95-1.8,1.91-3.59,2.88-5.37c-0.27-0.83-0.53-1.67-0.8-2.51C919.34,618.81,915.28,621.89,910.7,624.62z"/>
<path class="st12" d="M710.44,509.52c-2.24,2.87-4.47,5.75-6.67,8.64c-2.82,3.71-5.62,7.45-8.38,11.21
	c-0.41,0.53-0.78,1.09-1.17,1.63c2.24,3.42,4.1,7.01,5.75,10.67C702.59,531.2,705.83,520.18,710.44,509.52z"/>
<path class="st12" d="M749.34,630.57c0.19,0,0.38-0.01,0.57-0.02c13.39-1.06,17.65-16,21.82-35.44c0.54-2.5,1.05-4.88,1.58-7.07
	c3.48-14.42,7.2-29.11,10.79-43.32c2.09-8.25,4.16-16.47,6.2-24.66c-2.9-5.73-6.52-11.75-11.86-15.1c-0.16-0.1-0.32-0.21-0.48-0.32
	c-3.41-2.53-7.85-3.99-12.19-3.99c-3.58,0-6.86,0.97-9.5,2.79c-6.14,4.58-9.84,12.8-13.42,20.75l-0.56,1.25
	c-5.16,11.42-8.08,24.66-10.9,37.47c-1.15,5.22-2.34,10.62-3.67,15.82c-1.43,5.61-3.04,11.86-4.8,18.49
	c4.14,9.15,8.78,17.92,14.57,25.48C741.27,627.62,745.7,630.57,749.34,630.57z"/>
<path class="st12" d="M954.08,563.55c-0.1,0.24-0.2,0.48-0.3,0.72c3.28-6.62,6.3-13.36,8.89-20.29
	C959.63,550.22,956.91,556.74,954.08,563.55z"/>
<path class="st12" d="M837.39,543.03c3.26,10.01,6.33,19.45,10.47,28.59c0.64,1.41,1.28,2.81,1.95,4.2
	c6.46,13.41,17.89,22.08,29.12,22.08c4.32,0,8.68-1.23,12.94-3.67c7.28-4.16,13.59-11.37,19.25-21.91
	c-0.95-3.82-1.9-7.65-2.83-11.45c-7.72-31.45-15.7-63.98-29.36-93.46c-2.51-5.41-6.7-14.46-12.41-15.95
	c-2.32-0.6-4.65-0.91-6.93-0.91c-7.12,0-13.37,3.01-17.6,8.47c-9.37,12.12-14.16,30.12-18.39,46.01l-0.38,1.43
	c4.62,8.94,8,18.15,10.74,26.18C835.14,536.09,836.26,539.56,837.39,543.03z"/>
<path class="st12" d="M797.28,414.17c-17.08,15.89-33.4,32.6-48.98,49.98c-1.74,1.94-3.45,3.91-5.17,5.87
	c6.8-3.15,14.4-4.85,22.48-4.85c13.25,0,26.06,4.57,35.77,12.51c5.62-17.35,13.9-34.08,29.45-45.98c7.71-5.9,17.56-9.15,27.75-9.15
	c9.31,0,18.14,2.62,25.54,7.59c7.45,5.35,13.35,12.71,18.75,23.29c10.58,19.16,15.98,40.89,21.21,61.91
	c1.42,5.69,2.83,11.36,4.33,16.93l0.25,0.94c1.53-3.43,3.12-6.85,4.81-10.22c4.11-8.17,8.6-14.78,13.6-20.05
	c-26.43-48.29-59.68-92.68-96.24-133.8c-7.45,5.64-14.77,11.43-21.97,17.37C818.05,395.4,807.53,404.63,797.28,414.17z"/>
<path class="st13" d="M1016.78,625.1c-1.63,4.35-3.46,8.97-5.69,13.55c4.13-1.4,8.27-2.8,12.41-4.21c-1.78-4.63-3.46-9.3-5.06-13.98
	C1017.89,622,1017.35,623.56,1016.78,625.1z"/>
<path class="st13" d="M979.94,522.98c-3.71,0.14-6.61,2.83-9.48,7.06c-1.55,3.49-3.09,6.98-4.61,10.48
	c10.39,24.18,19.1,49.17,25.11,74.81c5.3-12.63,9.59-25.79,13.31-39.15c-3.03-9.28-6.24-18.52-9.88-27.37
	C989.88,537.89,985.41,529.89,979.94,522.98z"/>
<path class="st13" d="M1053.92,491.59c-4.4,15.54-8.3,31.32-12.1,46.71c-1.81,7.32-3.63,14.7-5.52,22.1
	c0.18,0.62,0.37,1.25,0.55,1.86c1.27,4.34,2.46,8.45,3.81,12.49c4.3,12.93,8.95,25.92,13.84,38.6c1.02,2.65,2.02,5.35,3.04,8.08
	c0.08,0.22,0.16,0.43,0.24,0.65c23.99-9.39,47.11-20.64,67.52-36.89C1104.11,552.91,1080.21,520.97,1053.92,491.59z"/>
<path class="st13" d="M1018.71,516.63c3.81-16.22,7.95-32.52,13.21-48.44c-8.44-8.52-17.09-16.76-25.96-24.62
	c-4.97,15.45-10.97,30.49-17.34,45.39C1003.59,492.96,1012.33,504.49,1018.71,516.63z"/>
<path class="st13" d="M1054,491.31c-0.03,0.09-0.05,0.18-0.07,0.27c26.28,29.39,50.19,61.32,71.37,93.61
	C1103.75,552.37,1080.22,520.61,1054,491.31z"/>
<path class="st13" d="M1031.92,468.19c0.02-0.07,0.05-0.14,0.07-0.21c-7.78-7.81-15.79-15.4-24.04-22.72l-1.98-1.69
	C1014.82,451.43,1023.48,459.66,1031.92,468.19z"/>
<path class="st14" d="M386.03,749.63c-53.08-45.3-102.02-95.92-142.15-152.8c-11.91,5.61-24.26,10.89-37.62,13.63
	c-17.43,2.94-34.87,3.38-51.85,3.6c-1.41,15.75-0.73,31.69,2.25,47.33c10.68,55.82,33.23,111.86,75.42,151.38
	c37.03,34.67,86.23,52.91,135.51,61.31c2.74-41.42,8.95-82.55,18.12-123.05L386.03,749.63z"/>
<path class="st14" d="M185,577.35c6.94-0.57,13.52-1.13,19.54-3.11c2.32-2.92,5.06-5.74,8.35-8.57c2.21-2,4.41-4.06,6.6-6.15
	c-8.74-14.41-16.97-29.16-24.5-44.34c-15.42,18.57-26.82,40.27-33.71,63.31c7.67-0.29,15.17-0.63,22.5-1.04L185,577.35z"/>
<path class="st15" d="M965.19,539.08c-0.86,1.61-1.71,3.24-2.52,4.89c-2.59,6.94-5.61,13.68-8.89,20.29
	c-3.24,7.8-6.56,15.67-10.44,23.22c1.7,6.28,3.39,12.56,5.1,18.83c0.5,1.83,0.97,3.69,1.44,5.56c2.1,8.29,4.09,16.12,8.47,22.17
	c3.18,4.4,7.91,7.25,12.03,7.24c0.43,0,0.86-0.03,1.29-0.09c5.26-0.76,10.15-6.05,14.96-16.16c1.52-3.19,2.93-6.44,4.3-9.71
	c-6.01-25.64-14.72-50.62-25.11-74.81L965.19,539.08z"/>
<path class="st15" d="M997.77,657.69c-7.89,7.53-18.09,12.01-27.74,12.01c-2.27,0-4.54-0.24-6.72-0.71
	c-13.64-2.94-25.64-14.31-32.11-30.4c-2.69-6.7-5.13-13.61-7.4-20.63c-0.97,1.78-1.94,3.57-2.88,5.37
	c-32.51,55.95-71.02,108.26-114.05,156.57c0.07,0.07,0.13,0.13,0.16,0.17c19.17,18.89,40.9,35.43,65.07,47.39
	c18.79,9.37,42.14,11.23,61.99,17.69c33.15-37.2,57.81-83.19,62.92-133.31C999.09,693.86,999.17,675.71,997.77,657.69z"/>
<path class="st16" d="M806.86,779.9c-0.68-0.72-2.03-2.11-2.7-2.79c-36.55-39.27-64.1-85.37-85.83-134.18
	c-0.34-0.38-0.7-0.76-1.02-1.13c-1.84-2.15-3.5-4.41-5.1-6.71c-0.07,0.22-0.13,0.45-0.2,0.67c-5.92,19.35-15.71,35.24-28.28,45.95
	c-9.2,7.69-21.03,11.89-33.37,11.89c-10.46,0-20.43-3.1-28.51-8.8c-6.31,30.78-6.79,62.8-0.99,93.65
	c5.57,29.18,20.14,55.36,33.99,81.29c32.77-5.79,67.27-16.76,95.14-35.22C769.91,811.11,793.3,800.21,806.86,779.9z"/>
<path class="st16" d="M677.04,556.91c-16.66,28.44-32.49,57.5-43.81,88.5c2.88,4.43,6.29,8.32,10.58,11.17
	c2.4,1.13,4.72,1.71,6.89,1.71c13.96,0,23.83-23.58,26.52-30.81c4.92-13.21,8.77-27.09,12.2-41c-1.03-2.59-2.05-5.19-3.05-7.83
	C683.47,571.01,680.63,563.57,677.04,556.91z"/>
<path class="st16" d="M806.71,779.73c-36.44-39.21-65.01-86.3-87.5-135.81c-0.32-0.34-0.59-0.66-0.89-0.99
	c21.73,48.81,49.29,94.91,85.83,134.18c0.68,0.68,2.03,2.07,2.7,2.79C806.65,779.68,806.64,779.67,806.71,779.73z"/>
<path class="st17" d="M1462.1,576.68c5.21-0.01,10.55-0.02,15.95-0.03c1.09-6.02,2.03-12.08,2.67-18.19
	c-2.74,2.07-8.32,6.17-11.06,8.19C1467.21,570.06,1464.67,573.39,1462.1,576.68z"/>
<path class="st17" d="M1373.8,662.81c-51.22,40.2-105.53,77.57-163.25,107.64c11.87,43.7,20.99,88.68,20.1,134.16
	c41.93-25.89,88.09-48.39,119.21-87.87c15.37-19.34,25.12-42.65,29.47-66.89c0.68-10.43,9.21-16.85,15.96-23.52
	c33.28-31.52,59.29-71.28,73.82-114.83l-37.88,0.08C1413.17,629.8,1393.61,646.62,1373.8,662.81z"/>
<path class="st18" d="M1147.96,684.11c-11.95,16-30.86,25.97-49.31,25.97c-1.41,0-2.82-0.06-4.24-0.17
	c-24.54-1.2-41.18-20.48-48.9-31.86c-9.27-13.68-16.2-28.47-22.01-43.61c-4.14,1.41-8.28,2.81-12.41,4.21
	c-2.95,6.09-6.62,12.11-11.58,17.37c-0.55,0.59-1.15,1.12-1.73,1.67c1.4,18.02,1.31,36.18-0.77,54.14
	c-5.11,50.12-29.77,96.11-62.92,133.31c0.5-0.52,0.25-0.25,0.01,0c57.64,11.35,116.41-5.11,170.2-25.13
	c36.65-13.81,71.24-32.13,106.24-49.57c-11.56-39.47-27.34-78.11-45.92-115.23C1160.23,665.19,1154.86,675.06,1147.96,684.11z"/>
<path class="st18" d="M1125.29,585.19c-20.41,16.26-43.52,27.51-67.52,36.89c7,18.84,14.33,38.21,29.75,49.15
	c3.06,2.17,6.44,3.27,10.04,3.27c6.82,0,14.62-3.96,20.86-10.58c5.66-6.01,10.18-13.91,14.67-25.61c1.04-2.99,2.13-6.2,3.2-9.42
	c1.81-5.43,3.55-10.98,5.25-16.6c-4.95-8.6-10.01-17.12-15.2-25.5L1125.29,585.19z"/>
<path class="st18" d="M1141.54,612.3c0-0.01,0.01-0.02,0.01-0.03c-4.94-8.57-10-17.07-15.21-25.47
	C1131.54,595.18,1136.6,603.7,1141.54,612.3z"/>
<path class="st18" d="M1164.67,655.11c-0.02,0.03-0.03,0.07-0.05,0.1c18.58,37.12,34.36,75.76,45.92,115.23l-0.42-1.44
	C1198.6,729.67,1183.05,691.69,1164.67,655.11z"/>
<path class="st18" d="M934.09,845.14c0,0,0.01,0,0.01,0C934.34,844.89,934.59,844.62,934.09,845.14z"/>
<path class="st19" d="M503.71,625.56c-19.23-8.28-35.73-21.26-52.87-33.09c-5.72,8.78-12.32,16.15-19.71,22.01
	c-0.87,0.69-1.73,1.37-2.62,2.01c0.3,0.67,0.59,1.33,0.89,2c9,20.06,18.92,39.94,31.85,57.58c8.26,11.27,18.5,23.25,31.83,26.73
	c1.14,0.19,2.3,0.29,3.44,0.29c10.55,0,20.3-8.16,26.62-15.01c11.49-13.22,20.35-28.89,28.39-44.9
	C535.28,638.19,519.32,632.24,503.71,625.56z"/>
<path class="st19" d="M621.84,684.81c-1.13-0.8-2.23-1.64-3.28-2.54c-4.08-3.48-7.99-7.69-11.63-12.51
	c-3.66-4.86-6.82-10.05-9.62-15.44c-6.18-1.09-12.32-2.36-18.43-3.77c-8.33,16.92-17.7,34.12-29.72,49.89
	c-16.22,20.04-33.52,30.12-51.55,30.12c-0.54,0-1.09-0.01-1.64-0.03c-27.17-1.02-46.02-22.73-57.83-38.97
	c-0.09-0.12-0.17-0.24-0.25-0.36c-8.15-12.75-15.35-26.02-21.99-39.24c-11.98,31.9-21.94,64.56-29.88,97.67
	c49.03,41.93,104.98,77.02,166.42,97.46c32.89,10.77,67.86,15.33,102.4,12.67c-13.85-25.93-28.42-52.11-33.99-81.29
	C615.06,747.61,615.53,715.59,621.84,684.81z"/>
<path class="st20" d="M719.07,929.47c-23.44-20.69-47.04-43.54-64.23-69.72c-34.54,2.66-69.51-1.9-102.4-12.67
	c-61.44-20.44-117.39-55.53-166.42-97.46c-9.16,40.5-15.71,83.02-18.45,124.44c47.46,7.98,95.86,6.25,143.7,4.22
	c68.15,59.12,161.43,90.7,251.46,80.44l-4.86-1.44C742.72,951.64,731.1,939.82,719.07,929.47z"/>
<path class="st20" d="M385.69,751.02c-9.16,40.5-15.37,81.62-18.12,123.05c2.74-41.42,9.29-83.95,18.45-124.44L385.69,751.02z"/>
<path class="st21" d="M1210.55,770.44c-35.01,17.44-69.59,35.77-106.24,49.57c-53.79,20.01-112.57,36.48-170.2,25.13
	c-0.23,0.24-0.45,0.47-0.01,0c-0.89,0.97-1.82,1.99-2.79,3c-1.22,1.24-2.47,2.45-3.71,3.67c-1.09,1.1-2.2,2.19-3.31,3.28
	c-0.87,0.85-1.75,1.69-2.63,2.53c-7.72,7.39-15.84,14.5-24.28,21.31c-0.26,0.21-0.53,0.42-0.8,0.63c-2.5,2-5.01,3.99-7.56,5.94
	c-1.55,1.19-3.12,2.35-4.68,3.52c-1.25,0.93-2.5,1.88-3.76,2.8c-31.5,23.07-65.99,42.16-101.46,58.41
	c-6.84,2.96-13.98,5.15-21.24,7.05l4.86,1.44c39.27-3,76.98-17.31,111.06-36.53c92.52,79.18,192.93,150.07,301.92,204.72
	c-25.34-47.72-27.36-105.78-10.39-156.54c11.7-29.9,39.23-49.24,65.32-65.79C1231.54,859.12,1222.41,814.15,1210.55,770.44z"/>
<path class="st21" d="M934.1,845.15c0,0-0.01,0-0.01,0C933.66,845.62,933.88,845.39,934.1,845.15z"/>
<path class="st22" d="M807.03,780.06c0.05,0.05,0.03,0.04-0.17-0.16c-12.82,20.86-36.95,31.21-56.88,44.63
	c-27.87,18.45-60.22,29.18-92.98,34.96l-2.15,0.25c17.19,26.18,40.79,49.03,64.23,69.72c12.03,10.35,23.65,22.17,38.81,27.83
	c7.26-1.9,14.4-4.1,21.24-7.05c34.58-15.85,69.72-35.27,101.46-58.41c1.26-0.92,2.51-1.86,3.76-2.8c1.57-1.17,3.13-2.34,4.68-3.52
	c2.54-1.95,5.06-3.93,7.56-5.94c0.26-0.21,0.53-0.42,0.8-0.63c8.37-6.77,16.47-13.88,24.28-21.31c0.88-0.84,1.77-1.68,2.63-2.53
	c1.11-1.08,2.21-2.18,3.31-3.28c2.19-2.21,4.38-4.42,6.49-6.67c-19.85-6.46-43.2-8.32-61.99-17.69
	C847.93,815.49,826.2,798.95,807.03,780.06z"/>
<path class="st22" d="M806.71,779.73c0.05,0.06,0.1,0.12,0.15,0.17c0,0,0-0.01,0.01-0.01C806.8,779.83,806.74,779.77,806.71,779.73z
	"/>
<path class="st22" d="M807.03,780.06c-0.03-0.03-0.09-0.1-0.16-0.17c0,0,0,0.01-0.01,0.01
	C806.91,779.96,806.97,780.01,807.03,780.06z"/>
<path class="st22" d="M749.98,824.54c19.93-13.43,44.06-23.77,56.88-44.63C793.3,800.21,769.91,811.11,749.98,824.54z"/>
<path class="st22" d="M749.98,824.54c-27.87,18.45-62.37,29.43-95.14,35.22l2.15-0.25C689.76,853.71,722.11,842.99,749.98,824.54z"
	/>
<path class="st22" d="M806.86,779.9c-0.05-0.06-0.1-0.12-0.15-0.17C806.64,779.67,806.65,779.68,806.86,779.9z"/>
<path class="st22" d="M896.57,879.57c-2.5,2.01-5.02,3.99-7.56,5.94C891.56,883.56,894.08,881.57,896.57,879.57z"/>
<path class="st22" d="M921.65,857.62c-7.81,7.44-15.91,14.54-24.28,21.31C905.82,872.12,913.93,865.01,921.65,857.62z"/>
<path class="st22" d="M884.33,889.03c-1.25,0.94-2.5,1.88-3.76,2.8C881.84,890.91,883.08,889.97,884.33,889.03z"/>
<path class="st22" d="M927.6,851.81c-1.1,1.09-2.19,2.2-3.31,3.28C925.4,854.01,926.5,852.91,927.6,851.81z"/>
<path class="st23" d="M662.46,453.92c3.21,19.88,7.16,39.65,11.85,59.24c4.51,2.32,8.7,5.24,12.38,8.71
	c2.98,2.81,5.41,5.9,7.52,9.13c0.39-0.55,0.76-1.1,1.17-1.63c2.77-3.76,5.56-7.49,8.38-11.21c2.2-2.9,4.44-5.77,6.68-8.64
	c4.33-10.01,9.86-19.71,17.29-28.3c4.37-4.78,9.6-8.51,15.4-11.19c1.72-1.96,3.43-3.93,5.17-5.87
	c15.58-17.38,31.9-34.09,48.98-49.98c10.25-9.53,20.77-18.77,31.57-27.68c7.2-5.94,14.52-11.73,21.97-17.37
	c-7.96-8.32-22.52-22.31-29.83-29.28c-0.12-0.04-0.24-0.07-0.36-0.11h0h0c-7.14-1.08-14.3-2-21.49-2.75
	c-21.56-2.24-43.31-2.88-64.9-1.13c-12.36,1-24.44,3.48-36.34,6.73c-3.01,0.82-6,1.7-8.99,2.6c-2.08,0.63-4.15,1.27-6.22,1.93
	c-2.8,0.9-5.59,1.82-8.37,2.76c-7.25,2.44-14.47,4.98-21.66,7.47l0.04,2.07l0,0.04C654.17,391.1,657.41,422.65,662.46,453.92z"/>
<polygon class="st23" points="652.69,359.41 652.69,359.45 652.69,359.45 "/>
<path class="st23" d="M682.68,347.11c-2.8,0.9-5.59,1.82-8.37,2.76C677.09,348.93,679.88,348.01,682.68,347.11z"/>
<path class="st23" d="M697.89,342.57c-3.01,0.82-6,1.7-8.99,2.6C691.89,344.27,694.89,343.39,697.89,342.57z"/>
<path class="st23" d="M820.63,339.73L820.63,339.73c-7.14-1.08-14.3-2-21.49-2.75C806.32,337.73,813.49,338.65,820.63,339.73z"/>
<path class="st23" d="M662.46,453.92c3.21,19.88,7.16,39.65,11.85,59.24c0,0,0,0,0,0C669.62,493.56,665.67,473.8,662.46,453.92z"/>
<path class="st23" d="M662.46,453.92c-5.05-31.26-8.29-62.82-9.77-94.47l0,0v0C654.17,391.1,657.41,422.65,662.46,453.92z"/>
<path class="st23" d="M797.28,414.17c10.25-9.53,20.77-18.77,31.57-27.68C818.05,395.4,807.53,404.63,797.28,414.17z"/>
<path class="st23" d="M710.44,509.52c-2.24,2.87-4.47,5.75-6.68,8.64C705.97,515.27,708.2,512.39,710.44,509.52L710.44,509.52z"/>
<path class="st23" d="M748.3,464.15c-1.74,1.94-3.45,3.91-5.17,5.87h0C744.85,468.06,746.56,466.09,748.3,464.15z"/>
<path class="st23" d="M850.82,369.12c-7.45,5.64-14.77,11.43-21.97,17.37C836.05,380.55,843.37,374.76,850.82,369.12z"/>
<path class="st24" d="M701.79,113.82c-1.41,2.61-2.8,5.22-4.15,7.86c-6.78,13.16-12.87,26.67-18.12,40.49
	c-2.1,5.53-4.07,11.1-5.9,16.72c-4.57,14.05-8.25,28.4-10.92,42.99l1.18,0.63c57.24,31.45,110.66,70.38,156.5,116.98
	c0.08,0.08,0.16,0.16,0.24,0.24c0.12,0.04,0.24,0.07,0.36,0.11c7.31,6.97,21.87,20.96,29.83,29.28c5.83-4.43,11.65-8.91,17.44-13.34
	l1.1-0.84c17.16-12.59,34.92-24.42,53.19-35.39c4.29-2.58,8.61-5.1,12.96-7.58c6.51-3.7,13.08-7.29,19.71-10.76
	c7.03-3.68,14.12-7.22,21.29-10.62c3.32-1.58,6.65-3.12,10-4.64c9.2-4.16,18.5-8.12,27.91-11.8c7.38-2.89,14.83-5.62,22.34-8.19
	c-0.19-2.41-0.4-4.82-0.65-7.23c-0.49-4.81-1.09-9.62-1.81-14.41c-0.72-4.79-1.57-9.56-2.54-14.31c-0.97-4.75-2.07-9.46-3.3-14.15
	c-1.84-7.02-3.99-13.96-6.45-20.78c-1.64-4.55-3.43-9.04-5.36-13.47c-1.93-4.43-4.01-8.8-6.25-13.09
	c-2.23-4.29-4.62-8.52-7.17-12.65c-9.63-16.6-21.87-31.29-35.19-44.98c-7.99-8.21-16.37-16.07-24.81-23.77
	c-74.95-14.19-153.37-12.71-228.03,3.63c-1.56,2.52-3.1,5.05-4.62,7.6C707.54,103.45,704.61,108.61,701.79,113.82z M856.53,351.41
	c-2-0.71-4.01-1.38-6.01-2.07C852.53,350.03,854.54,350.7,856.53,351.41z M844.71,347.35c-2.77-0.92-5.55-1.8-8.32-2.69
	C839.16,345.54,841.94,346.43,844.71,347.35z M832.84,343.51c-3.82-1.2-7.65-2.39-11.49-3.56
	C825.18,341.13,829.02,342.31,832.84,343.51z"/>
<path class="st24" d="M701.79,113.82c2.82-5.21,5.75-10.36,8.78-15.46C707.54,103.45,704.61,108.61,701.79,113.82z"/>
<path class="st24" d="M679.51,162.16c5.25-13.81,11.34-27.32,18.12-40.49C690.85,134.84,684.77,148.35,679.51,162.16z"/>
<path class="st24" d="M673.62,178.88c1.83-5.62,3.8-11.2,5.9-16.72C677.41,167.69,675.44,173.26,673.62,178.88z"/>
<path class="st24" d="M663.88,222.51l-1.18-0.63c57.24,31.45,111.83,71.02,157.68,117.61C774.54,292.89,721.12,253.95,663.88,222.51
	z"/>
<path class="st24" d="M976.5,290.58c3.32-1.58,6.65-3.12,10-4.64C983.15,287.46,979.82,289.01,976.5,290.58z"/>
<path class="st24" d="M869.36,354.93c17.16-12.59,34.92-24.42,53.19-35.39C904.27,330.51,886.52,342.34,869.36,354.93L869.36,354.93
	L869.36,354.93z"/>
<path class="st24" d="M935.5,311.96c6.51-3.7,13.08-7.29,19.71-10.76C948.58,304.67,942.01,308.26,935.5,311.96z"/>
<path class="st24" d="M869.36,354.93L869.36,354.93l-1.1,0.84c-5.79,4.43-11.61,8.91-17.44,13.34c5.83-4.43,11.65-8.91,17.44-13.34
	L869.36,354.93z"/>
<path class="st25" d="M683.09,546.64c-1.38-4.81-2.69-9.63-3.97-14.46C680.4,537.01,681.72,541.83,683.09,546.64
	c0.08,0.29,0.18,0.62,0.28,0.97C683.27,547.26,683.18,546.93,683.09,546.64z"/>
<path class="st25" d="M690.05,538.14L690.05,538.14c-1.47,3.18-2.56,6.53-3.28,9.98C687.49,544.67,688.58,541.32,690.05,538.14z"/>
<path class="st25" d="M683.7,548.75c0.23,0.8,0.48,1.68,0.72,2.55C684.17,550.43,683.93,549.55,683.7,548.75z"/>
<path class="st25" d="M238.25,560.07c5.65-3.41,11.68-6.11,17.93-8.15c13.74-14.21,27.6-28.43,45.03-38.01
	c17-9.94,40.89-7.12,53.98,8.03c14.61,16.18,29.6,46.02,41.47,71.72c0.18-0.06,0.35-0.09,0.53-0.15c3.27-1.55,6.55-3.36,10.01-5.52
	c0.25-0.18,0.48-0.39,0.73-0.57c-10.35-23.59-21.42-46.82-36.97-67.61c-10.75-14.39-27.54-24.77-45.82-25.05
	c-20.63-1.02-38.88,11.22-53.82,24.17c-16.89,14.71-31.76,31.53-48.01,46.93c0.22,0.36,0.46,0.71,0.69,1.07
	C228.52,564.94,233.22,562.68,238.25,560.07z"/>
<path class="st25" d="M1051.95,472.79c5.6-17.8,12.3-35.56,23.38-50.58c5.3-7.18,12.44-14.09,21.34-14.66
	c14.42-0.92,23.97,14.4,29.3,27.83c14.67,36.95,23.19,75.86,31.56,114.83c0.84-3.88,1.68-7.81,2.49-11.8
	c1.36-6.66,2.77-13.52,4.29-20.51c-7.31-29.13-15.66-57.91-26.99-85.73c-7.34-18-19.7-38.15-39.14-38.54
	c-16.22-0.33-28.92,13.68-37.34,27.54c-10.05,16.55-17.31,34.29-23.17,52.63c3.57,3.69,7.11,7.41,10.59,11.18
	C1049.47,480.91,1050.68,476.84,1051.95,472.79z"/>
<path class="st25" d="M1292.15,571.22c-12.61,35.63-22.98,72.27-42.63,104.41c-5.64,9.22-14.6,19.11-25.18,16.92
	c-5.32-1.1-9.54-5.15-12.82-9.49c-7.95-10.5-12.07-23.35-15.71-36.01c-4.7-16.36-8.83-32.89-12.77-49.47
	c-2.13,8.31-4.34,16.6-6.75,24.8c-0.31,1.07-0.66,2.17-0.99,3.26c4.14,14.81,8.84,29.44,14.45,43.78
	c6.7,17.11,18.34,36.27,36.71,36.57c15.08,0.25,26.87-12.73,34.91-25.5c18.78-29.85,29-64.05,40.68-97.5
	C1298.44,579.26,1295.16,575.3,1292.15,571.22z"/>
<path class="st25" d="M1378.37,513.66c-6.54-10.54-15.12-21.7-27.43-23.15c-15.8-1.86-28.21,13.02-35.83,26.99
	c-2.31,4.24-4.44,8.56-6.51,12.92c2.25,4.73,4.98,9.66,8.22,14.46c4.79-10.75,10.17-21.2,16.54-31.15c2.2-3.43,4.67-6.94,8.35-8.71
	c9.59-4.61,19.82,4.89,25.6,13.83c9.71,15.01,17.3,31.39,22.49,48.51c0.96,3.15,1.86,6.38,3.06,9.45c3.43-0.01,9.16-0.02,16.58-0.03
	c-6.74-17.89-14.88-35.26-24.36-51.86C1382.9,521.13,1380.67,517.37,1378.37,513.66z"/>
<path class="st25" d="M795.15,530.56c-4.95,19.67-10.05,39.5-14.8,59.18c-4.13,17.12-7.21,46.24-29.87,48.03
	c-7.48,0.59-14.18-4.71-18.74-10.67c-4.51-5.89-8.29-12.4-11.7-19.18c-1.61,5.88-3.32,11.94-5.11,18.07
	c2.36,3.91,4.95,7.65,7.89,11.11c5.42,6.35,12.51,11.59,20.68,13.32c6.52,1.38,13.51,0.41,19.43-2.66
	c8.69-4.51,14.56-13.02,19.09-21.7c11.36-21.74,17.23-45.96,22.43-70.28c-1.01-3.16-2.02-6.29-3.06-9.32
	C799.6,541.3,797.52,536.03,795.15,530.56z M797.35,564.81c0.66-0.12,1.32-0.22,1.98-0.3c0.01,0.09,0.02,0.18,0.04,0.27
	C798.69,564.79,798.02,564.8,797.35,564.81z"/>
<path class="st25" d="M818.13,497.52c4.08-15.06,9.02-31.15,18.14-42.93c7.73-10,20.04-13.27,32.08-10.14
	c8.78,2.28,13.65,12.34,17.16,19.91c14.4,31.08,22.47,64.84,30.58,97.85c2.36-5.16,4.6-10.42,6.77-15.58
	c0.39-0.92,0.78-1.85,1.17-2.77c-0.87-3.24-1.75-6.48-2.63-9.71c-6.99-25.88-11.94-53.76-25-77.43c-4-7.84-9.09-15.36-16.33-20.56
	c-13.28-8.9-32.12-8.44-44.84,1.3c-15.03,11.51-22.7,28.26-28.03,45.83c0.27,0.3,0.55,0.59,0.81,0.9
	C811.94,488.66,815.29,493.07,818.13,497.52z"/>
<path class="st25" d="M1025.13,530.25c0.91,2.05,1.8,4.07,2.7,6.01c1.65,3.55,3.03,7.23,4.32,10.94
	c5.15-20.7,10.1-41.46,16.05-61.93c-3.48-3.8-7.01-7.54-10.58-11.24c-5.51,17.29-9.77,35.13-13.9,53.04
	C1024.2,528.15,1024.67,529.21,1025.13,530.25z"/>
<path class="st25" d="M1008.23,588.57c-4.05,13.27-8.78,26.27-14.69,38.81c1.07,5.41,2.06,10.84,2.87,16.3
	c1.51-0.53,3.03-1.05,4.54-1.57c3.73-6.09,6.52-12.83,9.03-19.55c1.66-4.44,3.21-8.91,4.72-13.39c-1.59-4.94-3.13-9.88-4.66-14.79
	C1009.45,592.46,1008.84,590.51,1008.23,588.57z"/>
<path class="st25" d="M1048.28,484.99c-3.48-3.78-7.02-7.5-10.59-11.18c-0.02,0.08-0.05,0.15-0.07,0.23
	c3.57,3.7,7.09,7.44,10.58,11.24C1048.23,485.18,1048.25,485.08,1048.28,484.99z"/>
<path class="st25" d="M223.32,565.86c-0.9,0.85-1.82,1.69-2.73,2.54c1.12-0.47,2.26-0.96,3.41-1.47
	C223.78,566.57,223.55,566.21,223.32,565.86z"/>
<path class="st25" d="M993.54,627.38c-0.12,0.25-0.23,0.51-0.35,0.77c-4.3,9.04-10.56,18.79-20.47,20.22
	c-7.84,1.14-15.59-3.66-20.24-10.07c-6.3-8.71-8.27-19.92-11.03-30.08c-1.06-3.9-2.11-7.8-3.17-11.7
	c-2.81,4.57-5.95,8.95-9.54,13.03c2.76,9,5.75,17.82,9.18,26.34c4.64,11.53,13.93,23.22,26.92,26.02
	c10.68,2.31,21.9-2.92,29.4-10.86c0.92-0.98,1.8-2,2.64-3.04c-0.15-1.44-0.29-2.88-0.46-4.32
	C995.61,638.21,994.62,632.79,993.54,627.38z"/>
<path class="st25" d="M996.88,648c1.49-1.87,2.83-3.85,4.08-5.89c-1.51,0.52-3.03,1.04-4.54,1.57
	C996.59,645.12,996.72,646.56,996.88,648z"/>
<g>
	<path class="st25" d="M568.04,625.82c-3.12,6.48-6.24,12.99-9.46,19.45c-8.43,16.9-17.68,33.41-30.11,47.71
		c-9.34,10.13-22.34,19.52-36.91,16.91c-15.68-3.95-26.94-16.98-36.15-29.53c-12.07-16.46-21.39-34.43-29.87-52.89
		c-1.08-2.34-2.16-4.68-3.21-7.04c-3.42,1.86-7.03,3.56-11.11,5.2c2.69,5.73,5.42,11.44,8.21,17.12
		c7.48,15.23,15.43,30.23,24.58,44.55c12.54,17.23,29.44,35.13,52.22,35.99c19.57,0.67,35.57-12.91,47.18-27.24
		c11.17-14.64,20.09-30.76,28.26-47.23c2.37-4.78,4.69-9.59,6.97-14.4c2.04-4.31,4.09-8.56,6.13-12.8
		c-1.89-6.61-3.51-13.24-5.01-19.77C575.79,609.8,571.9,617.8,568.04,625.82z"/>
	<path class="st25" d="M690.05,538.14c-2.26-4-4.91-7.76-8.34-11c-1.54-1.46-3.21-2.76-4.94-3.99h0c-9.36-6.64-21.16-9.9-32.57-8.79
		c-14.1,1.38-22.93,12.1-29.81,23.49c-3.16,5.23-6.22,10.52-9.23,15.83c0.6,2.69,1.19,5.38,1.78,8.07c0.63,2.88,1.27,5.78,1.91,8.68
		c4.11-8.1,8.51-16.05,13.39-23.71c5.71-8.96,13.21-18.24,23.74-19.66c6.25-0.84,12.58,1.33,17.95,4.64
		c7.54,4.65,13,10.94,17.33,18.05c2.68,4.39,4.94,9.08,6.98,13.9c0.02,0.04,0.03,0.08,0.05,0.12c1.44,3.4,2.78,6.86,4.09,10.32
		c0.84-3.59,1.66-7.17,2.48-10.73l1.74-7.56c0.16-0.7,0.33-1.42,0.49-2.13C695,548.35,692.83,543.06,690.05,538.14z"/>
</g>
<path class="st25" d="M686.06,552.35c0.17-1.43,0.42-2.83,0.72-4.23C686.48,549.52,686.23,550.93,686.06,552.35z"/>
<path class="st25" d="M684.79,552.61c0.24,0.86,0.48,1.68,0.68,2.39C685.27,554.29,685.04,553.47,684.79,552.61z"/>
<path class="st26" d="M1456.28,583.94c-12.18,0.02-24.36,0.05-36.54,0.07c-2.55,0-5.11,0.01-7.66,0.01
	c-5.12,0.01-10.23,0.02-15.35,0.03c-1.56,0-3.13,0.01-4.69,0.01c-1.28,0-2.57-0.03-3.85-0.03c-2.84,0-5.68,0.01-8.53-0.06
	c-12.21-0.3-24.38-1.52-35.57-6.2c-9.88-4.13-18.31-10.72-25.41-18.7c-1.82-2.05-3.56-4.19-5.21-6.41c-3.23-4.36-6.15-9-8.73-13.81
	c-1.49-2.77-2.86-5.6-4.14-8.46c-0.53-1.19-1.05-2.38-1.54-3.57c-8.89-21.5-13.11-44.61-20.48-66.68
	c-3.93-11.75-8.93-23.48-17.38-32.54c-8.35-8.94-20.64-14.93-32.73-13.18c-0.16,0.02-0.32,0.03-0.48,0.06
	c-16.95,2.74-27.99,19.12-35.05,34.78c-9.87,21.91-16.02,45.14-21.17,68.55c-1.2,5.45-2.34,10.91-3.47,16.36
	c-0.39,1.9-0.79,3.8-1.18,5.7c-0.87,4.24-1.76,8.46-2.68,12.66c-1.06,4.85-2.16,9.67-3.29,14.48c-1.25,5.33-2.55,10.64-3.9,15.94
	c-3.25,12.72-6.81,25.35-10.78,37.96c0,0.01-0.01,0.03-0.01,0.04c-1.07,3.41-2.17,6.82-3.3,10.23c-1.08,3.25-2.18,6.49-3.31,9.73
	c-3.88,10.12-8.73,20.09-16.16,27.99c-10.42,11.07-26.76,17.9-40.36,8.25c-17.21-12.21-25.1-33.03-32.33-52.47
	c-1.1-2.95-2.18-5.87-3.28-8.72c-4.95-12.86-9.6-25.84-13.95-38.92c-0.35-1.04-0.68-2.1-1.01-3.16c-1.38-4.4-2.67-8.88-3.99-13.35
	c-2.15-7.28-4.42-14.52-7.53-21.22c-0.08-0.17-0.15-0.34-0.23-0.51c-1.61-3.5-3.21-7.21-4.92-10.95
	c-6.39-14.01-14.31-28.27-30.08-32.11c-0.1-0.02-0.21-0.03-0.31-0.05c-9.6-2.2-19.9,1.07-27.73,7.06c-2.69,2.06-5.1,4.42-7.31,6.96
	c-4.3,4.95-7.79,10.65-10.74,16.53c-2.99,5.94-5.65,12.03-8.26,18.15c-1.53,3.6-3.04,7.22-4.58,10.82
	c-2.6,6.1-5.28,12.16-8.28,18.07c-0.1,0.2-0.19,0.4-0.29,0.59c-1.47,2.88-3.1,5.71-4.87,8.45c-4.75,7.34-10.65,13.91-18.19,18.21
	c-21.56,12.31-42.61-1.7-52.18-21.55c-0.7-1.44-1.36-2.9-2.03-4.36c-5.8-12.8-9.65-26.36-14.16-39.64
	c-2.02-5.93-4.22-11.82-6.74-17.56c-1.49-3.4-3.11-6.74-4.89-10c-0.33-0.59-0.61-1.21-0.94-1.8c-2.76-4.96-6.08-9.58-9.7-13.96
	c-0.78-0.94-1.56-1.89-2.37-2.81c-1.06-1.26-2.19-2.45-3.39-3.58c-17.68-16.65-48.92-17.84-65.86,0.68
	c-16.22,18.77-22.98,43.39-28.55,67.13c-0.34,1.45-0.67,2.89-1.01,4.33c-0.61,2.63-1.21,5.27-1.81,7.91
	c-1.57,6.87-3.16,13.77-4.84,20.66c-0.15,0.63-0.31,1.26-0.47,1.88c-0.01,0.05-0.02,0.09-0.03,0.14c-0.81,3.31-1.66,6.61-2.53,9.91
	c-2.87,10.86-6.06,21.63-9.96,32.09c-6.37,17.1-21.12,44.06-43.77,32.89c-3.88-2.5-7.11-5.66-9.91-9.17
	c-5.7-7.12-9.54-15.83-12.71-24.36c-4.51-12.14-8.04-24.58-11.14-37.14c-0.94-3.79-1.84-7.59-2.71-11.4
	c-1.35-5.86-2.64-11.74-3.93-17.62c-0.78-3.57-1.57-7.13-2.36-10.7c-5.78-25.89-12.22-51.56-24.09-75.51
	c-7.09-14.29-17.13-28.28-31.97-35.16c-0.07-0.03-0.15-0.08-0.22-0.11c-15.26-7.33-33.7-5.06-48.34,2.71
	c-13.76,7.49-23.13,21.02-29.44,35.04c-11.15,25.6-16.17,53.33-26.67,79.19c-1.87,4.44-3.99,8.85-6.38,13.11
	c-3.69,6.55-8.12,12.65-13.61,17.71c-1.75,1.61-3.56,3.16-5.54,4.54c-0.1,0.06-0.21,0.12-0.31,0.18c-3.56,2.22-7.22,4.26-11.02,6.04
	c-0.05,0.02-0.11,0.03-0.16,0.05c-2.3,0.76-4.66,1.42-7.07,1.96c-11.14,2.51-23.11,2.41-33.15-3.45
	c-13.44-7.1-19.73-22.11-32.31-30.34c-19.24-14.1-44.62-16.97-67.12-10.15c-6.31,1.91-12.41,4.55-18.07,7.96
	c-0.07,0.04-0.13,0.07-0.2,0.11c-4.54,2.36-9.17,4.59-13.85,6.68c-6.2,2.77-12.52,5.28-19,7.31c-0.03,0.01-0.06,0.02-0.09,0.03
	c-2.28,0.87-4.6,1.53-6.96,2.05c-5.81,1.29-11.79,1.73-17.72,2.23c-8.31,0.47-16.63,0.82-24.95,1.11
	c-36.28,1.28-72.59,1.04-108.87,0.25c-0.07,6.94-0.21,13.9-0.35,20.86c28.52-0.12,57.01,1.46,85.5,0.16
	c6.56-0.14,13.13-0.2,19.71-0.29c16.59-0.22,33.18-0.67,49.56-3.44c12.23-2.51,23.67-7.32,34.93-12.59
	c7.76-3.63,15.43-7.47,23.19-10.96c15.59-7.01,34.3-5.04,48.82,3.56c12.03,7.17,18.25,20.51,29.53,28.56
	c16.76,13.16,39.98,15.9,60.04,9.58c0.84-0.27,1.69-0.52,2.52-0.82c1.45-0.53,2.89-1.07,4.32-1.64c3.85-1.53,7.62-3.28,11.25-5.27
	c0.48-0.27,0.98-0.51,1.46-0.79c1.61-1.03,3.16-2.12,4.67-3.27c5.36-4.09,10.07-8.93,14.24-14.23c1.79-2.28,3.5-4.63,5.08-7.07
	c1.89-2.9,3.64-5.87,5.24-8.92c4.37-8.14,7.82-16.65,10.82-25.32c8.59-24.8,13.54-50.99,25.93-74.31
	c7.2-14.22,23.36-23.84,39.3-20.99c0.81,0.14,1.61,0.29,2.42,0.5c13.85,4.26,21.49,17.76,27.29,30.04
	c13.08,27.67,19.3,58.93,26.07,88.82c0.17,0.75,0.34,1.5,0.5,2.25c0.82,3.65,1.63,7.36,2.45,11.1c1.46,6.62,2.97,13.33,4.68,20.01
	c0.91,3.57,1.89,7.12,2.93,10.65c3.48,11.76,7.83,23.19,13.86,33.53c1.94,3.33,4.06,6.54,6.38,9.62c3.11,4.12,6.61,8.01,10.54,11.36
	c0.1,0.09,0.21,0.16,0.32,0.24c15.65,13.05,39.96,12.14,55.44-0.8c12.85-10.94,21.17-26.6,26.05-42.56c0.68-2.24,1.33-4.49,2-6.73
	c0.61-2.07,1.24-4.13,1.84-6.2c0.04-0.13,0.08-0.26,0.12-0.4c0.33-1.14,0.65-2.29,0.98-3.44c1.81-6.34,3.55-12.7,5.25-19.07
	c1.02-3.81,2.02-7.61,3.01-11.43c0.82-3.14,1.63-6.29,2.44-9.44c4.56-17.91,7.34-37.58,14.98-54.49
	c4.09-9.07,8.23-18.85,16.47-24.98c8.93-6.17,21.58-5.02,30.13,1.34c4.43,2.77,7.76,6.69,10.54,11.02c1.88,2.93,3.51,6.04,5.02,9.13
	c0.04,0.08,0.08,0.17,0.12,0.26c3.49,7.38,6.68,14.91,9.44,22.6c0.27,0.76,0.56,1.52,0.83,2.28c1.26,3.66,2.48,7.46,3.71,11.31
	c8.04,25.29,16.47,53.27,41.52,65.72c17.41,8.65,37.02,7.08,53.53-2.74c5.2-3.09,9.65-6.75,13.59-10.78
	c2.01-2.05,3.91-4.19,5.66-6.44c3.54-4.54,6.6-9.43,9.36-14.55c1.72-3.19,3.32-6.48,4.85-9.8c6.46-14.04,11.66-28.98,18.91-42.26
	c0.64-1.18,1.31-2.39,2-3.61c3.68-6.49,8.24-13.08,15.28-14.79c1.08-0.26,2.21-0.42,3.41-0.44c1.18-0.01,2.43-0.01,3.46,0.59
	c0.69,0.4,1.21,1.04,1.71,1.66c6.85,8.51,11.71,17.99,15.87,28.07c2.36,5.72,4.51,11.55,6.56,17.42c1.45,4.16,2.85,8.36,4.21,12.57
	c2.28,7.05,4.48,14.14,6.7,21.23c1.24,3.98,2.5,7.95,3.79,11.9c2.5,7.72,5.14,15.37,8.04,22.91c5.63,14.64,12.27,28.8,21.14,41.9
	c9.92,14.64,25.02,27.8,43.48,28.7c18.43,1.48,36.33-8.42,47.2-22.97c7.67-10.07,13.42-21.28,18.13-32.96
	c0.01-0.03,0.03-0.06,0.04-0.09c2.79-6.94,5.21-14.03,7.41-21.17c0.53-1.72,1.06-3.43,1.57-5.15c0.8-2.73,1.57-5.47,2.34-8.22
	c2.78-9.93,5.33-19.91,7.76-29.92c1.29-5.3,2.55-10.61,3.78-15.93c2.35-10.15,4.63-20.33,6.92-30.49c1.72-7.6,3.4-15.18,5.16-22.73
	c4.85-20.79,10.38-41.26,19.45-60.76c2.33-5,5.4-10.35,9.56-13.71c2.36-1.91,5.07-3.19,8.2-3.39c9.75-0.61,16.41,9.5,20.2,18.51
	c10.95,25.96,16.49,53.92,27.07,80.03c2.97,7.33,6.47,14.59,10.51,21.51c1.54,2.63,3.15,5.21,4.85,7.72
	c2.95,4.35,6.15,8.49,9.62,12.35c1.81,2.01,3.69,3.93,5.65,5.77c6.71,6.33,14.28,11.61,22.83,15.34
	c18.21,7.92,38.73,8.01,58.59,7.97c15.48-0.03,30.95-0.06,46.43-0.1c11.07-0.02,22.14-0.05,33.21-0.07
	c44.12-0.09,88.25-0.18,132.37-0.28c0.11-6.77,0.22-13.53,0.34-20.3c-42.5,0.08-85,0.16-127.5,0.24
	C1469.87,583.91,1463.07,583.93,1456.28,583.94z"/>
</svg>
