<?xml version="1.0" standalone="no"?>
<!DOCTYPE svg PUBLIC "-//W3C//DTD SVG 20010904//EN"
 "http://www.w3.org/TR/2001/REC-SVG-20010904/DTD/svg10.dtd">
<svg version="1.0" xmlns="http://www.w3.org/2000/svg"
 width="189.000000pt" height="189.000000pt" viewBox="0 0 189.000000 189.000000"
 preserveAspectRatio="xMidYMid meet">

<g transform="translate(0.000000,189.000000) scale(0.100000,-0.100000)"
fill="#000000" stroke="none">
<path d="M970 1459 c-20 -7 -18 -8 11 -4 37 6 92 -12 84 -25 -3 -5 2 -10 10
-14 9 -3 15 0 15 9 0 21 23 18 37 -4 11 -17 8 -23 -18 -45 -17 -14 -27 -30
-24 -36 11 -17 23 -11 29 15 4 14 13 25 22 25 9 0 14 8 13 18 -3 38 0 41 33
25 30 -15 30 -17 12 -30 -12 -9 -15 -16 -8 -21 19 -12 23 -50 6 -57 -8 -3 -12
-8 -8 -12 3 -3 15 2 26 12 25 23 31 17 35 -32 4 -56 20 -110 39 -128 9 -9 16
-21 16 -26 0 -6 5 -7 12 -3 7 4 8 3 4 -4 -4 -7 -3 -12 2 -12 5 0 9 -7 9 -15 0
-9 -5 -14 -11 -12 -6 3 -10 10 -8 16 3 16 -9 13 -23 -6 -9 -12 -10 -25 -3 -45
6 -16 8 -37 5 -48 -3 -11 -1 -23 5 -26 15 -10 -12 -24 -46 -24 -39 0 -27 -11
20 -17 27 -4 34 -2 29 8 -5 8 -4 10 4 5 15 -10 43 13 34 27 -3 6 -1 7 5 3 7
-4 12 -2 12 4 0 6 5 8 10 5 12 -7 13 22 4 88 -4 26 -10 44 -14 42 -5 -3 -6 5
-3 16 4 16 2 20 -8 17 -9 -3 -19 10 -30 41 -10 29 -22 45 -30 43 -11 -3 -11
-1 -2 9 13 13 1 51 -29 85 -24 27 -23 38 2 31 11 -3 20 -1 20 4 0 5 5 9 11 9
5 0 7 -4 4 -10 -3 -6 1 -7 9 -4 9 3 16 1 16 -6 0 -6 5 -8 10 -5 6 3 10 1 10
-5 0 -6 -6 -10 -14 -8 -8 2 -14 -1 -13 -7 1 -5 5 -9 8 -8 3 1 6 -5 6 -13 0 -8
-5 -14 -11 -14 -6 0 -6 -4 1 -11 12 -12 36 -3 28 11 -3 5 5 7 17 5 13 -3 35
-6 49 -7 20 -2 25 -6 21 -20 -2 -10 -8 -15 -13 -12 -5 3 -9 0 -9 -5 0 -6 7
-11 15 -11 8 0 15 -5 15 -11 0 -5 -4 -7 -10 -4 -5 3 -10 1 -10 -5 0 -7 -6 -10
-14 -7 -10 4 -12 0 -9 -14 6 -23 23 -36 23 -17 0 10 3 9 11 -2 8 -12 9 -10 4
7 -3 12 -1 24 5 28 5 3 10 14 10 24 0 35 54 31 60 -4 2 -15 60 -49 60 -36 0 6
8 11 18 11 13 0 10 6 -13 25 -34 28 -42 30 -48 13 -2 -7 -3 -6 -2 4 4 25 -65
72 -214 143 -57 27 -72 28 -46 1 9 -9 12 -16 7 -16 -5 0 -17 10 -28 21 -44 50
-195 83 -264 58z m316 -275 c1 -9 0 -13 -4 -10 -3 4 -7 14 -8 22 -1 9 0 13 4
10 3 -4 7 -14 8 -22z"/>
<path d="M930 1451 c0 -6 4 -13 10 -16 6 -3 7 1 4 9 -7 18 -14 21 -14 7z"/>
<path d="M711 1434 c-19 -8 -39 -22 -46 -31 -7 -10 -19 -14 -29 -10 -10 4 -15
3 -11 -3 10 -16 23 -12 89 21 48 25 64 29 78 20 13 -8 18 -8 18 0 0 5 4 8 9 4
5 -3 12 -1 16 5 10 16 -85 11 -124 -6z"/>
<path d="M885 1430 c3 -5 8 -10 11 -10 2 0 4 5 4 10 0 6 -5 10 -11 10 -5 0 -7
-4 -4 -10z"/>
<path d="M801 1381 c-17 -21 -28 -41 -24 -44 3 -4 -6 -16 -20 -28 -29 -22 -36
-49 -12 -49 8 0 19 -9 25 -21 14 -26 5 -73 -13 -63 -7 4 -9 3 -4 -1 4 -5 0
-16 -8 -25 -9 -10 -18 -35 -21 -56 -10 -75 -14 -83 -60 -116 -53 -38 -44 -51
11 -14 20 14 53 28 74 31 20 3 59 10 86 15 70 13 165 18 159 8 -3 -4 5 -4 18
1 30 10 50 53 45 94 -3 32 -3 31 -11 -11 -8 -39 -11 -43 -47 -48 -22 -4 -39
-10 -39 -15 0 -5 -5 -9 -11 -9 -5 0 -7 5 -3 12 5 7 3 8 -6 3 -7 -4 -31 -9 -54
-11 -22 -2 -63 -6 -90 -10 -32 -4 -46 -3 -42 4 3 5 0 12 -8 15 -24 10 -8 77
30 124 20 24 30 44 24 48 -6 3 -17 19 -24 34 -13 24 -13 31 0 55 7 16 11 32 8
37 -3 5 -1 9 5 9 5 0 13 9 16 20 3 11 12 20 19 20 7 0 13 7 13 15 0 21 -1 20
-36 -24z"/>
<path d="M1015 1390 c-10 -16 3 -29 24 -23 12 3 17 11 14 19 -6 16 -29 19 -38
4z"/>
<path d="M960 1370 c0 -5 5 -10 10 -10 6 0 10 5 10 10 0 6 -4 10 -10 10 -5 0
-10 -4 -10 -10z"/>
<path d="M630 1350 c-9 -6 -10 -10 -3 -10 6 0 15 5 18 10 8 12 4 12 -15 0z"/>
<path d="M469 1323 c-13 -16 -12 -17 4 -4 9 7 17 15 17 17 0 8 -8 3 -21 -13z"/>
<path d="M1055 1310 c-3 -5 -1 -10 4 -10 6 0 11 5 11 10 0 6 -2 10 -4 10 -3 0
-8 -4 -11 -10z"/>
<path d="M1096 1275 c-3 -8 -1 -15 4 -15 6 0 10 7 10 15 0 8 -2 15 -4 15 -2 0
-6 -7 -10 -15z"/>
<path d="M1124 1265 c5 -11 11 -28 13 -37 7 -24 23 -23 23 0 0 11 -10 27 -22
38 -21 19 -21 19 -14 -1z"/>
<path d="M346 1237 c-30 -40 -36 -70 -8 -44 9 10 26 25 37 35 12 9 15 13 8 8
-19 -13 -28 1 -13 19 7 8 10 15 7 15 -3 0 -17 -15 -31 -33z"/>
<path d="M1008 1263 c7 -3 16 -2 19 1 4 3 -2 6 -13 5 -11 0 -14 -3 -6 -6z"/>
<path d="M664 1235 c-23 -30 -30 -31 -37 -6 -4 15 -10 18 -28 14 -22 -6 -22
-6 -2 -14 12 -4 25 -14 30 -23 10 -18 33 -4 52 32 16 29 8 28 -15 -3z"/>
<path d="M1216 1245 c-3 -8 -1 -15 4 -15 13 0 22 18 11 24 -5 3 -11 -1 -15 -9z"/>
<path d="M1470 1244 c0 -16 -2 -17 -10 -4 -5 8 -10 11 -10 5 0 -5 4 -16 9 -24
7 -11 10 -9 16 8 4 13 4 25 1 28 -3 4 -6 -2 -6 -13z"/>
<path d="M1066 1218 c-9 -12 -16 -31 -16 -42 0 -18 2 -18 14 -6 13 15 31 70
22 70 -3 0 -12 -10 -20 -22z"/>
<path d="M1340 1238 c0 -4 5 -19 10 -34 8 -21 8 -29 -2 -36 -10 -6 -9 -8 4 -8
9 0 19 -6 21 -12 3 -7 4 4 3 25 -1 21 -10 45 -19 54 -9 10 -17 14 -17 11z"/>
<path d="M958 1223 c7 -3 16 -2 19 1 4 3 -2 6 -13 5 -11 0 -14 -3 -6 -6z"/>
<path d="M1590 1196 c0 -2 7 -7 16 -10 8 -3 12 -2 9 4 -6 10 -25 14 -25 6z"/>
<path d="M234 1173 c2 -10 -7 -31 -19 -48 -12 -16 -28 -46 -35 -65 -7 -19 -17
-40 -22 -47 -6 -8 -2 -15 11 -22 27 -15 31 -14 24 5 -3 9 -12 13 -22 10 -15
-6 -15 -5 0 6 22 18 41 56 34 68 -4 6 -3 10 2 9 27 -5 42 2 36 17 -3 8 4 29
17 46 12 17 17 28 11 24 -7 -4 -18 -3 -26 4 -11 9 -13 7 -11 -7z"/>
<path d="M480 1180 c0 -5 16 -24 36 -42 20 -18 40 -42 45 -53 7 -18 8 -18 8
-1 1 10 -15 34 -34 53 -19 19 -35 39 -35 44 0 5 -4 9 -10 9 -5 0 -10 -4 -10
-10z"/>
<path d="M657 1141 c-32 -34 -37 -53 -6 -25 19 17 44 54 37 54 -2 0 -15 -13
-31 -29z"/>
<path d="M1616 1154 c-3 -9 -4 -19 -1 -22 3 -3 5 1 5 9 0 11 2 11 10 -1 5 -8
10 -10 10 -5 0 6 -4 16 -9 23 -6 11 -10 10 -15 -4z"/>
<path d="M1128 1119 c3 -18 1 -29 -4 -26 -5 3 -7 -14 -6 -37 3 -39 1 -45 -35
-73 -21 -17 -50 -33 -63 -36 l-25 -4 25 -2 c14 0 38 8 54 18 16 11 36 17 44
13 9 -3 13 -1 9 5 -4 6 -2 13 4 15 6 2 11 28 11 63 -1 90 -1 95 -10 95 -5 0
-6 -14 -4 -31z"/>
<path d="M145 1121 c-7 -12 12 -24 25 -16 11 7 4 25 -10 25 -5 0 -11 -4 -15
-9z"/>
<path d="M340 1100 c-12 -17 -15 -28 -8 -25 11 5 42 55 33 55 -2 0 -13 -13
-25 -30z"/>
<path d="M1628 1096 c-4 -22 -3 -24 13 -15 24 12 24 5 1 -18 -23 -22 -40 -62
-19 -45 8 7 18 8 23 4 4 -4 2 1 -5 11 -12 15 -11 17 5 17 16 0 19 -9 21 -57 1
-31 -2 -52 -5 -47 -12 17 -32 14 -32 -4 0 -10 -5 -23 -11 -29 -11 -11 -61 -5
-54 7 3 5 0 12 -6 16 -8 5 -10 -4 -7 -28 3 -26 0 -34 -9 -31 -7 3 -20 0 -28
-7 -15 -12 -47 -1 -46 16 0 5 -9 12 -20 16 -25 10 -24 2 6 -27 27 -28 44 -31
64 -12 11 10 12 9 7 -1 -4 -7 -2 -20 6 -29 11 -14 11 -16 -1 -9 -9 6 -12 5 -9
-5 3 -8 15 -13 29 -11 19 2 21 1 9 -7 -13 -9 -13 -11 1 -11 8 0 24 -7 35 -16
10 -8 13 -13 6 -9 -7 4 -19 2 -27 -5 -10 -9 -16 -7 -23 6 -5 9 -15 14 -21 10
-6 -4 -9 -10 -7 -14 2 -4 -6 -7 -19 -7 -13 0 -23 4 -22 9 1 4 -9 10 -22 12
-18 3 -22 1 -17 -12 3 -8 6 -19 6 -22 0 -4 14 -13 32 -21 28 -13 30 -15 12
-22 -15 -6 -12 -8 14 -8 28 -1 32 -5 32 -27 0 -17 4 -23 13 -18 7 5 6 0 -3
-11 -14 -17 -15 -16 -18 14 -3 24 -7 31 -19 27 -8 -3 -29 -6 -46 -7 l-32 -1
33 -8 c41 -10 56 -23 22 -20 -39 3 -48 -1 -20 -10 25 -8 25 -8 2 -9 -13 -1
-21 -5 -17 -10 3 -5 1 -12 -5 -16 -5 -3 -10 1 -10 9 0 11 -9 16 -30 16 -45 0
-36 -17 18 -35 43 -14 44 -15 10 -10 -23 4 -38 2 -38 -5 0 -5 6 -10 13 -10 8
0 7 -4 -3 -10 -10 -7 0 -8 35 -6 28 2 37 1 20 -2 l-30 -5 30 -8 c21 -6 15 -6
-20 -3 -58 7 -139 39 -131 53 4 5 1 13 -5 17 -8 5 -9 3 -4 -6 6 -10 3 -12 -11
-7 -18 7 -18 7 0 -8 11 -8 15 -15 10 -15 -6 0 -11 -6 -11 -14 0 -8 6 -12 15
-8 11 4 13 1 7 -8 -5 -9 -4 -11 4 -6 6 4 8 12 5 18 -5 8 -1 9 10 5 10 -4 21
-7 24 -7 4 0 0 -5 -8 -11 -12 -8 -9 -9 10 -4 20 5 22 4 10 -5 -12 -10 -11 -11
8 -7 12 3 20 1 16 -4 -3 -5 3 -9 13 -10 10 0 13 -3 6 -5 -6 -3 -28 2 -48 10
-20 9 -41 13 -46 10 -5 -3 -17 -1 -26 5 -13 7 -23 5 -37 -7 -11 -9 -16 -11
-12 -4 4 6 3 12 -1 12 -5 0 -14 9 -21 20 -13 21 -12 21 15 4 l28 -16 -25 20
c-13 11 -28 18 -33 15 -5 -3 -22 4 -38 16 -34 25 -40 26 -32 5 4 -12 2 -15 -8
-12 -8 3 -13 11 -11 17 1 6 -6 11 -15 11 -14 1 -12 4 7 16 24 14 24 15 2 8
-17 -4 -28 0 -38 15 -12 17 -19 18 -38 10 -17 -8 -29 -8 -44 0 -11 6 -34 11
-51 11 -17 0 -31 5 -31 10 0 7 15 9 38 5 20 -3 31 -2 25 1 -19 8 -16 24 5 25
11 1 8 4 -8 8 -15 4 -28 3 -33 -3 -5 -7 -7 -5 -4 4 2 8 15 15 29 15 15 0 29 2
32 5 5 5 -19 6 -68 2 -11 -1 -16 -7 -13 -16 4 -10 1 -13 -9 -9 -7 3 -14 0 -14
-6 0 -6 -9 -11 -19 -11 -11 0 -21 -6 -24 -12 -4 -10 -7 -10 -18 0 -7 6 -20 12
-29 12 -23 0 -50 32 -51 61 -1 20 -2 19 -10 -9 -6 -20 -22 -40 -42 -52 -37
-23 -30 -26 16 -7 42 18 64 9 62 -25 -1 -19 2 -25 9 -19 13 10 45 12 66 4 8
-3 21 -7 28 -9 8 -1 17 -6 20 -10 4 -4 -1 -4 -11 -1 -15 6 -17 3 -11 -16 9
-28 21 -36 47 -29 11 3 18 1 15 -4 -7 -13 39 -57 47 -45 3 6 1 11 -5 11 -6 0
-8 5 -5 10 4 7 13 7 26 0 11 -6 24 -8 29 -5 6 3 10 0 10 -8 0 -8 8 -21 18 -30
17 -15 110 -65 125 -66 4 -1 16 -10 28 -22 22 -22 67 -21 96 3 8 7 29 13 47
15 86 7 176 70 227 160 29 51 31 60 22 95 -11 43 -5 47 37 23 31 -18 41 -18
38 -2 -2 6 6 12 17 12 11 0 20 7 20 15 0 8 6 19 13 23 7 5 10 13 6 18 -4 6
-11 6 -20 -2 -8 -7 -14 -7 -14 -1 0 5 8 13 18 17 16 6 16 7 -2 21 -11 8 -15
14 -9 14 14 0 34 -25 26 -33 -3 -4 -1 -7 5 -7 7 0 12 11 12 24 0 13 3 37 6 54
6 28 4 30 -19 28 -18 -2 -24 1 -20 11 4 10 9 11 19 2 12 -10 14 -5 12 25 -2
20 -7 36 -11 36 -4 0 -16 19 -27 43 -30 65 -60 113 -60 97 0 -12 -2 -12 -9 -2
-6 10 -10 7 -13 -12z m-818 -420 c0 -2 -8 -10 -17 -17 -16 -13 -17 -12 -4 4
13 16 21 21 21 13z m144 -42 c9 -24 7 -28 -9 -14 -17 14 -20 30 -6 30 5 0 12
-7 15 -16z m111 6 c3 -5 1 -10 -4 -10 -6 0 -11 5 -11 10 0 6 2 10 4 10 3 0 8
-4 11 -10z m-139 -36 c1 -9 0 -13 -4 -10 -3 4 -7 14 -8 22 -1 9 0 13 4 10 3
-4 7 -14 8 -22z m129 -44 c21 -16 43 -30 50 -30 17 0 149 -70 157 -83 7 -12
-8 -37 -23 -37 -5 0 -9 5 -9 11 0 5 4 8 9 4 5 -3 12 -2 15 3 2 4 -6 9 -20 10
-13 1 -42 13 -64 27 -22 14 -43 25 -48 25 -5 0 -26 15 -48 34 -21 18 -43 33
-48 32 -5 0 -10 7 -12 17 -3 22 -3 22 41 -13z"/>
<path d="M940 1089 c0 -5 9 -9 20 -9 11 0 20 2 20 4 0 2 -9 6 -20 9 -11 3 -20
1 -20 -4z"/>
<path d="M580 1058 c0 -10 -8 -26 -19 -37 -16 -16 -28 -46 -37 -91 -2 -8 2
-20 8 -27 6 -7 6 -13 1 -13 -5 0 -10 -15 -11 -32 l-2 -33 15 33 c8 18 21 35
29 38 8 3 22 17 31 30 14 21 14 27 2 39 -8 8 -17 11 -21 8 -9 -10 -8 -2 13 53
14 40 15 51 5 51 -8 0 -14 -9 -14 -19z"/>
<path d="M1389 1023 c-13 -16 -12 -17 4 -4 16 13 21 21 13 21 -2 0 -10 -8 -17
-17z"/>
<path d="M1427 1018 c-8 -29 -4 -32 11 -8 6 10 8 21 3 24 -5 3 -11 -4 -14 -16z"/>
<path d="M774 977 c5 -17 -8 -54 -23 -67 -3 -3 -15 -16 -26 -30 l-20 -25 26
23 c14 12 28 19 32 16 4 -4 10 1 13 10 5 14 9 15 16 4 12 -18 -1 52 -14 72 -8
12 -8 11 -4 -3z"/>
<path d="M185 960 c3 -5 8 -10 11 -10 2 0 4 5 4 10 0 6 -5 10 -11 10 -5 0 -7
-4 -4 -10z"/>
<path d="M260 941 c0 -5 7 -12 16 -15 14 -5 15 -4 4 9 -14 17 -20 19 -20 6z"/>
<path d="M1783 910 c-11 -30 -3 -47 17 -35 12 7 14 65 2 65 -4 0 -13 -13 -19
-30z"/>
<path d="M1378 923 c-9 -2 -20 -17 -23 -34 -4 -16 -11 -26 -16 -23 -6 4 -6 11
2 20 9 11 8 14 -4 14 -24 0 -29 -16 -12 -34 9 -8 16 -19 16 -23 0 -4 3 -10 6
-13 4 -3 3 0 0 6 -8 14 40 37 56 28 7 -4 9 -4 5 1 -4 4 -3 14 2 20 6 7 8 20 4
29 -6 16 -7 17 -36 9z"/>
<path d="M1215 910 c3 -5 8 -10 11 -10 2 0 4 5 4 10 0 6 -5 10 -11 10 -5 0 -7
-4 -4 -10z"/>
<path d="M601 896 c4 -4 3 -23 -1 -42 -4 -19 -4 -34 1 -34 20 0 25 -2 43 -18
18 -16 19 -16 13 2 -6 14 -4 17 8 12 9 -3 13 -2 10 4 -3 6 -12 10 -19 10 -8 0
-19 14 -26 30 -7 17 -18 33 -24 37 -6 3 -8 3 -5 -1z"/>
<path d="M635 890 c-3 -5 -1 -10 4 -10 6 0 11 5 11 10 0 6 -2 10 -4 10 -3 0
-8 -4 -11 -10z"/>
<path d="M425 850 c3 -5 8 -10 11 -10 2 0 4 5 4 10 0 6 -5 10 -11 10 -5 0 -7
-4 -4 -10z"/>
<path d="M1069 843 c-13 -16 -12 -17 4 -4 9 7 17 15 17 17 0 8 -8 3 -21 -13z"/>
<path d="M191 834 c0 -11 3 -14 6 -6 3 7 2 16 -1 19 -3 4 -6 -2 -5 -13z"/>
<path d="M692 830 c0 -14 2 -19 5 -12 2 6 2 18 0 25 -3 6 -5 1 -5 -13z"/>
<path d="M851 828 c0 -9 10 -25 24 -36 13 -11 21 -22 18 -26 -3 -3 -1 -6 5 -6
22 0 12 30 -12 40 -13 5 -26 17 -29 27 -4 15 -5 16 -6 1z"/>
<path d="M1496 825 c-3 -9 -10 -13 -16 -10 -5 3 -10 1 -10 -4 0 -6 4 -11 9
-11 12 0 35 29 29 36 -3 3 -8 -2 -12 -11z"/>
<path d="M418 813 c7 -3 16 -2 19 1 4 3 -2 6 -13 5 -11 0 -14 -3 -6 -6z"/>
<path d="M330 799 c0 -5 5 -7 10 -4 9 6 14 -8 11 -27 0 -5 6 -8 14 -8 18 0 20
21 3 38 -15 15 -38 16 -38 1z"/>
<path d="M498 793 c-4 -11 -89 -68 -111 -76 -11 -4 -20 -1 -23 8 -5 11 -10 12
-25 2 -17 -10 -17 -13 -3 -34 8 -13 10 -23 4 -23 -5 0 -10 4 -10 10 0 5 -6 9
-12 7 -7 -1 -13 5 -13 13 0 20 -57 49 -63 32 -2 -7 -9 -9 -15 -5 -7 4 -6 -1 2
-10 10 -13 18 -14 32 -6 15 8 19 6 19 -6 0 -9 -4 -14 -9 -11 -5 3 -12 -1 -15
-10 -4 -11 -2 -15 7 -11 8 3 14 -1 14 -9 0 -7 -4 -11 -9 -8 -4 3 -8 1 -8 -4 0
-5 20 -15 45 -22 51 -14 105 -7 153 21 18 10 39 19 46 19 8 0 12 20 11 65 0
57 -7 80 -17 58z m-83 -133 c7 -11 -42 -26 -53 -16 -7 8 17 26 35 26 6 0 15
-4 18 -10z"/>
<path d="M608 773 c-2 -47 3 -77 15 -85 22 -14 30 -8 14 10 -8 9 -16 20 -16
25 -1 4 -1 10 -2 15 -1 4 0 19 1 35 1 15 -1 27 -4 27 -3 0 -7 -12 -8 -27z"/>
<path d="M1360 789 c0 -5 5 -7 10 -4 6 3 10 8 10 11 0 2 -4 4 -10 4 -5 0 -10
-5 -10 -11z"/>
<path d="M1490 780 c0 -5 5 -10 10 -10 6 0 10 5 10 10 0 6 -4 10 -10 10 -5 0
-10 -4 -10 -10z"/>
<path d="M1220 766 c0 -9 5 -16 10 -16 6 0 10 4 10 9 0 6 -4 13 -10 16 -5 3
-10 -1 -10 -9z"/>
<path d="M1376 771 c-4 -6 -2 -11 3 -11 6 0 11 -7 11 -15 0 -17 25 -20 35 -5
3 6 -1 10 -9 10 -8 0 -19 7 -24 16 -6 11 -11 13 -16 5z"/>
<path d="M870 725 c-7 -8 -16 -13 -20 -10 -4 3 -10 -5 -13 -16 -5 -19 -3 -19
24 7 16 15 29 29 29 31 0 7 -8 2 -20 -12z"/>
<path d="M1772 724 c3 -17 21 -21 26 -6 1 5 -4 12 -13 16 -11 4 -15 1 -13 -10z"/>
<path d="M1094 664 c0 -13 6 -24 13 -24 7 0 10 7 7 15 -4 8 -1 15 7 15 15 0 4
13 -14 16 -8 1 -13 -9 -13 -22z"/>
<path d="M1680 680 c0 -5 5 -10 10 -10 6 0 10 5 10 10 0 6 -4 10 -10 10 -5 0
-10 -4 -10 -10z"/>
<path d="M532 638 c8 -12 28 -26 44 -31 16 -6 44 -23 62 -38 37 -33 32 -31 91
-34 35 -2 41 -1 27 7 -13 7 -15 12 -6 18 8 5 7 9 -5 13 -9 4 -13 3 -10 -3 10
-15 -29 -12 -51 5 -17 13 -17 14 -2 15 11 0 15 5 12 15 -4 10 3 18 21 25 14 5
23 15 20 20 -9 14 -37 9 -53 -10 -12 -13 -13 -13 -6 0 7 13 5 13 -8 2 -12 -9
-22 -10 -35 -4 -10 5 -32 7 -49 5 -18 -3 -35 0 -38 6 -4 6 -12 11 -18 11 -6 0
-5 -9 4 -22z"/>
<path d="M1282 645 c15 -12 49 -25 44 -17 -3 6 0 12 6 15 7 3 -2 5 -20 4 -18
0 -31 -1 -30 -2z"/>
<path d="M841 624 c0 -11 3 -14 6 -6 3 7 2 16 -1 19 -3 4 -6 -2 -5 -13z"/>
<path d="M705 610 c4 -6 11 -8 16 -5 14 9 11 15 -7 15 -8 0 -12 -5 -9 -10z"/>
<path d="M810 605 c7 -8 17 -15 22 -15 5 0 3 7 -6 15 -8 8 -18 15 -22 15 -3 0
-1 -7 6 -15z"/>
<path d="M1340 616 c0 -2 7 -6 15 -10 8 -3 15 -1 15 4 0 6 -7 10 -15 10 -8 0
-15 -2 -15 -4z"/>
<path d="M1360 580 c20 -13 33 -13 25 0 -3 6 -14 10 -23 10 -15 0 -15 -2 -2
-10z"/>
<path d="M1264 566 c1 -8 5 -18 8 -22 4 -3 5 1 4 10 -1 8 -5 18 -8 22 -4 3 -5
-1 -4 -10z"/>
<path d="M930 540 c0 -5 5 -10 11 -10 5 0 7 5 4 10 -3 6 -8 10 -11 10 -2 0 -4
-4 -4 -10z"/>
<path d="M900 450 c0 -5 5 -10 11 -10 5 0 7 5 4 10 -3 6 -8 10 -11 10 -2 0 -4
-4 -4 -10z"/>
<path d="M960 400 c0 -5 5 -10 10 -10 6 0 10 5 10 10 0 6 -4 10 -10 10 -5 0
-10 -4 -10 -10z"/>
</g>
</svg>
