<svg xmlns="http://www.w3.org/2000/svg" xmlns:xlink="http://www.w3.org/1999/xlink" width="768" zoomAndPan="magnify" viewBox="0 0 576 83.249999" height="111" preserveAspectRatio="xMidYMid meet" version="1.0"><defs><g/><clipPath id="407dbf8628"><path d="M 3 0.222656 L 194 0.222656 L 194 58 L 3 58 Z M 3 0.222656 " clip-rule="nonzero"/></clipPath><clipPath id="0698b92274"><path d="M 90 67 L 106 67 L 106 81.988281 L 90 81.988281 Z M 90 67 " clip-rule="nonzero"/></clipPath><clipPath id="a053ea09d8"><path d="M 193 0.222656 L 383 0.222656 L 383 58 L 193 58 Z M 193 0.222656 " clip-rule="nonzero"/></clipPath><clipPath id="8af79671c3"><path d="M 280 67 L 296 67 L 296 81.988281 L 280 81.988281 Z M 280 67 " clip-rule="nonzero"/></clipPath><clipPath id="a608c52b8a"><path d="M 382 0.222656 L 573 0.222656 L 573 58 L 382 58 Z M 382 0.222656 " clip-rule="nonzero"/></clipPath><clipPath id="686ebad9eb"><path d="M 470 67 L 486 67 L 486 81.988281 L 470 81.988281 Z M 470 67 " clip-rule="nonzero"/></clipPath></defs><g clip-path="url(#407dbf8628)"><path fill="#ffa700" d="M 3.089844 0.222656 L 166.6875 0.222656 L 193.03125 28.894531 L 166.6875 57.203125 L 3.089844 57.203125 L 29.433594 28.894531 Z M 3.089844 0.222656 " fill-opacity="1" fill-rule="evenodd"/></g><path fill="#be4c91" d="M 3.089844 73.160156 L 193.03125 73.160156 L 193.03125 76.199219 L 3.089844 76.199219 Z M 3.089844 73.160156 " fill-opacity="1" fill-rule="nonzero"/><g clip-path="url(#0698b92274)"><path fill="#ffa700" d="M 105.660156 74.679688 C 105.660156 75.179688 105.609375 75.671875 105.511719 76.160156 C 105.414062 76.652344 105.269531 77.125 105.078125 77.585938 C 104.890625 78.046875 104.65625 78.484375 104.378906 78.898438 C 104.101562 79.316406 103.785156 79.699219 103.433594 80.050781 C 103.082031 80.402344 102.695312 80.71875 102.28125 80.996094 C 101.867188 81.273438 101.429688 81.507812 100.96875 81.699219 C 100.507812 81.890625 100.03125 82.035156 99.542969 82.128906 C 99.054688 82.226562 98.558594 82.277344 98.0625 82.277344 C 97.5625 82.277344 97.066406 82.226562 96.578125 82.128906 C 96.089844 82.035156 95.613281 81.890625 95.152344 81.699219 C 94.691406 81.507812 94.253906 81.273438 93.839844 80.996094 C 93.425781 80.71875 93.042969 80.402344 92.6875 80.050781 C 92.335938 79.699219 92.019531 79.316406 91.742188 78.898438 C 91.464844 78.484375 91.234375 78.046875 91.042969 77.585938 C 90.851562 77.125 90.707031 76.652344 90.609375 76.160156 C 90.511719 75.671875 90.464844 75.179688 90.464844 74.679688 C 90.464844 74.179688 90.511719 73.6875 90.609375 73.195312 C 90.707031 72.707031 90.851562 72.234375 91.042969 71.773438 C 91.234375 71.3125 91.464844 70.871094 91.742188 70.457031 C 92.019531 70.042969 92.335938 69.660156 92.6875 69.308594 C 93.042969 68.953125 93.425781 68.640625 93.839844 68.363281 C 94.253906 68.085938 94.691406 67.851562 95.152344 67.660156 C 95.613281 67.46875 96.089844 67.324219 96.578125 67.226562 C 97.066406 67.128906 97.5625 67.082031 98.0625 67.082031 C 98.558594 67.082031 99.054688 67.128906 99.542969 67.226562 C 100.03125 67.324219 100.507812 67.46875 100.96875 67.660156 C 101.429688 67.851562 101.867188 68.085938 102.28125 68.363281 C 102.695312 68.640625 103.082031 68.953125 103.433594 69.308594 C 103.785156 69.660156 104.101562 70.042969 104.378906 70.457031 C 104.65625 70.871094 104.890625 71.3125 105.078125 71.773438 C 105.269531 72.234375 105.414062 72.707031 105.511719 73.195312 C 105.609375 73.6875 105.660156 74.179688 105.660156 74.679688 Z M 105.660156 74.679688 " fill-opacity="1" fill-rule="nonzero"/></g><g clip-path="url(#a053ea09d8)"><path fill="#ff625b" d="M 193.03125 0.222656 L 356.625 0.222656 L 382.96875 28.894531 L 356.625 57.203125 L 193.03125 57.203125 L 219.375 28.894531 Z M 193.03125 0.222656 " fill-opacity="1" fill-rule="evenodd"/></g><path fill="#be4c91" d="M 193.03125 73.160156 L 382.96875 73.160156 L 382.96875 76.199219 L 193.03125 76.199219 Z M 193.03125 73.160156 " fill-opacity="1" fill-rule="nonzero"/><g clip-path="url(#8af79671c3)"><path fill="#ff625b" d="M 295.597656 74.679688 C 295.597656 75.179688 295.550781 75.671875 295.453125 76.160156 C 295.355469 76.652344 295.210938 77.125 295.019531 77.585938 C 294.828125 78.046875 294.59375 78.484375 294.316406 78.898438 C 294.039062 79.316406 293.726562 79.699219 293.371094 80.050781 C 293.019531 80.402344 292.636719 80.71875 292.222656 80.996094 C 291.804688 81.273438 291.367188 81.507812 290.90625 81.699219 C 290.445312 81.890625 289.972656 82.035156 289.480469 82.128906 C 288.992188 82.226562 288.5 82.277344 288 82.277344 C 287.5 82.277344 287.007812 82.226562 286.519531 82.128906 C 286.027344 82.035156 285.554688 81.890625 285.09375 81.699219 C 284.632812 81.507812 284.195312 81.273438 283.777344 80.996094 C 283.363281 80.71875 282.980469 80.402344 282.628906 80.050781 C 282.273438 79.699219 281.960938 79.316406 281.683594 78.898438 C 281.40625 78.484375 281.171875 78.046875 280.980469 77.585938 C 280.789062 77.125 280.644531 76.652344 280.546875 76.160156 C 280.449219 75.671875 280.402344 75.179688 280.402344 74.679688 C 280.402344 74.179688 280.449219 73.6875 280.546875 73.195312 C 280.644531 72.707031 280.789062 72.234375 280.980469 71.773438 C 281.171875 71.3125 281.40625 70.871094 281.683594 70.457031 C 281.960938 70.042969 282.273438 69.660156 282.628906 69.308594 C 282.980469 68.953125 283.363281 68.640625 283.777344 68.363281 C 284.195312 68.085938 284.632812 67.851562 285.09375 67.660156 C 285.554688 67.46875 286.027344 67.324219 286.519531 67.226562 C 287.007812 67.128906 287.5 67.082031 288 67.082031 C 288.5 67.082031 288.992188 67.128906 289.480469 67.226562 C 289.972656 67.324219 290.445312 67.46875 290.90625 67.660156 C 291.367188 67.851562 291.804688 68.085938 292.222656 68.363281 C 292.636719 68.640625 293.019531 68.953125 293.371094 69.308594 C 293.726562 69.660156 294.039062 70.042969 294.316406 70.457031 C 294.59375 70.871094 294.828125 71.3125 295.019531 71.773438 C 295.210938 72.234375 295.355469 72.707031 295.453125 73.195312 C 295.550781 73.6875 295.597656 74.179688 295.597656 74.679688 Z M 295.597656 74.679688 " fill-opacity="1" fill-rule="nonzero"/></g><g clip-path="url(#a608c52b8a)"><path fill="#ffa700" d="M 382.96875 0.222656 L 546.5625 0.222656 L 572.910156 28.894531 L 546.5625 57.203125 L 382.96875 57.203125 L 409.3125 28.894531 Z M 382.96875 0.222656 " fill-opacity="1" fill-rule="evenodd"/></g><path fill="#be4c91" d="M 382.96875 73.160156 L 572.910156 73.160156 L 572.910156 76.199219 L 382.96875 76.199219 Z M 382.96875 73.160156 " fill-opacity="1" fill-rule="nonzero"/><g clip-path="url(#686ebad9eb)"><path fill="#ffa700" d="M 485.535156 74.679688 C 485.535156 75.179688 485.488281 75.671875 485.390625 76.160156 C 485.292969 76.652344 485.148438 77.125 484.957031 77.585938 C 484.765625 78.046875 484.535156 78.484375 484.257812 78.898438 C 483.980469 79.316406 483.664062 79.699219 483.3125 80.050781 C 482.957031 80.402344 482.574219 80.71875 482.160156 80.996094 C 481.746094 81.273438 481.308594 81.507812 480.847656 81.699219 C 480.386719 81.890625 479.910156 82.035156 479.421875 82.128906 C 478.933594 82.226562 478.4375 82.277344 477.9375 82.277344 C 477.441406 82.277344 476.945312 82.226562 476.457031 82.128906 C 475.96875 82.035156 475.492188 81.890625 475.03125 81.699219 C 474.570312 81.507812 474.132812 81.273438 473.71875 80.996094 C 473.304688 80.71875 472.917969 80.402344 472.566406 80.050781 C 472.214844 79.699219 471.898438 79.316406 471.621094 78.898438 C 471.34375 78.484375 471.109375 78.046875 470.917969 77.585938 C 470.730469 77.125 470.585938 76.652344 470.488281 76.160156 C 470.390625 75.671875 470.339844 75.179688 470.339844 74.679688 C 470.339844 74.179688 470.390625 73.6875 470.488281 73.195312 C 470.585938 72.707031 470.730469 72.234375 470.917969 71.773438 C 471.109375 71.3125 471.34375 70.871094 471.621094 70.457031 C 471.898438 70.042969 472.214844 69.660156 472.566406 69.308594 C 472.917969 68.953125 473.304688 68.640625 473.71875 68.363281 C 474.132812 68.085938 474.570312 67.851562 475.03125 67.660156 C 475.492188 67.46875 475.96875 67.324219 476.457031 67.226562 C 476.945312 67.128906 477.441406 67.082031 477.9375 67.082031 C 478.4375 67.082031 478.933594 67.128906 479.421875 67.226562 C 479.910156 67.324219 480.386719 67.46875 480.847656 67.660156 C 481.308594 67.851562 481.746094 68.085938 482.160156 68.363281 C 482.574219 68.640625 482.957031 68.953125 483.3125 69.308594 C 483.664062 69.660156 483.980469 70.042969 484.257812 70.457031 C 484.535156 70.871094 484.765625 71.3125 484.957031 71.773438 C 485.148438 72.234375 485.292969 72.707031 485.390625 73.195312 C 485.488281 73.6875 485.535156 74.179688 485.535156 74.679688 Z M 485.535156 74.679688 " fill-opacity="1" fill-rule="nonzero"/></g><g fill="#000000" fill-opacity="1"><g transform="translate(31.514479, 20.123026)"><g><path d="M 12.703125 0 L 9.953125 0 L 8.953125 -3.046875 L 3.890625 -3.046875 L 2.890625 0 L 0.203125 0 L 4.765625 -13.234375 L 8.125 -13.234375 Z M 6.296875 -10.484375 L 4.59375 -5.25 L 8.234375 -5.25 L 6.515625 -10.484375 Z M 6.296875 -10.484375 "/></g></g></g><g fill="#000000" fill-opacity="1"><g transform="translate(44.412318, 20.123026)"><g><path d="M 4.9375 0.1875 C 4.144531 0.1875 3.441406 0 2.828125 -0.375 C 2.222656 -0.757812 1.75 -1.335938 1.40625 -2.109375 C 1.0625 -2.890625 0.890625 -3.847656 0.890625 -4.984375 C 0.890625 -6.128906 1.066406 -7.085938 1.421875 -7.859375 C 1.773438 -8.640625 2.265625 -9.21875 2.890625 -9.59375 C 3.515625 -9.976562 4.238281 -10.171875 5.0625 -10.171875 C 5.6875 -10.171875 6.222656 -10.0625 6.671875 -9.84375 C 7.128906 -9.632812 7.515625 -9.304688 7.828125 -8.859375 L 8.03125 -8.90625 L 8.03125 -14 L 10.53125 -14 L 10.53125 0 L 8.03125 0 L 8.03125 -1.296875 L 7.828125 -1.328125 C 7.554688 -0.859375 7.175781 -0.488281 6.6875 -0.21875 C 6.207031 0.0507812 5.625 0.1875 4.9375 0.1875 Z M 5.75 -1.9375 C 6.457031 -1.9375 7.015625 -2.1875 7.421875 -2.6875 C 7.835938 -3.195312 8.046875 -3.960938 8.046875 -4.984375 C 8.046875 -6.015625 7.835938 -6.78125 7.421875 -7.28125 C 7.015625 -7.789062 6.457031 -8.046875 5.75 -8.046875 C 5.007812 -8.046875 4.445312 -7.800781 4.0625 -7.3125 C 3.675781 -6.820312 3.484375 -6.046875 3.484375 -4.984375 C 3.484375 -3.941406 3.675781 -3.171875 4.0625 -2.671875 C 4.445312 -2.179688 5.007812 -1.9375 5.75 -1.9375 Z M 5.75 -1.9375 "/></g></g></g><g fill="#000000" fill-opacity="1"><g transform="translate(56.377882, 20.123026)"><g><path d="M 4.9375 0.1875 C 4.144531 0.1875 3.441406 0 2.828125 -0.375 C 2.222656 -0.757812 1.75 -1.335938 1.40625 -2.109375 C 1.0625 -2.890625 0.890625 -3.847656 0.890625 -4.984375 C 0.890625 -6.128906 1.066406 -7.085938 1.421875 -7.859375 C 1.773438 -8.640625 2.265625 -9.21875 2.890625 -9.59375 C 3.515625 -9.976562 4.238281 -10.171875 5.0625 -10.171875 C 5.6875 -10.171875 6.222656 -10.0625 6.671875 -9.84375 C 7.128906 -9.632812 7.515625 -9.304688 7.828125 -8.859375 L 8.03125 -8.90625 L 8.03125 -14 L 10.53125 -14 L 10.53125 0 L 8.03125 0 L 8.03125 -1.296875 L 7.828125 -1.328125 C 7.554688 -0.859375 7.175781 -0.488281 6.6875 -0.21875 C 6.207031 0.0507812 5.625 0.1875 4.9375 0.1875 Z M 5.75 -1.9375 C 6.457031 -1.9375 7.015625 -2.1875 7.421875 -2.6875 C 7.835938 -3.195312 8.046875 -3.960938 8.046875 -4.984375 C 8.046875 -6.015625 7.835938 -6.78125 7.421875 -7.28125 C 7.015625 -7.789062 6.457031 -8.046875 5.75 -8.046875 C 5.007812 -8.046875 4.445312 -7.800781 4.0625 -7.3125 C 3.675781 -6.820312 3.484375 -6.046875 3.484375 -4.984375 C 3.484375 -3.941406 3.675781 -3.171875 4.0625 -2.671875 C 4.445312 -2.179688 5.007812 -1.9375 5.75 -1.9375 Z M 5.75 -1.9375 "/></g></g></g><g fill="#000000" fill-opacity="1"><g transform="translate(68.343447, 20.123026)"><g/></g></g><g fill="#000000" fill-opacity="1"><g transform="translate(72.715142, 20.123026)"><g><path d="M 1.4375 0 L 1.4375 -9.984375 L 3.875 -9.984375 L 3.875 -8.5 L 4.0625 -8.46875 C 4.300781 -9.019531 4.617188 -9.425781 5.015625 -9.6875 C 5.410156 -9.945312 5.890625 -10.078125 6.453125 -10.078125 C 7.015625 -10.078125 7.445312 -9.984375 7.75 -9.796875 L 7.3125 -7.625 L 7.125 -7.59375 C 6.957031 -7.65625 6.800781 -7.703125 6.65625 -7.734375 C 6.507812 -7.765625 6.328125 -7.78125 6.109375 -7.78125 C 5.398438 -7.78125 4.863281 -7.53125 4.5 -7.03125 C 4.132812 -6.539062 3.953125 -5.753906 3.953125 -4.671875 L 3.953125 0 Z M 1.4375 0 "/></g></g></g><g fill="#000000" fill-opacity="1"><g transform="translate(80.544361, 20.123026)"><g><path d="M 9.875 -4.421875 L 3.453125 -4.421875 C 3.523438 -3.554688 3.769531 -2.925781 4.1875 -2.53125 C 4.613281 -2.132812 5.191406 -1.9375 5.921875 -1.9375 C 6.492188 -1.9375 6.957031 -2.039062 7.3125 -2.25 C 7.675781 -2.46875 7.960938 -2.796875 8.171875 -3.234375 L 8.375 -3.234375 L 10.03125 -2.171875 C 9.707031 -1.460938 9.21875 -0.890625 8.5625 -0.453125 C 7.90625 -0.0234375 7.023438 0.1875 5.921875 0.1875 C 4.890625 0.1875 4 -0.00390625 3.25 -0.390625 C 2.5 -0.785156 1.914062 -1.367188 1.5 -2.140625 C 1.09375 -2.921875 0.890625 -3.867188 0.890625 -4.984375 C 0.890625 -6.117188 1.101562 -7.078125 1.53125 -7.859375 C 1.96875 -8.640625 2.550781 -9.21875 3.28125 -9.59375 C 4.007812 -9.976562 4.828125 -10.171875 5.734375 -10.171875 C 7.148438 -10.171875 8.234375 -9.796875 8.984375 -9.046875 C 9.734375 -8.304688 10.109375 -7.210938 10.109375 -5.765625 C 10.109375 -5.234375 10.09375 -4.820312 10.0625 -4.53125 Z M 7.71875 -6.046875 C 7.6875 -6.804688 7.503906 -7.359375 7.171875 -7.703125 C 6.847656 -8.054688 6.367188 -8.234375 5.734375 -8.234375 C 4.472656 -8.234375 3.726562 -7.503906 3.5 -6.046875 Z M 7.71875 -6.046875 "/></g></g></g><g fill="#000000" fill-opacity="1"><g transform="translate(91.39665, 20.123026)"><g><path d="M 1.75 0 L 1.75 -8 L 0.328125 -8 L 0.328125 -10 L 1.75 -10 C 1.644531 -10.414062 1.59375 -10.8125 1.59375 -11.1875 C 1.59375 -11.820312 1.738281 -12.363281 2.03125 -12.8125 C 2.320312 -13.257812 2.738281 -13.597656 3.28125 -13.828125 C 3.820312 -14.066406 4.46875 -14.1875 5.21875 -14.1875 C 6.320312 -14.1875 7.144531 -14 7.6875 -13.625 L 7.09375 -11.765625 L 6.90625 -11.734375 C 6.53125 -12.003906 6.050781 -12.140625 5.46875 -12.140625 C 5.019531 -12.140625 4.679688 -12.023438 4.453125 -11.796875 C 4.222656 -11.578125 4.109375 -11.28125 4.109375 -10.90625 C 4.109375 -10.738281 4.117188 -10.585938 4.140625 -10.453125 C 4.160156 -10.316406 4.195312 -10.164062 4.25 -10 L 7.109375 -10 L 7.109375 -8 L 4.25 -8 L 4.25 0 Z M 1.75 0 "/></g></g></g><g fill="#000000" fill-opacity="1"><g transform="translate(98.601332, 20.123026)"><g><path d="M 9.875 -4.421875 L 3.453125 -4.421875 C 3.523438 -3.554688 3.769531 -2.925781 4.1875 -2.53125 C 4.613281 -2.132812 5.191406 -1.9375 5.921875 -1.9375 C 6.492188 -1.9375 6.957031 -2.039062 7.3125 -2.25 C 7.675781 -2.46875 7.960938 -2.796875 8.171875 -3.234375 L 8.375 -3.234375 L 10.03125 -2.171875 C 9.707031 -1.460938 9.21875 -0.890625 8.5625 -0.453125 C 7.90625 -0.0234375 7.023438 0.1875 5.921875 0.1875 C 4.890625 0.1875 4 -0.00390625 3.25 -0.390625 C 2.5 -0.785156 1.914062 -1.367188 1.5 -2.140625 C 1.09375 -2.921875 0.890625 -3.867188 0.890625 -4.984375 C 0.890625 -6.117188 1.101562 -7.078125 1.53125 -7.859375 C 1.96875 -8.640625 2.550781 -9.21875 3.28125 -9.59375 C 4.007812 -9.976562 4.828125 -10.171875 5.734375 -10.171875 C 7.148438 -10.171875 8.234375 -9.796875 8.984375 -9.046875 C 9.734375 -8.304688 10.109375 -7.210938 10.109375 -5.765625 C 10.109375 -5.234375 10.09375 -4.820312 10.0625 -4.53125 Z M 7.71875 -6.046875 C 7.6875 -6.804688 7.503906 -7.359375 7.171875 -7.703125 C 6.847656 -8.054688 6.367188 -8.234375 5.734375 -8.234375 C 4.472656 -8.234375 3.726562 -7.503906 3.5 -6.046875 Z M 7.71875 -6.046875 "/></g></g></g><g fill="#000000" fill-opacity="1"><g transform="translate(109.45362, 20.123026)"><g><path d="M 1.4375 0 L 1.4375 -9.984375 L 3.875 -9.984375 L 3.875 -8.5 L 4.0625 -8.46875 C 4.300781 -9.019531 4.617188 -9.425781 5.015625 -9.6875 C 5.410156 -9.945312 5.890625 -10.078125 6.453125 -10.078125 C 7.015625 -10.078125 7.445312 -9.984375 7.75 -9.796875 L 7.3125 -7.625 L 7.125 -7.59375 C 6.957031 -7.65625 6.800781 -7.703125 6.65625 -7.734375 C 6.507812 -7.765625 6.328125 -7.78125 6.109375 -7.78125 C 5.398438 -7.78125 4.863281 -7.53125 4.5 -7.03125 C 4.132812 -6.539062 3.953125 -5.753906 3.953125 -4.671875 L 3.953125 0 Z M 1.4375 0 "/></g></g></g><g fill="#000000" fill-opacity="1"><g transform="translate(117.282839, 20.123026)"><g><path d="M 9.875 -4.421875 L 3.453125 -4.421875 C 3.523438 -3.554688 3.769531 -2.925781 4.1875 -2.53125 C 4.613281 -2.132812 5.191406 -1.9375 5.921875 -1.9375 C 6.492188 -1.9375 6.957031 -2.039062 7.3125 -2.25 C 7.675781 -2.46875 7.960938 -2.796875 8.171875 -3.234375 L 8.375 -3.234375 L 10.03125 -2.171875 C 9.707031 -1.460938 9.21875 -0.890625 8.5625 -0.453125 C 7.90625 -0.0234375 7.023438 0.1875 5.921875 0.1875 C 4.890625 0.1875 4 -0.00390625 3.25 -0.390625 C 2.5 -0.785156 1.914062 -1.367188 1.5 -2.140625 C 1.09375 -2.921875 0.890625 -3.867188 0.890625 -4.984375 C 0.890625 -6.117188 1.101562 -7.078125 1.53125 -7.859375 C 1.96875 -8.640625 2.550781 -9.21875 3.28125 -9.59375 C 4.007812 -9.976562 4.828125 -10.171875 5.734375 -10.171875 C 7.148438 -10.171875 8.234375 -9.796875 8.984375 -9.046875 C 9.734375 -8.304688 10.109375 -7.210938 10.109375 -5.765625 C 10.109375 -5.234375 10.09375 -4.820312 10.0625 -4.53125 Z M 7.71875 -6.046875 C 7.6875 -6.804688 7.503906 -7.359375 7.171875 -7.703125 C 6.847656 -8.054688 6.367188 -8.234375 5.734375 -8.234375 C 4.472656 -8.234375 3.726562 -7.503906 3.5 -6.046875 Z M 7.71875 -6.046875 "/></g></g></g><g fill="#000000" fill-opacity="1"><g transform="translate(128.135128, 20.123026)"><g><path d="M 1.4375 0 L 1.4375 -9.984375 L 3.84375 -9.984375 L 3.84375 -8.515625 L 4.03125 -8.46875 C 4.65625 -9.601562 5.664062 -10.171875 7.0625 -10.171875 C 8.21875 -10.171875 9.066406 -9.859375 9.609375 -9.234375 C 10.148438 -8.609375 10.421875 -7.695312 10.421875 -6.5 L 10.421875 0 L 7.90625 0 L 7.90625 -6.1875 C 7.90625 -6.851562 7.769531 -7.332031 7.5 -7.625 C 7.238281 -7.914062 6.816406 -8.0625 6.234375 -8.0625 C 5.515625 -8.0625 4.953125 -7.828125 4.546875 -7.359375 C 4.148438 -6.898438 3.953125 -6.171875 3.953125 -5.171875 L 3.953125 0 Z M 1.4375 0 "/></g></g></g><g fill="#000000" fill-opacity="1"><g transform="translate(139.829159, 20.123026)"><g><path d="M 5.828125 0.1875 C 4.859375 0.1875 4 -0.0078125 3.25 -0.40625 C 2.507812 -0.8125 1.929688 -1.398438 1.515625 -2.171875 C 1.097656 -2.953125 0.890625 -3.890625 0.890625 -4.984375 C 0.890625 -6.085938 1.097656 -7.023438 1.515625 -7.796875 C 1.929688 -8.578125 2.507812 -9.164062 3.25 -9.5625 C 3.988281 -9.96875 4.832031 -10.171875 5.78125 -10.171875 C 7.882812 -10.171875 9.234375 -9.410156 9.828125 -7.890625 L 8.109375 -6.65625 L 7.921875 -6.65625 C 7.710938 -7.125 7.441406 -7.472656 7.109375 -7.703125 C 6.785156 -7.929688 6.34375 -8.046875 5.78125 -8.046875 C 5.050781 -8.046875 4.484375 -7.796875 4.078125 -7.296875 C 3.679688 -6.796875 3.484375 -6.023438 3.484375 -4.984375 C 3.484375 -3.960938 3.6875 -3.195312 4.09375 -2.6875 C 4.5 -2.1875 5.078125 -1.9375 5.828125 -1.9375 C 6.367188 -1.9375 6.828125 -2.082031 7.203125 -2.375 C 7.578125 -2.664062 7.847656 -3.085938 8.015625 -3.640625 L 8.203125 -3.65625 L 9.984375 -2.6875 C 9.734375 -1.832031 9.265625 -1.140625 8.578125 -0.609375 C 7.890625 -0.078125 6.972656 0.1875 5.828125 0.1875 Z M 5.828125 0.1875 "/></g></g></g><g fill="#000000" fill-opacity="1"><g transform="translate(150.120279, 20.123026)"><g><path d="M 9.875 -4.421875 L 3.453125 -4.421875 C 3.523438 -3.554688 3.769531 -2.925781 4.1875 -2.53125 C 4.613281 -2.132812 5.191406 -1.9375 5.921875 -1.9375 C 6.492188 -1.9375 6.957031 -2.039062 7.3125 -2.25 C 7.675781 -2.46875 7.960938 -2.796875 8.171875 -3.234375 L 8.375 -3.234375 L 10.03125 -2.171875 C 9.707031 -1.460938 9.21875 -0.890625 8.5625 -0.453125 C 7.90625 -0.0234375 7.023438 0.1875 5.921875 0.1875 C 4.890625 0.1875 4 -0.00390625 3.25 -0.390625 C 2.5 -0.785156 1.914062 -1.367188 1.5 -2.140625 C 1.09375 -2.921875 0.890625 -3.867188 0.890625 -4.984375 C 0.890625 -6.117188 1.101562 -7.078125 1.53125 -7.859375 C 1.96875 -8.640625 2.550781 -9.21875 3.28125 -9.59375 C 4.007812 -9.976562 4.828125 -10.171875 5.734375 -10.171875 C 7.148438 -10.171875 8.234375 -9.796875 8.984375 -9.046875 C 9.734375 -8.304688 10.109375 -7.210938 10.109375 -5.765625 C 10.109375 -5.234375 10.09375 -4.820312 10.0625 -4.53125 Z M 7.71875 -6.046875 C 7.6875 -6.804688 7.503906 -7.359375 7.171875 -7.703125 C 6.847656 -8.054688 6.367188 -8.234375 5.734375 -8.234375 C 4.472656 -8.234375 3.726562 -7.503906 3.5 -6.046875 Z M 7.71875 -6.046875 "/></g></g></g><g fill="#000000" fill-opacity="1"><g transform="translate(55.375279, 45.157308)"><g><path d="M 5.828125 0.1875 C 4.859375 0.1875 4 -0.0078125 3.25 -0.40625 C 2.507812 -0.8125 1.929688 -1.398438 1.515625 -2.171875 C 1.097656 -2.953125 0.890625 -3.890625 0.890625 -4.984375 C 0.890625 -6.085938 1.097656 -7.023438 1.515625 -7.796875 C 1.929688 -8.578125 2.507812 -9.164062 3.25 -9.5625 C 3.988281 -9.96875 4.832031 -10.171875 5.78125 -10.171875 C 7.882812 -10.171875 9.234375 -9.410156 9.828125 -7.890625 L 8.109375 -6.65625 L 7.921875 -6.65625 C 7.710938 -7.125 7.441406 -7.472656 7.109375 -7.703125 C 6.785156 -7.929688 6.34375 -8.046875 5.78125 -8.046875 C 5.050781 -8.046875 4.484375 -7.796875 4.078125 -7.296875 C 3.679688 -6.796875 3.484375 -6.023438 3.484375 -4.984375 C 3.484375 -3.960938 3.6875 -3.195312 4.09375 -2.6875 C 4.5 -2.1875 5.078125 -1.9375 5.828125 -1.9375 C 6.367188 -1.9375 6.828125 -2.082031 7.203125 -2.375 C 7.578125 -2.664062 7.847656 -3.085938 8.015625 -3.640625 L 8.203125 -3.65625 L 9.984375 -2.6875 C 9.734375 -1.832031 9.265625 -1.140625 8.578125 -0.609375 C 7.890625 -0.078125 6.972656 0.1875 5.828125 0.1875 Z M 5.828125 0.1875 "/></g></g></g><g fill="#000000" fill-opacity="1"><g transform="translate(65.666399, 45.157308)"><g><path d="M 1.4375 0 L 1.4375 -14 L 3.953125 -14 L 3.953125 -8.6875 L 4.140625 -8.65625 C 4.472656 -9.132812 4.878906 -9.503906 5.359375 -9.765625 C 5.835938 -10.035156 6.421875 -10.171875 7.109375 -10.171875 C 9.316406 -10.171875 10.421875 -8.925781 10.421875 -6.4375 L 10.421875 0 L 7.90625 0 L 7.90625 -6.109375 C 7.90625 -6.796875 7.769531 -7.289062 7.5 -7.59375 C 7.226562 -7.90625 6.804688 -8.0625 6.234375 -8.0625 C 5.535156 -8.0625 4.976562 -7.828125 4.5625 -7.359375 C 4.15625 -6.890625 3.953125 -6.160156 3.953125 -5.171875 L 3.953125 0 Z M 1.4375 0 "/></g></g></g><g fill="#000000" fill-opacity="1"><g transform="translate(77.36043, 45.157308)"><g><path d="M 3.890625 0.1875 C 3.253906 0.1875 2.695312 0.0703125 2.21875 -0.15625 C 1.75 -0.394531 1.390625 -0.742188 1.140625 -1.203125 C 0.890625 -1.660156 0.765625 -2.207031 0.765625 -2.84375 C 0.765625 -3.4375 0.890625 -3.929688 1.140625 -4.328125 C 1.390625 -4.734375 1.78125 -5.0625 2.3125 -5.3125 C 2.84375 -5.570312 3.539062 -5.769531 4.40625 -5.90625 C 5 -6.007812 5.453125 -6.117188 5.765625 -6.234375 C 6.078125 -6.347656 6.285156 -6.476562 6.390625 -6.625 C 6.503906 -6.769531 6.5625 -6.953125 6.5625 -7.171875 C 6.5625 -7.492188 6.445312 -7.738281 6.21875 -7.90625 C 6 -8.070312 5.628906 -8.15625 5.109375 -8.15625 C 4.554688 -8.15625 4.023438 -8.03125 3.515625 -7.78125 C 3.015625 -7.539062 2.582031 -7.21875 2.21875 -6.8125 L 2.03125 -6.8125 L 0.984375 -8.390625 C 1.492188 -8.953125 2.113281 -9.390625 2.84375 -9.703125 C 3.570312 -10.015625 4.367188 -10.171875 5.234375 -10.171875 C 6.554688 -10.171875 7.515625 -9.890625 8.109375 -9.328125 C 8.703125 -8.773438 9 -7.984375 9 -6.953125 L 9 -2.609375 C 9 -2.160156 9.191406 -1.9375 9.578125 -1.9375 C 9.734375 -1.9375 9.882812 -1.960938 10.03125 -2.015625 L 10.15625 -1.984375 L 10.328125 -0.234375 C 10.191406 -0.140625 10 -0.0625 9.75 0 C 9.5 0.0507812 9.226562 0.078125 8.9375 0.078125 C 8.34375 0.078125 7.875 -0.0351562 7.53125 -0.265625 C 7.195312 -0.492188 6.957031 -0.851562 6.8125 -1.34375 L 6.625 -1.375 C 6.132812 -0.332031 5.222656 0.1875 3.890625 0.1875 Z M 4.6875 -1.6875 C 5.269531 -1.6875 5.734375 -1.878906 6.078125 -2.265625 C 6.429688 -2.660156 6.609375 -3.203125 6.609375 -3.890625 L 6.609375 -4.90625 L 6.4375 -4.9375 C 6.28125 -4.820312 6.078125 -4.722656 5.828125 -4.640625 C 5.585938 -4.554688 5.238281 -4.476562 4.78125 -4.40625 C 4.238281 -4.3125 3.847656 -4.15625 3.609375 -3.9375 C 3.367188 -3.71875 3.25 -3.40625 3.25 -3 C 3.25 -2.570312 3.375 -2.242188 3.625 -2.015625 C 3.882812 -1.796875 4.238281 -1.6875 4.6875 -1.6875 Z M 4.6875 -1.6875 "/></g></g></g><g fill="#000000" fill-opacity="1"><g transform="translate(87.886879, 45.157308)"><g><path d="M 1.4375 0 L 1.4375 -9.984375 L 3.84375 -9.984375 L 3.84375 -8.515625 L 4.03125 -8.46875 C 4.65625 -9.601562 5.664062 -10.171875 7.0625 -10.171875 C 8.21875 -10.171875 9.066406 -9.859375 9.609375 -9.234375 C 10.148438 -8.609375 10.421875 -7.695312 10.421875 -6.5 L 10.421875 0 L 7.90625 0 L 7.90625 -6.1875 C 7.90625 -6.851562 7.769531 -7.332031 7.5 -7.625 C 7.238281 -7.914062 6.816406 -8.0625 6.234375 -8.0625 C 5.515625 -8.0625 4.953125 -7.828125 4.546875 -7.359375 C 4.148438 -6.898438 3.953125 -6.171875 3.953125 -5.171875 L 3.953125 0 Z M 1.4375 0 "/></g></g></g><g fill="#000000" fill-opacity="1"><g transform="translate(99.58091, 45.157308)"><g><path d="M 1.4375 0 L 1.4375 -9.984375 L 3.84375 -9.984375 L 3.84375 -8.515625 L 4.03125 -8.46875 C 4.65625 -9.601562 5.664062 -10.171875 7.0625 -10.171875 C 8.21875 -10.171875 9.066406 -9.859375 9.609375 -9.234375 C 10.148438 -8.609375 10.421875 -7.695312 10.421875 -6.5 L 10.421875 0 L 7.90625 0 L 7.90625 -6.1875 C 7.90625 -6.851562 7.769531 -7.332031 7.5 -7.625 C 7.238281 -7.914062 6.816406 -8.0625 6.234375 -8.0625 C 5.515625 -8.0625 4.953125 -7.828125 4.546875 -7.359375 C 4.148438 -6.898438 3.953125 -6.171875 3.953125 -5.171875 L 3.953125 0 Z M 1.4375 0 "/></g></g></g><g fill="#000000" fill-opacity="1"><g transform="translate(111.274941, 45.157308)"><g><path d="M 9.875 -4.421875 L 3.453125 -4.421875 C 3.523438 -3.554688 3.769531 -2.925781 4.1875 -2.53125 C 4.613281 -2.132812 5.191406 -1.9375 5.921875 -1.9375 C 6.492188 -1.9375 6.957031 -2.039062 7.3125 -2.25 C 7.675781 -2.46875 7.960938 -2.796875 8.171875 -3.234375 L 8.375 -3.234375 L 10.03125 -2.171875 C 9.707031 -1.460938 9.21875 -0.890625 8.5625 -0.453125 C 7.90625 -0.0234375 7.023438 0.1875 5.921875 0.1875 C 4.890625 0.1875 4 -0.00390625 3.25 -0.390625 C 2.5 -0.785156 1.914062 -1.367188 1.5 -2.140625 C 1.09375 -2.921875 0.890625 -3.867188 0.890625 -4.984375 C 0.890625 -6.117188 1.101562 -7.078125 1.53125 -7.859375 C 1.96875 -8.640625 2.550781 -9.21875 3.28125 -9.59375 C 4.007812 -9.976562 4.828125 -10.171875 5.734375 -10.171875 C 7.148438 -10.171875 8.234375 -9.796875 8.984375 -9.046875 C 9.734375 -8.304688 10.109375 -7.210938 10.109375 -5.765625 C 10.109375 -5.234375 10.09375 -4.820312 10.0625 -4.53125 Z M 7.71875 -6.046875 C 7.6875 -6.804688 7.503906 -7.359375 7.171875 -7.703125 C 6.847656 -8.054688 6.367188 -8.234375 5.734375 -8.234375 C 4.472656 -8.234375 3.726562 -7.503906 3.5 -6.046875 Z M 7.71875 -6.046875 "/></g></g></g><g fill="#000000" fill-opacity="1"><g transform="translate(122.12723, 45.157308)"><g><path d="M 4.140625 0.1875 C 3.242188 0.1875 2.554688 -0.0507812 2.078125 -0.53125 C 1.609375 -1.019531 1.375 -1.757812 1.375 -2.75 L 1.375 -14 L 3.890625 -14 L 3.890625 -2.859375 C 3.890625 -2.242188 4.140625 -1.9375 4.640625 -1.9375 C 4.785156 -1.9375 4.941406 -1.960938 5.109375 -2.015625 L 5.234375 -1.96875 L 5.453125 -0.046875 C 5.316406 0.0234375 5.132812 0.0820312 4.90625 0.125 C 4.675781 0.164062 4.421875 0.1875 4.140625 0.1875 Z M 4.140625 0.1875 "/></g></g></g><g fill="#000000" fill-opacity="1"><g transform="translate(127.865632, 45.157308)"><g><path d="M 4.671875 0.1875 C 3.992188 0.1875 3.367188 0.109375 2.796875 -0.046875 C 2.234375 -0.210938 1.75 -0.429688 1.34375 -0.703125 C 0.945312 -0.984375 0.648438 -1.304688 0.453125 -1.671875 L 1.84375 -3.171875 L 2.03125 -3.171875 C 2.363281 -2.734375 2.753906 -2.398438 3.203125 -2.171875 C 3.660156 -1.953125 4.15625 -1.84375 4.6875 -1.84375 C 5.175781 -1.84375 5.546875 -1.925781 5.796875 -2.09375 C 6.046875 -2.269531 6.171875 -2.523438 6.171875 -2.859375 C 6.171875 -3.109375 6.082031 -3.316406 5.90625 -3.484375 C 5.726562 -3.660156 5.4375 -3.796875 5.03125 -3.890625 L 3.71875 -4.21875 C 2.726562 -4.445312 2.003906 -4.800781 1.546875 -5.28125 C 1.085938 -5.769531 0.859375 -6.390625 0.859375 -7.140625 C 0.859375 -7.765625 1.015625 -8.304688 1.328125 -8.765625 C 1.648438 -9.222656 2.097656 -9.570312 2.671875 -9.8125 C 3.253906 -10.050781 3.925781 -10.171875 4.6875 -10.171875 C 5.59375 -10.171875 6.335938 -10.039062 6.921875 -9.78125 C 7.515625 -9.53125 7.976562 -9.1875 8.3125 -8.75 L 6.96875 -7.296875 L 6.796875 -7.296875 C 6.515625 -7.609375 6.195312 -7.835938 5.84375 -7.984375 C 5.5 -8.128906 5.113281 -8.203125 4.6875 -8.203125 C 3.695312 -8.203125 3.203125 -7.894531 3.203125 -7.28125 C 3.203125 -7.019531 3.296875 -6.804688 3.484375 -6.640625 C 3.671875 -6.484375 3.992188 -6.351562 4.453125 -6.25 L 5.6875 -5.984375 C 6.695312 -5.765625 7.4375 -5.414062 7.90625 -4.9375 C 8.375 -4.457031 8.609375 -3.8125 8.609375 -3 C 8.609375 -2.363281 8.453125 -1.800781 8.140625 -1.3125 C 7.828125 -0.832031 7.375 -0.460938 6.78125 -0.203125 C 6.1875 0.0546875 5.484375 0.1875 4.671875 0.1875 Z M 4.671875 0.1875 "/></g></g></g><g fill="#000000" fill-opacity="1"><g transform="translate(259.159859, 20.123026)"><g><path d="M 12.703125 0 L 9.953125 0 L 8.953125 -3.046875 L 3.890625 -3.046875 L 2.890625 0 L 0.203125 0 L 4.765625 -13.234375 L 8.125 -13.234375 Z M 6.296875 -10.484375 L 4.59375 -5.25 L 8.234375 -5.25 L 6.515625 -10.484375 Z M 6.296875 -10.484375 "/></g></g></g><g fill="#000000" fill-opacity="1"><g transform="translate(272.057698, 20.123026)"><g><path d="M 1.4375 4.046875 L 1.4375 -9.984375 L 3.953125 -9.984375 L 3.953125 -8.6875 L 4.140625 -8.65625 C 4.429688 -9.15625 4.820312 -9.53125 5.3125 -9.78125 C 5.8125 -10.039062 6.394531 -10.171875 7.0625 -10.171875 C 7.863281 -10.171875 8.566406 -9.976562 9.171875 -9.59375 C 9.773438 -9.21875 10.242188 -8.640625 10.578125 -7.859375 C 10.910156 -7.085938 11.078125 -6.128906 11.078125 -4.984375 C 11.078125 -3.847656 10.898438 -2.890625 10.546875 -2.109375 C 10.191406 -1.335938 9.695312 -0.757812 9.0625 -0.375 C 8.4375 0 7.71875 0.1875 6.90625 0.1875 C 6.28125 0.1875 5.738281 0.0820312 5.28125 -0.125 C 4.832031 -0.332031 4.453125 -0.65625 4.140625 -1.09375 L 3.953125 -1.0625 L 3.953125 4.046875 Z M 6.203125 -1.9375 C 6.953125 -1.9375 7.519531 -2.179688 7.90625 -2.671875 C 8.289062 -3.160156 8.484375 -3.929688 8.484375 -4.984375 C 8.484375 -6.046875 8.289062 -6.820312 7.90625 -7.3125 C 7.519531 -7.800781 6.953125 -8.046875 6.203125 -8.046875 C 5.503906 -8.046875 4.945312 -7.789062 4.53125 -7.28125 C 4.125 -6.78125 3.921875 -6.015625 3.921875 -4.984375 C 3.921875 -3.960938 4.125 -3.195312 4.53125 -2.6875 C 4.945312 -2.1875 5.503906 -1.9375 6.203125 -1.9375 Z M 6.203125 -1.9375 "/></g></g></g><g fill="#000000" fill-opacity="1"><g transform="translate(284.014222, 20.123026)"><g><path d="M 1.4375 4.046875 L 1.4375 -9.984375 L 3.953125 -9.984375 L 3.953125 -8.6875 L 4.140625 -8.65625 C 4.429688 -9.15625 4.820312 -9.53125 5.3125 -9.78125 C 5.8125 -10.039062 6.394531 -10.171875 7.0625 -10.171875 C 7.863281 -10.171875 8.566406 -9.976562 9.171875 -9.59375 C 9.773438 -9.21875 10.242188 -8.640625 10.578125 -7.859375 C 10.910156 -7.085938 11.078125 -6.128906 11.078125 -4.984375 C 11.078125 -3.847656 10.898438 -2.890625 10.546875 -2.109375 C 10.191406 -1.335938 9.695312 -0.757812 9.0625 -0.375 C 8.4375 0 7.71875 0.1875 6.90625 0.1875 C 6.28125 0.1875 5.738281 0.0820312 5.28125 -0.125 C 4.832031 -0.332031 4.453125 -0.65625 4.140625 -1.09375 L 3.953125 -1.0625 L 3.953125 4.046875 Z M 6.203125 -1.9375 C 6.953125 -1.9375 7.519531 -2.179688 7.90625 -2.671875 C 8.289062 -3.160156 8.484375 -3.929688 8.484375 -4.984375 C 8.484375 -6.046875 8.289062 -6.820312 7.90625 -7.3125 C 7.519531 -7.800781 6.953125 -8.046875 6.203125 -8.046875 C 5.503906 -8.046875 4.945312 -7.789062 4.53125 -7.28125 C 4.125 -6.78125 3.921875 -6.015625 3.921875 -4.984375 C 3.921875 -3.960938 4.125 -3.195312 4.53125 -2.6875 C 4.945312 -2.1875 5.503906 -1.9375 6.203125 -1.9375 Z M 6.203125 -1.9375 "/></g></g></g><g fill="#000000" fill-opacity="1"><g transform="translate(295.970746, 20.123026)"><g><path d="M 4.140625 0.1875 C 3.242188 0.1875 2.554688 -0.0507812 2.078125 -0.53125 C 1.609375 -1.019531 1.375 -1.757812 1.375 -2.75 L 1.375 -14 L 3.890625 -14 L 3.890625 -2.859375 C 3.890625 -2.242188 4.140625 -1.9375 4.640625 -1.9375 C 4.785156 -1.9375 4.941406 -1.960938 5.109375 -2.015625 L 5.234375 -1.96875 L 5.453125 -0.046875 C 5.316406 0.0234375 5.132812 0.0820312 4.90625 0.125 C 4.675781 0.164062 4.421875 0.1875 4.140625 0.1875 Z M 4.140625 0.1875 "/></g></g></g><g fill="#000000" fill-opacity="1"><g transform="translate(301.709148, 20.123026)"><g><path d="M 2.203125 4.234375 C 1.773438 4.234375 1.390625 4.195312 1.046875 4.125 C 0.703125 4.0625 0.421875 3.976562 0.203125 3.875 L 0.59375 1.84375 L 0.765625 1.796875 C 0.910156 1.867188 1.09375 1.929688 1.3125 1.984375 C 1.539062 2.035156 1.773438 2.0625 2.015625 2.0625 C 2.421875 2.0625 2.753906 2.003906 3.015625 1.890625 C 3.285156 1.785156 3.515625 1.609375 3.703125 1.359375 C 3.890625 1.117188 4.054688 0.785156 4.203125 0.359375 L 0.21875 -9.984375 L 2.84375 -9.984375 L 5.328125 -3.046875 L 5.546875 -3.046875 L 7.953125 -9.984375 L 10.515625 -9.984375 L 6.5 0.625 C 6.175781 1.476562 5.820312 2.164062 5.4375 2.6875 C 5.0625 3.21875 4.613281 3.609375 4.09375 3.859375 C 3.570312 4.109375 2.941406 4.234375 2.203125 4.234375 Z M 2.203125 4.234375 "/></g></g></g><g fill="#000000" fill-opacity="1"><g transform="translate(312.444632, 20.123026)"><g/></g></g><g fill="#000000" fill-opacity="1"><g transform="translate(226.237171, 45.157308)"><g><path d="M 1.4375 0 L 1.4375 -9.984375 L 3.875 -9.984375 L 3.875 -8.5 L 4.0625 -8.46875 C 4.300781 -9.019531 4.617188 -9.425781 5.015625 -9.6875 C 5.410156 -9.945312 5.890625 -10.078125 6.453125 -10.078125 C 7.015625 -10.078125 7.445312 -9.984375 7.75 -9.796875 L 7.3125 -7.625 L 7.125 -7.59375 C 6.957031 -7.65625 6.800781 -7.703125 6.65625 -7.734375 C 6.507812 -7.765625 6.328125 -7.78125 6.109375 -7.78125 C 5.398438 -7.78125 4.863281 -7.53125 4.5 -7.03125 C 4.132812 -6.539062 3.953125 -5.753906 3.953125 -4.671875 L 3.953125 0 Z M 1.4375 0 "/></g></g></g><g fill="#000000" fill-opacity="1"><g transform="translate(234.06639, 45.157308)"><g><path d="M 9.875 -4.421875 L 3.453125 -4.421875 C 3.523438 -3.554688 3.769531 -2.925781 4.1875 -2.53125 C 4.613281 -2.132812 5.191406 -1.9375 5.921875 -1.9375 C 6.492188 -1.9375 6.957031 -2.039062 7.3125 -2.25 C 7.675781 -2.46875 7.960938 -2.796875 8.171875 -3.234375 L 8.375 -3.234375 L 10.03125 -2.171875 C 9.707031 -1.460938 9.21875 -0.890625 8.5625 -0.453125 C 7.90625 -0.0234375 7.023438 0.1875 5.921875 0.1875 C 4.890625 0.1875 4 -0.00390625 3.25 -0.390625 C 2.5 -0.785156 1.914062 -1.367188 1.5 -2.140625 C 1.09375 -2.921875 0.890625 -3.867188 0.890625 -4.984375 C 0.890625 -6.117188 1.101562 -7.078125 1.53125 -7.859375 C 1.96875 -8.640625 2.550781 -9.21875 3.28125 -9.59375 C 4.007812 -9.976562 4.828125 -10.171875 5.734375 -10.171875 C 7.148438 -10.171875 8.234375 -9.796875 8.984375 -9.046875 C 9.734375 -8.304688 10.109375 -7.210938 10.109375 -5.765625 C 10.109375 -5.234375 10.09375 -4.820312 10.0625 -4.53125 Z M 7.71875 -6.046875 C 7.6875 -6.804688 7.503906 -7.359375 7.171875 -7.703125 C 6.847656 -8.054688 6.367188 -8.234375 5.734375 -8.234375 C 4.472656 -8.234375 3.726562 -7.503906 3.5 -6.046875 Z M 7.71875 -6.046875 "/></g></g></g><g fill="#000000" fill-opacity="1"><g transform="translate(244.918679, 45.157308)"><g><path d="M 1.4375 0 L 1.4375 -9.984375 L 3.875 -9.984375 L 3.875 -8.5 L 4.0625 -8.46875 C 4.300781 -9.019531 4.617188 -9.425781 5.015625 -9.6875 C 5.410156 -9.945312 5.890625 -10.078125 6.453125 -10.078125 C 7.015625 -10.078125 7.445312 -9.984375 7.75 -9.796875 L 7.3125 -7.625 L 7.125 -7.59375 C 6.957031 -7.65625 6.800781 -7.703125 6.65625 -7.734375 C 6.507812 -7.765625 6.328125 -7.78125 6.109375 -7.78125 C 5.398438 -7.78125 4.863281 -7.53125 4.5 -7.03125 C 4.132812 -6.539062 3.953125 -5.753906 3.953125 -4.671875 L 3.953125 0 Z M 1.4375 0 "/></g></g></g><g fill="#000000" fill-opacity="1"><g transform="translate(252.747897, 45.157308)"><g><path d="M 9.875 -4.421875 L 3.453125 -4.421875 C 3.523438 -3.554688 3.769531 -2.925781 4.1875 -2.53125 C 4.613281 -2.132812 5.191406 -1.9375 5.921875 -1.9375 C 6.492188 -1.9375 6.957031 -2.039062 7.3125 -2.25 C 7.675781 -2.46875 7.960938 -2.796875 8.171875 -3.234375 L 8.375 -3.234375 L 10.03125 -2.171875 C 9.707031 -1.460938 9.21875 -0.890625 8.5625 -0.453125 C 7.90625 -0.0234375 7.023438 0.1875 5.921875 0.1875 C 4.890625 0.1875 4 -0.00390625 3.25 -0.390625 C 2.5 -0.785156 1.914062 -1.367188 1.5 -2.140625 C 1.09375 -2.921875 0.890625 -3.867188 0.890625 -4.984375 C 0.890625 -6.117188 1.101562 -7.078125 1.53125 -7.859375 C 1.96875 -8.640625 2.550781 -9.21875 3.28125 -9.59375 C 4.007812 -9.976562 4.828125 -10.171875 5.734375 -10.171875 C 7.148438 -10.171875 8.234375 -9.796875 8.984375 -9.046875 C 9.734375 -8.304688 10.109375 -7.210938 10.109375 -5.765625 C 10.109375 -5.234375 10.09375 -4.820312 10.0625 -4.53125 Z M 7.71875 -6.046875 C 7.6875 -6.804688 7.503906 -7.359375 7.171875 -7.703125 C 6.847656 -8.054688 6.367188 -8.234375 5.734375 -8.234375 C 4.472656 -8.234375 3.726562 -7.503906 3.5 -6.046875 Z M 7.71875 -6.046875 "/></g></g></g><g fill="#000000" fill-opacity="1"><g transform="translate(263.600186, 45.157308)"><g><path d="M 1.75 0 L 1.75 -8 L 0.328125 -8 L 0.328125 -10 L 1.75 -10 C 1.644531 -10.414062 1.59375 -10.8125 1.59375 -11.1875 C 1.59375 -11.820312 1.738281 -12.363281 2.03125 -12.8125 C 2.320312 -13.257812 2.738281 -13.597656 3.28125 -13.828125 C 3.820312 -14.066406 4.46875 -14.1875 5.21875 -14.1875 C 6.320312 -14.1875 7.144531 -14 7.6875 -13.625 L 7.09375 -11.765625 L 6.90625 -11.734375 C 6.53125 -12.003906 6.050781 -12.140625 5.46875 -12.140625 C 5.019531 -12.140625 4.679688 -12.023438 4.453125 -11.796875 C 4.222656 -11.578125 4.109375 -11.28125 4.109375 -10.90625 C 4.109375 -10.738281 4.117188 -10.585938 4.140625 -10.453125 C 4.160156 -10.316406 4.195312 -10.164062 4.25 -10 L 7.109375 -10 L 7.109375 -8 L 4.25 -8 L 4.25 0 Z M 1.75 0 "/></g></g></g><g fill="#000000" fill-opacity="1"><g transform="translate(270.804868, 45.157308)"><g><path d="M 9.875 -4.421875 L 3.453125 -4.421875 C 3.523438 -3.554688 3.769531 -2.925781 4.1875 -2.53125 C 4.613281 -2.132812 5.191406 -1.9375 5.921875 -1.9375 C 6.492188 -1.9375 6.957031 -2.039062 7.3125 -2.25 C 7.675781 -2.46875 7.960938 -2.796875 8.171875 -3.234375 L 8.375 -3.234375 L 10.03125 -2.171875 C 9.707031 -1.460938 9.21875 -0.890625 8.5625 -0.453125 C 7.90625 -0.0234375 7.023438 0.1875 5.921875 0.1875 C 4.890625 0.1875 4 -0.00390625 3.25 -0.390625 C 2.5 -0.785156 1.914062 -1.367188 1.5 -2.140625 C 1.09375 -2.921875 0.890625 -3.867188 0.890625 -4.984375 C 0.890625 -6.117188 1.101562 -7.078125 1.53125 -7.859375 C 1.96875 -8.640625 2.550781 -9.21875 3.28125 -9.59375 C 4.007812 -9.976562 4.828125 -10.171875 5.734375 -10.171875 C 7.148438 -10.171875 8.234375 -9.796875 8.984375 -9.046875 C 9.734375 -8.304688 10.109375 -7.210938 10.109375 -5.765625 C 10.109375 -5.234375 10.09375 -4.820312 10.0625 -4.53125 Z M 7.71875 -6.046875 C 7.6875 -6.804688 7.503906 -7.359375 7.171875 -7.703125 C 6.847656 -8.054688 6.367188 -8.234375 5.734375 -8.234375 C 4.472656 -8.234375 3.726562 -7.503906 3.5 -6.046875 Z M 7.71875 -6.046875 "/></g></g></g><g fill="#000000" fill-opacity="1"><g transform="translate(281.657157, 45.157308)"><g><path d="M 1.4375 0 L 1.4375 -9.984375 L 3.875 -9.984375 L 3.875 -8.5 L 4.0625 -8.46875 C 4.300781 -9.019531 4.617188 -9.425781 5.015625 -9.6875 C 5.410156 -9.945312 5.890625 -10.078125 6.453125 -10.078125 C 7.015625 -10.078125 7.445312 -9.984375 7.75 -9.796875 L 7.3125 -7.625 L 7.125 -7.59375 C 6.957031 -7.65625 6.800781 -7.703125 6.65625 -7.734375 C 6.507812 -7.765625 6.328125 -7.78125 6.109375 -7.78125 C 5.398438 -7.78125 4.863281 -7.53125 4.5 -7.03125 C 4.132812 -6.539062 3.953125 -5.753906 3.953125 -4.671875 L 3.953125 0 Z M 1.4375 0 "/></g></g></g><g fill="#000000" fill-opacity="1"><g transform="translate(289.486375, 45.157308)"><g><path d="M 9.875 -4.421875 L 3.453125 -4.421875 C 3.523438 -3.554688 3.769531 -2.925781 4.1875 -2.53125 C 4.613281 -2.132812 5.191406 -1.9375 5.921875 -1.9375 C 6.492188 -1.9375 6.957031 -2.039062 7.3125 -2.25 C 7.675781 -2.46875 7.960938 -2.796875 8.171875 -3.234375 L 8.375 -3.234375 L 10.03125 -2.171875 C 9.707031 -1.460938 9.21875 -0.890625 8.5625 -0.453125 C 7.90625 -0.0234375 7.023438 0.1875 5.921875 0.1875 C 4.890625 0.1875 4 -0.00390625 3.25 -0.390625 C 2.5 -0.785156 1.914062 -1.367188 1.5 -2.140625 C 1.09375 -2.921875 0.890625 -3.867188 0.890625 -4.984375 C 0.890625 -6.117188 1.101562 -7.078125 1.53125 -7.859375 C 1.96875 -8.640625 2.550781 -9.21875 3.28125 -9.59375 C 4.007812 -9.976562 4.828125 -10.171875 5.734375 -10.171875 C 7.148438 -10.171875 8.234375 -9.796875 8.984375 -9.046875 C 9.734375 -8.304688 10.109375 -7.210938 10.109375 -5.765625 C 10.109375 -5.234375 10.09375 -4.820312 10.0625 -4.53125 Z M 7.71875 -6.046875 C 7.6875 -6.804688 7.503906 -7.359375 7.171875 -7.703125 C 6.847656 -8.054688 6.367188 -8.234375 5.734375 -8.234375 C 4.472656 -8.234375 3.726562 -7.503906 3.5 -6.046875 Z M 7.71875 -6.046875 "/></g></g></g><g fill="#000000" fill-opacity="1"><g transform="translate(300.338664, 45.157308)"><g><path d="M 1.4375 0 L 1.4375 -9.984375 L 3.84375 -9.984375 L 3.84375 -8.515625 L 4.03125 -8.46875 C 4.65625 -9.601562 5.664062 -10.171875 7.0625 -10.171875 C 8.21875 -10.171875 9.066406 -9.859375 9.609375 -9.234375 C 10.148438 -8.609375 10.421875 -7.695312 10.421875 -6.5 L 10.421875 0 L 7.90625 0 L 7.90625 -6.1875 C 7.90625 -6.851562 7.769531 -7.332031 7.5 -7.625 C 7.238281 -7.914062 6.816406 -8.0625 6.234375 -8.0625 C 5.515625 -8.0625 4.953125 -7.828125 4.546875 -7.359375 C 4.148438 -6.898438 3.953125 -6.171875 3.953125 -5.171875 L 3.953125 0 Z M 1.4375 0 "/></g></g></g><g fill="#000000" fill-opacity="1"><g transform="translate(312.032695, 45.157308)"><g><path d="M 5.828125 0.1875 C 4.859375 0.1875 4 -0.0078125 3.25 -0.40625 C 2.507812 -0.8125 1.929688 -1.398438 1.515625 -2.171875 C 1.097656 -2.953125 0.890625 -3.890625 0.890625 -4.984375 C 0.890625 -6.085938 1.097656 -7.023438 1.515625 -7.796875 C 1.929688 -8.578125 2.507812 -9.164062 3.25 -9.5625 C 3.988281 -9.96875 4.832031 -10.171875 5.78125 -10.171875 C 7.882812 -10.171875 9.234375 -9.410156 9.828125 -7.890625 L 8.109375 -6.65625 L 7.921875 -6.65625 C 7.710938 -7.125 7.441406 -7.472656 7.109375 -7.703125 C 6.785156 -7.929688 6.34375 -8.046875 5.78125 -8.046875 C 5.050781 -8.046875 4.484375 -7.796875 4.078125 -7.296875 C 3.679688 -6.796875 3.484375 -6.023438 3.484375 -4.984375 C 3.484375 -3.960938 3.6875 -3.195312 4.09375 -2.6875 C 4.5 -2.1875 5.078125 -1.9375 5.828125 -1.9375 C 6.367188 -1.9375 6.828125 -2.082031 7.203125 -2.375 C 7.578125 -2.664062 7.847656 -3.085938 8.015625 -3.640625 L 8.203125 -3.65625 L 9.984375 -2.6875 C 9.734375 -1.832031 9.265625 -1.140625 8.578125 -0.609375 C 7.890625 -0.078125 6.972656 0.1875 5.828125 0.1875 Z M 5.828125 0.1875 "/></g></g></g><g fill="#000000" fill-opacity="1"><g transform="translate(322.323815, 45.157308)"><g><path d="M 2.6875 -11.1875 C 2.238281 -11.1875 1.867188 -11.320312 1.578125 -11.59375 C 1.296875 -11.875 1.15625 -12.226562 1.15625 -12.65625 C 1.15625 -13.082031 1.296875 -13.429688 1.578125 -13.703125 C 1.867188 -13.984375 2.238281 -14.125 2.6875 -14.125 C 2.988281 -14.125 3.253906 -14.0625 3.484375 -13.9375 C 3.722656 -13.8125 3.90625 -13.640625 4.03125 -13.421875 C 4.164062 -13.203125 4.234375 -12.945312 4.234375 -12.65625 C 4.234375 -12.375 4.164062 -12.117188 4.03125 -11.890625 C 3.90625 -11.671875 3.722656 -11.5 3.484375 -11.375 C 3.253906 -11.25 2.988281 -11.1875 2.6875 -11.1875 Z M 1.4375 0 L 1.4375 -9.984375 L 3.953125 -9.984375 L 3.953125 0 Z M 1.4375 0 "/></g></g></g><g fill="#000000" fill-opacity="1"><g transform="translate(327.700173, 45.157308)"><g><path d="M 1.4375 0 L 1.4375 -9.984375 L 3.84375 -9.984375 L 3.84375 -8.515625 L 4.03125 -8.46875 C 4.65625 -9.601562 5.664062 -10.171875 7.0625 -10.171875 C 8.21875 -10.171875 9.066406 -9.859375 9.609375 -9.234375 C 10.148438 -8.609375 10.421875 -7.695312 10.421875 -6.5 L 10.421875 0 L 7.90625 0 L 7.90625 -6.1875 C 7.90625 -6.851562 7.769531 -7.332031 7.5 -7.625 C 7.238281 -7.914062 6.816406 -8.0625 6.234375 -8.0625 C 5.515625 -8.0625 4.953125 -7.828125 4.546875 -7.359375 C 4.148438 -6.898438 3.953125 -6.171875 3.953125 -5.171875 L 3.953125 0 Z M 1.4375 0 "/></g></g></g><g fill="#000000" fill-opacity="1"><g transform="translate(339.394204, 45.157308)"><g><path d="M 5.1875 4.234375 C 3.53125 4.234375 2.3125 3.992188 1.53125 3.515625 C 0.75 3.035156 0.359375 2.363281 0.359375 1.5 C 0.359375 0.96875 0.523438 0.535156 0.859375 0.203125 C 1.191406 -0.128906 1.671875 -0.351562 2.296875 -0.46875 L 2.296875 -0.65625 C 1.960938 -0.863281 1.71875 -1.09375 1.5625 -1.34375 C 1.414062 -1.59375 1.34375 -1.882812 1.34375 -2.21875 C 1.34375 -3.019531 1.867188 -3.5625 2.921875 -3.84375 L 2.921875 -4.03125 C 2.378906 -4.332031 1.972656 -4.710938 1.703125 -5.171875 C 1.429688 -5.628906 1.296875 -6.179688 1.296875 -6.828125 C 1.296875 -7.492188 1.445312 -8.078125 1.75 -8.578125 C 2.050781 -9.085938 2.492188 -9.476562 3.078125 -9.75 C 3.671875 -10.03125 4.378906 -10.171875 5.203125 -10.171875 C 6.035156 -10.171875 6.703125 -10.03125 7.203125 -9.75 C 7.503906 -10.195312 7.679688 -10.710938 7.734375 -11.296875 L 7.921875 -11.40625 L 9.71875 -10.96875 C 9.664062 -10.488281 9.523438 -10.085938 9.296875 -9.765625 C 9.078125 -9.441406 8.734375 -9.15625 8.265625 -8.90625 L 8.265625 -8.703125 C 8.828125 -8.203125 9.109375 -7.507812 9.109375 -6.625 C 9.109375 -6.007812 8.953125 -5.457031 8.640625 -4.96875 C 8.335938 -4.476562 7.890625 -4.09375 7.296875 -3.8125 C 6.710938 -3.53125 6.015625 -3.390625 5.203125 -3.390625 L 4.828125 -3.390625 C 4.585938 -3.410156 4.414062 -3.421875 4.3125 -3.421875 C 4.082031 -3.421875 3.90625 -3.359375 3.78125 -3.234375 C 3.65625 -3.109375 3.59375 -2.945312 3.59375 -2.75 C 3.59375 -2.539062 3.675781 -2.375 3.84375 -2.25 C 4.007812 -2.132812 4.253906 -2.070312 4.578125 -2.0625 L 6.8125 -1.984375 C 9.03125 -1.921875 10.140625 -0.96875 10.140625 0.875 C 10.140625 1.519531 9.972656 2.09375 9.640625 2.59375 C 9.304688 3.09375 8.769531 3.488281 8.03125 3.78125 C 7.300781 4.082031 6.351562 4.234375 5.1875 4.234375 Z M 5.203125 -5.140625 C 5.691406 -5.140625 6.070312 -5.28125 6.34375 -5.5625 C 6.613281 -5.851562 6.75 -6.257812 6.75 -6.78125 C 6.75 -7.3125 6.613281 -7.710938 6.34375 -7.984375 C 6.070312 -8.265625 5.691406 -8.40625 5.203125 -8.40625 C 4.710938 -8.40625 4.332031 -8.265625 4.0625 -7.984375 C 3.800781 -7.710938 3.671875 -7.3125 3.671875 -6.78125 C 3.671875 -6.25 3.800781 -5.84375 4.0625 -5.5625 C 4.332031 -5.28125 4.710938 -5.140625 5.203125 -5.140625 Z M 5.1875 2.421875 C 6.039062 2.421875 6.660156 2.296875 7.046875 2.046875 C 7.441406 1.804688 7.640625 1.492188 7.640625 1.109375 C 7.640625 0.796875 7.535156 0.566406 7.328125 0.421875 C 7.128906 0.273438 6.816406 0.195312 6.390625 0.1875 L 4.40625 0.09375 C 4.34375 0.09375 4.28125 0.0859375 4.21875 0.078125 C 4.164062 0.078125 4.113281 0.078125 4.0625 0.078125 C 3.632812 0.078125 3.3125 0.164062 3.09375 0.34375 C 2.875 0.519531 2.765625 0.769531 2.765625 1.09375 C 2.765625 1.519531 2.960938 1.847656 3.359375 2.078125 C 3.765625 2.304688 4.375 2.421875 5.1875 2.421875 Z M 5.1875 2.421875 "/></g></g></g><g fill="#000000" fill-opacity="1"><g transform="translate(450.254846, 20.123026)"><g><path d="M 12.703125 0 L 9.953125 0 L 8.953125 -3.046875 L 3.890625 -3.046875 L 2.890625 0 L 0.203125 0 L 4.765625 -13.234375 L 8.125 -13.234375 Z M 6.296875 -10.484375 L 4.59375 -5.25 L 8.234375 -5.25 L 6.515625 -10.484375 Z M 6.296875 -10.484375 "/></g></g></g><g fill="#000000" fill-opacity="1"><g transform="translate(463.152685, 20.123026)"><g><path d="M 1.4375 4.046875 L 1.4375 -9.984375 L 3.953125 -9.984375 L 3.953125 -8.6875 L 4.140625 -8.65625 C 4.429688 -9.15625 4.820312 -9.53125 5.3125 -9.78125 C 5.8125 -10.039062 6.394531 -10.171875 7.0625 -10.171875 C 7.863281 -10.171875 8.566406 -9.976562 9.171875 -9.59375 C 9.773438 -9.21875 10.242188 -8.640625 10.578125 -7.859375 C 10.910156 -7.085938 11.078125 -6.128906 11.078125 -4.984375 C 11.078125 -3.847656 10.898438 -2.890625 10.546875 -2.109375 C 10.191406 -1.335938 9.695312 -0.757812 9.0625 -0.375 C 8.4375 0 7.71875 0.1875 6.90625 0.1875 C 6.28125 0.1875 5.738281 0.0820312 5.28125 -0.125 C 4.832031 -0.332031 4.453125 -0.65625 4.140625 -1.09375 L 3.953125 -1.0625 L 3.953125 4.046875 Z M 6.203125 -1.9375 C 6.953125 -1.9375 7.519531 -2.179688 7.90625 -2.671875 C 8.289062 -3.160156 8.484375 -3.929688 8.484375 -4.984375 C 8.484375 -6.046875 8.289062 -6.820312 7.90625 -7.3125 C 7.519531 -7.800781 6.953125 -8.046875 6.203125 -8.046875 C 5.503906 -8.046875 4.945312 -7.789062 4.53125 -7.28125 C 4.125 -6.78125 3.921875 -6.015625 3.921875 -4.984375 C 3.921875 -3.960938 4.125 -3.195312 4.53125 -2.6875 C 4.945312 -2.1875 5.503906 -1.9375 6.203125 -1.9375 Z M 6.203125 -1.9375 "/></g></g></g><g fill="#000000" fill-opacity="1"><g transform="translate(475.109209, 20.123026)"><g><path d="M 1.4375 4.046875 L 1.4375 -9.984375 L 3.953125 -9.984375 L 3.953125 -8.6875 L 4.140625 -8.65625 C 4.429688 -9.15625 4.820312 -9.53125 5.3125 -9.78125 C 5.8125 -10.039062 6.394531 -10.171875 7.0625 -10.171875 C 7.863281 -10.171875 8.566406 -9.976562 9.171875 -9.59375 C 9.773438 -9.21875 10.242188 -8.640625 10.578125 -7.859375 C 10.910156 -7.085938 11.078125 -6.128906 11.078125 -4.984375 C 11.078125 -3.847656 10.898438 -2.890625 10.546875 -2.109375 C 10.191406 -1.335938 9.695312 -0.757812 9.0625 -0.375 C 8.4375 0 7.71875 0.1875 6.90625 0.1875 C 6.28125 0.1875 5.738281 0.0820312 5.28125 -0.125 C 4.832031 -0.332031 4.453125 -0.65625 4.140625 -1.09375 L 3.953125 -1.0625 L 3.953125 4.046875 Z M 6.203125 -1.9375 C 6.953125 -1.9375 7.519531 -2.179688 7.90625 -2.671875 C 8.289062 -3.160156 8.484375 -3.929688 8.484375 -4.984375 C 8.484375 -6.046875 8.289062 -6.820312 7.90625 -7.3125 C 7.519531 -7.800781 6.953125 -8.046875 6.203125 -8.046875 C 5.503906 -8.046875 4.945312 -7.789062 4.53125 -7.28125 C 4.125 -6.78125 3.921875 -6.015625 3.921875 -4.984375 C 3.921875 -3.960938 4.125 -3.195312 4.53125 -2.6875 C 4.945312 -2.1875 5.503906 -1.9375 6.203125 -1.9375 Z M 6.203125 -1.9375 "/></g></g></g><g fill="#000000" fill-opacity="1"><g transform="translate(487.065733, 20.123026)"><g><path d="M 4.140625 0.1875 C 3.242188 0.1875 2.554688 -0.0507812 2.078125 -0.53125 C 1.609375 -1.019531 1.375 -1.757812 1.375 -2.75 L 1.375 -14 L 3.890625 -14 L 3.890625 -2.859375 C 3.890625 -2.242188 4.140625 -1.9375 4.640625 -1.9375 C 4.785156 -1.9375 4.941406 -1.960938 5.109375 -2.015625 L 5.234375 -1.96875 L 5.453125 -0.046875 C 5.316406 0.0234375 5.132812 0.0820312 4.90625 0.125 C 4.675781 0.164062 4.421875 0.1875 4.140625 0.1875 Z M 4.140625 0.1875 "/></g></g></g><g fill="#000000" fill-opacity="1"><g transform="translate(492.804135, 20.123026)"><g><path d="M 2.203125 4.234375 C 1.773438 4.234375 1.390625 4.195312 1.046875 4.125 C 0.703125 4.0625 0.421875 3.976562 0.203125 3.875 L 0.59375 1.84375 L 0.765625 1.796875 C 0.910156 1.867188 1.09375 1.929688 1.3125 1.984375 C 1.539062 2.035156 1.773438 2.0625 2.015625 2.0625 C 2.421875 2.0625 2.753906 2.003906 3.015625 1.890625 C 3.285156 1.785156 3.515625 1.609375 3.703125 1.359375 C 3.890625 1.117188 4.054688 0.785156 4.203125 0.359375 L 0.21875 -9.984375 L 2.84375 -9.984375 L 5.328125 -3.046875 L 5.546875 -3.046875 L 7.953125 -9.984375 L 10.515625 -9.984375 L 6.5 0.625 C 6.175781 1.476562 5.820312 2.164062 5.4375 2.6875 C 5.0625 3.21875 4.613281 3.609375 4.09375 3.859375 C 3.570312 4.109375 2.941406 4.234375 2.203125 4.234375 Z M 2.203125 4.234375 "/></g></g></g><g fill="#000000" fill-opacity="1"><g transform="translate(449.907147, 45.157308)"><g><path d="M 1.75 0 L 1.75 -8 L 0.328125 -8 L 0.328125 -10 L 1.75 -10 C 1.644531 -10.414062 1.59375 -10.8125 1.59375 -11.1875 C 1.59375 -11.820312 1.738281 -12.363281 2.03125 -12.8125 C 2.320312 -13.257812 2.738281 -13.597656 3.28125 -13.828125 C 3.820312 -14.066406 4.46875 -14.1875 5.21875 -14.1875 C 6.320312 -14.1875 7.144531 -14 7.6875 -13.625 L 7.09375 -11.765625 L 6.90625 -11.734375 C 6.53125 -12.003906 6.050781 -12.140625 5.46875 -12.140625 C 5.019531 -12.140625 4.679688 -12.023438 4.453125 -11.796875 C 4.222656 -11.578125 4.109375 -11.28125 4.109375 -10.90625 C 4.109375 -10.738281 4.117188 -10.585938 4.140625 -10.453125 C 4.160156 -10.316406 4.195312 -10.164062 4.25 -10 L 7.109375 -10 L 7.109375 -8 L 4.25 -8 L 4.25 0 Z M 1.75 0 "/></g></g></g><g fill="#000000" fill-opacity="1"><g transform="translate(457.111829, 45.157308)"><g><path d="M 2.6875 -11.1875 C 2.238281 -11.1875 1.867188 -11.320312 1.578125 -11.59375 C 1.296875 -11.875 1.15625 -12.226562 1.15625 -12.65625 C 1.15625 -13.082031 1.296875 -13.429688 1.578125 -13.703125 C 1.867188 -13.984375 2.238281 -14.125 2.6875 -14.125 C 2.988281 -14.125 3.253906 -14.0625 3.484375 -13.9375 C 3.722656 -13.8125 3.90625 -13.640625 4.03125 -13.421875 C 4.164062 -13.203125 4.234375 -12.945312 4.234375 -12.65625 C 4.234375 -12.375 4.164062 -12.117188 4.03125 -11.890625 C 3.90625 -11.671875 3.722656 -11.5 3.484375 -11.375 C 3.253906 -11.25 2.988281 -11.1875 2.6875 -11.1875 Z M 1.4375 0 L 1.4375 -9.984375 L 3.953125 -9.984375 L 3.953125 0 Z M 1.4375 0 "/></g></g></g><g fill="#000000" fill-opacity="1"><g transform="translate(462.488187, 45.157308)"><g><path d="M 4.140625 0.1875 C 3.242188 0.1875 2.554688 -0.0507812 2.078125 -0.53125 C 1.609375 -1.019531 1.375 -1.757812 1.375 -2.75 L 1.375 -14 L 3.890625 -14 L 3.890625 -2.859375 C 3.890625 -2.242188 4.140625 -1.9375 4.640625 -1.9375 C 4.785156 -1.9375 4.941406 -1.960938 5.109375 -2.015625 L 5.234375 -1.96875 L 5.453125 -0.046875 C 5.316406 0.0234375 5.132812 0.0820312 4.90625 0.125 C 4.675781 0.164062 4.421875 0.1875 4.140625 0.1875 Z M 4.140625 0.1875 "/></g></g></g><g fill="#000000" fill-opacity="1"><g transform="translate(468.226589, 45.157308)"><g><path d="M 6.890625 -2.375 L 7.546875 -0.53125 C 7.273438 -0.300781 6.929688 -0.125 6.515625 0 C 6.109375 0.125 5.644531 0.1875 5.125 0.1875 C 4.039062 0.1875 3.21875 -0.101562 2.65625 -0.6875 C 2.09375 -1.28125 1.8125 -2.140625 1.8125 -3.265625 L 1.8125 -8 L 0.296875 -8 L 0.296875 -10 L 1.8125 -10 L 1.8125 -11.9375 L 4.328125 -12.359375 L 4.328125 -10 L 7.15625 -10 L 7.15625 -8 L 4.328125 -8 L 4.328125 -3.4375 C 4.328125 -2.945312 4.425781 -2.585938 4.625 -2.359375 C 4.832031 -2.128906 5.132812 -2.015625 5.53125 -2.015625 C 5.976562 -2.015625 6.367188 -2.132812 6.703125 -2.375 Z M 6.890625 -2.375 "/></g></g></g><g fill="#000000" fill-opacity="1"><g transform="translate(475.983399, 45.157308)"><g><path d="M 9.875 -4.421875 L 3.453125 -4.421875 C 3.523438 -3.554688 3.769531 -2.925781 4.1875 -2.53125 C 4.613281 -2.132812 5.191406 -1.9375 5.921875 -1.9375 C 6.492188 -1.9375 6.957031 -2.039062 7.3125 -2.25 C 7.675781 -2.46875 7.960938 -2.796875 8.171875 -3.234375 L 8.375 -3.234375 L 10.03125 -2.171875 C 9.707031 -1.460938 9.21875 -0.890625 8.5625 -0.453125 C 7.90625 -0.0234375 7.023438 0.1875 5.921875 0.1875 C 4.890625 0.1875 4 -0.00390625 3.25 -0.390625 C 2.5 -0.785156 1.914062 -1.367188 1.5 -2.140625 C 1.09375 -2.921875 0.890625 -3.867188 0.890625 -4.984375 C 0.890625 -6.117188 1.101562 -7.078125 1.53125 -7.859375 C 1.96875 -8.640625 2.550781 -9.21875 3.28125 -9.59375 C 4.007812 -9.976562 4.828125 -10.171875 5.734375 -10.171875 C 7.148438 -10.171875 8.234375 -9.796875 8.984375 -9.046875 C 9.734375 -8.304688 10.109375 -7.210938 10.109375 -5.765625 C 10.109375 -5.234375 10.09375 -4.820312 10.0625 -4.53125 Z M 7.71875 -6.046875 C 7.6875 -6.804688 7.503906 -7.359375 7.171875 -7.703125 C 6.847656 -8.054688 6.367188 -8.234375 5.734375 -8.234375 C 4.472656 -8.234375 3.726562 -7.503906 3.5 -6.046875 Z M 7.71875 -6.046875 "/></g></g></g><g fill="#000000" fill-opacity="1"><g transform="translate(486.835688, 45.157308)"><g><path d="M 1.4375 0 L 1.4375 -9.984375 L 3.875 -9.984375 L 3.875 -8.5 L 4.0625 -8.46875 C 4.300781 -9.019531 4.617188 -9.425781 5.015625 -9.6875 C 5.410156 -9.945312 5.890625 -10.078125 6.453125 -10.078125 C 7.015625 -10.078125 7.445312 -9.984375 7.75 -9.796875 L 7.3125 -7.625 L 7.125 -7.59375 C 6.957031 -7.65625 6.800781 -7.703125 6.65625 -7.734375 C 6.507812 -7.765625 6.328125 -7.78125 6.109375 -7.78125 C 5.398438 -7.78125 4.863281 -7.53125 4.5 -7.03125 C 4.132812 -6.539062 3.953125 -5.753906 3.953125 -4.671875 L 3.953125 0 Z M 1.4375 0 "/></g></g></g><g fill="#000000" fill-opacity="1"><g transform="translate(494.664907, 45.157308)"><g><path d="M 4.671875 0.1875 C 3.992188 0.1875 3.367188 0.109375 2.796875 -0.046875 C 2.234375 -0.210938 1.75 -0.429688 1.34375 -0.703125 C 0.945312 -0.984375 0.648438 -1.304688 0.453125 -1.671875 L 1.84375 -3.171875 L 2.03125 -3.171875 C 2.363281 -2.734375 2.753906 -2.398438 3.203125 -2.171875 C 3.660156 -1.953125 4.15625 -1.84375 4.6875 -1.84375 C 5.175781 -1.84375 5.546875 -1.925781 5.796875 -2.09375 C 6.046875 -2.269531 6.171875 -2.523438 6.171875 -2.859375 C 6.171875 -3.109375 6.082031 -3.316406 5.90625 -3.484375 C 5.726562 -3.660156 5.4375 -3.796875 5.03125 -3.890625 L 3.71875 -4.21875 C 2.726562 -4.445312 2.003906 -4.800781 1.546875 -5.28125 C 1.085938 -5.769531 0.859375 -6.390625 0.859375 -7.140625 C 0.859375 -7.765625 1.015625 -8.304688 1.328125 -8.765625 C 1.648438 -9.222656 2.097656 -9.570312 2.671875 -9.8125 C 3.253906 -10.050781 3.925781 -10.171875 4.6875 -10.171875 C 5.59375 -10.171875 6.335938 -10.039062 6.921875 -9.78125 C 7.515625 -9.53125 7.976562 -9.1875 8.3125 -8.75 L 6.96875 -7.296875 L 6.796875 -7.296875 C 6.515625 -7.609375 6.195312 -7.835938 5.84375 -7.984375 C 5.5 -8.128906 5.113281 -8.203125 4.6875 -8.203125 C 3.695312 -8.203125 3.203125 -7.894531 3.203125 -7.28125 C 3.203125 -7.019531 3.296875 -6.804688 3.484375 -6.640625 C 3.671875 -6.484375 3.992188 -6.351562 4.453125 -6.25 L 5.6875 -5.984375 C 6.695312 -5.765625 7.4375 -5.414062 7.90625 -4.9375 C 8.375 -4.457031 8.609375 -3.8125 8.609375 -3 C 8.609375 -2.363281 8.453125 -1.800781 8.140625 -1.3125 C 7.828125 -0.832031 7.375 -0.460938 6.78125 -0.203125 C 6.1875 0.0546875 5.484375 0.1875 4.671875 0.1875 Z M 4.671875 0.1875 "/></g></g></g></svg>