<?xml version="1.0" encoding="utf-8"?>
<!-- Generator: Adobe Illustrator 25.2.3, SVG Export Plug-In . SVG Version: 6.00 Build 0)  -->
<svg version="1.1" id="Layer_1" xmlns="http://www.w3.org/2000/svg" xmlns:xlink="http://www.w3.org/1999/xlink" x="0px" y="0px"
	 viewBox="0 0 2078.23 780.22" style="enable-background:new 0 0 2078.23 780.22;" xml:space="preserve">
<style type="text/css">
	.st0{fill:none;}
	.st1{fill:#80A5FE;}
	.st2{fill:#FF7096;}
	.st3{fill:#FF9F40;}
	.st4{fill:#FFC03F;}
	.st5{fill:#7FE5FE;}
	.st6{fill:#7FB69F;}
	.st7{fill:#3FC6FE;}
	.st8{fill:#3FE5FF;}
	.st9{fill:#3FB6E0;}
	.st10{fill:#2FBECF;}
	.st11{fill:#DFAF1F;}
	.st12{fill:#57D2A6;}
	.st13{fill:#1FD6DE;}
	.st14{fill:#FEFF7F;}
	.st15{fill:#4FE6AF;}
	.st16{fill:#AFDF4F;}
	.st17{fill:#7FFFFF;}
	.st18{fill:#1FE6DF;}
	.st19{fill:#DFBF1F;}
	.st20{fill:#C0FF3F;}
	.st21{fill:#3EFFBE;}
	.st22{fill:#9FFF5F;}
	.st23{fill:#6FBE8F;}
	.st24{fill:#7F85BF;}
	.st25{fill:#58A8E3;}
	.st26{fill:#002B51;}
</style>
<path class="st0" d="M833.24,243.67c-18.47-25.42-43.98-46.05-73.29-57.37C789.32,197.7,814.97,218.52,833.24,243.67z"/>
<path class="st0" d="M625.68,158.87c-1.09-4.13-2.35-8.21-3.8-12.22C623.34,150.66,624.6,154.74,625.68,158.87z"/>
<path class="st0" d="M425.91,234.95c-1.22,0.37-2.44,0.75-3.66,1.14C423.47,235.7,424.69,235.32,425.91,234.95z"/>
<path class="st0" d="M746.52,181.84c0.04,0.01,0.08,0.02,0.13,0.04C746.6,181.87,746.56,181.86,746.52,181.84z"/>
<path class="st0" d="M417.32,237.71c-4.27,1.44-8.51,2.93-12.75,4.39l0.02,1.22l-0.02-1.22
	C408.81,240.65,413.06,239.15,417.32,237.71z"/>
<path class="st0" d="M548.56,548.99c-0.16,0.13-0.31,0.25-0.47,0.37C548.25,549.24,548.41,549.11,548.56,548.99z"/>
<path class="st0" d="M543.65,552.86c-0.91,0.7-1.83,1.39-2.75,2.07C541.81,554.24,542.74,553.56,543.65,552.86z"/>
<path class="st0" d="M621.89,146.65c-0.97-2.67-2.02-5.32-3.15-7.92C619.87,141.33,620.92,143.97,621.89,146.65z"/>
<path class="st0" d="M563.37,219.87c2.52-1.52,5.07-3,7.63-4.46C568.44,216.87,565.9,218.36,563.37,219.87z"/>
<path class="st0" d="M675.83,177.83c1.61-0.22,3.22-0.4,4.83-0.58C679.05,177.43,677.44,177.62,675.83,177.83z"/>
<path class="st0" d="M637.57,186.17c0.41-0.12,0.83-0.24,1.24-0.36C638.4,185.93,637.99,186.05,637.57,186.17z"/>
<path class="st0" d="M631.73,187.95l-1.17,0.4c1.58-0.52,3.18-1.01,4.78-1.5C634.13,187.21,632.93,187.57,631.73,187.95z"/>
<path class="st0" d="M582.59,209.08c4.13-2.16,8.31-4.25,12.52-6.25C590.9,204.83,586.73,206.92,582.59,209.08z"/>
<path class="st0" d="M615.06,131.02c-1.31-2.53-2.72-5.01-4.22-7.44C612.34,126.01,613.74,128.49,615.06,131.02z"/>
<path class="st0" d="M735.58,179.28l-1.27-0.25c0.45,0.08,0.89,0.18,1.33,0.26C735.62,179.29,735.6,179.28,735.58,179.28z"/>
<path class="st0" d="M538.68,556.58c-18.67,13.61-39.35,25.04-59.69,34.37C499.85,581.38,520.14,570.15,538.68,556.58z"/>
<path class="st0" d="M756.68,185.08c0.89,0.32,1.77,0.65,2.65,0.99C758.44,185.73,757.56,185.4,756.68,185.08z"/>
<path class="st0" d="M601,200.1c5.41-2.45,10.89-4.78,16.42-6.94C611.88,195.33,606.41,197.65,601,200.1z"/>
<path class="st0" d="M734.31,179.03c-17.27-3.43-34.84-3.78-52.25-1.94C699.57,175.26,717.22,175.63,734.31,179.03z"/>
<path class="st0" d="M495.41,490.82c-0.03-0.03-0.07-0.06-0.1-0.09C495.43,490.84,495.44,490.85,495.41,490.82z"/>
<path class="st0" d="M568.53,530.87c0.57-0.6,1.12-1.19,1.64-1.76c-1.25,1.33-2.53,2.63-3.82,3.93
	C567.07,532.31,567.81,531.6,568.53,530.87z"/>
<path class="st0" d="M630.18,184.09c-0.29-2.83-0.64-5.66-1.07-8.48C629.54,178.43,629.9,181.26,630.18,184.09z"/>
<path class="st0" d="M753.35,183.93c0.52,0.17,1.03,0.35,1.55,0.53C754.39,184.28,753.87,184.1,753.35,183.93z"/>
<path class="st0" d="M503.41,231.75c-0.05-0.05-0.1-0.09-0.14-0.14C503.31,231.65,503.36,231.7,503.41,231.75L503.41,231.75z"/>
<path class="st0" d="M627.62,167.19c-0.57-2.79-1.22-5.57-1.94-8.32C626.41,161.63,627.05,164.4,627.62,167.19z"/>
<path class="st0" d="M749.97,182.85c0.24,0.07,0.47,0.15,0.71,0.22C750.44,183,750.21,182.92,749.97,182.85z"/>
<path class="st0" d="M564.4,534.96c-0.51,0.5-1.03,0.99-1.55,1.49C563.37,535.96,563.89,535.46,564.4,534.96z"/>
<path class="st1" d="M615.06,131.02c1.31,2.53,2.54,5.1,3.68,7.7c1.14,2.61,2.19,5.25,3.15,7.92c1.45,4.01,2.71,8.09,3.8,12.22
	c0.72,2.75,1.37,5.53,1.94,8.32c0.57,2.79,1.07,5.6,1.49,8.42c0.43,2.82,0.78,5.65,1.07,8.48c0.14,1.42,0.27,2.83,0.38,4.25
	l1.17-0.4c1.2-0.38,2.4-0.73,3.61-1.1c0.74-0.23,1.49-0.46,2.24-0.68c0.41-0.12,0.83-0.24,1.24-0.36
	c12.05-3.53,24.47-6.3,37.02-7.98c1.61-0.22,3.22-0.4,4.83-0.58c0.47-0.05,0.93-0.12,1.4-0.17c17.4-1.83,34.97-1.49,52.25,1.94
	c-3.4-12.25-6.96-24.5-11.38-36.42c-30.58-24.77-67.82-40.27-105.44-50.96c-13.81-3.63-27.68-7.38-41.96-8.52
	c4.97,4.53,9.9,9.15,14.6,13.98c7.84,8.06,15.04,16.7,20.71,26.46C612.34,126.01,613.74,128.49,615.06,131.02z"/>
<path class="st2" d="M293.58,128.84c41.09,0.8,80.94,14.34,116.92,33.56c1.57-8.59,3.74-17.03,6.42-25.29
	c1.08-3.31,2.23-6.59,3.47-9.84c3.09-8.13,6.67-16.08,10.66-23.82c0.8-1.55,1.61-3.09,2.44-4.62c1.66-3.07,3.38-6.1,5.17-9.1
	c0.89-1.5,1.8-2.99,2.72-4.47c-15.8,4.17-31.53,9.29-45.76,17.49c-3.8,2.39-8.15,3.43-12.67,3.08
	c-44.47-1.07-90.09,5.81-130.08,25.99C266.47,131.25,279.94,128.42,293.58,128.84z"/>
<path class="st3" d="M246.12,167.2c-9.44,46.11-14.46,94.48-3.4,140.77c4.97,20.78,14.18,40.73,28.07,56.94
	c0.97-1.83,1.92-3.82,2.83-6c2.82-6.93,5.02-14.38,7.15-21.58c2.45-8.29,4.99-16.86,8.56-25.06c4.84-10.75,11.29-18.35,19.19-22.66
	c5.85-3.11,12.23-4.74,18.5-4.74c4.97,0,9.62,1.02,13.83,3.05c0.45,0.21,0.88,0.47,1.33,0.69c5.37-5.54,10.97-10.87,16.84-15.92
	c13.81-11.7,28.72-22.53,45.59-29.34l0-0.02l-0.02-1.22c-0.87-26.71,1.89-53.34,5.91-79.7c-35.97-19.23-75.82-32.77-116.92-33.56
	c-13.64-0.42-27.11,2.41-40.72,2.98l-0.94,0.6C254.55,144.42,247.94,155.6,246.12,167.2z"/>
<path class="st3" d="M326.82,305.8c-6.44,0-12.86,4.15-15.99,10.32c-4.3,8.1-6.99,16.68-9.65,25.73
	c7.78-12.57,16.32-24.66,25.68-36.05C326.85,305.81,326.83,305.8,326.82,305.8z"/>
<path class="st4" d="M160.29,350.54c5.46-5.56,11.11-11.31,17.15-16.57c7.58-6.57,19.25-15.3,33.05-15.3c0.54,0,1.08,0.01,1.63,0.04
	c11.26,0.17,22.59,6.32,30.16,16.44c9.13,12.21,15.71,25.84,21.71,39.42c2.48-2.53,4.72-5.71,6.81-9.66
	c-13.89-16.21-23.1-36.15-28.07-56.94c-11.06-46.28-6.04-94.66,3.4-140.77c1.81-11.6,8.42-22.78,5.79-34.78
	c-34.88,16.42-68.5,40.87-85.99,76.2c-16.97,34.09-20.92,73.81-14.61,111.1c-5.52,4.87-10.86,9.94-16,15.25
	c4.43,8.93,9.27,17.61,14.41,26.09C153.31,357.64,156.84,354.05,160.29,350.54z"/>
<path class="st4" d="M258.5,401.42c-4.59,1.51-9.37,2.31-14.23,2.31c-9.5,0-18.57-3.01-25.52-8.47c-3.35-2.39-6-5.5-8.57-8.52
	c-2.66-3.13-5.17-6.08-8.36-7.98c-4.35-2.58-9.52-4-14.55-4c-3.65,0-7.1,0.72-10.24,2.13c-2.76,1.24-5.5,2.56-8.24,3.88
	c-1.56,0.75-3.13,1.5-4.71,2.25c23.61,33.46,52.41,63.25,83.64,89.9c4.67-19.48,10.53-38.7,17.58-57.46
	C262.92,410.73,260.67,406.04,258.5,401.42z"/>
<path class="st4" d="M210.82,335.06c-3.91,0-7.67,0.99-10.86,2.85c-7.87,4.33-14.38,10.28-20.84,16.79c2.77-0.45,5.58-0.7,8.41-0.7
	c10.39,0,20.06,3.05,27.98,8.83c3.91,2.58,6.77,5.96,9.54,9.22c2.84,3.35,5.53,6.52,9.03,8.37c2.85,1.66,6.08,2.45,9.74,2.45
	c1.89,0,3.88-0.23,5.94-0.64c-6.83-14.76-15.27-31.44-23.37-40.42C222.68,337.49,217.02,335.06,210.82,335.06z"/>
<path class="st5" d="M735.58,179.28c0.02,0,0.04,0.01,0.06,0.01c3.66,0.71,7.29,1.56,10.87,2.55c0.04,0.01,0.08,0.02,0.13,0.04
	c1.11,0.31,2.22,0.63,3.33,0.97c0.24,0.07,0.47,0.15,0.71,0.22c0.89,0.28,1.79,0.56,2.68,0.86c0.52,0.17,1.03,0.35,1.55,0.53
	c0.59,0.2,1.18,0.41,1.77,0.62c0.89,0.32,1.77,0.65,2.65,0.99c0.21,0.08,0.42,0.16,0.63,0.24c29.31,11.32,54.82,31.95,73.29,57.37
	c27.2,35.53,41.32,78.71,52.02,121.59c1.61-1.19,4.89-3.6,6.51-4.82c4.42-33.42-3.43-67.65-17.74-97.84
	c-22.46-46.21-61.71-85.09-110.08-103.43c-13.64-5.94-30.09-5.19-41.02-16.57c4.42,11.93,7.98,24.17,11.38,36.42L735.58,179.28z"/>
<path class="st6" d="M422.25,236.09c1.22-0.39,2.44-0.77,3.66-1.14c1.76-0.53,3.52-1.05,5.29-1.53c7-1.91,14.11-3.37,21.38-3.96
	c12.71-1.02,25.5-0.65,38.19,0.67c4.23,0.44,8.45,0.98,12.64,1.62c-0.05-0.05-0.1-0.09-0.14-0.14
	c-26.98-27.42-59.09-50.7-92.77-69.2c-4.02,26.36-6.78,52.99-5.91,79.7c4.23-1.46,8.48-2.96,12.75-4.39
	C418.96,237.16,420.6,236.62,422.25,236.09z"/>
<path class="st7" d="M733.09,315.58c1.38-3.46,2.63-6.97,3.76-10.51C735.45,308.53,734.22,312.03,733.09,315.58z"/>
<path class="st7" d="M683.28,377.11c5.43-4.23,10.71-8.73,15.73-13.48c-0.39-1.79-0.77-3.58-1.16-5.37
	c-4.93-22.96-10.02-46.7-18.75-68.67c-1.64-4.12-6.13-13.7-12.55-13.7c-0.15,0-0.3,0-0.45,0.01c-3,0.19-6.16,2.51-9.4,6.9
	c-6.37,8.63-10.21,19.26-13.12,28.51c-1,3.18-1.95,6.39-2.86,9.62c15.43,17.23,29.27,35.92,41.95,55.23L683.28,377.11z"/>
<path class="st7" d="M612.45,292.84l1.17,0.99c4.86,4.31,9.57,8.78,14.15,13.37c3.42-10.31,7.64-20.36,13.34-29.75
	c7.25-11.95,15.99-18.26,25.28-18.26l0.42,0c7.62,0.15,18.48,4.68,26.89,25.33c5.7,13.98,10.15,28.45,14.01,43.01
	c2.67-11.02,6.03-22.33,10.88-33.1c6.15-13.65,14.16-21.36,23.83-22.92c0.49-0.08,0.99-0.13,1.49-0.18
	c1.58-14.69,1.41-29.59-0.34-44.21c-1.57-16.12-5.37-31.24-9.24-48.1c-17.1-3.4-34.74-3.77-52.25-1.94
	c-0.47,0.05-0.93,0.11-1.4,0.17c-1.61,0.18-3.22,0.37-4.83,0.58c-12.51,1.69-24.91,4.46-37.02,7.98c-0.41,0.12-0.83,0.23-1.24,0.36
	c-0.75,0.22-1.49,0.46-2.24,0.68c-1.6,0.49-3.19,0.98-4.78,1.5c-1.09,19.6-0.47,38.93-4.65,58.16
	C622.81,262.53,617.18,278.51,612.45,292.84z"/>
<path class="st7" d="M638.81,185.81c12.11-3.51,24.5-6.28,37.02-7.98C663.29,179.51,650.87,182.28,638.81,185.81z"/>
<path class="st7" d="M680.66,177.25c0.47-0.05,0.93-0.12,1.4-0.17C681.6,177.14,681.13,177.2,680.66,177.25z"/>
<path class="st7" d="M635.34,186.85c0.75-0.23,1.49-0.46,2.24-0.68C636.83,186.39,636.08,186.62,635.34,186.85z"/>
<path class="st8" d="M683.28,377.11c3.06,4.94,6.04,9.94,8.95,14.99c2.57-8.47,4.95-17.32,7.17-26.68c-0.13-0.6-0.26-1.19-0.39-1.79
	C693.99,368.39,688.71,372.88,683.28,377.11z"/>
<path class="st8" d="M803.3,386.69c-5-2.18-9.38-5.15-13.26-8.58c-0.79,2.28-1.57,4.56-2.34,6.82
	c-5.74,16.8-11.67,34.17-21.37,49.58c-7.09,11.28-15.13,17-23.89,17l-0.32,0c-10.55-0.17-19.36-8.55-25.5-24.23
	c-2.58-6.59-4.81-13.3-6.84-20.08c-1.15,3.34-2.45,6.73-3.94,10.1c10.81,21.52,19.96,43.87,26.74,67.01l0.25,0.84
	c33.96-17.69,65.91-39.68,96.05-63.33c11.66-9.52,23.17-19.42,33.79-30.15l-25.22,0.05C825.56,391.73,814.01,391.35,803.3,386.69z"
	/>
<path class="st8" d="M834.2,366.91c-2.94-9.7-7.22-18.94-12.73-27.46c-2.63-4.06-6.08-6.9-8.41-6.9c-0.42,0-0.82,0.09-1.22,0.29
	c-1.17,0.56-2.25,2.14-3.17,3.58c-4.03,6.29-7.39,13.05-10.38,20c3.86,4.73,8.7,8.92,14.75,11.45c6.36,2.66,13.37,3.17,19.39,3.32
	c1.04,0.03,2.07,0.02,3.11,0.03c-0.38-1.12-0.72-2.24-1.04-3.3L834.2,366.91z"/>
<path class="st8" d="M761.84,324.4c-2.41-7.98-4.9-16.23-8.15-23.94c-2.19-5.2-4.98-8.3-7.46-8.3l-0.23,0.01
	c-2.26,0.14-4.57,2.7-6.85,7.6c-0.81,1.75-1.58,3.51-2.3,5.29c-1.13,3.55-2.38,7.05-3.76,10.51c-2.88,9.12-5,18.54-7.19,28.3
	l-1.96,8.69c-1.62,7.2-3.28,14.52-5.05,21.85c2.85,12.32,5.85,24.82,9.35,36.96c1.99,6.94,4.3,14.18,8.54,19.79
	c1.75,2.31,3.44,3.65,5.01,3.98c0.3,0.06,0.6,0.09,0.89,0.09c2.84,0,6.27-2.95,9.42-8.1c9.08-14.85,14.87-31.9,20.47-48.38
	c1.7-5.01,3.44-10.08,5.26-15.14c-3.51-5.48-6.21-11.1-8.25-16.13C766.52,339.91,764.14,332.03,761.84,324.4z"/>
<path class="st8" d="M743.89,271.34c0.65-0.06,1.31-0.1,1.97-0.1c7.01,0,14.44,3.48,19.87,9.3c5.85,6.27,9.03,14.35,11.15,20.7
	c1.79,5.34,3.27,10.81,4.71,16.11c1.94,7.15,3.97,14.5,6.69,21.4c0.75-1.49,1.5-2.98,2.3-4.44c6.39-11.74,14.65-18.2,23.24-18.2
	c0.68,0,1.38,0.04,2.08,0.12c9.17,1.08,15.11,8.91,19.27,15.6c1.38,2.23,2.74,4.5,4.02,6.76c5.95,10.41,11.03,21.36,15.18,32.62
	c7.3-0.01,16.49-0.03,26.44-0.05c1.51-1.94,3-3.9,4.44-5.9c-10.71-42.88-24.82-86.06-52.02-121.59
	c-18.28-25.16-43.92-45.97-73.29-57.37c-0.21-0.08-0.42-0.16-0.63-0.24c-0.88-0.34-1.76-0.67-2.65-0.99
	c-0.59-0.21-1.18-0.41-1.77-0.62c-0.52-0.18-1.03-0.36-1.55-0.53c-0.89-0.3-1.78-0.58-2.68-0.86c-0.24-0.07-0.47-0.15-0.71-0.22
	c-1.1-0.34-2.21-0.66-3.33-0.97c-0.04-0.01-0.08-0.02-0.13-0.04c-3.58-0.99-7.21-1.85-10.87-2.55c-0.44-0.09-0.89-0.18-1.33-0.26
	c3.88,16.69,7.68,31.97,9.24,48.1C745.3,241.75,745.48,256.65,743.89,271.34z"/>
<path class="st8" d="M754.9,184.46c0.59,0.2,1.18,0.41,1.77,0.62C756.09,184.87,755.49,184.67,754.9,184.46z"/>
<path class="st8" d="M750.68,183.07c0.9,0.28,1.79,0.56,2.68,0.86C752.46,183.63,751.57,183.35,750.68,183.07z"/>
<path class="st8" d="M759.32,186.07c0.21,0.08,0.42,0.16,0.63,0.24C759.75,186.22,759.53,186.15,759.32,186.07z"/>
<path class="st8" d="M746.64,181.88c1.11,0.31,2.22,0.63,3.33,0.97C748.87,182.51,747.76,182.19,746.64,181.88z"/>
<path class="st8" d="M735.64,179.29c3.67,0.71,7.29,1.56,10.87,2.55C742.93,180.85,739.31,180,735.64,179.29z"/>
<path class="st8" d="M734.31,179.03c3.88,16.86,7.68,31.97,9.24,48.1C741.99,211,738.19,195.72,734.31,179.03z"/>
<path class="st9" d="M532.08,240.69c29.37,12.99,56.84,30.24,80.37,52.15c4.7-14.35,10.36-30.31,13.47-46.33
	c4.17-19.23,3.55-38.56,4.65-58.16c-4.42,1.51-8.8,3.12-13.14,4.82c-5.54,2.16-11.01,4.49-16.42,6.94c-1.97,0.89-3.93,1.8-5.88,2.73
	c-4.21,2-8.39,4.09-12.52,6.25c-3.9,2.04-7.77,4.15-11.6,6.33c-2.56,1.46-5.1,2.94-7.63,4.46
	C552.62,226.32,542.18,233.28,532.08,240.69L532.08,240.69z"/>
<path class="st9" d="M612.45,292.84c4.73-14.33,10.36-30.31,13.47-46.33C622.81,262.53,617.15,278.49,612.45,292.84z"/>
<path class="st10" d="M591.56,343.72c-0.9,1.32-1.79,2.89-2.75,4.65c-0.12,0.22-0.23,0.45-0.34,0.67l0.39,0.85
	C589.74,347.82,590.65,345.77,591.56,343.72z"/>
<path class="st10" d="M581.64,324.27c4.59-3.51,10.02-5.44,15.28-5.44c1.64,0,3.26,0.19,4.81,0.56c0.18,0.04,0.35,0.11,0.52,0.16
	c3.75-8.76,7.28-17.61,10.2-26.7c-23.53-21.91-51.01-39.15-80.37-52.15l-0.65,0.5c-3.4,2.61-6.83,5.24-10.26,7.85
	c21.51,24.2,41.07,50.31,56.62,78.72C579.02,326.47,580.3,325.29,581.64,324.27z"/>
<path class="st11" d="M345.09,410.28c1.67-3.33,3.29-6.69,4.89-10.02l0.98-2.04c3.19-6.62,6.24-12.85,9.26-18.85
	c-0.04-0.18-0.08-0.36-0.12-0.55c-0.43-1.96-0.86-3.9-1.29-5.81l-1.2-5.33c-3.5-15.65-7.12-31.83-13.84-46.05
	c-3.24-6.86-7.12-13.48-13.45-15.42c-1.01-0.26-2.23-0.41-3.46-0.42c-9.37,11.4-17.9,23.49-25.68,36.05
	c-0.26,0.89-0.53,1.79-0.79,2.69c-2.96,10.13-6.03,20.6-11.23,30.29c-1.04,1.98-2.15,3.83-3.31,5.61
	c10.08,6.96,19.79,14.6,31.1,19.47C326.14,403.85,335.53,407.35,345.09,410.28z"/>
<path class="st11" d="M361.76,310.62c6.48,13.07,10.29,27.01,13.49,40.85c1.04-1.79,2.1-3.58,3.17-5.36
	c4.13-6.84,10.23-14.83,20.78-15.86c1-0.1,2.03-0.15,3.05-0.15c5.27,0,10.47,1.3,15.09,3.68c-2.76-11.53-5.08-23.16-6.97-34.86
	c-2.97-18.39-4.88-36.96-5.75-55.58v0c-16.87,6.81-31.78,17.64-45.59,29.34c-5.87,5.05-11.47,10.38-16.84,15.92
	C349.95,292.61,356.4,299.81,361.76,310.62z"/>
<path class="st11" d="M364.88,406.94c-1.2,2.53-2.44,5.1-3.7,7.67c3.6,0.83,7.21,1.58,10.84,2.22c-2.2-4.24-4.01-8.7-5.53-13.25
	C365.96,404.71,365.42,405.81,364.88,406.94z"/>
<path class="st11" d="M408.98,348.32c-1.63-1.01-4.12-2.2-6.71-2.2c-0.35,0-0.7,0.02-1.04,0.07c-3.63,0.49-7.01,3.46-10.94,9.63
	c-3.84,6.02-7.12,12.3-9.97,18.26c2.1,9,4.46,18.02,7.65,26.6c1.42,3.82,3.05,7.63,5.19,10.92c6.66-18.24,15.97-35.34,25.78-52.07
	C416.48,354.98,413.42,351.06,408.98,348.32z"/>
<path class="st12" d="M556.4,399.36c-6.09,3.62-12.87,5.53-19.6,5.53c-5.56,0-10.94-1.27-15.97-3.77
	c-13.94-6.93-19.88-20.78-24.35-34.22c-2.78,12.12-6.22,24.2-12.01,35.28c-2.4,4.6-6.37,11.11-13.05,14.58
	c-3.03,1.57-6.46,2.41-9.91,2.41c-1.48,0-2.95-0.15-4.37-0.45c-5.91-1.25-10.42-4.82-13.41-8c13.23,29.13,30.04,56.84,51.48,79.91
	c0.02,0.02,0.06,0.06,0.09,0.1c25.31-28.42,47.97-59.2,67.1-92.12c0.56-1.06,1.12-2.11,1.7-3.16c-0.16-0.49-0.31-0.98-0.47-1.48
	C561.49,395.94,559.1,397.76,556.4,399.36z"/>
<path class="st12" d="M438.58,331.64c-1.32,1.69-2.63,3.38-3.93,5.09c-1.66,2.19-3.31,4.38-4.93,6.59
	c-0.24,0.31-0.46,0.64-0.69,0.96c1.32,2.01,2.41,4.12,3.38,6.28C433.96,344.4,435.87,337.92,438.58,331.64z"/>
<path class="st12" d="M461.47,402.86c0.11,0,0.22,0,0.34-0.01c7.88-0.62,10.38-9.42,12.84-20.85c0.32-1.47,0.62-2.87,0.93-4.16
	c2.05-8.48,4.24-17.13,6.35-25.49c1.23-4.85,2.44-9.69,3.65-14.51c-1.71-3.37-3.83-6.91-6.98-8.88c-0.1-0.06-0.19-0.12-0.28-0.19
	c-2.01-1.49-4.62-2.35-7.17-2.35c-2.1,0-4.04,0.57-5.59,1.64c-3.61,2.69-5.79,7.53-7.9,12.21l-0.33,0.74
	c-3.04,6.72-4.75,14.51-6.41,22.05c-0.68,3.07-1.38,6.25-2.16,9.31c-0.84,3.3-1.79,6.98-2.82,10.88c2.44,5.38,5.17,10.54,8.57,14.99
	C456.72,401.13,459.33,402.86,461.47,402.86z"/>
<path class="st12" d="M581.93,363.43c-0.06,0.14-0.12,0.28-0.18,0.42c1.93-3.89,3.71-7.86,5.23-11.94
	C585.19,355.59,583.59,359.43,581.93,363.43z"/>
<path class="st12" d="M513.27,351.36c1.92,5.89,3.72,11.45,6.16,16.82c0.37,0.83,0.76,1.65,1.15,2.47
	c3.8,7.89,10.53,12.99,17.13,12.99c2.54,0,5.1-0.73,7.61-2.16c4.28-2.45,7.99-6.69,11.33-12.89c-0.56-2.25-1.12-4.5-1.67-6.74
	c-4.54-18.51-9.24-37.64-17.28-54.99c-1.48-3.18-3.94-8.51-7.3-9.38c-1.37-0.35-2.74-0.53-4.08-0.53c-4.19,0-7.87,1.77-10.35,4.98
	c-5.51,7.13-8.33,17.72-10.82,27.07l-0.23,0.84c2.72,5.26,4.71,10.68,6.32,15.4C511.95,347.28,512.61,349.32,513.27,351.36z"/>
<path class="st12" d="M489.67,275.54c-10.05,9.35-19.65,19.18-28.82,29.41c-1.02,1.14-2.03,2.3-3.04,3.46
	c4-1.85,8.47-2.85,13.23-2.85c7.8,0,15.33,2.69,21.04,7.36c3.31-10.21,8.18-20.05,17.32-27.05c4.53-3.47,10.33-5.38,16.32-5.38
	c5.48,0,10.67,1.54,15.02,4.46c4.39,3.15,7.85,7.48,11.03,13.7c6.22,11.27,9.4,24.06,12.48,36.42c0.83,3.35,1.66,6.68,2.55,9.96
	l0.15,0.55c0.9-2.02,1.83-4.03,2.83-6.01c2.42-4.81,5.06-8.69,8-11.8c-15.55-28.41-35.11-54.53-56.62-78.72
	c-4.38,3.32-8.69,6.72-12.93,10.22C501.89,264.5,495.7,269.93,489.67,275.54z"/>
<path class="st13" d="M618.82,399.65c-0.96,2.56-2.04,5.28-3.35,7.97c2.43-0.82,4.87-1.65,7.3-2.48c-1.05-2.73-2.03-5.47-2.98-8.23
	C619.47,397.82,619.16,398.74,618.82,399.65z"/>
<path class="st13" d="M597.14,339.56c-2.18,0.08-3.89,1.66-5.58,4.16c-0.91,2.05-1.82,4.11-2.71,6.16
	c6.11,14.23,11.24,28.93,14.77,44.01c3.12-7.43,5.64-15.17,7.83-23.03c-1.78-5.46-3.67-10.89-5.81-16.1
	C602.99,348.33,600.36,343.63,597.14,339.56z"/>
<path class="st13" d="M640.67,321.09c-2.59,9.14-4.88,18.43-7.12,27.48c-1.06,4.3-2.14,8.65-3.25,13c0.11,0.36,0.22,0.73,0.32,1.1
	c0.75,2.56,1.45,4.97,2.24,7.35c2.53,7.61,5.27,15.25,8.14,22.71c0.6,1.56,1.19,3.15,1.79,4.76c0.05,0.13,0.09,0.25,0.14,0.38
	c14.12-5.52,27.72-12.14,39.72-21.71C670.2,357.17,656.13,338.38,640.67,321.09z"/>
<path class="st13" d="M619.95,335.83c2.24-9.55,4.68-19.14,7.77-28.5c-4.97-5.01-10.06-9.86-15.27-14.49
	c-2.92,9.09-6.45,17.94-10.2,26.7C611.05,321.9,616.2,328.68,619.95,335.83z"/>
<path class="st13" d="M640.71,320.93c-0.02,0.05-0.03,0.11-0.04,0.16c15.46,17.29,29.53,36.08,41.99,55.07
	C669.99,356.85,656.14,338.17,640.71,320.93z"/>
<path class="st13" d="M627.72,307.33c0.01-0.04,0.03-0.08,0.04-0.12c-4.58-4.59-9.29-9.06-14.15-13.37l-1.17-0.99
	C617.67,297.47,622.76,302.31,627.72,307.33z"/>
<path class="st14" d="M247.71,472.91c-31.23-26.65-60.02-56.44-83.64-89.9c-7.01,3.3-14.27,6.41-22.13,8.02
	c-10.25,1.73-20.52,1.99-30.5,2.12c-0.83,9.26-0.43,18.64,1.32,27.84c6.29,32.84,19.55,65.81,44.37,89.07
	c21.79,20.4,50.73,31.13,79.73,36.07c1.61-24.37,5.27-48.57,10.66-72.4L247.71,472.91z"/>
<path class="st14" d="M129.44,371.55c4.08-0.34,7.96-0.66,11.5-1.83c1.37-1.72,2.98-3.38,4.91-5.04c1.3-1.18,2.59-2.39,3.88-3.62
	c-5.14-8.48-9.98-17.16-14.41-26.09c-9.07,10.92-15.78,23.69-19.83,37.25c4.51-0.17,8.93-0.37,13.24-0.61L129.44,371.55z"/>
<path class="st15" d="M588.46,349.04c-0.51,0.95-1.01,1.9-1.48,2.88c-1.52,4.08-3.3,8.05-5.23,11.94
	c-1.91,4.59-3.86,9.22-6.14,13.66c1,3.69,2,7.39,3,11.08c0.29,1.08,0.57,2.17,0.85,3.27c1.24,4.88,2.4,9.48,4.98,13.04
	c1.87,2.59,4.65,4.26,7.08,4.26c0.25,0,0.51-0.02,0.76-0.05c3.09-0.45,5.97-3.56,8.8-9.51c0.89-1.88,1.72-3.79,2.53-5.71
	c-3.53-15.08-8.66-29.78-14.77-44.01L588.46,349.04z"/>
<path class="st15" d="M607.64,418.82c-4.64,4.43-10.64,7.07-16.32,7.07c-1.34,0-2.67-0.14-3.96-0.42
	c-8.02-1.73-15.09-8.42-18.89-17.89c-1.58-3.94-3.02-8.01-4.36-12.14c-0.57,1.05-1.14,2.1-1.7,3.16
	c-19.13,32.92-41.79,63.7-67.1,92.12c0.04,0.04,0.08,0.08,0.09,0.1c11.28,11.12,24.07,20.84,38.29,27.88
	c11.06,5.52,24.79,6.61,36.47,10.41c19.5-21.89,34.01-48.94,37.02-78.43C608.41,440.1,608.46,429.42,607.64,418.82z"/>
<path class="st16" d="M495.31,490.72c-0.4-0.42-1.19-1.24-1.59-1.64c-21.5-23.11-37.72-50.23-50.5-78.95
	c-0.2-0.22-0.41-0.45-0.6-0.66c-1.08-1.27-2.06-2.59-3-3.95c-0.04,0.13-0.08,0.26-0.12,0.4c-3.49,11.38-9.24,20.73-16.64,27.04
	c-5.41,4.52-12.37,7-19.63,7c-6.15,0-12.02-1.82-16.77-5.18c-3.71,18.11-3.99,36.95-0.58,55.1c3.28,17.17,11.85,32.57,20,47.83
	c19.28-3.4,39.58-9.86,55.97-20.72C473.57,509.08,487.34,502.67,495.31,490.72z"/>
<path class="st16" d="M418.93,359.53c-9.8,16.73-19.12,33.83-25.78,52.07c1.69,2.6,3.7,4.9,6.23,6.57c1.41,0.67,2.78,1,4.05,1
	c8.21,0,14.02-13.87,15.6-18.12c2.9-7.77,5.16-15.94,7.18-24.12c-0.6-1.52-1.2-3.05-1.79-4.61
	C422.71,367.82,421.05,363.44,418.93,359.53z"/>
<path class="st16" d="M495.22,490.62c-21.44-23.07-38.25-50.77-51.48-79.91c-0.19-0.2-0.35-0.39-0.52-0.58
	c12.79,28.72,29,55.84,50.5,78.95c0.4,0.4,1.19,1.22,1.59,1.64C495.19,490.59,495.18,490.59,495.22,490.62z"/>
<path class="st17" d="M880.82,371.16c3.07-0.01,6.21-0.01,9.38-0.02c0.64-3.54,1.2-7.11,1.57-10.7c-1.61,1.22-4.89,3.63-6.51,4.82
	C883.83,367.26,882.34,369.22,880.82,371.16z"/>
<path class="st17" d="M828.87,421.83c-30.14,23.65-62.09,45.64-96.05,63.33c6.98,25.71,12.35,52.17,11.83,78.93
	c24.67-15.23,51.83-28.47,70.14-51.7c9.04-11.38,14.78-25.09,17.34-39.35c0.4-6.14,5.42-9.91,9.39-13.84
	c19.58-18.55,34.88-41.94,43.43-67.56l-22.29,0.05C852.03,402.41,840.53,412.31,828.87,421.83z"/>
<path class="st18" d="M696,434.36c-7.03,9.41-18.16,15.28-29.01,15.28c-0.83,0-1.66-0.03-2.49-0.1
	c-14.44-0.7-24.23-12.05-28.77-18.74c-5.46-8.05-9.53-16.75-12.95-25.66c-2.44,0.83-4.87,1.65-7.3,2.48
	c-1.74,3.58-3.89,7.13-6.81,10.22c-0.33,0.35-0.68,0.66-1.02,0.98c0.82,10.6,0.77,21.28-0.45,31.86
	c-3.01,29.49-17.52,56.55-37.02,78.43c0.29-0.31,0.15-0.15,0.01,0c33.91,6.68,68.49-3.01,100.14-14.78
	c21.56-8.12,41.91-18.91,62.51-29.17c-6.8-23.22-16.08-45.96-27.02-67.8C703.22,423.23,700.06,429.04,696,434.36z"/>
<path class="st18" d="M682.66,376.17c-12.01,9.56-25.61,16.18-39.72,21.71c4.12,11.09,8.43,22.48,17.5,28.92
	c1.8,1.28,3.79,1.93,5.91,1.93c4.01,0,8.6-2.33,12.27-6.23c3.33-3.53,5.99-8.18,8.63-15.07c0.61-1.76,1.25-3.65,1.88-5.54
	c1.06-3.2,2.09-6.46,3.09-9.77c-2.91-5.06-5.89-10.07-8.94-15L682.66,376.17z"/>
<path class="st18" d="M692.22,392.11c0-0.01,0-0.01,0.01-0.02c-2.91-5.04-5.89-10.04-8.95-14.99
	C686.34,382.04,689.31,387.05,692.22,392.11z"/>
<path class="st18" d="M705.83,417.3c-0.01,0.02-0.02,0.04-0.03,0.06c10.93,21.84,20.21,44.57,27.02,67.8l-0.25-0.84
	C725.79,461.17,716.64,438.83,705.83,417.3z"/>
<path class="st18" d="M570.17,529.11C570.17,529.11,570.17,529.11,570.17,529.11C570.31,528.96,570.46,528.8,570.17,529.11z"/>
<path class="st19" d="M316.95,399.92c-11.31-4.87-21.02-12.51-31.1-19.47c-3.37,5.17-7.25,9.5-11.6,12.95
	c-0.51,0.4-1.02,0.8-1.54,1.18c0.17,0.39,0.35,0.78,0.52,1.18c5.3,11.81,11.13,23.5,18.74,33.88c4.86,6.63,10.88,13.68,18.73,15.72
	c0.67,0.11,1.35,0.17,2.03,0.17c6.21,0,11.94-4.8,15.66-8.83c6.76-7.78,11.97-17,16.7-26.42
	C335.53,407.35,326.14,403.85,316.95,399.92z"/>
<path class="st19" d="M386.46,434.78c-0.67-0.47-1.31-0.97-1.93-1.49c-2.4-2.05-4.7-4.52-6.84-7.36c-2.15-2.86-4.01-5.91-5.66-9.09
	c-3.63-0.64-7.25-1.39-10.84-2.22c-4.9,9.96-10.41,20.08-17.48,29.35c-9.55,11.79-19.72,17.72-30.33,17.72
	c-0.32,0-0.64-0.01-0.96-0.02c-15.99-0.6-27.08-13.37-34.03-22.93c-0.05-0.07-0.1-0.14-0.14-0.21c-4.79-7.5-9.03-15.31-12.94-23.09
	c-7.05,18.77-12.91,37.98-17.58,57.46c28.84,24.67,61.76,45.32,97.91,57.34c19.35,6.34,39.92,9.02,60.25,7.45
	c-8.15-15.25-16.72-30.66-20-47.83C382.46,471.72,382.74,452.88,386.46,434.78z"/>
<path class="st20" d="M443.66,578.72c-13.79-12.17-27.68-25.61-37.79-41.02c-20.32,1.57-40.89-1.12-60.25-7.45
	c-36.15-12.02-69.07-32.67-97.91-57.34c-5.39,23.83-9.24,48.84-10.86,73.22c27.92,4.7,56.4,3.68,84.54,2.48
	c40.1,34.78,94.98,53.37,147.95,47.33l-2.86-0.84C457.57,591.77,450.74,584.81,443.66,578.72z"/>
<path class="st20" d="M247.51,473.73c-5.39,23.83-9.04,48.02-10.66,72.4c1.61-24.37,5.47-49.39,10.86-73.22L247.51,473.73z"/>
<path class="st21" d="M732.82,485.16c-20.6,10.26-40.94,21.04-62.51,29.17c-31.65,11.78-66.23,21.46-100.14,14.78
	c-0.13,0.14-0.26,0.28-0.01,0c-0.52,0.57-1.07,1.17-1.64,1.76c-0.72,0.73-1.45,1.44-2.18,2.16c-0.64,0.65-1.29,1.29-1.95,1.93
	c-0.51,0.5-1.03,0.99-1.55,1.49c-4.54,4.35-9.32,8.53-14.29,12.54c-0.15,0.13-0.31,0.25-0.47,0.37c-1.47,1.18-2.95,2.35-4.45,3.5
	c-0.91,0.7-1.83,1.38-2.75,2.07c-0.74,0.55-1.47,1.11-2.21,1.65c-18.53,13.57-38.83,24.8-59.69,34.37
	c-4.02,1.74-8.22,3.03-12.5,4.15l2.86,0.84c23.11-1.76,45.29-10.19,65.34-21.49c54.43,46.58,113.51,88.3,177.64,120.44
	c-14.91-28.07-16.1-62.23-6.11-92.1c6.88-17.59,23.08-28.97,38.43-38.71C745.17,537.33,739.8,510.87,732.82,485.16z"/>
<path class="st21" d="M570.17,529.11C570.17,529.11,570.17,529.11,570.17,529.11C569.91,529.39,570.04,529.25,570.17,529.11z"/>
<path class="st22" d="M495.41,490.82c0.03,0.03,0.02,0.02-0.1-0.09c-7.54,12.27-21.74,18.36-33.47,26.26
	c-16.4,10.86-35.43,17.17-54.71,20.57l-1.27,0.15c10.11,15.4,24,28.84,37.79,41.02c7.08,6.09,13.91,13.04,22.83,16.37
	c4.27-1.12,8.47-2.41,12.5-4.15c20.34-9.32,41.02-20.75,59.69-34.37c0.74-0.54,1.48-1.1,2.21-1.65c0.92-0.69,1.84-1.37,2.75-2.07
	c1.5-1.15,2.98-2.31,4.45-3.5c0.16-0.12,0.31-0.25,0.47-0.37c4.92-3.98,9.69-8.16,14.29-12.54c0.52-0.5,1.04-0.99,1.55-1.49
	c0.66-0.64,1.3-1.29,1.95-1.93c1.29-1.3,2.57-2.6,3.82-3.93c-11.68-3.8-25.42-4.89-36.47-10.41
	C519.47,511.66,506.69,501.93,495.41,490.82z"/>
<path class="st22" d="M495.22,490.62c0.03,0.03,0.06,0.07,0.09,0.1c0,0,0,0,0,0C495.28,490.68,495.24,490.65,495.22,490.62z"/>
<path class="st22" d="M495.41,490.82c-0.02-0.02-0.05-0.06-0.09-0.1c0,0,0,0,0,0C495.34,490.76,495.38,490.79,495.41,490.82z"/>
<path class="st22" d="M461.85,516.98c11.73-7.9,25.92-13.99,33.47-26.26C487.34,502.67,473.57,509.08,461.85,516.98z"/>
<path class="st22" d="M461.85,516.98c-16.4,10.86-36.69,17.32-55.97,20.72l1.27-0.15C426.42,534.15,445.45,527.84,461.85,516.98z"/>
<path class="st22" d="M495.31,490.72c-0.03-0.03-0.06-0.07-0.09-0.1C495.18,490.59,495.19,490.59,495.31,490.72z"/>
<path class="st22" d="M548.09,549.36c-1.47,1.18-2.95,2.35-4.45,3.5C545.15,551.71,546.63,550.54,548.09,549.36z"/>
<path class="st22" d="M562.85,536.45c-4.6,4.37-9.36,8.56-14.29,12.54C553.53,544.98,558.31,540.8,562.85,536.45z"/>
<path class="st22" d="M540.89,554.93c-0.74,0.55-1.47,1.1-2.21,1.65C539.42,556.04,540.15,555.48,540.89,554.93z"/>
<path class="st22" d="M566.35,533.03c-0.65,0.64-1.29,1.29-1.95,1.93C565.05,534.32,565.7,533.68,566.35,533.03z"/>
<path class="st23" d="M410.35,298.93c1.89,11.7,4.22,23.33,6.97,34.86c2.65,1.37,5.12,3.08,7.28,5.13c1.75,1.66,3.18,3.47,4.42,5.37
	c0.23-0.32,0.45-0.65,0.69-0.96c1.63-2.21,3.27-4.41,4.93-6.59c1.3-1.7,2.61-3.4,3.93-5.09c2.55-5.89,5.8-11.6,10.17-16.65
	c2.57-2.81,5.65-5.01,9.06-6.59c1.01-1.15,2.02-2.31,3.04-3.46c9.17-10.23,18.77-20.06,28.82-29.41
	c6.03-5.61,12.22-11.04,18.57-16.29c4.24-3.49,8.54-6.9,12.93-10.22c-4.68-4.89-13.25-13.12-17.55-17.23
	c-0.07-0.02-0.14-0.04-0.21-0.07h0h0c-4.2-0.63-8.42-1.18-12.64-1.62c-12.69-1.32-25.48-1.69-38.19-0.67
	c-7.27,0.59-14.38,2.05-21.38,3.96c-1.77,0.48-3.53,1-5.29,1.53c-1.22,0.37-2.44,0.75-3.66,1.14c-1.65,0.53-3.29,1.07-4.93,1.62
	c-4.27,1.44-8.51,2.93-12.75,4.39l0.02,1.22l0,0.02C405.47,261.97,407.38,280.54,410.35,298.93z"/>
<polygon class="st23" points="404.6,243.33 404.6,243.35 404.6,243.35 "/>
<path class="st23" d="M422.25,236.09c-1.65,0.53-3.29,1.07-4.93,1.62C418.96,237.16,420.6,236.62,422.25,236.09z"/>
<path class="st23" d="M431.2,233.42c-1.77,0.48-3.53,1-5.29,1.53C427.67,234.42,429.43,233.9,431.2,233.42z"/>
<path class="st23" d="M503.41,231.75L503.41,231.75c-4.2-0.63-8.42-1.18-12.64-1.62C494.99,230.57,499.21,231.11,503.41,231.75z"/>
<path class="st23" d="M410.35,298.93c1.89,11.7,4.22,23.33,6.97,34.86c0,0,0,0,0,0C414.57,322.26,412.24,310.63,410.35,298.93z"/>
<path class="st23" d="M410.35,298.93c-2.97-18.39-4.88-36.96-5.75-55.58l0,0v0C405.47,261.97,407.38,280.54,410.35,298.93z"/>
<path class="st23" d="M489.67,275.54c6.03-5.61,12.22-11.04,18.57-16.29C501.89,264.5,495.7,269.93,489.67,275.54z"/>
<path class="st23" d="M438.58,331.64c-1.32,1.69-2.63,3.38-3.93,5.09C435.95,335.02,437.27,333.33,438.58,331.64L438.58,331.64z"/>
<path class="st23" d="M460.86,304.95c-1.02,1.14-2.03,2.3-3.04,3.46h0C458.83,307.25,459.83,306.09,460.86,304.95z"/>
<path class="st23" d="M521.17,249.04c-4.38,3.32-8.69,6.72-12.93,10.22C512.48,255.76,516.79,252.36,521.17,249.04z"/>
<path class="st24" d="M433.49,98.83c-0.83,1.53-1.64,3.07-2.44,4.62c-3.99,7.75-7.57,15.69-10.66,23.82
	c-1.24,3.25-2.4,6.53-3.47,9.84c-2.69,8.27-4.86,16.71-6.42,25.29l0.7,0.37c33.68,18.5,65.1,41.41,92.08,68.82
	c0.05,0.05,0.1,0.09,0.14,0.14c0.07,0.02,0.14,0.04,0.21,0.07c4.3,4.1,12.87,12.33,17.55,17.23c3.43-2.61,6.86-5.24,10.26-7.85
	l0.65-0.5c10.1-7.41,20.54-14.37,31.29-20.82c2.52-1.52,5.07-3,7.63-4.46c3.83-2.18,7.69-4.29,11.6-6.33
	c4.13-2.16,8.31-4.25,12.52-6.25c1.95-0.93,3.91-1.84,5.88-2.73c5.41-2.45,10.89-4.78,16.42-6.94c4.34-1.7,8.73-3.31,13.14-4.82
	c-0.11-1.42-0.24-2.84-0.38-4.25c-0.29-2.83-0.64-5.66-1.07-8.48c-0.43-2.82-0.92-5.63-1.49-8.42c-0.57-2.79-1.22-5.57-1.94-8.32
	c-1.09-4.13-2.35-8.21-3.8-12.22c-0.97-2.67-2.02-5.32-3.15-7.92c-1.14-2.61-2.36-5.18-3.68-7.7c-1.31-2.53-2.72-5.01-4.22-7.44
	c-5.67-9.77-12.87-18.41-20.71-26.46c-4.7-4.83-9.63-9.46-14.6-13.98c-44.1-8.35-90.23-7.48-134.16,2.14
	c-0.92,1.48-1.82,2.97-2.72,4.47C436.88,92.73,435.15,95.77,433.49,98.83z M524.54,238.62c-1.17-0.42-2.36-0.81-3.54-1.22
	C522.18,237.81,523.36,238.2,524.54,238.62z M517.58,236.23c-1.63-0.54-3.26-1.06-4.9-1.58
	C514.32,235.17,515.95,235.69,517.58,236.23z M510.59,233.97c-2.25-0.71-4.5-1.4-6.76-2.09
	C506.09,232.57,508.35,233.26,510.59,233.97z"/>
<path class="st24" d="M433.49,98.83c1.66-3.07,3.38-6.1,5.17-9.1C436.88,92.73,435.15,95.77,433.49,98.83z"/>
<path class="st24" d="M420.39,127.28c3.09-8.13,6.67-16.08,10.66-23.82C427.06,111.2,423.48,119.15,420.39,127.28z"/>
<path class="st24" d="M416.92,137.11c1.08-3.31,2.23-6.59,3.47-9.84C419.15,130.53,417.99,133.81,416.92,137.11z"/>
<path class="st24" d="M411.19,162.78l-0.7-0.37c33.68,18.5,65.8,41.78,92.77,69.2C476.29,204.19,444.87,181.28,411.19,162.78z"/>
<path class="st24" d="M595.12,202.83c1.95-0.93,3.91-1.84,5.88-2.73C599.03,201,597.07,201.9,595.12,202.83z"/>
<path class="st24" d="M532.08,240.69c10.1-7.41,20.54-14.37,31.29-20.82C552.62,226.32,542.18,233.28,532.08,240.69L532.08,240.69
	L532.08,240.69z"/>
<path class="st24" d="M571,215.41c3.83-2.18,7.69-4.29,11.6-6.33C578.69,211.12,574.83,213.23,571,215.41z"/>
<path class="st24" d="M532.08,240.69L532.08,240.69l-0.65,0.5c-3.4,2.61-6.83,5.24-10.26,7.85c3.43-2.61,6.86-5.24,10.26-7.85
	L532.08,240.69z"/>
<path class="st25" d="M422.49,353.48c-0.81-2.83-1.58-5.67-2.34-8.51C420.91,347.82,421.68,350.66,422.49,353.48
	c0.05,0.17,0.11,0.36,0.17,0.57C422.6,353.85,422.54,353.66,422.49,353.48z"/>
<path class="st25" d="M426.59,348.48L426.59,348.48c-0.86,1.87-1.5,3.84-1.93,5.87C425.08,352.33,425.72,350.36,426.59,348.48z"/>
<path class="st25" d="M422.85,354.73c0.13,0.47,0.28,0.99,0.43,1.5C423.13,355.71,422.98,355.2,422.85,354.73z"/>
<path class="st25" d="M160.77,361.39c3.32-2,6.87-3.59,10.55-4.79c8.09-8.36,16.24-16.72,26.5-22.36c10-5.85,24.06-4.19,31.76,4.72
	c8.59,9.52,17.41,27.07,24.4,42.2c0.1-0.03,0.21-0.06,0.31-0.09c1.92-0.91,3.85-1.98,5.89-3.25c0.15-0.1,0.28-0.23,0.43-0.33
	c-6.09-13.88-12.6-27.55-21.75-39.78c-6.33-8.46-16.21-14.57-26.96-14.74c-12.14-0.6-22.87,6.6-31.66,14.22
	c-9.94,8.66-18.69,18.55-28.25,27.61c0.13,0.21,0.27,0.42,0.4,0.63C155.04,364.25,157.81,362.92,160.77,361.39z"/>
<path class="st25" d="M639.51,310.03c3.3-10.47,7.24-20.92,13.76-29.76c3.12-4.22,7.32-8.29,12.56-8.62
	c8.48-0.54,14.1,8.47,17.24,16.37c8.63,21.74,13.65,44.63,18.57,67.56c0.5-2.28,0.99-4.59,1.47-6.94c0.8-3.92,1.63-7.96,2.53-12.07
	c-4.3-17.14-9.21-34.07-15.88-50.44c-4.32-10.59-11.59-22.44-23.03-22.68c-9.54-0.19-17.01,8.05-21.97,16.21
	c-5.91,9.74-10.19,20.17-13.63,30.97c2.1,2.17,4.18,4.36,6.23,6.58C638.05,314.81,638.76,312.42,639.51,310.03z"/>
<path class="st25" d="M780.83,367.95c-7.42,20.96-13.52,42.52-25.08,61.43c-3.32,5.43-8.59,11.25-14.82,9.95
	c-3.13-0.65-5.61-3.03-7.54-5.58c-4.68-6.18-7.1-13.74-9.24-21.19c-2.77-9.62-5.2-19.35-7.51-29.11c-1.25,4.89-2.55,9.76-3.97,14.59
	c-0.18,0.63-0.39,1.28-0.58,1.92c2.44,8.71,5.2,17.32,8.5,25.76c3.94,10.07,10.79,21.34,21.6,21.52c8.87,0.15,15.81-7.49,20.54-15
	c11.05-17.57,17.06-37.69,23.93-57.37C784.53,372.68,782.6,370.35,780.83,367.95z"/>
<path class="st25" d="M831.56,334.08c-3.84-6.2-8.9-12.77-16.14-13.62c-9.3-1.09-16.6,7.66-21.08,15.88
	c-1.36,2.49-2.61,5.04-3.83,7.6c1.33,2.78,2.93,5.68,4.83,8.51c2.82-6.33,5.98-12.48,9.73-18.33c1.29-2.02,2.75-4.09,4.91-5.12
	c5.64-2.71,11.66,2.88,15.06,8.14c5.71,8.83,10.18,18.47,13.23,28.54c0.56,1.86,1.1,3.75,1.8,5.56c2.02,0,5.39-0.01,9.76-0.02
	c-3.97-10.53-8.76-20.74-14.33-30.51C834.23,338.47,832.91,336.26,831.56,334.08z"/>
<path class="st25" d="M488.42,344.02c-2.91,11.57-5.91,23.24-8.7,34.82c-2.43,10.08-4.24,27.21-17.58,28.26
	c-4.4,0.35-8.34-2.77-11.02-6.28c-2.65-3.47-4.88-7.3-6.89-11.28c-0.95,3.46-1.95,7.03-3.01,10.63c1.39,2.3,2.91,4.5,4.64,6.54
	c3.19,3.74,7.36,6.82,12.17,7.84c3.84,0.81,7.95,0.24,11.43-1.56c5.11-2.65,8.56-7.66,11.23-12.77
	c6.69-12.79,10.14-27.04,13.2-41.35c-0.59-1.86-1.19-3.7-1.8-5.48C491.04,350.34,489.82,347.24,488.42,344.02z M489.71,364.18
	c0.39-0.07,0.78-0.13,1.17-0.18c0.01,0.05,0.01,0.11,0.02,0.16C490.51,364.16,490.11,364.17,489.71,364.18z"/>
<path class="st25" d="M501.94,324.59c2.4-8.86,5.31-18.32,10.67-25.26c4.55-5.88,11.79-7.8,18.87-5.97
	c5.17,1.34,8.03,7.26,10.1,11.72c8.48,18.29,13.22,38.15,17.99,57.57c1.39-3.04,2.71-6.13,3.98-9.17c0.23-0.54,0.46-1.09,0.69-1.63
	c-0.51-1.91-1.03-3.81-1.55-5.72c-4.11-15.22-7.02-31.63-14.71-45.56c-2.35-4.61-5.35-9.04-9.61-12.1
	c-7.81-5.24-18.9-4.97-26.38,0.76c-8.84,6.77-13.36,16.62-16.49,26.96c0.16,0.18,0.32,0.35,0.47,0.53
	C498.3,319.37,500.27,321.97,501.94,324.59z"/>
<path class="st25" d="M623.73,343.84c0.54,1.21,1.06,2.39,1.59,3.54c0.97,2.09,1.78,4.25,2.54,6.44
	c3.03-12.18,5.95-24.39,9.44-36.43c-2.05-2.23-4.13-4.44-6.22-6.61c-3.24,10.17-5.75,20.67-8.18,31.21
	C623.18,342.6,623.46,343.23,623.73,343.84z"/>
<path class="st25" d="M613.79,378.15c-2.38,7.81-5.17,15.46-8.64,22.83c0.63,3.18,1.21,6.38,1.69,9.59
	c0.89-0.31,1.78-0.61,2.67-0.92c2.19-3.59,3.84-7.55,5.31-11.5c0.98-2.61,1.89-5.24,2.78-7.88c-0.93-2.91-1.84-5.81-2.74-8.7
	C614.51,380.44,614.14,379.29,613.79,378.15z"/>
<path class="st25" d="M637.35,317.21c-2.05-2.22-4.13-4.41-6.23-6.58c-0.01,0.04-0.03,0.09-0.04,0.13c2.1,2.18,4.17,4.38,6.22,6.61
	C637.32,317.32,637.33,317.27,637.35,317.21z"/>
<path class="st25" d="M151.99,364.79c-0.53,0.5-1.07,1-1.6,1.49c0.66-0.28,1.33-0.57,2.01-0.86
	C152.26,365.21,152.12,365,151.99,364.79z"/>
<path class="st25" d="M605.15,400.99c-0.07,0.15-0.14,0.3-0.21,0.45c-2.53,5.32-6.22,11.05-12.04,11.9
	c-4.61,0.67-9.17-2.15-11.91-5.93c-3.71-5.12-4.87-11.72-6.49-17.7c-0.62-2.29-1.24-4.59-1.86-6.88c-1.66,2.69-3.5,5.26-5.61,7.66
	c1.63,5.29,3.39,10.48,5.4,15.5c2.73,6.78,8.19,13.66,15.84,15.31c6.28,1.36,12.89-1.72,17.3-6.39c0.54-0.58,1.06-1.17,1.55-1.79
	c-0.09-0.85-0.17-1.7-0.27-2.54C606.36,407.36,605.78,404.17,605.15,400.99z"/>
<path class="st25" d="M607.11,413.12c0.88-1.1,1.67-2.26,2.4-3.46c-0.89,0.31-1.78,0.61-2.67,0.92
	C606.94,411.42,607.02,412.27,607.11,413.12z"/>
<g>
	<path class="st25" d="M354.8,400.07c-1.83,3.81-3.67,7.64-5.57,11.44c-4.96,9.94-10.4,19.66-17.71,28.07
		c-5.5,5.96-13.14,11.48-21.72,9.95c-9.23-2.33-15.85-9.99-21.27-17.38c-7.1-9.68-12.59-20.26-17.58-31.12
		c-0.63-1.38-1.27-2.76-1.89-4.14c-2.01,1.09-4.14,2.09-6.54,3.06c1.58,3.37,3.19,6.73,4.83,10.07c4.4,8.96,9.08,17.79,14.46,26.21
		c7.38,10.14,17.32,20.67,30.72,21.17c11.51,0.39,20.93-7.59,27.76-16.03c6.57-8.62,11.82-18.1,16.62-27.79
		c1.4-2.81,2.76-5.64,4.1-8.47c1.2-2.53,2.4-5.04,3.61-7.53c-1.11-3.89-2.07-7.79-2.95-11.63
		C359.36,390.64,357.07,395.35,354.8,400.07z"/>
	<path class="st25" d="M426.59,348.48c-1.33-2.36-2.89-4.57-4.91-6.47c-0.91-0.86-1.89-1.62-2.91-2.34h0
		c-5.5-3.91-12.45-5.83-19.17-5.17c-8.3,0.81-13.49,7.12-17.54,13.82c-1.86,3.08-3.66,6.19-5.43,9.31c0.35,1.59,0.7,3.17,1.05,4.75
		c0.37,1.7,0.75,3.4,1.13,5.11c2.42-4.77,5.01-9.44,7.88-13.95c3.36-5.27,7.77-10.73,13.97-11.57c3.67-0.5,7.4,0.78,10.56,2.73
		c4.44,2.74,7.65,6.44,10.2,10.62c1.58,2.58,2.91,5.34,4.11,8.18c0.01,0.02,0.02,0.05,0.03,0.07c0.85,2,1.63,4.04,2.41,6.07
		c0.49-2.11,0.98-4.22,1.46-6.31l1.02-4.45c0.09-0.41,0.19-0.83,0.29-1.25C429.5,354.49,428.22,351.38,426.59,348.48z"/>
</g>
<path class="st25" d="M424.24,356.85c0.1-0.84,0.25-1.67,0.42-2.49C424.48,355.18,424.34,356.01,424.24,356.85z"/>
<path class="st25" d="M423.49,357c0.14,0.5,0.28,0.99,0.4,1.41C423.77,357.99,423.64,357.5,423.49,357z"/>
<g>
	<path class="st25" d="M1051.39,545.87c5.5,1.85,8.25,5.3,8.25,10.37c0,3.99-1.37,7.13-4.12,9.41c-1.42,1.16-3.05,1.99-4.9,2.48
		c-1.85,0.49-4.17,0.74-6.96,0.74h-27.51v-43.94h27.19c2.83,0,5.09,0.22,6.76,0.64c1.68,0.43,3.14,1.16,4.38,2.19
		c2.49,2.02,3.74,4.96,3.74,8.83C1058.22,540.88,1055.94,543.98,1051.39,545.87z M1024.72,542.39h17.4c2.66,0,4.55-0.36,5.67-1.1
		c1.24-0.86,1.87-2.19,1.87-3.99c0-1.85-0.59-3.17-1.77-3.96c-1.18-0.79-3.1-1.19-5.77-1.19h-17.4V542.39z M1024.72,561.65h16.82
		c3.13,0,5.41-0.43,6.83-1.29c1.68-0.94,2.51-2.51,2.51-4.7s-0.84-3.78-2.51-4.77c-1.42-0.82-3.69-1.22-6.83-1.22h-16.82V561.65z"/>
	<path class="st25" d="M1077.87,550.96v17.91h-8.57v-43.94h24.93c3.31,0,5.93,0.19,7.86,0.58c1.93,0.39,3.61,1.05,5.03,2
		c1.59,1.12,2.79,2.64,3.61,4.57c0.73,1.85,1.1,3.82,1.1,5.93c0,7.17-4.1,11.36-12.31,12.56l12.56,18.3h-9.34l-12.37-17.91H1077.87z
		 M1077.87,543.68h15.33c2.23,0,3.81-0.06,4.74-0.19c0.92-0.13,1.81-0.39,2.67-0.77c1.8-0.9,2.71-2.49,2.71-4.77
		c0-2.32-0.9-3.91-2.71-4.77c-0.82-0.43-1.69-0.71-2.61-0.84c-0.92-0.13-2.52-0.19-4.8-0.19h-15.33V543.68z"/>
	<path class="st25" d="M1152.87,557.66h-20.62l-5.61,11.21h-7.86l20.36-43.94h7.6l20.87,43.94h-9.15L1152.87,557.66z
		 M1150.55,551.66l-7.86-15.66l-7.99,15.66H1150.55z"/>
	<path class="st25" d="M1176.32,524.93h8.57v43.94h-8.57V524.93z"/>
	<path class="st25" d="M1205.7,538.78v30.09h-7.8v-43.94h7.73l28.93,29.44v-29.44h7.8v43.94h-6.96L1205.7,538.78z"/>
	<path class="st25" d="M1308.4,530.73l-3.8,6.96c-4.17-3.78-9.47-5.82-15.91-6.12c-2.32,0-4.38,0.28-6.19,0.84
		c-1.38,0.43-2.48,1.07-3.32,1.93c-0.84,0.86-1.26,1.8-1.26,2.83c0,1.63,1.12,2.75,3.35,3.35c1.03,0.3,3.26,0.62,6.7,0.97l5.09,0.52
		c2.96,0.34,5.36,0.8,7.18,1.35c1.83,0.56,3.43,1.33,4.8,2.32c1.42,1.07,2.52,2.47,3.32,4.19c0.79,1.72,1.19,3.54,1.19,5.48
		c0,3.09-0.94,5.84-2.83,8.25c-1.76,2.19-4.49,3.82-8.18,4.9c-2.79,0.77-5.78,1.16-8.96,1.16c-5.76,0-12.52-2.06-20.29-6.19
		l2.9-7.47c1.67,1.42,4.36,2.8,8.05,4.16c3.69,1.35,6.87,2.03,9.54,2.03c2.96,0,5.48-0.47,7.54-1.42c1.2-0.56,2.17-1.28,2.9-2.16
		c0.73-0.88,1.09-1.81,1.09-2.8c0-1.46-0.9-2.49-2.7-3.09c-1.12-0.43-3.37-0.84-6.77-1.22l-4.96-0.52
		c-3.31-0.34-5.63-0.67-6.96-0.97c-1.33-0.3-2.66-0.79-3.99-1.48c-1.89-0.99-3.37-2.45-4.45-4.38c-0.95-1.72-1.42-3.72-1.42-5.99
		c0-3.69,1.22-6.76,3.67-9.21c3.22-3.18,8.12-4.77,14.69-4.77c2.79,0,5.78,0.41,8.96,1.22
		C1300.56,526.19,1304.23,527.98,1308.4,530.73z"/>
	<path class="st25" d="M1339.32,532.14v36.72h-8.57v-36.72h-17.01v-7.22h42.59v7.22H1339.32z"/>
	<path class="st25" d="M1372.31,550.96v17.91h-8.57v-43.94h24.93c3.31,0,5.93,0.19,7.86,0.58c1.93,0.39,3.61,1.05,5.03,2
		c1.59,1.12,2.79,2.64,3.61,4.57c0.73,1.85,1.1,3.82,1.1,5.93c0,7.17-4.1,11.36-12.31,12.56l12.56,18.3h-9.34l-12.37-17.91H1372.31z
		 M1372.31,543.68h15.33c2.23,0,3.81-0.06,4.74-0.19c0.92-0.13,1.81-0.39,2.67-0.77c1.8-0.9,2.71-2.49,2.71-4.77
		c0-2.32-0.9-3.91-2.71-4.77c-0.82-0.43-1.69-0.71-2.61-0.84c-0.92-0.13-2.52-0.19-4.8-0.19h-15.33V543.68z"/>
	<path class="st25" d="M1425.65,549.6v12.05h31.63v7.22h-40.2v-43.94h39.43v7.22h-30.86v10.44h21.2v7.02H1425.65z"/>
	<path class="st25" d="M1497.43,557.66h-20.62l-5.61,11.21h-7.86l20.36-43.94h7.6l20.87,43.94h-9.15L1497.43,557.66z
		 M1495.11,551.66l-7.86-15.66l-7.99,15.66H1495.11z"/>
	<path class="st25" d="M1545.36,568.29l-16.69-29.77v30.35h-7.8v-43.94h10.7l14.63,26.35l15.4-26.35h9.99v43.94h-8.57v-30.35
		L1545.36,568.29z"/>
	<path class="st25" d="M1584.6,524.93h8.57v43.94h-8.57V524.93z"/>
	<path class="st25" d="M1613.98,538.78v30.09h-7.8v-43.94h7.73l28.93,29.44v-29.44h7.8v43.94h-6.96L1613.98,538.78z"/>
	<path class="st25" d="M1700.7,553.08h-14.17v-6.12h21.07v12.37v4.38c-6.7,3.95-13.92,5.93-21.65,5.93c-7,0-12.69-1.68-17.07-5.03
		c-5.54-4.25-8.31-10.16-8.31-17.72c0-7.04,2.45-12.65,7.34-16.82c4.68-3.95,10.91-5.93,18.68-5.93c2.49,0,4.83,0.23,7.02,0.68
		c2.19,0.45,4.68,1.24,7.47,2.35c1.42,0.56,2.71,1.31,3.87,2.25l-2.71,6.96c-2.58-1.72-5.28-2.95-8.12-3.7
		c-2.83-0.75-5.41-1.13-7.73-1.13c-4.73,0-8.63,1.29-11.73,3.87c-3.56,2.92-5.35,6.79-5.35,11.6c0,4.64,1.74,8.38,5.22,11.21
		c3.13,2.62,7.26,3.93,12.37,3.93c2.45,0,4.88-0.28,7.28-0.84c2.4-0.56,4.57-1.31,6.51-2.25V553.08z"/>
	<path class="st25" d="M1745.21,561.65h30.41v7.22h-38.98v-43.94h8.57V561.65z"/>
	<path class="st25" d="M1813.51,557.66h-20.62l-5.61,11.21h-7.86l20.36-43.94h7.6l20.87,43.94h-9.15L1813.51,557.66z
		 M1811.19,551.66l-7.86-15.66l-7.99,15.66H1811.19z"/>
	<path class="st25" d="M1858.22,550.5v18.36h-8.57V550.5l-17.72-25.58h10.12l11.98,17.33l12.24-17.33h9.6L1858.22,550.5z"/>
	<path class="st25" d="M1892.56,549.6v12.05h31.63v7.22h-40.2v-43.94h39.43v7.22h-30.86v10.44h21.2v7.02H1892.56z"/>
	<path class="st25" d="M1942.69,550.96v17.91h-8.57v-43.94h24.93c3.31,0,5.93,0.19,7.86,0.58c1.93,0.39,3.61,1.05,5.03,2
		c1.59,1.12,2.79,2.64,3.61,4.57c0.73,1.85,1.1,3.82,1.1,5.93c0,7.17-4.1,11.36-12.31,12.56l12.56,18.3h-9.34l-12.37-17.91H1942.69z
		 M1942.69,543.68h15.33c2.23,0,3.81-0.06,4.74-0.19c0.92-0.13,1.81-0.39,2.67-0.77c1.8-0.9,2.71-2.49,2.71-4.77
		c0-2.32-0.9-3.91-2.71-4.77c-0.82-0.43-1.69-0.71-2.61-0.84c-0.92-0.13-2.52-0.19-4.8-0.19h-15.33V543.68z"/>
</g>
<g>
	<path class="st26" d="M877.4,375.43c-7.17,0.01-14.33,0.03-21.5,0.04c-1.5,0-3.01,0.01-4.51,0.01c-3.01,0.01-6.02,0.01-9.03,0.02
		c-0.92,0-1.84,0-2.76,0.01c-0.75,0-1.51-0.02-2.26-0.02c-1.67,0-3.34,0-5.02-0.04c-7.18-0.18-14.34-0.9-20.93-3.65
		c-5.81-2.43-10.77-6.3-14.95-11c-1.07-1.21-2.1-2.47-3.07-3.77c-1.9-2.56-3.62-5.29-5.13-8.12c-0.88-1.63-1.68-3.3-2.44-4.98
		c-0.31-0.7-0.62-1.4-0.91-2.1c-5.23-12.65-7.71-26.25-12.05-39.23c-2.31-6.92-5.25-13.81-10.23-19.14
		c-4.91-5.26-12.15-8.78-19.25-7.75c-0.09,0.01-0.19,0.02-0.28,0.03c-9.97,1.61-16.47,11.25-20.62,20.46
		c-5.81,12.89-9.42,26.56-12.46,40.33c-0.71,3.21-1.38,6.42-2.04,9.63c-0.23,1.12-0.46,2.23-0.69,3.35
		c-0.51,2.49-1.04,4.98-1.58,7.45c-0.62,2.85-1.27,5.69-1.94,8.52c-0.74,3.14-1.5,6.26-2.3,9.38c-1.91,7.48-4.01,14.92-6.34,22.33
		c0,0.01-0.01,0.02-0.01,0.03c-0.63,2.01-1.28,4.01-1.94,6.02c-0.64,1.91-1.29,3.82-1.95,5.72c-2.28,5.96-5.13,11.82-9.51,16.47
		c-6.13,6.51-15.75,10.53-23.75,4.85c-10.12-7.18-14.77-19.43-19.02-30.87c-0.65-1.74-1.28-3.45-1.93-5.13
		c-2.91-7.57-5.65-15.2-8.21-22.9c-0.2-0.61-0.4-1.24-0.59-1.86c-0.81-2.59-1.57-5.22-2.35-7.86c-1.26-4.28-2.6-8.54-4.43-12.49
		c-0.05-0.1-0.09-0.2-0.14-0.3c-0.95-2.06-1.89-4.24-2.89-6.44c-3.76-8.24-8.42-16.64-17.7-18.89c-0.06-0.01-0.12-0.02-0.18-0.03
		c-5.65-1.29-11.71,0.63-16.32,4.15c-1.58,1.21-3,2.6-4.3,4.1c-2.53,2.91-4.58,6.27-6.32,9.72c-1.76,3.5-3.33,7.08-4.86,10.68
		c-0.9,2.12-1.79,4.25-2.69,6.37c-1.53,3.59-3.11,7.15-4.87,10.63c-0.06,0.12-0.11,0.23-0.17,0.35c-0.87,1.69-1.82,3.36-2.86,4.97
		c-2.8,4.32-6.27,8.18-10.7,10.72c-12.68,7.24-25.07-1-30.7-12.68c-0.41-0.85-0.8-1.71-1.19-2.56c-3.41-7.53-5.68-15.51-8.33-23.32
		c-1.19-3.49-2.48-6.95-3.96-10.33c-0.88-2-1.83-3.97-2.88-5.89c-0.19-0.35-0.36-0.71-0.56-1.06c-1.62-2.92-3.58-5.64-5.71-8.21
		c-0.46-0.56-0.92-1.11-1.4-1.65c-0.62-0.74-1.29-1.44-1.99-2.1c-10.4-9.8-28.78-10.5-38.75,0.4c-9.54,11.04-13.52,25.53-16.8,39.5
		c-0.2,0.85-0.4,1.7-0.59,2.55c-0.36,1.55-0.71,3.1-1.07,4.65c-0.93,4.04-1.86,8.1-2.85,12.16c-0.09,0.37-0.18,0.74-0.28,1.11
		c-0.01,0.03-0.01,0.05-0.02,0.08c-0.48,1.95-0.98,3.89-1.49,5.83c-1.69,6.39-3.57,12.73-5.86,18.88
		c-3.75,10.06-12.43,25.92-25.75,19.35c-2.28-1.47-4.18-3.33-5.83-5.4c-3.35-4.19-5.61-9.32-7.48-14.33
		c-2.66-7.14-4.73-14.46-6.55-21.85c-0.55-2.23-1.08-4.47-1.6-6.71c-0.79-3.45-1.55-6.91-2.31-10.37c-0.46-2.1-0.92-4.2-1.39-6.29
		c-3.4-15.23-7.19-30.34-14.18-44.42c-4.17-8.41-10.08-16.64-18.81-20.69c-0.04-0.02-0.09-0.04-0.13-0.06
		c-8.98-4.31-19.83-2.98-28.44,1.59c-8.1,4.41-13.61,12.37-17.32,20.61c-6.56,15.06-9.51,31.38-15.69,46.59
		c-1.1,2.61-2.35,5.21-3.75,7.71c-2.17,3.85-4.78,7.44-8.01,10.42c-1.03,0.95-2.1,1.86-3.26,2.67c-0.06,0.04-0.12,0.07-0.18,0.11
		c-2.09,1.3-4.25,2.51-6.49,3.55c-0.03,0.01-0.06,0.02-0.1,0.03c-1.35,0.44-2.74,0.84-4.16,1.15c-6.55,1.48-13.6,1.42-19.5-2.03
		c-7.91-4.18-11.61-13.01-19.01-17.85c-11.32-8.3-26.25-9.98-39.49-5.97c-3.71,1.12-7.3,2.68-10.63,4.68
		c-0.04,0.02-0.08,0.04-0.12,0.07c-2.67,1.39-5.39,2.7-8.15,3.93c-3.65,1.63-7.37,3.11-11.18,4.3c-0.02,0.01-0.04,0.01-0.05,0.02
		c-1.34,0.51-2.71,0.9-4.09,1.21c-3.42,0.76-6.94,1.02-10.42,1.31c-4.89,0.28-9.78,0.48-14.68,0.65
		c-21.34,0.76-42.71,0.61-64.05,0.15c-0.04,4.08-0.12,8.18-0.2,12.27c16.78-0.07,33.54,0.86,50.31,0.1
		c3.86-0.09,7.73-0.12,11.59-0.17c9.76-0.13,19.52-0.39,29.16-2.02c7.19-1.47,13.93-4.31,20.55-7.41c4.56-2.14,9.08-4.4,13.65-6.45
		c9.17-4.12,20.18-2.97,28.72,2.1c7.08,4.22,10.74,12.07,17.38,16.8c9.86,7.74,23.52,9.36,35.32,5.64c0.5-0.16,0.99-0.31,1.48-0.48
		c0.85-0.31,1.7-0.63,2.54-0.97c2.27-0.9,4.48-1.93,6.62-3.1c0.28-0.16,0.58-0.3,0.86-0.46c0.95-0.6,1.86-1.25,2.75-1.93
		c3.15-2.4,5.93-5.26,8.38-8.37c1.06-1.34,2.06-2.73,2.99-4.16c1.11-1.7,2.14-3.46,3.08-5.25c2.57-4.79,4.6-9.79,6.37-14.9
		c5.06-14.59,7.97-30,15.25-43.72c4.24-8.37,13.75-14.03,23.12-12.35c0.47,0.08,0.95,0.17,1.42,0.3
		c8.15,2.5,12.64,10.45,16.06,17.68c7.7,16.28,11.36,34.67,15.34,52.26c0.1,0.44,0.2,0.88,0.3,1.33c0.48,2.15,0.96,4.33,1.44,6.53
		c0.86,3.89,1.75,7.84,2.75,11.77c0.54,2.1,1.11,4.19,1.72,6.26c2.05,6.92,4.6,13.64,8.16,19.73c1.14,1.96,2.39,3.85,3.75,5.66
		c1.83,2.43,3.89,4.71,6.2,6.68c0.06,0.05,0.13,0.09,0.19,0.14c9.21,7.68,23.51,7.14,32.62-0.47c7.56-6.44,12.45-15.65,15.33-25.04
		c0.4-1.32,0.78-2.64,1.17-3.96c0.36-1.22,0.73-2.43,1.08-3.65c0.02-0.08,0.05-0.16,0.07-0.23c0.19-0.67,0.38-1.35,0.57-2.02
		c1.06-3.73,2.09-7.47,3.09-11.22c0.6-2.24,1.19-4.48,1.77-6.72c0.48-1.85,0.96-3.7,1.43-5.55c2.68-10.53,4.32-22.11,8.81-32.06
		c2.41-5.33,4.84-11.09,9.69-14.7c5.25-3.63,12.7-2.95,17.73,0.79c2.6,1.63,4.57,3.94,6.2,6.48c1.11,1.72,2.07,3.55,2.96,5.37
		c0.02,0.05,0.05,0.1,0.07,0.15c2.05,4.34,3.93,8.77,5.55,13.3c0.16,0.45,0.33,0.89,0.49,1.34c0.74,2.16,1.46,4.39,2.18,6.66
		c4.73,14.88,9.69,31.34,24.43,38.67c10.24,5.09,21.78,4.17,31.5-1.61c3.06-1.82,5.67-3.97,8-6.35c1.18-1.21,2.3-2.47,3.33-3.79
		c2.08-2.67,3.88-5.55,5.51-8.56c1.01-1.88,1.95-3.81,2.85-5.77c3.8-8.26,6.86-17.05,11.12-24.87c0.38-0.69,0.77-1.41,1.17-2.12
		c2.17-3.82,4.85-7.69,8.99-8.7c0.64-0.15,1.3-0.25,2.01-0.26c0.7-0.01,1.43-0.01,2.03,0.35c0.41,0.24,0.71,0.61,1.01,0.98
		c4.03,5.01,6.89,10.58,9.33,16.52c1.39,3.37,2.66,6.79,3.86,10.25c0.85,2.45,1.67,4.92,2.48,7.39c1.34,4.15,2.63,8.32,3.94,12.49
		c0.73,2.34,1.47,4.67,2.23,7c1.47,4.54,3.02,9.04,4.73,13.48c3.31,8.61,7.22,16.94,12.44,24.65c5.84,8.61,14.72,16.36,25.58,16.89
		c10.84,0.87,21.38-4.95,27.77-13.51c4.52-5.92,7.9-12.52,10.66-19.39c0.01-0.02,0.02-0.04,0.02-0.05
		c1.64-4.08,3.07-8.25,4.36-12.45c0.31-1.01,0.62-2.02,0.92-3.03c0.47-1.61,0.93-3.22,1.38-4.83c1.63-5.84,3.14-11.71,4.57-17.61
		c0.76-3.12,1.5-6.24,2.22-9.37c1.38-5.97,2.72-11.96,4.07-17.94c1.01-4.47,2-8.93,3.04-13.37c2.85-12.23,6.1-24.27,11.44-35.75
		c1.37-2.94,3.18-6.09,5.62-8.07c1.39-1.13,2.98-1.88,4.82-1.99c5.74-0.36,9.65,5.59,11.89,10.89c6.44,15.27,9.7,31.72,15.92,47.09
		c1.75,4.31,3.81,8.58,6.19,12.65c0.9,1.55,1.85,3.06,2.85,4.54c1.74,2.56,3.62,5,5.66,7.27c1.06,1.18,2.17,2.31,3.32,3.4
		c3.95,3.72,8.4,6.83,13.43,9.02c10.71,4.66,22.79,4.71,34.47,4.69c9.11-0.02,18.21-0.04,27.32-0.06
		c6.51-0.01,13.02-0.03,19.54-0.04c25.96-0.05,51.92-0.11,77.88-0.16c0.07-3.98,0.13-7.96,0.2-11.94c-25,0.05-50.01,0.09-75.01,0.14
		C885.39,375.41,881.4,375.42,877.4,375.43z"/>
	<path class="st26" d="M1271.64,317.49c32.84-13.63,49.26-35.94,49.26-66.92c0-27.88-8.99-49.1-26.95-63.67
		c-8.99-7.44-19.52-12.7-31.6-15.8c-12.08-3.09-28.35-4.65-48.79-4.65h-196.11V483.4h198.43c20.14,0,36.87-1.78,50.19-5.34
		c13.32-3.56,25.09-9.53,35.32-17.89c19.82-16.42,29.74-39.04,29.74-67.85C1331.13,355.76,1311.3,330.82,1271.64,317.49z
		 M1079.25,218.51h125.47c19.21,0,33.07,2.87,41.59,8.6c8.52,5.74,12.78,15.26,12.78,28.58c0,13.01-4.49,22.62-13.48,28.81
		c-8.06,5.27-21.69,7.9-40.89,7.9h-125.47V218.51z M1249.8,422.05c-10.22,6.2-26.65,9.29-49.26,9.29h-121.29v-86.44h121.29
		c22.61,0,39.04,2.95,49.26,8.83c12.08,7.13,18.12,18.59,18.12,34.39C1267.93,403.93,1261.89,415.24,1249.8,422.05z"/>
	<path class="st26" d="M1621.59,316.1c-9.92-7.12-21.46-12.7-34.62-16.73c-13.17-4.02-30.44-7.28-51.82-9.76l-36.71-3.72
		c-24.79-2.48-40.9-4.8-48.33-6.97c-16.11-4.33-24.17-12.39-24.17-24.16c0-7.44,3.02-14.25,9.06-20.45
		c6.04-6.19,14.01-10.84,23.93-13.94c13.01-4.02,27.88-6.04,44.61-6.04c46.47,2.17,84.73,16.89,114.78,44.15l27.42-50.19
		c-30.05-19.82-56.54-32.68-79.47-38.57c-22.93-5.88-44.46-8.83-64.6-8.83c-47.4,0-82.72,11.47-105.96,34.39
		c-17.66,17.66-26.49,39.81-26.49,66.45c0,16.42,3.41,30.83,10.22,43.22c7.74,13.94,18.43,24.48,32.07,31.6
		c9.6,4.96,19.21,8.52,28.81,10.69c9.6,2.17,26.33,4.49,50.19,6.97l35.78,3.72c24.47,2.79,40.73,5.74,48.79,8.83
		c13.01,4.34,19.52,11.78,19.52,22.31c0,7.13-2.64,13.87-7.9,20.22c-5.27,6.35-12.24,11.54-20.91,15.57
		c-14.87,6.82-32.99,10.22-54.37,10.22c-19.21,0-42.14-4.88-68.78-14.64c-26.65-9.76-46.01-19.75-58.09-29.97l-20.91,53.91
		c56.07,29.74,104.87,44.61,146.39,44.61c22.92,0,44.45-2.79,64.6-8.36c26.64-7.74,46.31-19.52,59.02-35.32
		c13.63-17.35,20.45-37.18,20.45-59.48c0-13.94-2.87-27.11-8.6-39.5C1639.79,333.92,1631.82,323.84,1621.59,316.1z"/>
	<polygon class="st26" points="1757.55,431.35 1757.55,166.46 1695.74,166.46 1695.74,483.4 1976.9,483.4 1976.9,431.35 	"/>
</g>
</svg>
